%TF.GenerationSoftware,KiCad,Pcbnew,7.0.1*%
%TF.CreationDate,2023-04-17T02:54:27-04:00*%
%TF.ProjectId,DesktopSensorHub,4465736b-746f-4705-9365-6e736f724875,rev?*%
%TF.SameCoordinates,Original*%
%TF.FileFunction,Copper,L1,Top*%
%TF.FilePolarity,Positive*%
%FSLAX46Y46*%
G04 Gerber Fmt 4.6, Leading zero omitted, Abs format (unit mm)*
G04 Created by KiCad (PCBNEW 7.0.1) date 2023-04-17 02:54:27*
%MOMM*%
%LPD*%
G01*
G04 APERTURE LIST*
G04 Aperture macros list*
%AMRoundRect*
0 Rectangle with rounded corners*
0 $1 Rounding radius*
0 $2 $3 $4 $5 $6 $7 $8 $9 X,Y pos of 4 corners*
0 Add a 4 corners polygon primitive as box body*
4,1,4,$2,$3,$4,$5,$6,$7,$8,$9,$2,$3,0*
0 Add four circle primitives for the rounded corners*
1,1,$1+$1,$2,$3*
1,1,$1+$1,$4,$5*
1,1,$1+$1,$6,$7*
1,1,$1+$1,$8,$9*
0 Add four rect primitives between the rounded corners*
20,1,$1+$1,$2,$3,$4,$5,0*
20,1,$1+$1,$4,$5,$6,$7,0*
20,1,$1+$1,$6,$7,$8,$9,0*
20,1,$1+$1,$8,$9,$2,$3,0*%
%AMFreePoly0*
4,1,6,1.000000,0.000000,0.500000,-0.750000,-0.500000,-0.750000,-0.500000,0.750000,0.500000,0.750000,1.000000,0.000000,1.000000,0.000000,$1*%
%AMFreePoly1*
4,1,6,0.500000,-0.750000,-0.650000,-0.750000,-0.150000,0.000000,-0.650000,0.750000,0.500000,0.750000,0.500000,-0.750000,0.500000,-0.750000,$1*%
G04 Aperture macros list end*
%TA.AperFunction,SMDPad,CuDef*%
%ADD10FreePoly0,180.000000*%
%TD*%
%TA.AperFunction,SMDPad,CuDef*%
%ADD11FreePoly1,180.000000*%
%TD*%
%TA.AperFunction,SMDPad,CuDef*%
%ADD12RoundRect,0.140000X0.170000X-0.140000X0.170000X0.140000X-0.170000X0.140000X-0.170000X-0.140000X0*%
%TD*%
%TA.AperFunction,SMDPad,CuDef*%
%ADD13R,0.600000X0.720000*%
%TD*%
%TA.AperFunction,ComponentPad*%
%ADD14C,2.000000*%
%TD*%
%TA.AperFunction,ComponentPad*%
%ADD15C,0.600000*%
%TD*%
%TA.AperFunction,ComponentPad*%
%ADD16O,1.800000X1.000000*%
%TD*%
%TA.AperFunction,ComponentPad*%
%ADD17O,2.100000X1.000000*%
%TD*%
%TA.AperFunction,ViaPad*%
%ADD18C,0.600000*%
%TD*%
%TA.AperFunction,Conductor*%
%ADD19C,0.150000*%
%TD*%
%TA.AperFunction,Conductor*%
%ADD20C,0.400000*%
%TD*%
G04 APERTURE END LIST*
D10*
%TO.P,JMP1,1*%
%TO.N,Net-(J1-SHIELD)*%
X141780000Y-74300000D03*
D11*
%TO.P,JMP1,2*%
%TO.N,GND*%
X140330000Y-74300000D03*
%TD*%
D12*
%TO.P,C3,1*%
%TO.N,+3V3*%
X113200000Y-82480000D03*
%TO.P,C3,2*%
%TO.N,GND*%
X113200000Y-81520000D03*
%TD*%
%TO.P,C4,1*%
%TO.N,Net-(U2-LED_A)*%
X111200000Y-87280000D03*
%TO.P,C4,2*%
%TO.N,GND*%
X111200000Y-86320000D03*
%TD*%
D13*
%TO.P,U2,1,SDA*%
%TO.N,Net-(U1-GPIO3)*%
X114600000Y-84345000D03*
%TO.P,U2,2,INT*%
%TO.N,Net-(U1-GPIO4)*%
X114600000Y-85315000D03*
%TO.P,U2,3,LDR*%
%TO.N,Net-(U2-LDR)*%
X114600000Y-86285000D03*
%TO.P,U2,4,LED_K*%
X114600000Y-87255000D03*
%TO.P,U2,5,LED_A*%
%TO.N,Net-(U2-LED_A)*%
X113200000Y-87255000D03*
%TO.P,U2,6,GND*%
%TO.N,GND*%
X113200000Y-86285000D03*
%TO.P,U2,7,SCL*%
%TO.N,Net-(U1-GPIO2)*%
X113200000Y-85315000D03*
%TO.P,U2,8,VCC*%
%TO.N,+3V3*%
X113200000Y-84345000D03*
%TD*%
D14*
%TO.P,SW1,1,1*%
%TO.N,GND*%
X138050000Y-89950000D03*
X138050000Y-83450000D03*
%TO.P,SW1,2,2*%
%TO.N,Net-(D1-A1)*%
X133550000Y-89950000D03*
X133550000Y-83450000D03*
%TD*%
D15*
%TO.P,U1,57,GND*%
%TO.N,GND*%
X111725000Y-76887500D03*
X113000000Y-76887500D03*
X114275000Y-76887500D03*
X111725000Y-75612500D03*
X113000000Y-75612500D03*
X114275000Y-75612500D03*
X111725000Y-74337500D03*
X113000000Y-74337500D03*
X114275000Y-74337500D03*
%TD*%
D16*
%TO.P,J1,S1,SHIELD*%
%TO.N,Net-(J1-SHIELD)*%
X144175000Y-69980000D03*
D17*
X139995000Y-69980000D03*
D16*
X144175000Y-78620000D03*
D17*
X139995000Y-78620000D03*
%TD*%
D18*
%TO.N,GND*%
X134800000Y-75580000D03*
X115600000Y-68220000D03*
X97700000Y-70550000D03*
X97700000Y-83000000D03*
X132450000Y-66550000D03*
X100550000Y-76750000D03*
X117700000Y-68170000D03*
X138250000Y-71100000D03*
X103100000Y-74100000D03*
X129500000Y-81050000D03*
X134800000Y-72570000D03*
X123600000Y-84700000D03*
X138250000Y-77500000D03*
X105050000Y-73550000D03*
X120750000Y-72600000D03*
X121850000Y-75600000D03*
X101500000Y-83000000D03*
X101550000Y-77450000D03*
X115600000Y-82350000D03*
X121850000Y-76600000D03*
X103050000Y-79450000D03*
X108500000Y-80350000D03*
X101400000Y-70500000D03*
X108400000Y-77350000D03*
X120750000Y-71600000D03*
X112000000Y-68250000D03*
X101600000Y-76050000D03*
%TO.N,+3V3*%
X113200000Y-83300000D03*
%TO.N,+1V1*%
X117750000Y-75812500D03*
X108300000Y-74300000D03*
X115050000Y-75000000D03*
X110950000Y-74950000D03*
%TO.N,Net-(U1-GPIO4)*%
X113475500Y-79950000D03*
%TO.N,Net-(U1-GPIO3)*%
X113875500Y-80700000D03*
%TO.N,Net-(U1-GPIO2)*%
X111600000Y-84850000D03*
%TD*%
D19*
%TO.N,GND*%
X111200000Y-86320000D02*
X113165000Y-86320000D01*
X113165000Y-86320000D02*
X113200000Y-86285000D01*
%TO.N,+3V3*%
X113200000Y-83300000D02*
X113200000Y-84345000D01*
X113200000Y-82480000D02*
X113200000Y-83300000D01*
%TO.N,Net-(U2-LED_A)*%
X113200000Y-87255000D02*
X111225000Y-87255000D01*
X111225000Y-87255000D02*
X111200000Y-87280000D01*
D20*
%TO.N,+1V1*%
X110950000Y-74950000D02*
X108950000Y-74950000D01*
X115862500Y-75812500D02*
X115050000Y-75000000D01*
X117750000Y-75812500D02*
X115862500Y-75812500D01*
X108950000Y-74950000D02*
X108300000Y-74300000D01*
D19*
%TO.N,Net-(U1-GPIO4)*%
X114750000Y-80832037D02*
X114750000Y-83385000D01*
X115550000Y-84815000D02*
X115050000Y-85315000D01*
X115050000Y-85315000D02*
X114600000Y-85315000D01*
X113475500Y-79950000D02*
X113867963Y-79950000D01*
X115550000Y-84185000D02*
X115550000Y-84815000D01*
X113867963Y-79950000D02*
X114750000Y-80832037D01*
X114750000Y-83385000D02*
X115550000Y-84185000D01*
%TO.N,Net-(U1-GPIO3)*%
X114600000Y-84050000D02*
X114600000Y-84345000D01*
X114200000Y-81024500D02*
X114200000Y-83650000D01*
X113875500Y-80700000D02*
X114200000Y-81024500D01*
X114200000Y-83650000D02*
X114600000Y-84050000D01*
%TO.N,Net-(U1-GPIO2)*%
X111600000Y-84850000D02*
X112065000Y-85315000D01*
X112065000Y-85315000D02*
X113200000Y-85315000D01*
%TO.N,Net-(U2-LDR)*%
X114600000Y-86285000D02*
X114600000Y-87255000D01*
%TD*%
%TA.AperFunction,Conductor*%
%TO.N,Net-(J1-SHIELD)*%
G36*
X145937500Y-68916613D02*
G01*
X145982887Y-68962000D01*
X145999500Y-69024000D01*
X145999500Y-79576000D01*
X145982887Y-79638000D01*
X145937500Y-79683387D01*
X145875500Y-79700000D01*
X138779000Y-79700000D01*
X138717000Y-79683387D01*
X138671613Y-79638000D01*
X138655000Y-79576000D01*
X138655000Y-79260734D01*
X138668515Y-79204439D01*
X138706115Y-79160416D01*
X138759602Y-79138261D01*
X138817318Y-79142803D01*
X138866681Y-79173053D01*
X138943049Y-79249421D01*
X139095696Y-79345335D01*
X139265859Y-79404877D01*
X139400071Y-79420000D01*
X139845000Y-79420000D01*
X139845000Y-78770000D01*
X140145000Y-78770000D01*
X140145000Y-79420000D01*
X140589929Y-79420000D01*
X140724140Y-79404877D01*
X140894303Y-79345335D01*
X141046950Y-79249421D01*
X141174421Y-79121950D01*
X141270335Y-78969303D01*
X141329877Y-78799141D01*
X141333161Y-78770000D01*
X142986839Y-78770000D01*
X142990122Y-78799141D01*
X143049664Y-78969303D01*
X143145578Y-79121950D01*
X143273049Y-79249421D01*
X143425696Y-79345335D01*
X143595859Y-79404877D01*
X143730071Y-79420000D01*
X144025000Y-79420000D01*
X144025000Y-78770000D01*
X144325000Y-78770000D01*
X144325000Y-79420000D01*
X144619929Y-79420000D01*
X144754140Y-79404877D01*
X144924303Y-79345335D01*
X145076950Y-79249421D01*
X145204421Y-79121950D01*
X145300335Y-78969303D01*
X145359877Y-78799141D01*
X145363161Y-78770000D01*
X144325000Y-78770000D01*
X144025000Y-78770000D01*
X142986839Y-78770000D01*
X141333161Y-78770000D01*
X140145000Y-78770000D01*
X139845000Y-78770000D01*
X139845000Y-78594000D01*
X139861613Y-78532000D01*
X139907000Y-78486613D01*
X139969000Y-78470000D01*
X141333161Y-78470000D01*
X142986838Y-78470000D01*
X144025000Y-78470000D01*
X144025000Y-77820000D01*
X144325000Y-77820000D01*
X144325000Y-78470000D01*
X145363161Y-78470000D01*
X145359877Y-78440858D01*
X145300335Y-78270696D01*
X145204421Y-78118049D01*
X145076950Y-77990578D01*
X144924303Y-77894664D01*
X144754140Y-77835122D01*
X144619929Y-77820000D01*
X144325000Y-77820000D01*
X144025000Y-77820000D01*
X143730071Y-77820000D01*
X143595859Y-77835122D01*
X143425696Y-77894664D01*
X143273049Y-77990578D01*
X143145578Y-78118049D01*
X143049664Y-78270696D01*
X142990122Y-78440858D01*
X142986838Y-78470000D01*
X141333161Y-78470000D01*
X141329877Y-78440858D01*
X141270335Y-78270696D01*
X141188196Y-78139972D01*
X141169239Y-78077478D01*
X141184662Y-78014019D01*
X141230189Y-77967197D01*
X141293190Y-77950000D01*
X141305000Y-77950000D01*
X141305000Y-70650000D01*
X141293190Y-70650000D01*
X141230189Y-70632803D01*
X141184662Y-70585981D01*
X141169239Y-70522522D01*
X141188196Y-70460028D01*
X141270335Y-70329303D01*
X141329877Y-70159141D01*
X141333161Y-70130000D01*
X142986839Y-70130000D01*
X142990122Y-70159141D01*
X143049664Y-70329303D01*
X143145578Y-70481950D01*
X143273049Y-70609421D01*
X143425696Y-70705335D01*
X143595859Y-70764877D01*
X143730071Y-70780000D01*
X144025000Y-70780000D01*
X144025000Y-70130000D01*
X144325000Y-70130000D01*
X144325000Y-70780000D01*
X144619929Y-70780000D01*
X144754140Y-70764877D01*
X144924303Y-70705335D01*
X145076950Y-70609421D01*
X145204421Y-70481950D01*
X145300335Y-70329303D01*
X145359877Y-70159141D01*
X145363161Y-70130000D01*
X144325000Y-70130000D01*
X144025000Y-70130000D01*
X142986839Y-70130000D01*
X141333161Y-70130000D01*
X139969000Y-70130000D01*
X139907000Y-70113387D01*
X139861613Y-70068000D01*
X139845000Y-70006000D01*
X139845000Y-69180000D01*
X140145000Y-69180000D01*
X140145000Y-69830000D01*
X141333161Y-69830000D01*
X142986838Y-69830000D01*
X144025000Y-69830000D01*
X144025000Y-69180000D01*
X144325000Y-69180000D01*
X144325000Y-69830000D01*
X145363161Y-69830000D01*
X145359877Y-69800858D01*
X145300335Y-69630696D01*
X145204421Y-69478049D01*
X145076950Y-69350578D01*
X144924303Y-69254664D01*
X144754140Y-69195122D01*
X144619929Y-69180000D01*
X144325000Y-69180000D01*
X144025000Y-69180000D01*
X143730071Y-69180000D01*
X143595859Y-69195122D01*
X143425696Y-69254664D01*
X143273049Y-69350578D01*
X143145578Y-69478049D01*
X143049664Y-69630696D01*
X142990122Y-69800858D01*
X142986838Y-69830000D01*
X141333161Y-69830000D01*
X141329877Y-69800858D01*
X141270335Y-69630696D01*
X141174421Y-69478049D01*
X141046950Y-69350578D01*
X140894303Y-69254664D01*
X140724140Y-69195122D01*
X140589929Y-69180000D01*
X140145000Y-69180000D01*
X139845000Y-69180000D01*
X139400071Y-69180000D01*
X139265859Y-69195122D01*
X139095696Y-69254664D01*
X138943049Y-69350578D01*
X138866681Y-69426947D01*
X138817318Y-69457197D01*
X138759602Y-69461739D01*
X138706115Y-69439584D01*
X138668515Y-69395561D01*
X138655000Y-69339266D01*
X138655000Y-69024000D01*
X138671613Y-68962000D01*
X138717000Y-68916613D01*
X138779000Y-68900000D01*
X145875500Y-68900000D01*
X145937500Y-68916613D01*
G37*
%TD.AperFunction*%
%TD*%
%TA.AperFunction,Conductor*%
%TO.N,GND*%
G36*
X144003234Y-63350712D02*
G01*
X144254517Y-63367181D01*
X144267342Y-63368870D01*
X144511150Y-63417366D01*
X144523650Y-63420715D01*
X144636824Y-63459133D01*
X144759033Y-63500618D01*
X144770996Y-63505574D01*
X144993929Y-63615512D01*
X145005145Y-63621987D01*
X145211824Y-63760086D01*
X145222097Y-63767969D01*
X145408981Y-63931861D01*
X145418138Y-63941018D01*
X145582030Y-64127902D01*
X145589913Y-64138175D01*
X145728012Y-64344854D01*
X145734487Y-64356070D01*
X145844425Y-64579003D01*
X145849381Y-64590966D01*
X145929282Y-64826344D01*
X145932634Y-64838853D01*
X145981128Y-65082650D01*
X145982818Y-65095489D01*
X145999288Y-65346766D01*
X145999500Y-65353241D01*
X145999500Y-68597937D01*
X145983996Y-68651129D01*
X145942340Y-68687661D01*
X145887579Y-68696090D01*
X145875501Y-68694500D01*
X145875500Y-68694500D01*
X138779000Y-68694500D01*
X138725814Y-68701501D01*
X138663812Y-68718115D01*
X138614249Y-68738645D01*
X138571690Y-68771302D01*
X138526302Y-68816690D01*
X138493645Y-68859249D01*
X138473115Y-68908812D01*
X138456501Y-68970814D01*
X138449500Y-69024000D01*
X138449500Y-69339264D01*
X138455177Y-69387236D01*
X138463964Y-69423837D01*
X138468693Y-69443533D01*
X138485413Y-69488857D01*
X138512011Y-69528663D01*
X138512257Y-69529030D01*
X138549850Y-69573044D01*
X138549853Y-69573047D01*
X138585326Y-69605838D01*
X138627474Y-69629441D01*
X138680961Y-69651596D01*
X138704283Y-69658173D01*
X138747553Y-69683593D01*
X138772799Y-69726967D01*
X138773533Y-69777147D01*
X138744500Y-69894945D01*
X138744500Y-70065057D01*
X138785209Y-70230223D01*
X138864266Y-70380854D01*
X138977069Y-70508181D01*
X138977071Y-70508183D01*
X139117070Y-70604818D01*
X139276128Y-70665140D01*
X139339378Y-70672820D01*
X139402627Y-70680500D01*
X140254609Y-70680500D01*
X140306336Y-70695089D01*
X140342819Y-70734555D01*
X140353304Y-70787267D01*
X140334702Y-70837691D01*
X140292495Y-70870963D01*
X140252761Y-70887421D01*
X140204766Y-70907302D01*
X140084548Y-70999548D01*
X139992302Y-71119766D01*
X139934312Y-71259764D01*
X139914534Y-71410000D01*
X139934312Y-71560235D01*
X139992302Y-71700233D01*
X140084548Y-71820451D01*
X140176795Y-71891234D01*
X140204767Y-71912698D01*
X140344763Y-71970686D01*
X140344764Y-71970687D01*
X140457279Y-71985500D01*
X140457280Y-71985500D01*
X140532720Y-71985500D01*
X140532721Y-71985500D01*
X140588978Y-71978093D01*
X140645236Y-71970687D01*
X140785233Y-71912698D01*
X140905451Y-71820451D01*
X140921957Y-71798939D01*
X140971762Y-71764470D01*
X141032323Y-71765461D01*
X141080972Y-71801542D01*
X141099500Y-71859207D01*
X141099500Y-73422238D01*
X141082873Y-73477153D01*
X140609905Y-74186604D01*
X140579486Y-74260187D01*
X140579486Y-74339813D01*
X140609905Y-74413395D01*
X141082873Y-75122847D01*
X141099500Y-75177762D01*
X141099500Y-76740793D01*
X141080972Y-76798458D01*
X141032323Y-76834539D01*
X140971762Y-76835530D01*
X140921958Y-76801061D01*
X140905449Y-76779547D01*
X140785233Y-76687302D01*
X140645235Y-76629312D01*
X140532721Y-76614500D01*
X140532720Y-76614500D01*
X140457280Y-76614500D01*
X140457279Y-76614500D01*
X140344764Y-76629312D01*
X140204766Y-76687302D01*
X140084548Y-76779548D01*
X139992302Y-76899766D01*
X139934312Y-77039764D01*
X139914534Y-77190000D01*
X139934312Y-77340235D01*
X139992302Y-77480233D01*
X140084548Y-77600451D01*
X140176794Y-77671234D01*
X140204767Y-77692698D01*
X140292495Y-77729036D01*
X140334702Y-77762309D01*
X140353304Y-77812733D01*
X140342819Y-77865445D01*
X140306336Y-77904911D01*
X140254609Y-77919500D01*
X139402627Y-77919500D01*
X139276129Y-77934859D01*
X139117070Y-77995182D01*
X138977069Y-78091818D01*
X138864266Y-78219145D01*
X138785209Y-78369776D01*
X138744500Y-78534943D01*
X138744500Y-78705058D01*
X138773533Y-78822851D01*
X138772801Y-78873031D01*
X138747556Y-78916404D01*
X138704285Y-78941825D01*
X138680962Y-78948403D01*
X138627476Y-78970557D01*
X138585325Y-78994162D01*
X138549850Y-79026955D01*
X138512257Y-79070969D01*
X138485412Y-79111145D01*
X138468694Y-79156463D01*
X138455177Y-79212763D01*
X138449500Y-79260736D01*
X138449500Y-79576000D01*
X138456501Y-79629185D01*
X138456502Y-79629188D01*
X138470670Y-79682065D01*
X138473115Y-79691187D01*
X138493645Y-79740750D01*
X138519447Y-79774376D01*
X138526303Y-79783310D01*
X138571690Y-79828697D01*
X138614250Y-79861355D01*
X138663812Y-79881885D01*
X138725812Y-79898498D01*
X138779000Y-79905500D01*
X145875500Y-79905500D01*
X145875501Y-79905500D01*
X145887579Y-79903910D01*
X145942340Y-79912339D01*
X145983996Y-79948871D01*
X145999500Y-80002063D01*
X145999500Y-89446759D01*
X145999288Y-89453234D01*
X145982818Y-89704510D01*
X145981128Y-89717349D01*
X145932634Y-89961146D01*
X145929282Y-89973655D01*
X145849381Y-90209033D01*
X145844425Y-90220996D01*
X145734487Y-90443929D01*
X145728012Y-90455145D01*
X145589913Y-90661824D01*
X145582030Y-90672097D01*
X145418138Y-90858981D01*
X145408981Y-90868138D01*
X145222097Y-91032030D01*
X145211824Y-91039913D01*
X145005145Y-91178012D01*
X144993929Y-91184487D01*
X144770996Y-91294425D01*
X144759033Y-91299381D01*
X144523655Y-91379282D01*
X144511146Y-91382634D01*
X144267349Y-91431128D01*
X144254510Y-91432818D01*
X144003234Y-91449288D01*
X143996759Y-91449500D01*
X138093937Y-91449500D01*
X138050000Y-91435646D01*
X138006063Y-91449500D01*
X97303241Y-91449500D01*
X97296766Y-91449288D01*
X97045489Y-91432818D01*
X97032650Y-91431128D01*
X96788853Y-91382634D01*
X96776344Y-91379282D01*
X96540966Y-91299381D01*
X96529003Y-91294425D01*
X96306070Y-91184487D01*
X96294854Y-91178012D01*
X96088175Y-91039913D01*
X96077902Y-91032030D01*
X95891018Y-90868138D01*
X95881861Y-90858981D01*
X95717969Y-90672097D01*
X95710086Y-90661824D01*
X95571987Y-90455145D01*
X95565512Y-90443929D01*
X95455574Y-90220996D01*
X95450618Y-90209033D01*
X95370717Y-89973655D01*
X95367365Y-89961146D01*
X95365148Y-89950000D01*
X132344357Y-89950000D01*
X132364885Y-90171536D01*
X132380851Y-90227652D01*
X132425772Y-90385530D01*
X132524940Y-90584686D01*
X132524941Y-90584687D01*
X132524942Y-90584689D01*
X132659019Y-90762236D01*
X132823438Y-90912124D01*
X133012599Y-91029247D01*
X133220060Y-91109618D01*
X133220063Y-91109619D01*
X133438755Y-91150500D01*
X133438757Y-91150500D01*
X133661243Y-91150500D01*
X133661245Y-91150500D01*
X133879936Y-91109619D01*
X133879937Y-91109618D01*
X133879940Y-91109618D01*
X134087401Y-91029247D01*
X134181824Y-90970783D01*
X137241348Y-90970783D01*
X137397519Y-91080135D01*
X137603670Y-91176265D01*
X137823398Y-91235141D01*
X138014691Y-91251877D01*
X138049999Y-91266502D01*
X138085309Y-91251877D01*
X138276601Y-91235141D01*
X138496329Y-91176265D01*
X138702480Y-91080135D01*
X138858650Y-90970783D01*
X138049999Y-90162132D01*
X137241348Y-90970783D01*
X134181824Y-90970783D01*
X134276562Y-90912124D01*
X134440981Y-90762236D01*
X134575058Y-90584689D01*
X134674229Y-90385528D01*
X134735115Y-90171536D01*
X134755643Y-89950000D01*
X134755643Y-89949999D01*
X136745033Y-89949999D01*
X136764858Y-90176601D01*
X136823734Y-90396329D01*
X136919864Y-90602480D01*
X137029215Y-90758650D01*
X137837866Y-89949999D01*
X138262132Y-89949999D01*
X139070783Y-90758650D01*
X139180135Y-90602480D01*
X139276265Y-90396329D01*
X139335141Y-90176601D01*
X139354966Y-89950000D01*
X139335141Y-89723398D01*
X139276265Y-89503670D01*
X139180135Y-89297519D01*
X139070783Y-89141348D01*
X138262132Y-89949999D01*
X137837866Y-89949999D01*
X137029215Y-89141348D01*
X136919864Y-89297518D01*
X136823734Y-89503670D01*
X136764858Y-89723398D01*
X136745033Y-89949999D01*
X134755643Y-89949999D01*
X134735115Y-89728464D01*
X134674229Y-89514472D01*
X134575058Y-89315311D01*
X134440981Y-89137764D01*
X134276562Y-88987876D01*
X134181821Y-88929215D01*
X137241348Y-88929215D01*
X138049999Y-89737866D01*
X138858650Y-88929215D01*
X138702480Y-88819864D01*
X138496329Y-88723734D01*
X138276601Y-88664858D01*
X138050000Y-88645033D01*
X137823398Y-88664858D01*
X137603670Y-88723734D01*
X137397518Y-88819864D01*
X137241348Y-88929215D01*
X134181821Y-88929215D01*
X134087401Y-88870753D01*
X134087399Y-88870752D01*
X133879936Y-88790380D01*
X133661245Y-88749500D01*
X133661243Y-88749500D01*
X133438757Y-88749500D01*
X133438755Y-88749500D01*
X133220063Y-88790380D01*
X133012600Y-88870752D01*
X132823436Y-88987877D01*
X132669920Y-89127826D01*
X132659019Y-89137764D01*
X132614326Y-89196946D01*
X132524940Y-89315313D01*
X132425772Y-89514469D01*
X132425771Y-89514472D01*
X132364885Y-89728464D01*
X132344357Y-89950000D01*
X95365148Y-89950000D01*
X95335411Y-89800500D01*
X95318870Y-89717342D01*
X95317181Y-89704510D01*
X95310806Y-89607250D01*
X95300712Y-89453234D01*
X95300500Y-89446759D01*
X95300500Y-88449999D01*
X96944340Y-88449999D01*
X96964936Y-88685405D01*
X97026098Y-88913667D01*
X97125963Y-89127826D01*
X97125964Y-89127827D01*
X97125965Y-89127829D01*
X97261505Y-89321401D01*
X97428599Y-89488495D01*
X97622171Y-89624035D01*
X97622172Y-89624035D01*
X97622173Y-89624036D01*
X97836332Y-89723901D01*
X97836333Y-89723901D01*
X97836337Y-89723903D01*
X98064592Y-89785063D01*
X98135168Y-89791237D01*
X98241031Y-89800500D01*
X98241034Y-89800500D01*
X98358966Y-89800500D01*
X98358969Y-89800500D01*
X98447186Y-89792781D01*
X98535408Y-89785063D01*
X98763663Y-89723903D01*
X98977829Y-89624035D01*
X99171401Y-89488495D01*
X99338495Y-89321401D01*
X99474035Y-89127830D01*
X99573903Y-88913663D01*
X99635063Y-88685408D01*
X99655659Y-88450000D01*
X99655659Y-88449999D01*
X141644340Y-88449999D01*
X141664936Y-88685405D01*
X141726098Y-88913667D01*
X141825963Y-89127826D01*
X141825964Y-89127827D01*
X141825965Y-89127829D01*
X141961505Y-89321401D01*
X142128599Y-89488495D01*
X142322171Y-89624035D01*
X142322172Y-89624035D01*
X142322173Y-89624036D01*
X142536332Y-89723901D01*
X142536333Y-89723901D01*
X142536337Y-89723903D01*
X142764592Y-89785063D01*
X142835168Y-89791237D01*
X142941031Y-89800500D01*
X142941034Y-89800500D01*
X143058966Y-89800500D01*
X143058969Y-89800500D01*
X143147186Y-89792781D01*
X143235408Y-89785063D01*
X143463663Y-89723903D01*
X143677829Y-89624035D01*
X143871401Y-89488495D01*
X144038495Y-89321401D01*
X144174035Y-89127830D01*
X144273903Y-88913663D01*
X144335063Y-88685408D01*
X144355659Y-88450000D01*
X144335063Y-88214592D01*
X144273903Y-87986337D01*
X144174035Y-87772171D01*
X144038495Y-87578599D01*
X143871401Y-87411505D01*
X143677829Y-87275965D01*
X143677828Y-87275964D01*
X143677826Y-87275963D01*
X143463667Y-87176098D01*
X143235405Y-87114936D01*
X143058969Y-87099500D01*
X143058966Y-87099500D01*
X142941034Y-87099500D01*
X142941031Y-87099500D01*
X142764594Y-87114936D01*
X142536332Y-87176098D01*
X142322173Y-87275963D01*
X142128602Y-87411502D01*
X141961502Y-87578602D01*
X141825963Y-87772172D01*
X141726098Y-87986332D01*
X141664936Y-88214594D01*
X141644340Y-88449999D01*
X99655659Y-88449999D01*
X99635063Y-88214592D01*
X99573903Y-87986337D01*
X99474035Y-87772171D01*
X99338495Y-87578599D01*
X99171401Y-87411505D01*
X98977829Y-87275965D01*
X98977828Y-87275964D01*
X98977826Y-87275963D01*
X98763667Y-87176098D01*
X98535405Y-87114936D01*
X98358969Y-87099500D01*
X98358966Y-87099500D01*
X98241034Y-87099500D01*
X98241031Y-87099500D01*
X98064594Y-87114936D01*
X97836332Y-87176098D01*
X97622173Y-87275963D01*
X97428602Y-87411502D01*
X97261502Y-87578602D01*
X97125963Y-87772172D01*
X97026098Y-87986332D01*
X96964936Y-88214594D01*
X96944340Y-88449999D01*
X95300500Y-88449999D01*
X95300500Y-86513001D01*
X110590001Y-86513001D01*
X110592787Y-86542726D01*
X110636594Y-86667918D01*
X110715360Y-86774642D01*
X110736984Y-86790601D01*
X110770796Y-86835238D01*
X110774981Y-86891078D01*
X110748202Y-86940257D01*
X110746775Y-86941683D01*
X110696028Y-87050511D01*
X110689500Y-87100098D01*
X110689500Y-87459903D01*
X110696027Y-87509485D01*
X110705826Y-87530500D01*
X110746776Y-87618316D01*
X110831684Y-87703224D01*
X110940513Y-87753972D01*
X110990099Y-87760500D01*
X111409900Y-87760499D01*
X111409903Y-87760499D01*
X111439652Y-87756582D01*
X111459487Y-87753972D01*
X111568316Y-87703224D01*
X111653224Y-87618316D01*
X111667519Y-87587659D01*
X111704050Y-87546004D01*
X111757243Y-87530500D01*
X112600500Y-87530500D01*
X112650000Y-87543763D01*
X112686237Y-87580000D01*
X112699500Y-87629500D01*
X112699500Y-87634747D01*
X112711133Y-87693231D01*
X112755447Y-87759552D01*
X112774336Y-87772173D01*
X112821769Y-87803867D01*
X112880252Y-87815500D01*
X113519747Y-87815500D01*
X113519748Y-87815500D01*
X113578231Y-87803867D01*
X113644552Y-87759552D01*
X113688867Y-87693231D01*
X113700500Y-87634748D01*
X113700500Y-86909772D01*
X113708036Y-86871886D01*
X113729497Y-86839767D01*
X113751788Y-86817476D01*
X113797090Y-86714874D01*
X113800000Y-86689795D01*
X113800000Y-86435001D01*
X113799999Y-86435000D01*
X112600002Y-86435000D01*
X112600001Y-86435001D01*
X112600001Y-86689790D01*
X112602910Y-86714874D01*
X112655688Y-86834407D01*
X112654332Y-86835005D01*
X112668326Y-86861186D01*
X112662692Y-86918386D01*
X112626229Y-86962815D01*
X112571228Y-86979500D01*
X111732047Y-86979500D01*
X111694161Y-86971964D01*
X111662043Y-86950504D01*
X111653224Y-86941685D01*
X111653224Y-86941684D01*
X111651797Y-86940257D01*
X111625018Y-86891080D01*
X111629203Y-86835238D01*
X111663016Y-86790600D01*
X111684640Y-86774640D01*
X111763406Y-86667918D01*
X111807212Y-86542727D01*
X111810000Y-86513000D01*
X111810000Y-86470001D01*
X111809999Y-86470000D01*
X110590002Y-86470000D01*
X110590001Y-86470001D01*
X110590001Y-86513001D01*
X95300500Y-86513001D01*
X95300500Y-86169999D01*
X110590000Y-86169999D01*
X110590001Y-86170000D01*
X111049999Y-86170000D01*
X111050000Y-86169999D01*
X111350000Y-86169999D01*
X111350001Y-86170000D01*
X111809998Y-86170000D01*
X111809999Y-86169999D01*
X111809999Y-86126999D01*
X111807212Y-86097273D01*
X111763405Y-85972081D01*
X111684640Y-85865359D01*
X111577918Y-85786593D01*
X111452727Y-85742787D01*
X111423000Y-85740000D01*
X111350001Y-85740000D01*
X111350000Y-85740001D01*
X111350000Y-86169999D01*
X111050000Y-86169999D01*
X111050000Y-85740002D01*
X111049999Y-85740001D01*
X110976999Y-85740001D01*
X110947273Y-85742787D01*
X110822081Y-85786594D01*
X110715359Y-85865359D01*
X110636593Y-85972081D01*
X110592787Y-86097272D01*
X110590000Y-86127000D01*
X110590000Y-86169999D01*
X95300500Y-86169999D01*
X95300500Y-84849999D01*
X111094352Y-84849999D01*
X111114834Y-84992455D01*
X111134668Y-85035886D01*
X111174623Y-85123373D01*
X111268872Y-85232143D01*
X111268874Y-85232145D01*
X111389945Y-85309952D01*
X111389947Y-85309953D01*
X111528039Y-85350500D01*
X111669876Y-85350500D01*
X111707762Y-85358036D01*
X111739880Y-85379496D01*
X111844114Y-85483730D01*
X111856425Y-85498732D01*
X111866376Y-85513624D01*
X111875368Y-85519632D01*
X111881270Y-85523576D01*
X111881271Y-85523577D01*
X111889377Y-85528993D01*
X111889378Y-85528994D01*
X111957505Y-85574515D01*
X112043616Y-85591643D01*
X112064999Y-85595897D01*
X112064999Y-85595896D01*
X112065000Y-85595897D01*
X112082571Y-85592401D01*
X112101884Y-85590500D01*
X112571228Y-85590500D01*
X112626229Y-85607185D01*
X112662692Y-85651614D01*
X112668326Y-85708814D01*
X112654332Y-85734994D01*
X112655688Y-85735593D01*
X112602909Y-85855126D01*
X112600000Y-85880205D01*
X112600000Y-86134999D01*
X112600001Y-86135000D01*
X113799998Y-86135000D01*
X113799999Y-86134999D01*
X113799999Y-85880210D01*
X113797089Y-85855125D01*
X113751787Y-85752522D01*
X113729495Y-85730230D01*
X113708036Y-85698112D01*
X113700500Y-85660227D01*
X113700500Y-84935252D01*
X113685025Y-84857454D01*
X113685955Y-84857268D01*
X113677683Y-84830000D01*
X113685955Y-84802731D01*
X113685025Y-84802546D01*
X113700500Y-84724747D01*
X113700500Y-83965253D01*
X113700500Y-83965252D01*
X113688867Y-83906769D01*
X113644552Y-83840448D01*
X113644551Y-83840447D01*
X113579145Y-83796743D01*
X113543610Y-83754479D01*
X113536240Y-83699755D01*
X113559326Y-83649599D01*
X113625377Y-83573373D01*
X113685165Y-83442457D01*
X113705647Y-83300000D01*
X113685165Y-83157543D01*
X113685165Y-83157542D01*
X113625378Y-83026627D01*
X113601958Y-82999598D01*
X113580040Y-82955811D01*
X113581788Y-82906876D01*
X113606773Y-82864766D01*
X113653224Y-82818316D01*
X113703972Y-82709487D01*
X113710500Y-82659901D01*
X113710499Y-82300100D01*
X113710499Y-82300098D01*
X113710499Y-82300096D01*
X113703972Y-82250514D01*
X113703499Y-82249500D01*
X113653224Y-82141684D01*
X113651797Y-82140257D01*
X113625018Y-82091080D01*
X113629203Y-82035238D01*
X113663016Y-81990600D01*
X113684640Y-81974640D01*
X113745845Y-81891713D01*
X113795437Y-81856177D01*
X113856445Y-81856463D01*
X113905701Y-81892461D01*
X113924500Y-81950502D01*
X113924500Y-83613116D01*
X113922598Y-83632428D01*
X113919103Y-83650000D01*
X113924394Y-83676601D01*
X113924500Y-83677131D01*
X113924500Y-83677132D01*
X113940485Y-83757495D01*
X114001375Y-83848624D01*
X114016267Y-83858574D01*
X114031269Y-83870885D01*
X114070504Y-83910120D01*
X114091964Y-83942238D01*
X114099500Y-83980124D01*
X114099500Y-84724748D01*
X114110115Y-84778115D01*
X114114975Y-84802545D01*
X114114044Y-84802730D01*
X114122316Y-84829993D01*
X114114044Y-84857269D01*
X114114975Y-84857455D01*
X114111133Y-84876768D01*
X114111133Y-84876769D01*
X114099500Y-84935252D01*
X114099500Y-85694748D01*
X114108501Y-85740001D01*
X114114975Y-85772545D01*
X114114044Y-85772730D01*
X114122316Y-85799993D01*
X114114044Y-85827269D01*
X114114975Y-85827455D01*
X114099500Y-85905253D01*
X114099500Y-86664747D01*
X114114975Y-86742545D01*
X114114044Y-86742730D01*
X114122316Y-86769993D01*
X114114044Y-86797269D01*
X114114975Y-86797455D01*
X114111133Y-86816768D01*
X114111133Y-86816769D01*
X114103175Y-86856776D01*
X114099500Y-86875253D01*
X114099500Y-87634747D01*
X114111133Y-87693231D01*
X114155447Y-87759552D01*
X114174336Y-87772173D01*
X114221769Y-87803867D01*
X114280252Y-87815500D01*
X114919747Y-87815500D01*
X114919748Y-87815500D01*
X114978231Y-87803867D01*
X115044552Y-87759552D01*
X115088867Y-87693231D01*
X115100500Y-87634748D01*
X115100500Y-86875252D01*
X115088867Y-86816769D01*
X115088866Y-86816768D01*
X115085025Y-86797454D01*
X115085956Y-86797268D01*
X115077683Y-86769993D01*
X115085955Y-86742731D01*
X115085025Y-86742546D01*
X115100500Y-86664747D01*
X115100500Y-85905253D01*
X115085025Y-85827454D01*
X115085955Y-85827268D01*
X115077683Y-85800000D01*
X115085955Y-85772731D01*
X115085025Y-85772546D01*
X115092375Y-85735593D01*
X115100500Y-85694748D01*
X115100500Y-85665515D01*
X115112189Y-85618847D01*
X115144497Y-85583200D01*
X115157496Y-85574514D01*
X115199465Y-85546471D01*
X115225622Y-85528994D01*
X115225622Y-85528993D01*
X115236342Y-85521831D01*
X115236347Y-85521827D01*
X115240711Y-85518910D01*
X115248624Y-85513624D01*
X115258578Y-85498725D01*
X115270881Y-85483733D01*
X115718733Y-85035881D01*
X115733730Y-85023574D01*
X115748624Y-85013624D01*
X115769003Y-84983126D01*
X115800991Y-84935252D01*
X115809515Y-84922495D01*
X115825500Y-84842133D01*
X115825500Y-84842132D01*
X115830897Y-84815000D01*
X115827402Y-84797429D01*
X115825500Y-84778115D01*
X115825500Y-84221884D01*
X115827402Y-84202569D01*
X115830897Y-84184999D01*
X115810944Y-84084690D01*
X115810943Y-84084686D01*
X115809515Y-84077505D01*
X115748624Y-83986376D01*
X115748623Y-83986375D01*
X115733732Y-83976425D01*
X115718730Y-83964114D01*
X115204616Y-83450000D01*
X132344357Y-83450000D01*
X132364885Y-83671536D01*
X132419643Y-83863992D01*
X132425772Y-83885530D01*
X132524940Y-84084686D01*
X132524941Y-84084687D01*
X132524942Y-84084689D01*
X132659019Y-84262236D01*
X132823438Y-84412124D01*
X133012599Y-84529247D01*
X133143956Y-84580135D01*
X133220063Y-84609619D01*
X133438755Y-84650500D01*
X133438757Y-84650500D01*
X133661243Y-84650500D01*
X133661245Y-84650500D01*
X133879936Y-84609619D01*
X133879937Y-84609618D01*
X133879940Y-84609618D01*
X134087401Y-84529247D01*
X134181824Y-84470783D01*
X137241348Y-84470783D01*
X137397519Y-84580135D01*
X137603670Y-84676265D01*
X137823398Y-84735141D01*
X138050000Y-84754966D01*
X138276601Y-84735141D01*
X138496329Y-84676265D01*
X138702480Y-84580135D01*
X138858650Y-84470783D01*
X138049999Y-83662132D01*
X137241348Y-84470783D01*
X134181824Y-84470783D01*
X134276562Y-84412124D01*
X134440981Y-84262236D01*
X134575058Y-84084689D01*
X134674229Y-83885528D01*
X134735115Y-83671536D01*
X134755643Y-83450000D01*
X134755643Y-83449999D01*
X136745033Y-83449999D01*
X136764858Y-83676601D01*
X136823734Y-83896329D01*
X136919864Y-84102480D01*
X137029215Y-84258650D01*
X137837866Y-83449999D01*
X138262132Y-83449999D01*
X139070783Y-84258650D01*
X139180135Y-84102480D01*
X139276265Y-83896329D01*
X139335141Y-83676601D01*
X139354966Y-83449999D01*
X139335141Y-83223398D01*
X139276265Y-83003670D01*
X139180135Y-82797519D01*
X139070783Y-82641348D01*
X138262132Y-83449999D01*
X137837866Y-83449999D01*
X137029215Y-82641348D01*
X136919864Y-82797518D01*
X136823734Y-83003670D01*
X136764858Y-83223398D01*
X136745033Y-83449999D01*
X134755643Y-83449999D01*
X134735115Y-83228464D01*
X134674229Y-83014472D01*
X134575058Y-82815311D01*
X134440981Y-82637764D01*
X134276562Y-82487876D01*
X134181821Y-82429215D01*
X137241348Y-82429215D01*
X138049999Y-83237866D01*
X138858650Y-82429215D01*
X138702480Y-82319864D01*
X138496329Y-82223734D01*
X138276601Y-82164858D01*
X138049999Y-82145033D01*
X137823398Y-82164858D01*
X137603670Y-82223734D01*
X137397518Y-82319864D01*
X137241348Y-82429215D01*
X134181821Y-82429215D01*
X134087401Y-82370753D01*
X134087399Y-82370752D01*
X133879936Y-82290380D01*
X133661245Y-82249500D01*
X133661243Y-82249500D01*
X133438757Y-82249500D01*
X133438755Y-82249500D01*
X133220063Y-82290380D01*
X133012600Y-82370752D01*
X132823436Y-82487877D01*
X132659020Y-82637763D01*
X132659019Y-82637764D01*
X132614326Y-82696946D01*
X132524940Y-82815313D01*
X132425772Y-83014469D01*
X132425771Y-83014472D01*
X132364885Y-83228464D01*
X132344357Y-83450000D01*
X115204616Y-83450000D01*
X115054496Y-83299880D01*
X115033036Y-83267762D01*
X115025500Y-83229876D01*
X115025500Y-80868921D01*
X115027402Y-80849609D01*
X115028824Y-80842457D01*
X115030897Y-80832037D01*
X115025500Y-80804904D01*
X115009515Y-80724542D01*
X114948624Y-80633413D01*
X114948623Y-80633412D01*
X114933732Y-80623462D01*
X114918730Y-80611151D01*
X114088848Y-79781269D01*
X114076537Y-79766267D01*
X114066586Y-79751375D01*
X114051692Y-79741423D01*
X114017428Y-79718528D01*
X113975456Y-79690483D01*
X113933135Y-79682065D01*
X113902694Y-79670556D01*
X113877632Y-79649801D01*
X113806628Y-79567857D01*
X113806627Y-79567856D01*
X113806625Y-79567854D01*
X113685554Y-79490047D01*
X113547461Y-79449500D01*
X113403539Y-79449500D01*
X113265445Y-79490047D01*
X113144374Y-79567854D01*
X113050122Y-79676628D01*
X112990334Y-79807544D01*
X112969852Y-79950000D01*
X112990334Y-80092455D01*
X112990335Y-80092457D01*
X113050123Y-80223373D01*
X113144372Y-80332143D01*
X113144374Y-80332145D01*
X113265445Y-80409953D01*
X113307750Y-80422374D01*
X113325375Y-80427549D01*
X113372303Y-80457706D01*
X113395477Y-80508447D01*
X113390483Y-80543184D01*
X113392360Y-80543454D01*
X113369852Y-80700000D01*
X113390473Y-80843422D01*
X113386415Y-80888775D01*
X113362485Y-80927514D01*
X113350000Y-80939999D01*
X113350000Y-81571000D01*
X113336737Y-81620500D01*
X113300500Y-81656737D01*
X113251000Y-81670000D01*
X112590002Y-81670000D01*
X112590001Y-81670001D01*
X112590001Y-81713001D01*
X112592787Y-81742726D01*
X112636594Y-81867918D01*
X112715360Y-81974642D01*
X112736984Y-81990601D01*
X112770796Y-82035238D01*
X112774981Y-82091078D01*
X112748202Y-82140257D01*
X112746775Y-82141683D01*
X112696028Y-82250511D01*
X112689500Y-82300098D01*
X112689500Y-82659903D01*
X112696027Y-82709485D01*
X112696028Y-82709487D01*
X112746776Y-82818316D01*
X112793227Y-82864767D01*
X112818212Y-82906877D01*
X112819960Y-82955812D01*
X112798042Y-82999599D01*
X112774621Y-83026628D01*
X112714834Y-83157542D01*
X112694352Y-83300000D01*
X112714834Y-83442455D01*
X112774623Y-83573373D01*
X112840671Y-83649597D01*
X112863759Y-83699756D01*
X112856389Y-83754479D01*
X112820855Y-83796743D01*
X112755447Y-83840448D01*
X112711133Y-83906768D01*
X112711132Y-83906769D01*
X112711133Y-83906769D01*
X112699500Y-83965252D01*
X112699500Y-84724748D01*
X112710115Y-84778115D01*
X112714975Y-84802545D01*
X112714044Y-84802730D01*
X112722316Y-84829993D01*
X112714044Y-84857269D01*
X112714975Y-84857455D01*
X112699500Y-84935252D01*
X112699500Y-84940500D01*
X112686237Y-84990000D01*
X112650000Y-85026237D01*
X112600500Y-85039500D01*
X112220124Y-85039500D01*
X112182238Y-85031964D01*
X112150120Y-85010504D01*
X112126102Y-84986486D01*
X112102172Y-84947746D01*
X112098114Y-84902392D01*
X112105647Y-84849999D01*
X112087639Y-84724748D01*
X112085165Y-84707543D01*
X112025377Y-84576627D01*
X111931128Y-84467857D01*
X111931127Y-84467856D01*
X111931125Y-84467854D01*
X111810054Y-84390047D01*
X111671961Y-84349500D01*
X111528039Y-84349500D01*
X111389945Y-84390047D01*
X111268874Y-84467854D01*
X111174622Y-84576628D01*
X111114834Y-84707544D01*
X111094352Y-84849999D01*
X95300500Y-84849999D01*
X95300500Y-81369999D01*
X112590000Y-81369999D01*
X112590001Y-81370000D01*
X113049999Y-81370000D01*
X113050000Y-81369999D01*
X113050000Y-80940002D01*
X113049999Y-80940001D01*
X112976999Y-80940001D01*
X112947273Y-80942787D01*
X112822081Y-80986594D01*
X112715359Y-81065359D01*
X112636593Y-81172081D01*
X112592787Y-81297272D01*
X112590000Y-81327000D01*
X112590000Y-81369999D01*
X95300500Y-81369999D01*
X95300500Y-77407527D01*
X111417103Y-77407527D01*
X111417104Y-77407528D01*
X111422409Y-77411598D01*
X111568367Y-77472056D01*
X111725000Y-77492676D01*
X111881632Y-77472056D01*
X112027589Y-77411599D01*
X112032894Y-77407527D01*
X112692103Y-77407527D01*
X112692104Y-77407528D01*
X112697409Y-77411598D01*
X112843367Y-77472056D01*
X113000000Y-77492676D01*
X113156632Y-77472056D01*
X113302589Y-77411599D01*
X113307894Y-77407527D01*
X113967103Y-77407527D01*
X113967104Y-77407528D01*
X113972409Y-77411598D01*
X114118367Y-77472056D01*
X114275000Y-77492676D01*
X114431632Y-77472056D01*
X114577589Y-77411599D01*
X114582894Y-77407527D01*
X114274999Y-77099632D01*
X113967103Y-77407527D01*
X113307894Y-77407527D01*
X112999999Y-77099632D01*
X112692103Y-77407527D01*
X112032894Y-77407527D01*
X111724999Y-77099632D01*
X111417103Y-77407527D01*
X95300500Y-77407527D01*
X95300500Y-76887500D01*
X111119823Y-76887500D01*
X111140443Y-77044132D01*
X111200901Y-77190089D01*
X111204971Y-77195395D01*
X111512867Y-76887500D01*
X111512866Y-76887499D01*
X111937132Y-76887499D01*
X112245027Y-77195394D01*
X112249099Y-77190089D01*
X112271036Y-77137128D01*
X112307498Y-77092698D01*
X112362500Y-77076013D01*
X112417502Y-77092698D01*
X112453964Y-77137128D01*
X112475901Y-77190089D01*
X112479971Y-77195395D01*
X112787867Y-76887500D01*
X112787866Y-76887499D01*
X113212132Y-76887499D01*
X113520027Y-77195394D01*
X113524099Y-77190089D01*
X113546036Y-77137128D01*
X113582498Y-77092698D01*
X113637500Y-77076013D01*
X113692502Y-77092698D01*
X113728964Y-77137128D01*
X113750901Y-77190089D01*
X113754971Y-77195395D01*
X114062867Y-76887500D01*
X114062866Y-76887499D01*
X114487132Y-76887499D01*
X114795027Y-77195394D01*
X114799099Y-77190089D01*
X114859556Y-77044132D01*
X114880176Y-76887500D01*
X114859556Y-76730867D01*
X114799099Y-76584912D01*
X114795025Y-76579605D01*
X114487132Y-76887499D01*
X114062866Y-76887499D01*
X113754972Y-76579605D01*
X113754971Y-76579605D01*
X113750901Y-76584909D01*
X113728964Y-76637872D01*
X113692501Y-76682302D01*
X113637500Y-76698986D01*
X113582499Y-76682301D01*
X113546036Y-76637872D01*
X113524099Y-76584911D01*
X113520025Y-76579605D01*
X113212132Y-76887499D01*
X112787866Y-76887499D01*
X112479972Y-76579605D01*
X112479971Y-76579605D01*
X112475901Y-76584909D01*
X112453964Y-76637872D01*
X112417501Y-76682302D01*
X112362500Y-76698986D01*
X112307499Y-76682301D01*
X112271036Y-76637872D01*
X112249099Y-76584911D01*
X112245025Y-76579605D01*
X111937132Y-76887499D01*
X111512866Y-76887499D01*
X111204972Y-76579605D01*
X111204971Y-76579605D01*
X111200901Y-76584910D01*
X111140443Y-76730867D01*
X111119823Y-76887500D01*
X95300500Y-76887500D01*
X95300500Y-76132527D01*
X111417103Y-76132527D01*
X111417104Y-76132528D01*
X111422409Y-76136598D01*
X111475371Y-76158536D01*
X111519801Y-76194998D01*
X111536486Y-76250000D01*
X111519802Y-76305001D01*
X111475372Y-76341464D01*
X111422409Y-76363401D01*
X111417105Y-76367471D01*
X111725000Y-76675367D01*
X112032895Y-76367472D01*
X112032895Y-76367471D01*
X112027589Y-76363401D01*
X111974628Y-76341464D01*
X111930198Y-76305002D01*
X111913513Y-76250000D01*
X111930198Y-76194998D01*
X111974628Y-76158536D01*
X112027589Y-76136599D01*
X112032894Y-76132527D01*
X112692103Y-76132527D01*
X112692104Y-76132528D01*
X112697409Y-76136598D01*
X112750371Y-76158536D01*
X112794801Y-76194998D01*
X112811486Y-76250000D01*
X112794802Y-76305001D01*
X112750372Y-76341464D01*
X112697409Y-76363401D01*
X112692104Y-76367471D01*
X113000000Y-76675367D01*
X113307895Y-76367472D01*
X113307895Y-76367471D01*
X113302589Y-76363401D01*
X113249628Y-76341464D01*
X113205198Y-76305002D01*
X113188513Y-76250000D01*
X113205198Y-76194998D01*
X113249628Y-76158536D01*
X113302589Y-76136599D01*
X113307894Y-76132527D01*
X113967103Y-76132527D01*
X113967104Y-76132528D01*
X113972409Y-76136598D01*
X114025371Y-76158536D01*
X114069801Y-76194998D01*
X114086486Y-76250000D01*
X114069802Y-76305001D01*
X114025372Y-76341464D01*
X113972409Y-76363401D01*
X113967105Y-76367471D01*
X114275000Y-76675367D01*
X114582895Y-76367472D01*
X114582895Y-76367471D01*
X114577589Y-76363401D01*
X114524628Y-76341464D01*
X114480198Y-76305002D01*
X114463513Y-76250000D01*
X114480198Y-76194998D01*
X114524628Y-76158536D01*
X114577589Y-76136599D01*
X114582894Y-76132527D01*
X114274999Y-75824632D01*
X113967103Y-76132527D01*
X113307894Y-76132527D01*
X112999999Y-75824632D01*
X112692103Y-76132527D01*
X112032894Y-76132527D01*
X111724999Y-75824632D01*
X111417103Y-76132527D01*
X95300500Y-76132527D01*
X95300500Y-74300000D01*
X107794352Y-74300000D01*
X107814834Y-74442455D01*
X107814835Y-74442457D01*
X107874623Y-74573373D01*
X107968872Y-74682143D01*
X107968874Y-74682145D01*
X108089945Y-74759952D01*
X108089947Y-74759953D01*
X108212383Y-74795903D01*
X108254496Y-74820889D01*
X108689091Y-75255484D01*
X108689094Y-75255486D01*
X108711658Y-75278050D01*
X108733151Y-75289001D01*
X108746387Y-75297112D01*
X108765909Y-75311295D01*
X108765910Y-75311295D01*
X108765911Y-75311296D01*
X108788861Y-75318752D01*
X108803201Y-75324693D01*
X108824696Y-75335646D01*
X108848534Y-75339421D01*
X108863611Y-75343041D01*
X108886567Y-75350500D01*
X108918481Y-75350500D01*
X109013433Y-75350500D01*
X110618367Y-75350500D01*
X110671890Y-75366215D01*
X110718678Y-75396284D01*
X110739947Y-75409953D01*
X110878039Y-75450500D01*
X111028263Y-75450500D01*
X111081456Y-75466004D01*
X111117987Y-75507661D01*
X111126416Y-75562422D01*
X111119823Y-75612499D01*
X111140443Y-75769132D01*
X111200901Y-75915089D01*
X111204971Y-75920395D01*
X111512868Y-75612499D01*
X111937132Y-75612499D01*
X112245027Y-75920394D01*
X112249099Y-75915089D01*
X112271036Y-75862128D01*
X112307498Y-75817698D01*
X112362500Y-75801013D01*
X112417502Y-75817698D01*
X112453964Y-75862128D01*
X112475901Y-75915089D01*
X112479971Y-75920395D01*
X112787867Y-75612500D01*
X112787866Y-75612499D01*
X113212132Y-75612499D01*
X113520027Y-75920394D01*
X113524099Y-75915089D01*
X113546036Y-75862128D01*
X113582498Y-75817698D01*
X113637500Y-75801013D01*
X113692502Y-75817698D01*
X113728964Y-75862128D01*
X113750901Y-75915089D01*
X113754971Y-75920395D01*
X114062867Y-75612500D01*
X113754972Y-75304605D01*
X113754971Y-75304605D01*
X113750901Y-75309909D01*
X113728964Y-75362872D01*
X113692501Y-75407302D01*
X113637500Y-75423986D01*
X113582499Y-75407301D01*
X113546036Y-75362872D01*
X113524099Y-75309911D01*
X113520025Y-75304605D01*
X113212132Y-75612499D01*
X112787866Y-75612499D01*
X112479972Y-75304605D01*
X112479971Y-75304605D01*
X112475901Y-75309909D01*
X112453964Y-75362872D01*
X112417501Y-75407302D01*
X112362500Y-75423986D01*
X112307499Y-75407301D01*
X112271036Y-75362872D01*
X112249099Y-75309911D01*
X112245025Y-75304605D01*
X111937132Y-75612499D01*
X111512868Y-75612499D01*
X111724997Y-75400371D01*
X111725000Y-75400368D01*
X112032895Y-75092472D01*
X112032895Y-75092471D01*
X112027589Y-75088401D01*
X111974628Y-75066464D01*
X111930198Y-75030002D01*
X111913513Y-74975000D01*
X111930198Y-74919998D01*
X111974628Y-74883536D01*
X112027589Y-74861599D01*
X112032895Y-74857527D01*
X112692103Y-74857527D01*
X112692104Y-74857528D01*
X112697409Y-74861598D01*
X112750371Y-74883536D01*
X112794801Y-74919998D01*
X112811486Y-74975000D01*
X112794802Y-75030001D01*
X112750372Y-75066464D01*
X112697409Y-75088401D01*
X112692105Y-75092471D01*
X113000000Y-75400367D01*
X113307895Y-75092472D01*
X113307895Y-75092471D01*
X113302589Y-75088401D01*
X113249628Y-75066464D01*
X113205198Y-75030002D01*
X113188513Y-74975000D01*
X113205198Y-74919998D01*
X113249628Y-74883536D01*
X113302589Y-74861599D01*
X113307894Y-74857527D01*
X113967103Y-74857527D01*
X113967104Y-74857528D01*
X113972409Y-74861598D01*
X114025371Y-74883536D01*
X114069801Y-74919998D01*
X114086486Y-74975000D01*
X114069802Y-75030001D01*
X114025372Y-75066464D01*
X113972409Y-75088401D01*
X113967105Y-75092471D01*
X113967104Y-75092473D01*
X114275000Y-75400369D01*
X114275000Y-75400368D01*
X114795027Y-75920394D01*
X114799099Y-75915089D01*
X114859556Y-75769131D01*
X114879093Y-75620726D01*
X114900718Y-75570842D01*
X114945423Y-75539901D01*
X114999726Y-75537233D01*
X115047250Y-75563643D01*
X115601591Y-76117984D01*
X115601594Y-76117986D01*
X115624158Y-76140550D01*
X115645652Y-76151501D01*
X115658886Y-76159611D01*
X115678411Y-76173797D01*
X115701361Y-76181253D01*
X115715699Y-76187192D01*
X115737196Y-76198146D01*
X115761022Y-76201919D01*
X115776122Y-76205545D01*
X115799066Y-76213000D01*
X115799067Y-76213000D01*
X115830981Y-76213000D01*
X115925933Y-76213000D01*
X117418367Y-76213000D01*
X117471890Y-76228715D01*
X117539947Y-76272453D01*
X117678039Y-76313000D01*
X117821961Y-76313000D01*
X117960053Y-76272453D01*
X118064164Y-76205545D01*
X118081125Y-76194645D01*
X118081125Y-76194644D01*
X118081128Y-76194643D01*
X118175377Y-76085873D01*
X118235165Y-75954957D01*
X118255647Y-75812500D01*
X118235165Y-75670043D01*
X118175377Y-75539127D01*
X118081128Y-75430357D01*
X118081127Y-75430356D01*
X118081125Y-75430354D01*
X117960054Y-75352547D01*
X117821961Y-75312000D01*
X117678039Y-75312000D01*
X117539947Y-75352546D01*
X117471891Y-75396284D01*
X117418367Y-75412000D01*
X116069401Y-75412000D01*
X116031515Y-75404464D01*
X115999397Y-75383004D01*
X115568744Y-74952351D01*
X115550219Y-74926660D01*
X115540757Y-74896440D01*
X115535165Y-74857543D01*
X115475377Y-74726627D01*
X115381128Y-74617857D01*
X115381127Y-74617856D01*
X115381125Y-74617854D01*
X115260054Y-74540047D01*
X115121961Y-74499500D01*
X114978039Y-74499500D01*
X114971737Y-74499500D01*
X114918544Y-74483996D01*
X114882013Y-74442339D01*
X114873584Y-74387578D01*
X114880176Y-74337500D01*
X114859556Y-74180867D01*
X114799099Y-74034912D01*
X114795026Y-74029605D01*
X114275000Y-74549632D01*
X113967103Y-74857527D01*
X113307894Y-74857527D01*
X112999999Y-74549632D01*
X112692103Y-74857527D01*
X112032895Y-74857527D01*
X112032895Y-74857526D01*
X111725000Y-74549631D01*
X111725000Y-74549632D01*
X111512867Y-74337499D01*
X111937132Y-74337499D01*
X112245027Y-74645394D01*
X112249099Y-74640089D01*
X112271036Y-74587128D01*
X112307498Y-74542698D01*
X112362500Y-74526013D01*
X112417502Y-74542698D01*
X112453964Y-74587128D01*
X112475901Y-74640089D01*
X112479971Y-74645395D01*
X112787867Y-74337500D01*
X112787866Y-74337499D01*
X113212132Y-74337499D01*
X113520027Y-74645394D01*
X113524099Y-74640089D01*
X113546036Y-74587128D01*
X113582498Y-74542698D01*
X113637500Y-74526013D01*
X113692502Y-74542698D01*
X113728964Y-74587128D01*
X113750901Y-74640089D01*
X113754971Y-74645395D01*
X114062867Y-74337500D01*
X113754972Y-74029605D01*
X113754971Y-74029605D01*
X113750901Y-74034909D01*
X113728964Y-74087872D01*
X113692501Y-74132302D01*
X113637500Y-74148986D01*
X113582499Y-74132301D01*
X113546036Y-74087872D01*
X113524099Y-74034911D01*
X113520025Y-74029605D01*
X113212132Y-74337499D01*
X112787866Y-74337499D01*
X112479972Y-74029605D01*
X112479971Y-74029605D01*
X112475901Y-74034909D01*
X112453964Y-74087872D01*
X112417501Y-74132302D01*
X112362500Y-74148986D01*
X112307499Y-74132301D01*
X112271036Y-74087872D01*
X112249099Y-74034911D01*
X112245025Y-74029605D01*
X111937132Y-74337499D01*
X111512867Y-74337499D01*
X111204972Y-74029604D01*
X111204971Y-74029605D01*
X111200901Y-74034910D01*
X111140443Y-74180867D01*
X111119823Y-74337499D01*
X111119834Y-74337581D01*
X111119685Y-74338543D01*
X111118122Y-74350422D01*
X111117862Y-74350387D01*
X111111403Y-74392341D01*
X111074872Y-74433996D01*
X111021680Y-74449500D01*
X110878039Y-74449500D01*
X110739947Y-74490046D01*
X110671891Y-74533784D01*
X110618367Y-74549500D01*
X109156901Y-74549500D01*
X109119015Y-74541964D01*
X109086897Y-74520504D01*
X108818744Y-74252351D01*
X108800219Y-74226660D01*
X108790757Y-74196440D01*
X108785165Y-74157543D01*
X108725377Y-74026627D01*
X108631128Y-73917857D01*
X108631127Y-73917856D01*
X108631125Y-73917854D01*
X108510054Y-73840047D01*
X108433169Y-73817472D01*
X111417105Y-73817472D01*
X111725000Y-74125367D01*
X112032895Y-73817472D01*
X112692105Y-73817472D01*
X113000000Y-74125367D01*
X113307895Y-73817472D01*
X113967105Y-73817472D01*
X114275000Y-74125367D01*
X114582895Y-73817472D01*
X114582895Y-73817471D01*
X114577589Y-73813401D01*
X114431632Y-73752943D01*
X114275000Y-73732323D01*
X114118367Y-73752943D01*
X113972410Y-73813401D01*
X113967105Y-73817471D01*
X113967105Y-73817472D01*
X113307895Y-73817472D01*
X113307895Y-73817471D01*
X113302589Y-73813401D01*
X113156632Y-73752943D01*
X113000000Y-73732323D01*
X112843367Y-73752943D01*
X112697410Y-73813401D01*
X112692105Y-73817471D01*
X112692105Y-73817472D01*
X112032895Y-73817472D01*
X112032895Y-73817471D01*
X112027589Y-73813401D01*
X111881632Y-73752943D01*
X111725000Y-73732323D01*
X111568367Y-73752943D01*
X111422410Y-73813401D01*
X111417105Y-73817471D01*
X111417105Y-73817472D01*
X108433169Y-73817472D01*
X108371961Y-73799500D01*
X108228039Y-73799500D01*
X108089945Y-73840047D01*
X107968874Y-73917854D01*
X107874622Y-74026628D01*
X107814834Y-74157544D01*
X107794352Y-74300000D01*
X95300500Y-74300000D01*
X95300500Y-66350000D01*
X96944340Y-66350000D01*
X96964936Y-66585405D01*
X97026098Y-66813667D01*
X97125963Y-67027826D01*
X97125964Y-67027827D01*
X97125965Y-67027829D01*
X97261505Y-67221401D01*
X97428599Y-67388495D01*
X97622171Y-67524035D01*
X97622172Y-67524035D01*
X97622173Y-67524036D01*
X97836332Y-67623901D01*
X97836333Y-67623901D01*
X97836337Y-67623903D01*
X98064592Y-67685063D01*
X98135168Y-67691237D01*
X98241031Y-67700500D01*
X98241034Y-67700500D01*
X98358966Y-67700500D01*
X98358969Y-67700500D01*
X98447187Y-67692781D01*
X98535408Y-67685063D01*
X98763663Y-67623903D01*
X98977829Y-67524035D01*
X99171401Y-67388495D01*
X99338495Y-67221401D01*
X99474035Y-67027830D01*
X99573903Y-66813663D01*
X99635063Y-66585408D01*
X99655659Y-66350000D01*
X141644340Y-66350000D01*
X141664936Y-66585405D01*
X141726098Y-66813667D01*
X141825963Y-67027826D01*
X141825964Y-67027827D01*
X141825965Y-67027829D01*
X141961505Y-67221401D01*
X142128599Y-67388495D01*
X142322171Y-67524035D01*
X142322172Y-67524035D01*
X142322173Y-67524036D01*
X142536332Y-67623901D01*
X142536333Y-67623901D01*
X142536337Y-67623903D01*
X142764592Y-67685063D01*
X142835168Y-67691237D01*
X142941031Y-67700500D01*
X142941034Y-67700500D01*
X143058966Y-67700500D01*
X143058969Y-67700500D01*
X143147187Y-67692781D01*
X143235408Y-67685063D01*
X143463663Y-67623903D01*
X143677829Y-67524035D01*
X143871401Y-67388495D01*
X144038495Y-67221401D01*
X144174035Y-67027830D01*
X144273903Y-66813663D01*
X144335063Y-66585408D01*
X144355659Y-66350000D01*
X144335063Y-66114592D01*
X144273903Y-65886337D01*
X144174035Y-65672171D01*
X144038495Y-65478599D01*
X143871401Y-65311505D01*
X143677829Y-65175965D01*
X143677828Y-65175964D01*
X143677826Y-65175963D01*
X143463667Y-65076098D01*
X143235405Y-65014936D01*
X143058969Y-64999500D01*
X143058966Y-64999500D01*
X142941034Y-64999500D01*
X142941031Y-64999500D01*
X142764594Y-65014936D01*
X142536332Y-65076098D01*
X142322173Y-65175963D01*
X142128602Y-65311502D01*
X141961502Y-65478602D01*
X141825963Y-65672172D01*
X141726098Y-65886332D01*
X141664936Y-66114594D01*
X141644340Y-66350000D01*
X99655659Y-66350000D01*
X99635063Y-66114592D01*
X99573903Y-65886337D01*
X99474035Y-65672171D01*
X99338495Y-65478599D01*
X99171401Y-65311505D01*
X98977829Y-65175965D01*
X98977828Y-65175964D01*
X98977826Y-65175963D01*
X98763667Y-65076098D01*
X98535405Y-65014936D01*
X98358969Y-64999500D01*
X98358966Y-64999500D01*
X98241034Y-64999500D01*
X98241031Y-64999500D01*
X98064594Y-65014936D01*
X97836332Y-65076098D01*
X97622173Y-65175963D01*
X97428602Y-65311502D01*
X97261502Y-65478602D01*
X97125963Y-65672172D01*
X97026098Y-65886332D01*
X96964936Y-66114594D01*
X96944340Y-66350000D01*
X95300500Y-66350000D01*
X95300500Y-65353241D01*
X95300712Y-65346766D01*
X95303023Y-65311502D01*
X95317182Y-65095480D01*
X95318869Y-65082659D01*
X95367367Y-64838845D01*
X95370714Y-64826352D01*
X95450618Y-64590965D01*
X95455574Y-64579003D01*
X95565512Y-64356070D01*
X95571983Y-64344859D01*
X95710089Y-64138169D01*
X95717964Y-64127907D01*
X95881870Y-63941008D01*
X95891008Y-63931870D01*
X96077907Y-63767964D01*
X96088169Y-63760089D01*
X96294859Y-63621983D01*
X96306070Y-63615512D01*
X96529003Y-63505574D01*
X96540966Y-63500618D01*
X96776352Y-63420714D01*
X96788845Y-63417367D01*
X97032659Y-63368869D01*
X97045480Y-63367182D01*
X97296765Y-63350712D01*
X97303241Y-63350500D01*
X97365892Y-63350500D01*
X143934108Y-63350500D01*
X143996759Y-63350500D01*
X144003234Y-63350712D01*
G37*
%TD.AperFunction*%
%TD*%
M02*
