%TF.GenerationSoftware,KiCad,Pcbnew,7.0.1*%
%TF.CreationDate,2023-04-17T02:54:27-04:00*%
%TF.ProjectId,DesktopSensorHub,4465736b-746f-4705-9365-6e736f724875,rev?*%
%TF.SameCoordinates,Original*%
%TF.FileFunction,Legend,Bot*%
%TF.FilePolarity,Positive*%
%FSLAX46Y46*%
G04 Gerber Fmt 4.6, Leading zero omitted, Abs format (unit mm)*
G04 Created by KiCad (PCBNEW 7.0.1) date 2023-04-17 02:54:27*
%MOMM*%
%LPD*%
G01*
G04 APERTURE LIST*
%ADD10C,0.150000*%
%ADD11C,0.120000*%
G04 APERTURE END LIST*
D10*
%TO.C,C6*%
X136516666Y-65467380D02*
X136564285Y-65515000D01*
X136564285Y-65515000D02*
X136707142Y-65562619D01*
X136707142Y-65562619D02*
X136802380Y-65562619D01*
X136802380Y-65562619D02*
X136945237Y-65515000D01*
X136945237Y-65515000D02*
X137040475Y-65419761D01*
X137040475Y-65419761D02*
X137088094Y-65324523D01*
X137088094Y-65324523D02*
X137135713Y-65134047D01*
X137135713Y-65134047D02*
X137135713Y-64991190D01*
X137135713Y-64991190D02*
X137088094Y-64800714D01*
X137088094Y-64800714D02*
X137040475Y-64705476D01*
X137040475Y-64705476D02*
X136945237Y-64610238D01*
X136945237Y-64610238D02*
X136802380Y-64562619D01*
X136802380Y-64562619D02*
X136707142Y-64562619D01*
X136707142Y-64562619D02*
X136564285Y-64610238D01*
X136564285Y-64610238D02*
X136516666Y-64657857D01*
X135659523Y-64562619D02*
X135849999Y-64562619D01*
X135849999Y-64562619D02*
X135945237Y-64610238D01*
X135945237Y-64610238D02*
X135992856Y-64657857D01*
X135992856Y-64657857D02*
X136088094Y-64800714D01*
X136088094Y-64800714D02*
X136135713Y-64991190D01*
X136135713Y-64991190D02*
X136135713Y-65372142D01*
X136135713Y-65372142D02*
X136088094Y-65467380D01*
X136088094Y-65467380D02*
X136040475Y-65515000D01*
X136040475Y-65515000D02*
X135945237Y-65562619D01*
X135945237Y-65562619D02*
X135754761Y-65562619D01*
X135754761Y-65562619D02*
X135659523Y-65515000D01*
X135659523Y-65515000D02*
X135611904Y-65467380D01*
X135611904Y-65467380D02*
X135564285Y-65372142D01*
X135564285Y-65372142D02*
X135564285Y-65134047D01*
X135564285Y-65134047D02*
X135611904Y-65038809D01*
X135611904Y-65038809D02*
X135659523Y-64991190D01*
X135659523Y-64991190D02*
X135754761Y-64943571D01*
X135754761Y-64943571D02*
X135945237Y-64943571D01*
X135945237Y-64943571D02*
X136040475Y-64991190D01*
X136040475Y-64991190D02*
X136088094Y-65038809D01*
X136088094Y-65038809D02*
X136135713Y-65134047D01*
%TO.C,C19*%
X115967380Y-65977142D02*
X116015000Y-65929523D01*
X116015000Y-65929523D02*
X116062619Y-65786666D01*
X116062619Y-65786666D02*
X116062619Y-65691428D01*
X116062619Y-65691428D02*
X116015000Y-65548571D01*
X116015000Y-65548571D02*
X115919761Y-65453333D01*
X115919761Y-65453333D02*
X115824523Y-65405714D01*
X115824523Y-65405714D02*
X115634047Y-65358095D01*
X115634047Y-65358095D02*
X115491190Y-65358095D01*
X115491190Y-65358095D02*
X115300714Y-65405714D01*
X115300714Y-65405714D02*
X115205476Y-65453333D01*
X115205476Y-65453333D02*
X115110238Y-65548571D01*
X115110238Y-65548571D02*
X115062619Y-65691428D01*
X115062619Y-65691428D02*
X115062619Y-65786666D01*
X115062619Y-65786666D02*
X115110238Y-65929523D01*
X115110238Y-65929523D02*
X115157857Y-65977142D01*
X116062619Y-66929523D02*
X116062619Y-66358095D01*
X116062619Y-66643809D02*
X115062619Y-66643809D01*
X115062619Y-66643809D02*
X115205476Y-66548571D01*
X115205476Y-66548571D02*
X115300714Y-66453333D01*
X115300714Y-66453333D02*
X115348333Y-66358095D01*
X116062619Y-67405714D02*
X116062619Y-67596190D01*
X116062619Y-67596190D02*
X116015000Y-67691428D01*
X116015000Y-67691428D02*
X115967380Y-67739047D01*
X115967380Y-67739047D02*
X115824523Y-67834285D01*
X115824523Y-67834285D02*
X115634047Y-67881904D01*
X115634047Y-67881904D02*
X115253095Y-67881904D01*
X115253095Y-67881904D02*
X115157857Y-67834285D01*
X115157857Y-67834285D02*
X115110238Y-67786666D01*
X115110238Y-67786666D02*
X115062619Y-67691428D01*
X115062619Y-67691428D02*
X115062619Y-67500952D01*
X115062619Y-67500952D02*
X115110238Y-67405714D01*
X115110238Y-67405714D02*
X115157857Y-67358095D01*
X115157857Y-67358095D02*
X115253095Y-67310476D01*
X115253095Y-67310476D02*
X115491190Y-67310476D01*
X115491190Y-67310476D02*
X115586428Y-67358095D01*
X115586428Y-67358095D02*
X115634047Y-67405714D01*
X115634047Y-67405714D02*
X115681666Y-67500952D01*
X115681666Y-67500952D02*
X115681666Y-67691428D01*
X115681666Y-67691428D02*
X115634047Y-67786666D01*
X115634047Y-67786666D02*
X115586428Y-67834285D01*
X115586428Y-67834285D02*
X115491190Y-67881904D01*
%TO.C,C17*%
X108192857Y-80717380D02*
X108240476Y-80765000D01*
X108240476Y-80765000D02*
X108383333Y-80812619D01*
X108383333Y-80812619D02*
X108478571Y-80812619D01*
X108478571Y-80812619D02*
X108621428Y-80765000D01*
X108621428Y-80765000D02*
X108716666Y-80669761D01*
X108716666Y-80669761D02*
X108764285Y-80574523D01*
X108764285Y-80574523D02*
X108811904Y-80384047D01*
X108811904Y-80384047D02*
X108811904Y-80241190D01*
X108811904Y-80241190D02*
X108764285Y-80050714D01*
X108764285Y-80050714D02*
X108716666Y-79955476D01*
X108716666Y-79955476D02*
X108621428Y-79860238D01*
X108621428Y-79860238D02*
X108478571Y-79812619D01*
X108478571Y-79812619D02*
X108383333Y-79812619D01*
X108383333Y-79812619D02*
X108240476Y-79860238D01*
X108240476Y-79860238D02*
X108192857Y-79907857D01*
X107240476Y-80812619D02*
X107811904Y-80812619D01*
X107526190Y-80812619D02*
X107526190Y-79812619D01*
X107526190Y-79812619D02*
X107621428Y-79955476D01*
X107621428Y-79955476D02*
X107716666Y-80050714D01*
X107716666Y-80050714D02*
X107811904Y-80098333D01*
X106907142Y-79812619D02*
X106240476Y-79812619D01*
X106240476Y-79812619D02*
X106669047Y-80812619D01*
%TO.C,Y1*%
X99236428Y-76223809D02*
X99712619Y-76223809D01*
X98712619Y-75890476D02*
X99236428Y-76223809D01*
X99236428Y-76223809D02*
X98712619Y-76557142D01*
X99712619Y-77414285D02*
X99712619Y-76842857D01*
X99712619Y-77128571D02*
X98712619Y-77128571D01*
X98712619Y-77128571D02*
X98855476Y-77033333D01*
X98855476Y-77033333D02*
X98950714Y-76938095D01*
X98950714Y-76938095D02*
X98998333Y-76842857D01*
%TO.C,D1*%
X136688094Y-80862619D02*
X136688094Y-79862619D01*
X136688094Y-79862619D02*
X136449999Y-79862619D01*
X136449999Y-79862619D02*
X136307142Y-79910238D01*
X136307142Y-79910238D02*
X136211904Y-80005476D01*
X136211904Y-80005476D02*
X136164285Y-80100714D01*
X136164285Y-80100714D02*
X136116666Y-80291190D01*
X136116666Y-80291190D02*
X136116666Y-80434047D01*
X136116666Y-80434047D02*
X136164285Y-80624523D01*
X136164285Y-80624523D02*
X136211904Y-80719761D01*
X136211904Y-80719761D02*
X136307142Y-80815000D01*
X136307142Y-80815000D02*
X136449999Y-80862619D01*
X136449999Y-80862619D02*
X136688094Y-80862619D01*
X135164285Y-80862619D02*
X135735713Y-80862619D01*
X135449999Y-80862619D02*
X135449999Y-79862619D01*
X135449999Y-79862619D02*
X135545237Y-80005476D01*
X135545237Y-80005476D02*
X135640475Y-80100714D01*
X135640475Y-80100714D02*
X135735713Y-80148333D01*
%TO.C,R6*%
X106516666Y-71862619D02*
X106849999Y-71386428D01*
X107088094Y-71862619D02*
X107088094Y-70862619D01*
X107088094Y-70862619D02*
X106707142Y-70862619D01*
X106707142Y-70862619D02*
X106611904Y-70910238D01*
X106611904Y-70910238D02*
X106564285Y-70957857D01*
X106564285Y-70957857D02*
X106516666Y-71053095D01*
X106516666Y-71053095D02*
X106516666Y-71195952D01*
X106516666Y-71195952D02*
X106564285Y-71291190D01*
X106564285Y-71291190D02*
X106611904Y-71338809D01*
X106611904Y-71338809D02*
X106707142Y-71386428D01*
X106707142Y-71386428D02*
X107088094Y-71386428D01*
X105659523Y-70862619D02*
X105849999Y-70862619D01*
X105849999Y-70862619D02*
X105945237Y-70910238D01*
X105945237Y-70910238D02*
X105992856Y-70957857D01*
X105992856Y-70957857D02*
X106088094Y-71100714D01*
X106088094Y-71100714D02*
X106135713Y-71291190D01*
X106135713Y-71291190D02*
X106135713Y-71672142D01*
X106135713Y-71672142D02*
X106088094Y-71767380D01*
X106088094Y-71767380D02*
X106040475Y-71815000D01*
X106040475Y-71815000D02*
X105945237Y-71862619D01*
X105945237Y-71862619D02*
X105754761Y-71862619D01*
X105754761Y-71862619D02*
X105659523Y-71815000D01*
X105659523Y-71815000D02*
X105611904Y-71767380D01*
X105611904Y-71767380D02*
X105564285Y-71672142D01*
X105564285Y-71672142D02*
X105564285Y-71434047D01*
X105564285Y-71434047D02*
X105611904Y-71338809D01*
X105611904Y-71338809D02*
X105659523Y-71291190D01*
X105659523Y-71291190D02*
X105754761Y-71243571D01*
X105754761Y-71243571D02*
X105945237Y-71243571D01*
X105945237Y-71243571D02*
X106040475Y-71291190D01*
X106040475Y-71291190D02*
X106088094Y-71338809D01*
X106088094Y-71338809D02*
X106135713Y-71434047D01*
%TO.C,R7*%
X107212619Y-77183333D02*
X106736428Y-76850000D01*
X107212619Y-76611905D02*
X106212619Y-76611905D01*
X106212619Y-76611905D02*
X106212619Y-76992857D01*
X106212619Y-76992857D02*
X106260238Y-77088095D01*
X106260238Y-77088095D02*
X106307857Y-77135714D01*
X106307857Y-77135714D02*
X106403095Y-77183333D01*
X106403095Y-77183333D02*
X106545952Y-77183333D01*
X106545952Y-77183333D02*
X106641190Y-77135714D01*
X106641190Y-77135714D02*
X106688809Y-77088095D01*
X106688809Y-77088095D02*
X106736428Y-76992857D01*
X106736428Y-76992857D02*
X106736428Y-76611905D01*
X106212619Y-77516667D02*
X106212619Y-78183333D01*
X106212619Y-78183333D02*
X107212619Y-77754762D01*
%TO.C,R11*%
X136342857Y-71862619D02*
X136676190Y-71386428D01*
X136914285Y-71862619D02*
X136914285Y-70862619D01*
X136914285Y-70862619D02*
X136533333Y-70862619D01*
X136533333Y-70862619D02*
X136438095Y-70910238D01*
X136438095Y-70910238D02*
X136390476Y-70957857D01*
X136390476Y-70957857D02*
X136342857Y-71053095D01*
X136342857Y-71053095D02*
X136342857Y-71195952D01*
X136342857Y-71195952D02*
X136390476Y-71291190D01*
X136390476Y-71291190D02*
X136438095Y-71338809D01*
X136438095Y-71338809D02*
X136533333Y-71386428D01*
X136533333Y-71386428D02*
X136914285Y-71386428D01*
X135390476Y-71862619D02*
X135961904Y-71862619D01*
X135676190Y-71862619D02*
X135676190Y-70862619D01*
X135676190Y-70862619D02*
X135771428Y-71005476D01*
X135771428Y-71005476D02*
X135866666Y-71100714D01*
X135866666Y-71100714D02*
X135961904Y-71148333D01*
X134438095Y-71862619D02*
X135009523Y-71862619D01*
X134723809Y-71862619D02*
X134723809Y-70862619D01*
X134723809Y-70862619D02*
X134819047Y-71005476D01*
X134819047Y-71005476D02*
X134914285Y-71100714D01*
X134914285Y-71100714D02*
X135009523Y-71148333D01*
%TO.C,C9*%
X104567380Y-78033333D02*
X104615000Y-77985714D01*
X104615000Y-77985714D02*
X104662619Y-77842857D01*
X104662619Y-77842857D02*
X104662619Y-77747619D01*
X104662619Y-77747619D02*
X104615000Y-77604762D01*
X104615000Y-77604762D02*
X104519761Y-77509524D01*
X104519761Y-77509524D02*
X104424523Y-77461905D01*
X104424523Y-77461905D02*
X104234047Y-77414286D01*
X104234047Y-77414286D02*
X104091190Y-77414286D01*
X104091190Y-77414286D02*
X103900714Y-77461905D01*
X103900714Y-77461905D02*
X103805476Y-77509524D01*
X103805476Y-77509524D02*
X103710238Y-77604762D01*
X103710238Y-77604762D02*
X103662619Y-77747619D01*
X103662619Y-77747619D02*
X103662619Y-77842857D01*
X103662619Y-77842857D02*
X103710238Y-77985714D01*
X103710238Y-77985714D02*
X103757857Y-78033333D01*
X104662619Y-78509524D02*
X104662619Y-78700000D01*
X104662619Y-78700000D02*
X104615000Y-78795238D01*
X104615000Y-78795238D02*
X104567380Y-78842857D01*
X104567380Y-78842857D02*
X104424523Y-78938095D01*
X104424523Y-78938095D02*
X104234047Y-78985714D01*
X104234047Y-78985714D02*
X103853095Y-78985714D01*
X103853095Y-78985714D02*
X103757857Y-78938095D01*
X103757857Y-78938095D02*
X103710238Y-78890476D01*
X103710238Y-78890476D02*
X103662619Y-78795238D01*
X103662619Y-78795238D02*
X103662619Y-78604762D01*
X103662619Y-78604762D02*
X103710238Y-78509524D01*
X103710238Y-78509524D02*
X103757857Y-78461905D01*
X103757857Y-78461905D02*
X103853095Y-78414286D01*
X103853095Y-78414286D02*
X104091190Y-78414286D01*
X104091190Y-78414286D02*
X104186428Y-78461905D01*
X104186428Y-78461905D02*
X104234047Y-78509524D01*
X104234047Y-78509524D02*
X104281666Y-78604762D01*
X104281666Y-78604762D02*
X104281666Y-78795238D01*
X104281666Y-78795238D02*
X104234047Y-78890476D01*
X104234047Y-78890476D02*
X104186428Y-78938095D01*
X104186428Y-78938095D02*
X104091190Y-78985714D01*
%TO.C,R5*%
X110912619Y-81733333D02*
X110436428Y-81400000D01*
X110912619Y-81161905D02*
X109912619Y-81161905D01*
X109912619Y-81161905D02*
X109912619Y-81542857D01*
X109912619Y-81542857D02*
X109960238Y-81638095D01*
X109960238Y-81638095D02*
X110007857Y-81685714D01*
X110007857Y-81685714D02*
X110103095Y-81733333D01*
X110103095Y-81733333D02*
X110245952Y-81733333D01*
X110245952Y-81733333D02*
X110341190Y-81685714D01*
X110341190Y-81685714D02*
X110388809Y-81638095D01*
X110388809Y-81638095D02*
X110436428Y-81542857D01*
X110436428Y-81542857D02*
X110436428Y-81161905D01*
X109912619Y-82638095D02*
X109912619Y-82161905D01*
X109912619Y-82161905D02*
X110388809Y-82114286D01*
X110388809Y-82114286D02*
X110341190Y-82161905D01*
X110341190Y-82161905D02*
X110293571Y-82257143D01*
X110293571Y-82257143D02*
X110293571Y-82495238D01*
X110293571Y-82495238D02*
X110341190Y-82590476D01*
X110341190Y-82590476D02*
X110388809Y-82638095D01*
X110388809Y-82638095D02*
X110484047Y-82685714D01*
X110484047Y-82685714D02*
X110722142Y-82685714D01*
X110722142Y-82685714D02*
X110817380Y-82638095D01*
X110817380Y-82638095D02*
X110865000Y-82590476D01*
X110865000Y-82590476D02*
X110912619Y-82495238D01*
X110912619Y-82495238D02*
X110912619Y-82257143D01*
X110912619Y-82257143D02*
X110865000Y-82161905D01*
X110865000Y-82161905D02*
X110817380Y-82114286D01*
%TO.C,SW1*%
X140965000Y-83166667D02*
X141012619Y-83309524D01*
X141012619Y-83309524D02*
X141012619Y-83547619D01*
X141012619Y-83547619D02*
X140965000Y-83642857D01*
X140965000Y-83642857D02*
X140917380Y-83690476D01*
X140917380Y-83690476D02*
X140822142Y-83738095D01*
X140822142Y-83738095D02*
X140726904Y-83738095D01*
X140726904Y-83738095D02*
X140631666Y-83690476D01*
X140631666Y-83690476D02*
X140584047Y-83642857D01*
X140584047Y-83642857D02*
X140536428Y-83547619D01*
X140536428Y-83547619D02*
X140488809Y-83357143D01*
X140488809Y-83357143D02*
X140441190Y-83261905D01*
X140441190Y-83261905D02*
X140393571Y-83214286D01*
X140393571Y-83214286D02*
X140298333Y-83166667D01*
X140298333Y-83166667D02*
X140203095Y-83166667D01*
X140203095Y-83166667D02*
X140107857Y-83214286D01*
X140107857Y-83214286D02*
X140060238Y-83261905D01*
X140060238Y-83261905D02*
X140012619Y-83357143D01*
X140012619Y-83357143D02*
X140012619Y-83595238D01*
X140012619Y-83595238D02*
X140060238Y-83738095D01*
X140012619Y-84071429D02*
X141012619Y-84309524D01*
X141012619Y-84309524D02*
X140298333Y-84500000D01*
X140298333Y-84500000D02*
X141012619Y-84690476D01*
X141012619Y-84690476D02*
X140012619Y-84928572D01*
X141012619Y-85833333D02*
X141012619Y-85261905D01*
X141012619Y-85547619D02*
X140012619Y-85547619D01*
X140012619Y-85547619D02*
X140155476Y-85452381D01*
X140155476Y-85452381D02*
X140250714Y-85357143D01*
X140250714Y-85357143D02*
X140298333Y-85261905D01*
%TO.C,C8*%
X131117380Y-79503333D02*
X131165000Y-79455714D01*
X131165000Y-79455714D02*
X131212619Y-79312857D01*
X131212619Y-79312857D02*
X131212619Y-79217619D01*
X131212619Y-79217619D02*
X131165000Y-79074762D01*
X131165000Y-79074762D02*
X131069761Y-78979524D01*
X131069761Y-78979524D02*
X130974523Y-78931905D01*
X130974523Y-78931905D02*
X130784047Y-78884286D01*
X130784047Y-78884286D02*
X130641190Y-78884286D01*
X130641190Y-78884286D02*
X130450714Y-78931905D01*
X130450714Y-78931905D02*
X130355476Y-78979524D01*
X130355476Y-78979524D02*
X130260238Y-79074762D01*
X130260238Y-79074762D02*
X130212619Y-79217619D01*
X130212619Y-79217619D02*
X130212619Y-79312857D01*
X130212619Y-79312857D02*
X130260238Y-79455714D01*
X130260238Y-79455714D02*
X130307857Y-79503333D01*
X130641190Y-80074762D02*
X130593571Y-79979524D01*
X130593571Y-79979524D02*
X130545952Y-79931905D01*
X130545952Y-79931905D02*
X130450714Y-79884286D01*
X130450714Y-79884286D02*
X130403095Y-79884286D01*
X130403095Y-79884286D02*
X130307857Y-79931905D01*
X130307857Y-79931905D02*
X130260238Y-79979524D01*
X130260238Y-79979524D02*
X130212619Y-80074762D01*
X130212619Y-80074762D02*
X130212619Y-80265238D01*
X130212619Y-80265238D02*
X130260238Y-80360476D01*
X130260238Y-80360476D02*
X130307857Y-80408095D01*
X130307857Y-80408095D02*
X130403095Y-80455714D01*
X130403095Y-80455714D02*
X130450714Y-80455714D01*
X130450714Y-80455714D02*
X130545952Y-80408095D01*
X130545952Y-80408095D02*
X130593571Y-80360476D01*
X130593571Y-80360476D02*
X130641190Y-80265238D01*
X130641190Y-80265238D02*
X130641190Y-80074762D01*
X130641190Y-80074762D02*
X130688809Y-79979524D01*
X130688809Y-79979524D02*
X130736428Y-79931905D01*
X130736428Y-79931905D02*
X130831666Y-79884286D01*
X130831666Y-79884286D02*
X131022142Y-79884286D01*
X131022142Y-79884286D02*
X131117380Y-79931905D01*
X131117380Y-79931905D02*
X131165000Y-79979524D01*
X131165000Y-79979524D02*
X131212619Y-80074762D01*
X131212619Y-80074762D02*
X131212619Y-80265238D01*
X131212619Y-80265238D02*
X131165000Y-80360476D01*
X131165000Y-80360476D02*
X131117380Y-80408095D01*
X131117380Y-80408095D02*
X131022142Y-80455714D01*
X131022142Y-80455714D02*
X130831666Y-80455714D01*
X130831666Y-80455714D02*
X130736428Y-80408095D01*
X130736428Y-80408095D02*
X130688809Y-80360476D01*
X130688809Y-80360476D02*
X130641190Y-80265238D01*
%TO.C,U1*%
X118911904Y-78212619D02*
X118911904Y-79022142D01*
X118911904Y-79022142D02*
X118864285Y-79117380D01*
X118864285Y-79117380D02*
X118816666Y-79165000D01*
X118816666Y-79165000D02*
X118721428Y-79212619D01*
X118721428Y-79212619D02*
X118530952Y-79212619D01*
X118530952Y-79212619D02*
X118435714Y-79165000D01*
X118435714Y-79165000D02*
X118388095Y-79117380D01*
X118388095Y-79117380D02*
X118340476Y-79022142D01*
X118340476Y-79022142D02*
X118340476Y-78212619D01*
X117340476Y-79212619D02*
X117911904Y-79212619D01*
X117626190Y-79212619D02*
X117626190Y-78212619D01*
X117626190Y-78212619D02*
X117721428Y-78355476D01*
X117721428Y-78355476D02*
X117816666Y-78450714D01*
X117816666Y-78450714D02*
X117911904Y-78498333D01*
%TO.C,R1*%
X130116666Y-88232619D02*
X130449999Y-87756428D01*
X130688094Y-88232619D02*
X130688094Y-87232619D01*
X130688094Y-87232619D02*
X130307142Y-87232619D01*
X130307142Y-87232619D02*
X130211904Y-87280238D01*
X130211904Y-87280238D02*
X130164285Y-87327857D01*
X130164285Y-87327857D02*
X130116666Y-87423095D01*
X130116666Y-87423095D02*
X130116666Y-87565952D01*
X130116666Y-87565952D02*
X130164285Y-87661190D01*
X130164285Y-87661190D02*
X130211904Y-87708809D01*
X130211904Y-87708809D02*
X130307142Y-87756428D01*
X130307142Y-87756428D02*
X130688094Y-87756428D01*
X129164285Y-88232619D02*
X129735713Y-88232619D01*
X129449999Y-88232619D02*
X129449999Y-87232619D01*
X129449999Y-87232619D02*
X129545237Y-87375476D01*
X129545237Y-87375476D02*
X129640475Y-87470714D01*
X129640475Y-87470714D02*
X129735713Y-87518333D01*
%TO.C,R8*%
X114362619Y-81683333D02*
X113886428Y-81350000D01*
X114362619Y-81111905D02*
X113362619Y-81111905D01*
X113362619Y-81111905D02*
X113362619Y-81492857D01*
X113362619Y-81492857D02*
X113410238Y-81588095D01*
X113410238Y-81588095D02*
X113457857Y-81635714D01*
X113457857Y-81635714D02*
X113553095Y-81683333D01*
X113553095Y-81683333D02*
X113695952Y-81683333D01*
X113695952Y-81683333D02*
X113791190Y-81635714D01*
X113791190Y-81635714D02*
X113838809Y-81588095D01*
X113838809Y-81588095D02*
X113886428Y-81492857D01*
X113886428Y-81492857D02*
X113886428Y-81111905D01*
X113791190Y-82254762D02*
X113743571Y-82159524D01*
X113743571Y-82159524D02*
X113695952Y-82111905D01*
X113695952Y-82111905D02*
X113600714Y-82064286D01*
X113600714Y-82064286D02*
X113553095Y-82064286D01*
X113553095Y-82064286D02*
X113457857Y-82111905D01*
X113457857Y-82111905D02*
X113410238Y-82159524D01*
X113410238Y-82159524D02*
X113362619Y-82254762D01*
X113362619Y-82254762D02*
X113362619Y-82445238D01*
X113362619Y-82445238D02*
X113410238Y-82540476D01*
X113410238Y-82540476D02*
X113457857Y-82588095D01*
X113457857Y-82588095D02*
X113553095Y-82635714D01*
X113553095Y-82635714D02*
X113600714Y-82635714D01*
X113600714Y-82635714D02*
X113695952Y-82588095D01*
X113695952Y-82588095D02*
X113743571Y-82540476D01*
X113743571Y-82540476D02*
X113791190Y-82445238D01*
X113791190Y-82445238D02*
X113791190Y-82254762D01*
X113791190Y-82254762D02*
X113838809Y-82159524D01*
X113838809Y-82159524D02*
X113886428Y-82111905D01*
X113886428Y-82111905D02*
X113981666Y-82064286D01*
X113981666Y-82064286D02*
X114172142Y-82064286D01*
X114172142Y-82064286D02*
X114267380Y-82111905D01*
X114267380Y-82111905D02*
X114315000Y-82159524D01*
X114315000Y-82159524D02*
X114362619Y-82254762D01*
X114362619Y-82254762D02*
X114362619Y-82445238D01*
X114362619Y-82445238D02*
X114315000Y-82540476D01*
X114315000Y-82540476D02*
X114267380Y-82588095D01*
X114267380Y-82588095D02*
X114172142Y-82635714D01*
X114172142Y-82635714D02*
X113981666Y-82635714D01*
X113981666Y-82635714D02*
X113886428Y-82588095D01*
X113886428Y-82588095D02*
X113838809Y-82540476D01*
X113838809Y-82540476D02*
X113791190Y-82445238D01*
%TO.C,TP1*%
X126438094Y-65962619D02*
X125819047Y-65962619D01*
X125819047Y-65962619D02*
X126152380Y-66343571D01*
X126152380Y-66343571D02*
X126009523Y-66343571D01*
X126009523Y-66343571D02*
X125914285Y-66391190D01*
X125914285Y-66391190D02*
X125866666Y-66438809D01*
X125866666Y-66438809D02*
X125819047Y-66534047D01*
X125819047Y-66534047D02*
X125819047Y-66772142D01*
X125819047Y-66772142D02*
X125866666Y-66867380D01*
X125866666Y-66867380D02*
X125914285Y-66915000D01*
X125914285Y-66915000D02*
X126009523Y-66962619D01*
X126009523Y-66962619D02*
X126295237Y-66962619D01*
X126295237Y-66962619D02*
X126390475Y-66915000D01*
X126390475Y-66915000D02*
X126438094Y-66867380D01*
X125533332Y-65962619D02*
X125199999Y-66962619D01*
X125199999Y-66962619D02*
X124866666Y-65962619D01*
X124628570Y-65962619D02*
X124009523Y-65962619D01*
X124009523Y-65962619D02*
X124342856Y-66343571D01*
X124342856Y-66343571D02*
X124199999Y-66343571D01*
X124199999Y-66343571D02*
X124104761Y-66391190D01*
X124104761Y-66391190D02*
X124057142Y-66438809D01*
X124057142Y-66438809D02*
X124009523Y-66534047D01*
X124009523Y-66534047D02*
X124009523Y-66772142D01*
X124009523Y-66772142D02*
X124057142Y-66867380D01*
X124057142Y-66867380D02*
X124104761Y-66915000D01*
X124104761Y-66915000D02*
X124199999Y-66962619D01*
X124199999Y-66962619D02*
X124485713Y-66962619D01*
X124485713Y-66962619D02*
X124580951Y-66915000D01*
X124580951Y-66915000D02*
X124628570Y-66867380D01*
%TO.C,R12*%
X136742857Y-77712619D02*
X137076190Y-77236428D01*
X137314285Y-77712619D02*
X137314285Y-76712619D01*
X137314285Y-76712619D02*
X136933333Y-76712619D01*
X136933333Y-76712619D02*
X136838095Y-76760238D01*
X136838095Y-76760238D02*
X136790476Y-76807857D01*
X136790476Y-76807857D02*
X136742857Y-76903095D01*
X136742857Y-76903095D02*
X136742857Y-77045952D01*
X136742857Y-77045952D02*
X136790476Y-77141190D01*
X136790476Y-77141190D02*
X136838095Y-77188809D01*
X136838095Y-77188809D02*
X136933333Y-77236428D01*
X136933333Y-77236428D02*
X137314285Y-77236428D01*
X135790476Y-77712619D02*
X136361904Y-77712619D01*
X136076190Y-77712619D02*
X136076190Y-76712619D01*
X136076190Y-76712619D02*
X136171428Y-76855476D01*
X136171428Y-76855476D02*
X136266666Y-76950714D01*
X136266666Y-76950714D02*
X136361904Y-76998333D01*
X135409523Y-76807857D02*
X135361904Y-76760238D01*
X135361904Y-76760238D02*
X135266666Y-76712619D01*
X135266666Y-76712619D02*
X135028571Y-76712619D01*
X135028571Y-76712619D02*
X134933333Y-76760238D01*
X134933333Y-76760238D02*
X134885714Y-76807857D01*
X134885714Y-76807857D02*
X134838095Y-76903095D01*
X134838095Y-76903095D02*
X134838095Y-76998333D01*
X134838095Y-76998333D02*
X134885714Y-77141190D01*
X134885714Y-77141190D02*
X135457142Y-77712619D01*
X135457142Y-77712619D02*
X134838095Y-77712619D01*
%TO.C,C13*%
X105067380Y-71807142D02*
X105115000Y-71759523D01*
X105115000Y-71759523D02*
X105162619Y-71616666D01*
X105162619Y-71616666D02*
X105162619Y-71521428D01*
X105162619Y-71521428D02*
X105115000Y-71378571D01*
X105115000Y-71378571D02*
X105019761Y-71283333D01*
X105019761Y-71283333D02*
X104924523Y-71235714D01*
X104924523Y-71235714D02*
X104734047Y-71188095D01*
X104734047Y-71188095D02*
X104591190Y-71188095D01*
X104591190Y-71188095D02*
X104400714Y-71235714D01*
X104400714Y-71235714D02*
X104305476Y-71283333D01*
X104305476Y-71283333D02*
X104210238Y-71378571D01*
X104210238Y-71378571D02*
X104162619Y-71521428D01*
X104162619Y-71521428D02*
X104162619Y-71616666D01*
X104162619Y-71616666D02*
X104210238Y-71759523D01*
X104210238Y-71759523D02*
X104257857Y-71807142D01*
X105162619Y-72759523D02*
X105162619Y-72188095D01*
X105162619Y-72473809D02*
X104162619Y-72473809D01*
X104162619Y-72473809D02*
X104305476Y-72378571D01*
X104305476Y-72378571D02*
X104400714Y-72283333D01*
X104400714Y-72283333D02*
X104448333Y-72188095D01*
X104162619Y-73092857D02*
X104162619Y-73711904D01*
X104162619Y-73711904D02*
X104543571Y-73378571D01*
X104543571Y-73378571D02*
X104543571Y-73521428D01*
X104543571Y-73521428D02*
X104591190Y-73616666D01*
X104591190Y-73616666D02*
X104638809Y-73664285D01*
X104638809Y-73664285D02*
X104734047Y-73711904D01*
X104734047Y-73711904D02*
X104972142Y-73711904D01*
X104972142Y-73711904D02*
X105067380Y-73664285D01*
X105067380Y-73664285D02*
X105115000Y-73616666D01*
X105115000Y-73616666D02*
X105162619Y-73521428D01*
X105162619Y-73521428D02*
X105162619Y-73235714D01*
X105162619Y-73235714D02*
X105115000Y-73140476D01*
X105115000Y-73140476D02*
X105067380Y-73092857D01*
%TO.C,TP2*%
X134511904Y-78610238D02*
X134607142Y-78562619D01*
X134607142Y-78562619D02*
X134749999Y-78562619D01*
X134749999Y-78562619D02*
X134892856Y-78610238D01*
X134892856Y-78610238D02*
X134988094Y-78705476D01*
X134988094Y-78705476D02*
X135035713Y-78800714D01*
X135035713Y-78800714D02*
X135083332Y-78991190D01*
X135083332Y-78991190D02*
X135083332Y-79134047D01*
X135083332Y-79134047D02*
X135035713Y-79324523D01*
X135035713Y-79324523D02*
X134988094Y-79419761D01*
X134988094Y-79419761D02*
X134892856Y-79515000D01*
X134892856Y-79515000D02*
X134749999Y-79562619D01*
X134749999Y-79562619D02*
X134654761Y-79562619D01*
X134654761Y-79562619D02*
X134511904Y-79515000D01*
X134511904Y-79515000D02*
X134464285Y-79467380D01*
X134464285Y-79467380D02*
X134464285Y-79134047D01*
X134464285Y-79134047D02*
X134654761Y-79134047D01*
X134035713Y-79562619D02*
X134035713Y-78562619D01*
X134035713Y-78562619D02*
X133464285Y-79562619D01*
X133464285Y-79562619D02*
X133464285Y-78562619D01*
X132988094Y-79562619D02*
X132988094Y-78562619D01*
X132988094Y-78562619D02*
X132749999Y-78562619D01*
X132749999Y-78562619D02*
X132607142Y-78610238D01*
X132607142Y-78610238D02*
X132511904Y-78705476D01*
X132511904Y-78705476D02*
X132464285Y-78800714D01*
X132464285Y-78800714D02*
X132416666Y-78991190D01*
X132416666Y-78991190D02*
X132416666Y-79134047D01*
X132416666Y-79134047D02*
X132464285Y-79324523D01*
X132464285Y-79324523D02*
X132511904Y-79419761D01*
X132511904Y-79419761D02*
X132607142Y-79515000D01*
X132607142Y-79515000D02*
X132749999Y-79562619D01*
X132749999Y-79562619D02*
X132988094Y-79562619D01*
%TO.C,R2*%
X123566666Y-73512619D02*
X123899999Y-73036428D01*
X124138094Y-73512619D02*
X124138094Y-72512619D01*
X124138094Y-72512619D02*
X123757142Y-72512619D01*
X123757142Y-72512619D02*
X123661904Y-72560238D01*
X123661904Y-72560238D02*
X123614285Y-72607857D01*
X123614285Y-72607857D02*
X123566666Y-72703095D01*
X123566666Y-72703095D02*
X123566666Y-72845952D01*
X123566666Y-72845952D02*
X123614285Y-72941190D01*
X123614285Y-72941190D02*
X123661904Y-72988809D01*
X123661904Y-72988809D02*
X123757142Y-73036428D01*
X123757142Y-73036428D02*
X124138094Y-73036428D01*
X123185713Y-72607857D02*
X123138094Y-72560238D01*
X123138094Y-72560238D02*
X123042856Y-72512619D01*
X123042856Y-72512619D02*
X122804761Y-72512619D01*
X122804761Y-72512619D02*
X122709523Y-72560238D01*
X122709523Y-72560238D02*
X122661904Y-72607857D01*
X122661904Y-72607857D02*
X122614285Y-72703095D01*
X122614285Y-72703095D02*
X122614285Y-72798333D01*
X122614285Y-72798333D02*
X122661904Y-72941190D01*
X122661904Y-72941190D02*
X123233332Y-73512619D01*
X123233332Y-73512619D02*
X122614285Y-73512619D01*
%TO.C,C11*%
X123492857Y-72117380D02*
X123540476Y-72165000D01*
X123540476Y-72165000D02*
X123683333Y-72212619D01*
X123683333Y-72212619D02*
X123778571Y-72212619D01*
X123778571Y-72212619D02*
X123921428Y-72165000D01*
X123921428Y-72165000D02*
X124016666Y-72069761D01*
X124016666Y-72069761D02*
X124064285Y-71974523D01*
X124064285Y-71974523D02*
X124111904Y-71784047D01*
X124111904Y-71784047D02*
X124111904Y-71641190D01*
X124111904Y-71641190D02*
X124064285Y-71450714D01*
X124064285Y-71450714D02*
X124016666Y-71355476D01*
X124016666Y-71355476D02*
X123921428Y-71260238D01*
X123921428Y-71260238D02*
X123778571Y-71212619D01*
X123778571Y-71212619D02*
X123683333Y-71212619D01*
X123683333Y-71212619D02*
X123540476Y-71260238D01*
X123540476Y-71260238D02*
X123492857Y-71307857D01*
X122540476Y-72212619D02*
X123111904Y-72212619D01*
X122826190Y-72212619D02*
X122826190Y-71212619D01*
X122826190Y-71212619D02*
X122921428Y-71355476D01*
X122921428Y-71355476D02*
X123016666Y-71450714D01*
X123016666Y-71450714D02*
X123111904Y-71498333D01*
X121588095Y-72212619D02*
X122159523Y-72212619D01*
X121873809Y-72212619D02*
X121873809Y-71212619D01*
X121873809Y-71212619D02*
X121969047Y-71355476D01*
X121969047Y-71355476D02*
X122064285Y-71450714D01*
X122064285Y-71450714D02*
X122159523Y-71498333D01*
%TO.C,C1*%
X132416666Y-73417380D02*
X132464285Y-73465000D01*
X132464285Y-73465000D02*
X132607142Y-73512619D01*
X132607142Y-73512619D02*
X132702380Y-73512619D01*
X132702380Y-73512619D02*
X132845237Y-73465000D01*
X132845237Y-73465000D02*
X132940475Y-73369761D01*
X132940475Y-73369761D02*
X132988094Y-73274523D01*
X132988094Y-73274523D02*
X133035713Y-73084047D01*
X133035713Y-73084047D02*
X133035713Y-72941190D01*
X133035713Y-72941190D02*
X132988094Y-72750714D01*
X132988094Y-72750714D02*
X132940475Y-72655476D01*
X132940475Y-72655476D02*
X132845237Y-72560238D01*
X132845237Y-72560238D02*
X132702380Y-72512619D01*
X132702380Y-72512619D02*
X132607142Y-72512619D01*
X132607142Y-72512619D02*
X132464285Y-72560238D01*
X132464285Y-72560238D02*
X132416666Y-72607857D01*
X131464285Y-73512619D02*
X132035713Y-73512619D01*
X131749999Y-73512619D02*
X131749999Y-72512619D01*
X131749999Y-72512619D02*
X131845237Y-72655476D01*
X131845237Y-72655476D02*
X131940475Y-72750714D01*
X131940475Y-72750714D02*
X132035713Y-72798333D01*
%TO.C,R10*%
X130592857Y-84542619D02*
X130926190Y-84066428D01*
X131164285Y-84542619D02*
X131164285Y-83542619D01*
X131164285Y-83542619D02*
X130783333Y-83542619D01*
X130783333Y-83542619D02*
X130688095Y-83590238D01*
X130688095Y-83590238D02*
X130640476Y-83637857D01*
X130640476Y-83637857D02*
X130592857Y-83733095D01*
X130592857Y-83733095D02*
X130592857Y-83875952D01*
X130592857Y-83875952D02*
X130640476Y-83971190D01*
X130640476Y-83971190D02*
X130688095Y-84018809D01*
X130688095Y-84018809D02*
X130783333Y-84066428D01*
X130783333Y-84066428D02*
X131164285Y-84066428D01*
X129640476Y-84542619D02*
X130211904Y-84542619D01*
X129926190Y-84542619D02*
X129926190Y-83542619D01*
X129926190Y-83542619D02*
X130021428Y-83685476D01*
X130021428Y-83685476D02*
X130116666Y-83780714D01*
X130116666Y-83780714D02*
X130211904Y-83828333D01*
X129021428Y-83542619D02*
X128926190Y-83542619D01*
X128926190Y-83542619D02*
X128830952Y-83590238D01*
X128830952Y-83590238D02*
X128783333Y-83637857D01*
X128783333Y-83637857D02*
X128735714Y-83733095D01*
X128735714Y-83733095D02*
X128688095Y-83923571D01*
X128688095Y-83923571D02*
X128688095Y-84161666D01*
X128688095Y-84161666D02*
X128735714Y-84352142D01*
X128735714Y-84352142D02*
X128783333Y-84447380D01*
X128783333Y-84447380D02*
X128830952Y-84495000D01*
X128830952Y-84495000D02*
X128926190Y-84542619D01*
X128926190Y-84542619D02*
X129021428Y-84542619D01*
X129021428Y-84542619D02*
X129116666Y-84495000D01*
X129116666Y-84495000D02*
X129164285Y-84447380D01*
X129164285Y-84447380D02*
X129211904Y-84352142D01*
X129211904Y-84352142D02*
X129259523Y-84161666D01*
X129259523Y-84161666D02*
X129259523Y-83923571D01*
X129259523Y-83923571D02*
X129211904Y-83733095D01*
X129211904Y-83733095D02*
X129164285Y-83637857D01*
X129164285Y-83637857D02*
X129116666Y-83590238D01*
X129116666Y-83590238D02*
X129021428Y-83542619D01*
%TO.C,J1*%
X137062619Y-73966666D02*
X137776904Y-73966666D01*
X137776904Y-73966666D02*
X137919761Y-73919047D01*
X137919761Y-73919047D02*
X138015000Y-73823809D01*
X138015000Y-73823809D02*
X138062619Y-73680952D01*
X138062619Y-73680952D02*
X138062619Y-73585714D01*
X138062619Y-74966666D02*
X138062619Y-74395238D01*
X138062619Y-74680952D02*
X137062619Y-74680952D01*
X137062619Y-74680952D02*
X137205476Y-74585714D01*
X137205476Y-74585714D02*
X137300714Y-74490476D01*
X137300714Y-74490476D02*
X137348333Y-74395238D01*
%TO.C,R3*%
X123566666Y-74712619D02*
X123899999Y-74236428D01*
X124138094Y-74712619D02*
X124138094Y-73712619D01*
X124138094Y-73712619D02*
X123757142Y-73712619D01*
X123757142Y-73712619D02*
X123661904Y-73760238D01*
X123661904Y-73760238D02*
X123614285Y-73807857D01*
X123614285Y-73807857D02*
X123566666Y-73903095D01*
X123566666Y-73903095D02*
X123566666Y-74045952D01*
X123566666Y-74045952D02*
X123614285Y-74141190D01*
X123614285Y-74141190D02*
X123661904Y-74188809D01*
X123661904Y-74188809D02*
X123757142Y-74236428D01*
X123757142Y-74236428D02*
X124138094Y-74236428D01*
X123233332Y-73712619D02*
X122614285Y-73712619D01*
X122614285Y-73712619D02*
X122947618Y-74093571D01*
X122947618Y-74093571D02*
X122804761Y-74093571D01*
X122804761Y-74093571D02*
X122709523Y-74141190D01*
X122709523Y-74141190D02*
X122661904Y-74188809D01*
X122661904Y-74188809D02*
X122614285Y-74284047D01*
X122614285Y-74284047D02*
X122614285Y-74522142D01*
X122614285Y-74522142D02*
X122661904Y-74617380D01*
X122661904Y-74617380D02*
X122709523Y-74665000D01*
X122709523Y-74665000D02*
X122804761Y-74712619D01*
X122804761Y-74712619D02*
X123090475Y-74712619D01*
X123090475Y-74712619D02*
X123185713Y-74665000D01*
X123185713Y-74665000D02*
X123233332Y-74617380D01*
%TO.C,C20*%
X118067380Y-65927142D02*
X118115000Y-65879523D01*
X118115000Y-65879523D02*
X118162619Y-65736666D01*
X118162619Y-65736666D02*
X118162619Y-65641428D01*
X118162619Y-65641428D02*
X118115000Y-65498571D01*
X118115000Y-65498571D02*
X118019761Y-65403333D01*
X118019761Y-65403333D02*
X117924523Y-65355714D01*
X117924523Y-65355714D02*
X117734047Y-65308095D01*
X117734047Y-65308095D02*
X117591190Y-65308095D01*
X117591190Y-65308095D02*
X117400714Y-65355714D01*
X117400714Y-65355714D02*
X117305476Y-65403333D01*
X117305476Y-65403333D02*
X117210238Y-65498571D01*
X117210238Y-65498571D02*
X117162619Y-65641428D01*
X117162619Y-65641428D02*
X117162619Y-65736666D01*
X117162619Y-65736666D02*
X117210238Y-65879523D01*
X117210238Y-65879523D02*
X117257857Y-65927142D01*
X117257857Y-66308095D02*
X117210238Y-66355714D01*
X117210238Y-66355714D02*
X117162619Y-66450952D01*
X117162619Y-66450952D02*
X117162619Y-66689047D01*
X117162619Y-66689047D02*
X117210238Y-66784285D01*
X117210238Y-66784285D02*
X117257857Y-66831904D01*
X117257857Y-66831904D02*
X117353095Y-66879523D01*
X117353095Y-66879523D02*
X117448333Y-66879523D01*
X117448333Y-66879523D02*
X117591190Y-66831904D01*
X117591190Y-66831904D02*
X118162619Y-66260476D01*
X118162619Y-66260476D02*
X118162619Y-66879523D01*
X117162619Y-67498571D02*
X117162619Y-67593809D01*
X117162619Y-67593809D02*
X117210238Y-67689047D01*
X117210238Y-67689047D02*
X117257857Y-67736666D01*
X117257857Y-67736666D02*
X117353095Y-67784285D01*
X117353095Y-67784285D02*
X117543571Y-67831904D01*
X117543571Y-67831904D02*
X117781666Y-67831904D01*
X117781666Y-67831904D02*
X117972142Y-67784285D01*
X117972142Y-67784285D02*
X118067380Y-67736666D01*
X118067380Y-67736666D02*
X118115000Y-67689047D01*
X118115000Y-67689047D02*
X118162619Y-67593809D01*
X118162619Y-67593809D02*
X118162619Y-67498571D01*
X118162619Y-67498571D02*
X118115000Y-67403333D01*
X118115000Y-67403333D02*
X118067380Y-67355714D01*
X118067380Y-67355714D02*
X117972142Y-67308095D01*
X117972142Y-67308095D02*
X117781666Y-67260476D01*
X117781666Y-67260476D02*
X117543571Y-67260476D01*
X117543571Y-67260476D02*
X117353095Y-67308095D01*
X117353095Y-67308095D02*
X117257857Y-67355714D01*
X117257857Y-67355714D02*
X117210238Y-67403333D01*
X117210238Y-67403333D02*
X117162619Y-67498571D01*
%TO.C,C15*%
X117367380Y-80257142D02*
X117415000Y-80209523D01*
X117415000Y-80209523D02*
X117462619Y-80066666D01*
X117462619Y-80066666D02*
X117462619Y-79971428D01*
X117462619Y-79971428D02*
X117415000Y-79828571D01*
X117415000Y-79828571D02*
X117319761Y-79733333D01*
X117319761Y-79733333D02*
X117224523Y-79685714D01*
X117224523Y-79685714D02*
X117034047Y-79638095D01*
X117034047Y-79638095D02*
X116891190Y-79638095D01*
X116891190Y-79638095D02*
X116700714Y-79685714D01*
X116700714Y-79685714D02*
X116605476Y-79733333D01*
X116605476Y-79733333D02*
X116510238Y-79828571D01*
X116510238Y-79828571D02*
X116462619Y-79971428D01*
X116462619Y-79971428D02*
X116462619Y-80066666D01*
X116462619Y-80066666D02*
X116510238Y-80209523D01*
X116510238Y-80209523D02*
X116557857Y-80257142D01*
X117462619Y-81209523D02*
X117462619Y-80638095D01*
X117462619Y-80923809D02*
X116462619Y-80923809D01*
X116462619Y-80923809D02*
X116605476Y-80828571D01*
X116605476Y-80828571D02*
X116700714Y-80733333D01*
X116700714Y-80733333D02*
X116748333Y-80638095D01*
X116462619Y-82114285D02*
X116462619Y-81638095D01*
X116462619Y-81638095D02*
X116938809Y-81590476D01*
X116938809Y-81590476D02*
X116891190Y-81638095D01*
X116891190Y-81638095D02*
X116843571Y-81733333D01*
X116843571Y-81733333D02*
X116843571Y-81971428D01*
X116843571Y-81971428D02*
X116891190Y-82066666D01*
X116891190Y-82066666D02*
X116938809Y-82114285D01*
X116938809Y-82114285D02*
X117034047Y-82161904D01*
X117034047Y-82161904D02*
X117272142Y-82161904D01*
X117272142Y-82161904D02*
X117367380Y-82114285D01*
X117367380Y-82114285D02*
X117415000Y-82066666D01*
X117415000Y-82066666D02*
X117462619Y-81971428D01*
X117462619Y-81971428D02*
X117462619Y-81733333D01*
X117462619Y-81733333D02*
X117415000Y-81638095D01*
X117415000Y-81638095D02*
X117367380Y-81590476D01*
%TO.C,C2*%
X132466666Y-75367380D02*
X132514285Y-75415000D01*
X132514285Y-75415000D02*
X132657142Y-75462619D01*
X132657142Y-75462619D02*
X132752380Y-75462619D01*
X132752380Y-75462619D02*
X132895237Y-75415000D01*
X132895237Y-75415000D02*
X132990475Y-75319761D01*
X132990475Y-75319761D02*
X133038094Y-75224523D01*
X133038094Y-75224523D02*
X133085713Y-75034047D01*
X133085713Y-75034047D02*
X133085713Y-74891190D01*
X133085713Y-74891190D02*
X133038094Y-74700714D01*
X133038094Y-74700714D02*
X132990475Y-74605476D01*
X132990475Y-74605476D02*
X132895237Y-74510238D01*
X132895237Y-74510238D02*
X132752380Y-74462619D01*
X132752380Y-74462619D02*
X132657142Y-74462619D01*
X132657142Y-74462619D02*
X132514285Y-74510238D01*
X132514285Y-74510238D02*
X132466666Y-74557857D01*
X132085713Y-74557857D02*
X132038094Y-74510238D01*
X132038094Y-74510238D02*
X131942856Y-74462619D01*
X131942856Y-74462619D02*
X131704761Y-74462619D01*
X131704761Y-74462619D02*
X131609523Y-74510238D01*
X131609523Y-74510238D02*
X131561904Y-74557857D01*
X131561904Y-74557857D02*
X131514285Y-74653095D01*
X131514285Y-74653095D02*
X131514285Y-74748333D01*
X131514285Y-74748333D02*
X131561904Y-74891190D01*
X131561904Y-74891190D02*
X132133332Y-75462619D01*
X132133332Y-75462619D02*
X131514285Y-75462619D01*
%TO.C,TP3*%
X141233332Y-65112619D02*
X140899999Y-66112619D01*
X140899999Y-66112619D02*
X140566666Y-65112619D01*
X140233332Y-65112619D02*
X140233332Y-65922142D01*
X140233332Y-65922142D02*
X140185713Y-66017380D01*
X140185713Y-66017380D02*
X140138094Y-66065000D01*
X140138094Y-66065000D02*
X140042856Y-66112619D01*
X140042856Y-66112619D02*
X139852380Y-66112619D01*
X139852380Y-66112619D02*
X139757142Y-66065000D01*
X139757142Y-66065000D02*
X139709523Y-66017380D01*
X139709523Y-66017380D02*
X139661904Y-65922142D01*
X139661904Y-65922142D02*
X139661904Y-65112619D01*
X139233332Y-66065000D02*
X139090475Y-66112619D01*
X139090475Y-66112619D02*
X138852380Y-66112619D01*
X138852380Y-66112619D02*
X138757142Y-66065000D01*
X138757142Y-66065000D02*
X138709523Y-66017380D01*
X138709523Y-66017380D02*
X138661904Y-65922142D01*
X138661904Y-65922142D02*
X138661904Y-65826904D01*
X138661904Y-65826904D02*
X138709523Y-65731666D01*
X138709523Y-65731666D02*
X138757142Y-65684047D01*
X138757142Y-65684047D02*
X138852380Y-65636428D01*
X138852380Y-65636428D02*
X139042856Y-65588809D01*
X139042856Y-65588809D02*
X139138094Y-65541190D01*
X139138094Y-65541190D02*
X139185713Y-65493571D01*
X139185713Y-65493571D02*
X139233332Y-65398333D01*
X139233332Y-65398333D02*
X139233332Y-65303095D01*
X139233332Y-65303095D02*
X139185713Y-65207857D01*
X139185713Y-65207857D02*
X139138094Y-65160238D01*
X139138094Y-65160238D02*
X139042856Y-65112619D01*
X139042856Y-65112619D02*
X138804761Y-65112619D01*
X138804761Y-65112619D02*
X138661904Y-65160238D01*
X137899999Y-65588809D02*
X137757142Y-65636428D01*
X137757142Y-65636428D02*
X137709523Y-65684047D01*
X137709523Y-65684047D02*
X137661904Y-65779285D01*
X137661904Y-65779285D02*
X137661904Y-65922142D01*
X137661904Y-65922142D02*
X137709523Y-66017380D01*
X137709523Y-66017380D02*
X137757142Y-66065000D01*
X137757142Y-66065000D02*
X137852380Y-66112619D01*
X137852380Y-66112619D02*
X138233332Y-66112619D01*
X138233332Y-66112619D02*
X138233332Y-65112619D01*
X138233332Y-65112619D02*
X137899999Y-65112619D01*
X137899999Y-65112619D02*
X137804761Y-65160238D01*
X137804761Y-65160238D02*
X137757142Y-65207857D01*
X137757142Y-65207857D02*
X137709523Y-65303095D01*
X137709523Y-65303095D02*
X137709523Y-65398333D01*
X137709523Y-65398333D02*
X137757142Y-65493571D01*
X137757142Y-65493571D02*
X137804761Y-65541190D01*
X137804761Y-65541190D02*
X137899999Y-65588809D01*
X137899999Y-65588809D02*
X138233332Y-65588809D01*
%TO.C,U5*%
X121512619Y-82088095D02*
X122322142Y-82088095D01*
X122322142Y-82088095D02*
X122417380Y-82135714D01*
X122417380Y-82135714D02*
X122465000Y-82183333D01*
X122465000Y-82183333D02*
X122512619Y-82278571D01*
X122512619Y-82278571D02*
X122512619Y-82469047D01*
X122512619Y-82469047D02*
X122465000Y-82564285D01*
X122465000Y-82564285D02*
X122417380Y-82611904D01*
X122417380Y-82611904D02*
X122322142Y-82659523D01*
X122322142Y-82659523D02*
X121512619Y-82659523D01*
X121512619Y-83611904D02*
X121512619Y-83135714D01*
X121512619Y-83135714D02*
X121988809Y-83088095D01*
X121988809Y-83088095D02*
X121941190Y-83135714D01*
X121941190Y-83135714D02*
X121893571Y-83230952D01*
X121893571Y-83230952D02*
X121893571Y-83469047D01*
X121893571Y-83469047D02*
X121941190Y-83564285D01*
X121941190Y-83564285D02*
X121988809Y-83611904D01*
X121988809Y-83611904D02*
X122084047Y-83659523D01*
X122084047Y-83659523D02*
X122322142Y-83659523D01*
X122322142Y-83659523D02*
X122417380Y-83611904D01*
X122417380Y-83611904D02*
X122465000Y-83564285D01*
X122465000Y-83564285D02*
X122512619Y-83469047D01*
X122512619Y-83469047D02*
X122512619Y-83230952D01*
X122512619Y-83230952D02*
X122465000Y-83135714D01*
X122465000Y-83135714D02*
X122417380Y-83088095D01*
%TO.C,C12*%
X123542857Y-77129880D02*
X123590476Y-77177500D01*
X123590476Y-77177500D02*
X123733333Y-77225119D01*
X123733333Y-77225119D02*
X123828571Y-77225119D01*
X123828571Y-77225119D02*
X123971428Y-77177500D01*
X123971428Y-77177500D02*
X124066666Y-77082261D01*
X124066666Y-77082261D02*
X124114285Y-76987023D01*
X124114285Y-76987023D02*
X124161904Y-76796547D01*
X124161904Y-76796547D02*
X124161904Y-76653690D01*
X124161904Y-76653690D02*
X124114285Y-76463214D01*
X124114285Y-76463214D02*
X124066666Y-76367976D01*
X124066666Y-76367976D02*
X123971428Y-76272738D01*
X123971428Y-76272738D02*
X123828571Y-76225119D01*
X123828571Y-76225119D02*
X123733333Y-76225119D01*
X123733333Y-76225119D02*
X123590476Y-76272738D01*
X123590476Y-76272738D02*
X123542857Y-76320357D01*
X122590476Y-77225119D02*
X123161904Y-77225119D01*
X122876190Y-77225119D02*
X122876190Y-76225119D01*
X122876190Y-76225119D02*
X122971428Y-76367976D01*
X122971428Y-76367976D02*
X123066666Y-76463214D01*
X123066666Y-76463214D02*
X123161904Y-76510833D01*
X122209523Y-76320357D02*
X122161904Y-76272738D01*
X122161904Y-76272738D02*
X122066666Y-76225119D01*
X122066666Y-76225119D02*
X121828571Y-76225119D01*
X121828571Y-76225119D02*
X121733333Y-76272738D01*
X121733333Y-76272738D02*
X121685714Y-76320357D01*
X121685714Y-76320357D02*
X121638095Y-76415595D01*
X121638095Y-76415595D02*
X121638095Y-76510833D01*
X121638095Y-76510833D02*
X121685714Y-76653690D01*
X121685714Y-76653690D02*
X122257142Y-77225119D01*
X122257142Y-77225119D02*
X121638095Y-77225119D01*
%TO.C,C10*%
X104567380Y-74807142D02*
X104615000Y-74759523D01*
X104615000Y-74759523D02*
X104662619Y-74616666D01*
X104662619Y-74616666D02*
X104662619Y-74521428D01*
X104662619Y-74521428D02*
X104615000Y-74378571D01*
X104615000Y-74378571D02*
X104519761Y-74283333D01*
X104519761Y-74283333D02*
X104424523Y-74235714D01*
X104424523Y-74235714D02*
X104234047Y-74188095D01*
X104234047Y-74188095D02*
X104091190Y-74188095D01*
X104091190Y-74188095D02*
X103900714Y-74235714D01*
X103900714Y-74235714D02*
X103805476Y-74283333D01*
X103805476Y-74283333D02*
X103710238Y-74378571D01*
X103710238Y-74378571D02*
X103662619Y-74521428D01*
X103662619Y-74521428D02*
X103662619Y-74616666D01*
X103662619Y-74616666D02*
X103710238Y-74759523D01*
X103710238Y-74759523D02*
X103757857Y-74807142D01*
X104662619Y-75759523D02*
X104662619Y-75188095D01*
X104662619Y-75473809D02*
X103662619Y-75473809D01*
X103662619Y-75473809D02*
X103805476Y-75378571D01*
X103805476Y-75378571D02*
X103900714Y-75283333D01*
X103900714Y-75283333D02*
X103948333Y-75188095D01*
X103662619Y-76378571D02*
X103662619Y-76473809D01*
X103662619Y-76473809D02*
X103710238Y-76569047D01*
X103710238Y-76569047D02*
X103757857Y-76616666D01*
X103757857Y-76616666D02*
X103853095Y-76664285D01*
X103853095Y-76664285D02*
X104043571Y-76711904D01*
X104043571Y-76711904D02*
X104281666Y-76711904D01*
X104281666Y-76711904D02*
X104472142Y-76664285D01*
X104472142Y-76664285D02*
X104567380Y-76616666D01*
X104567380Y-76616666D02*
X104615000Y-76569047D01*
X104615000Y-76569047D02*
X104662619Y-76473809D01*
X104662619Y-76473809D02*
X104662619Y-76378571D01*
X104662619Y-76378571D02*
X104615000Y-76283333D01*
X104615000Y-76283333D02*
X104567380Y-76235714D01*
X104567380Y-76235714D02*
X104472142Y-76188095D01*
X104472142Y-76188095D02*
X104281666Y-76140476D01*
X104281666Y-76140476D02*
X104043571Y-76140476D01*
X104043571Y-76140476D02*
X103853095Y-76188095D01*
X103853095Y-76188095D02*
X103757857Y-76235714D01*
X103757857Y-76235714D02*
X103710238Y-76283333D01*
X103710238Y-76283333D02*
X103662619Y-76378571D01*
%TO.C,C14*%
X123542857Y-75879880D02*
X123590476Y-75927500D01*
X123590476Y-75927500D02*
X123733333Y-75975119D01*
X123733333Y-75975119D02*
X123828571Y-75975119D01*
X123828571Y-75975119D02*
X123971428Y-75927500D01*
X123971428Y-75927500D02*
X124066666Y-75832261D01*
X124066666Y-75832261D02*
X124114285Y-75737023D01*
X124114285Y-75737023D02*
X124161904Y-75546547D01*
X124161904Y-75546547D02*
X124161904Y-75403690D01*
X124161904Y-75403690D02*
X124114285Y-75213214D01*
X124114285Y-75213214D02*
X124066666Y-75117976D01*
X124066666Y-75117976D02*
X123971428Y-75022738D01*
X123971428Y-75022738D02*
X123828571Y-74975119D01*
X123828571Y-74975119D02*
X123733333Y-74975119D01*
X123733333Y-74975119D02*
X123590476Y-75022738D01*
X123590476Y-75022738D02*
X123542857Y-75070357D01*
X122590476Y-75975119D02*
X123161904Y-75975119D01*
X122876190Y-75975119D02*
X122876190Y-74975119D01*
X122876190Y-74975119D02*
X122971428Y-75117976D01*
X122971428Y-75117976D02*
X123066666Y-75213214D01*
X123066666Y-75213214D02*
X123161904Y-75260833D01*
X121733333Y-75308452D02*
X121733333Y-75975119D01*
X121971428Y-74927500D02*
X122209523Y-75641785D01*
X122209523Y-75641785D02*
X121590476Y-75641785D01*
%TO.C,TP4*%
X107054761Y-82812619D02*
X107054761Y-81812619D01*
X106578571Y-82812619D02*
X106578571Y-81812619D01*
X106578571Y-81812619D02*
X106007143Y-82812619D01*
X106007143Y-82812619D02*
X106007143Y-81812619D01*
X105673809Y-81812619D02*
X105102381Y-81812619D01*
X105388095Y-82812619D02*
X105388095Y-81812619D01*
%TO.C,C18*%
X108467380Y-73407142D02*
X108515000Y-73359523D01*
X108515000Y-73359523D02*
X108562619Y-73216666D01*
X108562619Y-73216666D02*
X108562619Y-73121428D01*
X108562619Y-73121428D02*
X108515000Y-72978571D01*
X108515000Y-72978571D02*
X108419761Y-72883333D01*
X108419761Y-72883333D02*
X108324523Y-72835714D01*
X108324523Y-72835714D02*
X108134047Y-72788095D01*
X108134047Y-72788095D02*
X107991190Y-72788095D01*
X107991190Y-72788095D02*
X107800714Y-72835714D01*
X107800714Y-72835714D02*
X107705476Y-72883333D01*
X107705476Y-72883333D02*
X107610238Y-72978571D01*
X107610238Y-72978571D02*
X107562619Y-73121428D01*
X107562619Y-73121428D02*
X107562619Y-73216666D01*
X107562619Y-73216666D02*
X107610238Y-73359523D01*
X107610238Y-73359523D02*
X107657857Y-73407142D01*
X108562619Y-74359523D02*
X108562619Y-73788095D01*
X108562619Y-74073809D02*
X107562619Y-74073809D01*
X107562619Y-74073809D02*
X107705476Y-73978571D01*
X107705476Y-73978571D02*
X107800714Y-73883333D01*
X107800714Y-73883333D02*
X107848333Y-73788095D01*
X107991190Y-74930952D02*
X107943571Y-74835714D01*
X107943571Y-74835714D02*
X107895952Y-74788095D01*
X107895952Y-74788095D02*
X107800714Y-74740476D01*
X107800714Y-74740476D02*
X107753095Y-74740476D01*
X107753095Y-74740476D02*
X107657857Y-74788095D01*
X107657857Y-74788095D02*
X107610238Y-74835714D01*
X107610238Y-74835714D02*
X107562619Y-74930952D01*
X107562619Y-74930952D02*
X107562619Y-75121428D01*
X107562619Y-75121428D02*
X107610238Y-75216666D01*
X107610238Y-75216666D02*
X107657857Y-75264285D01*
X107657857Y-75264285D02*
X107753095Y-75311904D01*
X107753095Y-75311904D02*
X107800714Y-75311904D01*
X107800714Y-75311904D02*
X107895952Y-75264285D01*
X107895952Y-75264285D02*
X107943571Y-75216666D01*
X107943571Y-75216666D02*
X107991190Y-75121428D01*
X107991190Y-75121428D02*
X107991190Y-74930952D01*
X107991190Y-74930952D02*
X108038809Y-74835714D01*
X108038809Y-74835714D02*
X108086428Y-74788095D01*
X108086428Y-74788095D02*
X108181666Y-74740476D01*
X108181666Y-74740476D02*
X108372142Y-74740476D01*
X108372142Y-74740476D02*
X108467380Y-74788095D01*
X108467380Y-74788095D02*
X108515000Y-74835714D01*
X108515000Y-74835714D02*
X108562619Y-74930952D01*
X108562619Y-74930952D02*
X108562619Y-75121428D01*
X108562619Y-75121428D02*
X108515000Y-75216666D01*
X108515000Y-75216666D02*
X108467380Y-75264285D01*
X108467380Y-75264285D02*
X108372142Y-75311904D01*
X108372142Y-75311904D02*
X108181666Y-75311904D01*
X108181666Y-75311904D02*
X108086428Y-75264285D01*
X108086428Y-75264285D02*
X108038809Y-75216666D01*
X108038809Y-75216666D02*
X107991190Y-75121428D01*
%TO.C,U3*%
X130111904Y-70012619D02*
X130111904Y-70822142D01*
X130111904Y-70822142D02*
X130064285Y-70917380D01*
X130064285Y-70917380D02*
X130016666Y-70965000D01*
X130016666Y-70965000D02*
X129921428Y-71012619D01*
X129921428Y-71012619D02*
X129730952Y-71012619D01*
X129730952Y-71012619D02*
X129635714Y-70965000D01*
X129635714Y-70965000D02*
X129588095Y-70917380D01*
X129588095Y-70917380D02*
X129540476Y-70822142D01*
X129540476Y-70822142D02*
X129540476Y-70012619D01*
X129159523Y-70012619D02*
X128540476Y-70012619D01*
X128540476Y-70012619D02*
X128873809Y-70393571D01*
X128873809Y-70393571D02*
X128730952Y-70393571D01*
X128730952Y-70393571D02*
X128635714Y-70441190D01*
X128635714Y-70441190D02*
X128588095Y-70488809D01*
X128588095Y-70488809D02*
X128540476Y-70584047D01*
X128540476Y-70584047D02*
X128540476Y-70822142D01*
X128540476Y-70822142D02*
X128588095Y-70917380D01*
X128588095Y-70917380D02*
X128635714Y-70965000D01*
X128635714Y-70965000D02*
X128730952Y-71012619D01*
X128730952Y-71012619D02*
X129016666Y-71012619D01*
X129016666Y-71012619D02*
X129111904Y-70965000D01*
X129111904Y-70965000D02*
X129159523Y-70917380D01*
%TO.C,C21*%
X123492857Y-70867380D02*
X123540476Y-70915000D01*
X123540476Y-70915000D02*
X123683333Y-70962619D01*
X123683333Y-70962619D02*
X123778571Y-70962619D01*
X123778571Y-70962619D02*
X123921428Y-70915000D01*
X123921428Y-70915000D02*
X124016666Y-70819761D01*
X124016666Y-70819761D02*
X124064285Y-70724523D01*
X124064285Y-70724523D02*
X124111904Y-70534047D01*
X124111904Y-70534047D02*
X124111904Y-70391190D01*
X124111904Y-70391190D02*
X124064285Y-70200714D01*
X124064285Y-70200714D02*
X124016666Y-70105476D01*
X124016666Y-70105476D02*
X123921428Y-70010238D01*
X123921428Y-70010238D02*
X123778571Y-69962619D01*
X123778571Y-69962619D02*
X123683333Y-69962619D01*
X123683333Y-69962619D02*
X123540476Y-70010238D01*
X123540476Y-70010238D02*
X123492857Y-70057857D01*
X123111904Y-70057857D02*
X123064285Y-70010238D01*
X123064285Y-70010238D02*
X122969047Y-69962619D01*
X122969047Y-69962619D02*
X122730952Y-69962619D01*
X122730952Y-69962619D02*
X122635714Y-70010238D01*
X122635714Y-70010238D02*
X122588095Y-70057857D01*
X122588095Y-70057857D02*
X122540476Y-70153095D01*
X122540476Y-70153095D02*
X122540476Y-70248333D01*
X122540476Y-70248333D02*
X122588095Y-70391190D01*
X122588095Y-70391190D02*
X123159523Y-70962619D01*
X123159523Y-70962619D02*
X122540476Y-70962619D01*
X121588095Y-70962619D02*
X122159523Y-70962619D01*
X121873809Y-70962619D02*
X121873809Y-69962619D01*
X121873809Y-69962619D02*
X121969047Y-70105476D01*
X121969047Y-70105476D02*
X122064285Y-70200714D01*
X122064285Y-70200714D02*
X122159523Y-70248333D01*
%TO.C,C16*%
X112417380Y-66007142D02*
X112465000Y-65959523D01*
X112465000Y-65959523D02*
X112512619Y-65816666D01*
X112512619Y-65816666D02*
X112512619Y-65721428D01*
X112512619Y-65721428D02*
X112465000Y-65578571D01*
X112465000Y-65578571D02*
X112369761Y-65483333D01*
X112369761Y-65483333D02*
X112274523Y-65435714D01*
X112274523Y-65435714D02*
X112084047Y-65388095D01*
X112084047Y-65388095D02*
X111941190Y-65388095D01*
X111941190Y-65388095D02*
X111750714Y-65435714D01*
X111750714Y-65435714D02*
X111655476Y-65483333D01*
X111655476Y-65483333D02*
X111560238Y-65578571D01*
X111560238Y-65578571D02*
X111512619Y-65721428D01*
X111512619Y-65721428D02*
X111512619Y-65816666D01*
X111512619Y-65816666D02*
X111560238Y-65959523D01*
X111560238Y-65959523D02*
X111607857Y-66007142D01*
X112512619Y-66959523D02*
X112512619Y-66388095D01*
X112512619Y-66673809D02*
X111512619Y-66673809D01*
X111512619Y-66673809D02*
X111655476Y-66578571D01*
X111655476Y-66578571D02*
X111750714Y-66483333D01*
X111750714Y-66483333D02*
X111798333Y-66388095D01*
X111512619Y-67816666D02*
X111512619Y-67626190D01*
X111512619Y-67626190D02*
X111560238Y-67530952D01*
X111560238Y-67530952D02*
X111607857Y-67483333D01*
X111607857Y-67483333D02*
X111750714Y-67388095D01*
X111750714Y-67388095D02*
X111941190Y-67340476D01*
X111941190Y-67340476D02*
X112322142Y-67340476D01*
X112322142Y-67340476D02*
X112417380Y-67388095D01*
X112417380Y-67388095D02*
X112465000Y-67435714D01*
X112465000Y-67435714D02*
X112512619Y-67530952D01*
X112512619Y-67530952D02*
X112512619Y-67721428D01*
X112512619Y-67721428D02*
X112465000Y-67816666D01*
X112465000Y-67816666D02*
X112417380Y-67864285D01*
X112417380Y-67864285D02*
X112322142Y-67911904D01*
X112322142Y-67911904D02*
X112084047Y-67911904D01*
X112084047Y-67911904D02*
X111988809Y-67864285D01*
X111988809Y-67864285D02*
X111941190Y-67816666D01*
X111941190Y-67816666D02*
X111893571Y-67721428D01*
X111893571Y-67721428D02*
X111893571Y-67530952D01*
X111893571Y-67530952D02*
X111941190Y-67435714D01*
X111941190Y-67435714D02*
X111988809Y-67388095D01*
X111988809Y-67388095D02*
X112084047Y-67340476D01*
%TO.C,R9*%
X109416666Y-84862619D02*
X109749999Y-84386428D01*
X109988094Y-84862619D02*
X109988094Y-83862619D01*
X109988094Y-83862619D02*
X109607142Y-83862619D01*
X109607142Y-83862619D02*
X109511904Y-83910238D01*
X109511904Y-83910238D02*
X109464285Y-83957857D01*
X109464285Y-83957857D02*
X109416666Y-84053095D01*
X109416666Y-84053095D02*
X109416666Y-84195952D01*
X109416666Y-84195952D02*
X109464285Y-84291190D01*
X109464285Y-84291190D02*
X109511904Y-84338809D01*
X109511904Y-84338809D02*
X109607142Y-84386428D01*
X109607142Y-84386428D02*
X109988094Y-84386428D01*
X108940475Y-84862619D02*
X108749999Y-84862619D01*
X108749999Y-84862619D02*
X108654761Y-84815000D01*
X108654761Y-84815000D02*
X108607142Y-84767380D01*
X108607142Y-84767380D02*
X108511904Y-84624523D01*
X108511904Y-84624523D02*
X108464285Y-84434047D01*
X108464285Y-84434047D02*
X108464285Y-84053095D01*
X108464285Y-84053095D02*
X108511904Y-83957857D01*
X108511904Y-83957857D02*
X108559523Y-83910238D01*
X108559523Y-83910238D02*
X108654761Y-83862619D01*
X108654761Y-83862619D02*
X108845237Y-83862619D01*
X108845237Y-83862619D02*
X108940475Y-83910238D01*
X108940475Y-83910238D02*
X108988094Y-83957857D01*
X108988094Y-83957857D02*
X109035713Y-84053095D01*
X109035713Y-84053095D02*
X109035713Y-84291190D01*
X109035713Y-84291190D02*
X108988094Y-84386428D01*
X108988094Y-84386428D02*
X108940475Y-84434047D01*
X108940475Y-84434047D02*
X108845237Y-84481666D01*
X108845237Y-84481666D02*
X108654761Y-84481666D01*
X108654761Y-84481666D02*
X108559523Y-84434047D01*
X108559523Y-84434047D02*
X108511904Y-84386428D01*
X108511904Y-84386428D02*
X108464285Y-84291190D01*
%TO.C,C7*%
X128666666Y-65317380D02*
X128714285Y-65365000D01*
X128714285Y-65365000D02*
X128857142Y-65412619D01*
X128857142Y-65412619D02*
X128952380Y-65412619D01*
X128952380Y-65412619D02*
X129095237Y-65365000D01*
X129095237Y-65365000D02*
X129190475Y-65269761D01*
X129190475Y-65269761D02*
X129238094Y-65174523D01*
X129238094Y-65174523D02*
X129285713Y-64984047D01*
X129285713Y-64984047D02*
X129285713Y-64841190D01*
X129285713Y-64841190D02*
X129238094Y-64650714D01*
X129238094Y-64650714D02*
X129190475Y-64555476D01*
X129190475Y-64555476D02*
X129095237Y-64460238D01*
X129095237Y-64460238D02*
X128952380Y-64412619D01*
X128952380Y-64412619D02*
X128857142Y-64412619D01*
X128857142Y-64412619D02*
X128714285Y-64460238D01*
X128714285Y-64460238D02*
X128666666Y-64507857D01*
X128333332Y-64412619D02*
X127666666Y-64412619D01*
X127666666Y-64412619D02*
X128095237Y-65412619D01*
D11*
%TO.C,C6*%
X135665000Y-67761252D02*
X135665000Y-67238748D01*
X137135000Y-67761252D02*
X137135000Y-67238748D01*
%TO.C,C19*%
X115240000Y-69827836D02*
X115240000Y-69612164D01*
X115960000Y-69827836D02*
X115960000Y-69612164D01*
%TO.C,C17*%
X110007836Y-80710000D02*
X109792164Y-80710000D01*
X110007836Y-79990000D02*
X109792164Y-79990000D01*
%TO.C,Y1*%
X97050000Y-83500000D02*
X97050000Y-70900000D01*
X102150000Y-83500000D02*
X97050000Y-83500000D01*
X102150000Y-70900000D02*
X102150000Y-83500000D01*
%TO.C,D1*%
X135090000Y-81900000D02*
X135090000Y-81100000D01*
X136450000Y-81100000D02*
X135090000Y-81100000D01*
X136450000Y-81900000D02*
X135090000Y-81900000D01*
%TO.C,R6*%
X106196359Y-72170000D02*
X106503641Y-72170000D01*
X106196359Y-72930000D02*
X106503641Y-72930000D01*
%TO.C,R7*%
X106596359Y-75520000D02*
X106903641Y-75520000D01*
X106596359Y-76280000D02*
X106903641Y-76280000D01*
%TO.C,R11*%
X136853641Y-72880000D02*
X136546359Y-72880000D01*
X136853641Y-72120000D02*
X136546359Y-72120000D01*
%TO.C,C9*%
X102690000Y-78157836D02*
X102690000Y-77942164D01*
X103410000Y-78157836D02*
X103410000Y-77942164D01*
%TO.C,R5*%
X111170000Y-81553641D02*
X111170000Y-81246359D01*
X111930000Y-81553641D02*
X111930000Y-81246359D01*
%TO.C,SW1*%
X136550000Y-90200000D02*
X135050000Y-90200000D01*
X132550000Y-88950000D02*
X132550000Y-84450000D01*
X139050000Y-84450000D02*
X139050000Y-88950000D01*
X135050000Y-83200000D02*
X136550000Y-83200000D01*
%TO.C,C8*%
X129860000Y-79562164D02*
X129860000Y-79777836D01*
X129140000Y-79562164D02*
X129140000Y-79777836D01*
%TO.C,U1*%
X109390000Y-79222500D02*
X110040000Y-79222500D01*
X109390000Y-78572500D02*
X109390000Y-79222500D01*
X116610000Y-78572500D02*
X116610000Y-79222500D01*
X109390000Y-72652500D02*
X109390000Y-72002500D01*
X116610000Y-72652500D02*
X116610000Y-72002500D01*
X109390000Y-72002500D02*
X110040000Y-72002500D01*
X116610000Y-72002500D02*
X115960000Y-72002500D01*
%TO.C,R1*%
X129796359Y-86220000D02*
X130103641Y-86220000D01*
X129796359Y-86980000D02*
X130103641Y-86980000D01*
%TO.C,R8*%
X112270000Y-81553641D02*
X112270000Y-81246359D01*
X113030000Y-81553641D02*
X113030000Y-81246359D01*
%TO.C,TP1*%
X126200000Y-68300000D02*
G75*
G03*
X126200000Y-68300000I-950000J0D01*
G01*
%TO.C,R12*%
X137008641Y-76430000D02*
X136701359Y-76430000D01*
X137008641Y-75670000D02*
X136701359Y-75670000D01*
%TO.C,C13*%
X106457836Y-73910000D02*
X106242164Y-73910000D01*
X106457836Y-73190000D02*
X106242164Y-73190000D01*
%TO.C,TP2*%
X134450000Y-77300000D02*
G75*
G03*
X134450000Y-77300000I-950000J0D01*
G01*
%TO.C,R2*%
X119503641Y-73980000D02*
X119196359Y-73980000D01*
X119503641Y-73220000D02*
X119196359Y-73220000D01*
%TO.C,C11*%
X119242164Y-72240000D02*
X119457836Y-72240000D01*
X119242164Y-72960000D02*
X119457836Y-72960000D01*
%TO.C,C1*%
X133440000Y-73157836D02*
X133440000Y-72942164D01*
X134160000Y-73157836D02*
X134160000Y-72942164D01*
%TO.C,R10*%
X130103641Y-85630000D02*
X129796359Y-85630000D01*
X130103641Y-84870000D02*
X129796359Y-84870000D01*
%TO.C,J1*%
X145200000Y-69630000D02*
X146350000Y-69630000D01*
X143100000Y-69630000D02*
X141300000Y-69630000D01*
X145200000Y-78970000D02*
X146350000Y-78970000D01*
X143100000Y-78970000D02*
X141300000Y-78970000D01*
%TO.C,R3*%
X119503641Y-74980000D02*
X119196359Y-74980000D01*
X119503641Y-74220000D02*
X119196359Y-74220000D01*
%TO.C,C20*%
X117340000Y-69777836D02*
X117340000Y-69562164D01*
X118060000Y-69777836D02*
X118060000Y-69562164D01*
%TO.C,C15*%
X115960000Y-80842164D02*
X115960000Y-81057836D01*
X115240000Y-80842164D02*
X115240000Y-81057836D01*
%TO.C,C2*%
X134160000Y-74992164D02*
X134160000Y-75207836D01*
X133440000Y-74992164D02*
X133440000Y-75207836D01*
%TO.C,TP3*%
X139900000Y-67450000D02*
G75*
G03*
X139900000Y-67450000I-950000J0D01*
G01*
%TO.C,U5*%
X122752500Y-85560000D02*
X123035000Y-85560000D01*
X127965000Y-85560000D02*
X127965000Y-87212500D01*
X128247500Y-85560000D02*
X127965000Y-85560000D01*
X122752500Y-82812500D02*
X122752500Y-85560000D01*
X122752500Y-82812500D02*
X122752500Y-80065000D01*
X128247500Y-82812500D02*
X128247500Y-85560000D01*
X128247500Y-82812500D02*
X128247500Y-80065000D01*
X122752500Y-80065000D02*
X123035000Y-80065000D01*
X128247500Y-80065000D02*
X127965000Y-80065000D01*
%TO.C,C12*%
X120342164Y-76252500D02*
X120557836Y-76252500D01*
X120342164Y-76972500D02*
X120557836Y-76972500D01*
%TO.C,C10*%
X103460000Y-75342164D02*
X103460000Y-75557836D01*
X102740000Y-75342164D02*
X102740000Y-75557836D01*
%TO.C,C14*%
X120342164Y-75252500D02*
X120557836Y-75252500D01*
X120342164Y-75972500D02*
X120557836Y-75972500D01*
%TO.C,TP4*%
X109400000Y-82300000D02*
G75*
G03*
X109400000Y-82300000I-950000J0D01*
G01*
%TO.C,C18*%
X106457836Y-75060000D02*
X106242164Y-75060000D01*
X106457836Y-74340000D02*
X106242164Y-74340000D01*
%TO.C,U3*%
X132450000Y-70760000D02*
X133250000Y-70760000D01*
X132450000Y-70760000D02*
X131650000Y-70760000D01*
X132450000Y-67640000D02*
X134250000Y-67640000D01*
X132450000Y-67640000D02*
X131650000Y-67640000D01*
%TO.C,C21*%
X119242164Y-71240000D02*
X119457836Y-71240000D01*
X119242164Y-71960000D02*
X119457836Y-71960000D01*
%TO.C,C16*%
X111640000Y-69807836D02*
X111640000Y-69592164D01*
X112360000Y-69807836D02*
X112360000Y-69592164D01*
%TO.C,R9*%
X110946359Y-83620000D02*
X111253641Y-83620000D01*
X110946359Y-84380000D02*
X111253641Y-84380000D01*
%TO.C,C7*%
X127765000Y-67611252D02*
X127765000Y-67088748D01*
X129235000Y-67611252D02*
X129235000Y-67088748D01*
%TD*%
M02*
