%TF.GenerationSoftware,KiCad,Pcbnew,7.0.1*%
%TF.CreationDate,2023-04-17T02:54:27-04:00*%
%TF.ProjectId,DesktopSensorHub,4465736b-746f-4705-9365-6e736f724875,rev?*%
%TF.SameCoordinates,Original*%
%TF.FileFunction,Copper,L2,Bot*%
%TF.FilePolarity,Positive*%
%FSLAX46Y46*%
G04 Gerber Fmt 4.6, Leading zero omitted, Abs format (unit mm)*
G04 Created by KiCad (PCBNEW 7.0.1) date 2023-04-17 02:54:27*
%MOMM*%
%LPD*%
G01*
G04 APERTURE LIST*
G04 Aperture macros list*
%AMRoundRect*
0 Rectangle with rounded corners*
0 $1 Rounding radius*
0 $2 $3 $4 $5 $6 $7 $8 $9 X,Y pos of 4 corners*
0 Add a 4 corners polygon primitive as box body*
4,1,4,$2,$3,$4,$5,$6,$7,$8,$9,$2,$3,0*
0 Add four circle primitives for the rounded corners*
1,1,$1+$1,$2,$3*
1,1,$1+$1,$4,$5*
1,1,$1+$1,$6,$7*
1,1,$1+$1,$8,$9*
0 Add four rect primitives between the rounded corners*
20,1,$1+$1,$2,$3,$4,$5,0*
20,1,$1+$1,$4,$5,$6,$7,0*
20,1,$1+$1,$6,$7,$8,$9,0*
20,1,$1+$1,$8,$9,$2,$3,0*%
G04 Aperture macros list end*
%TA.AperFunction,SMDPad,CuDef*%
%ADD10RoundRect,0.250000X0.475000X-0.250000X0.475000X0.250000X-0.475000X0.250000X-0.475000X-0.250000X0*%
%TD*%
%TA.AperFunction,SMDPad,CuDef*%
%ADD11RoundRect,0.140000X0.170000X-0.140000X0.170000X0.140000X-0.170000X0.140000X-0.170000X-0.140000X0*%
%TD*%
%TA.AperFunction,SMDPad,CuDef*%
%ADD12RoundRect,0.140000X0.140000X0.170000X-0.140000X0.170000X-0.140000X-0.170000X0.140000X-0.170000X0*%
%TD*%
%TA.AperFunction,SMDPad,CuDef*%
%ADD13R,2.000000X4.500000*%
%TD*%
%TA.AperFunction,SMDPad,CuDef*%
%ADD14RoundRect,0.062500X0.117500X0.062500X-0.117500X0.062500X-0.117500X-0.062500X0.117500X-0.062500X0*%
%TD*%
%TA.AperFunction,SMDPad,CuDef*%
%ADD15RoundRect,0.135000X-0.135000X-0.185000X0.135000X-0.185000X0.135000X0.185000X-0.135000X0.185000X0*%
%TD*%
%TA.AperFunction,SMDPad,CuDef*%
%ADD16RoundRect,0.135000X0.135000X0.185000X-0.135000X0.185000X-0.135000X-0.185000X0.135000X-0.185000X0*%
%TD*%
%TA.AperFunction,SMDPad,CuDef*%
%ADD17RoundRect,0.135000X0.185000X-0.135000X0.185000X0.135000X-0.185000X0.135000X-0.185000X-0.135000X0*%
%TD*%
%TA.AperFunction,ComponentPad*%
%ADD18C,2.000000*%
%TD*%
%TA.AperFunction,SMDPad,CuDef*%
%ADD19RoundRect,0.140000X-0.170000X0.140000X-0.170000X-0.140000X0.170000X-0.140000X0.170000X0.140000X0*%
%TD*%
%TA.AperFunction,SMDPad,CuDef*%
%ADD20RoundRect,0.050000X0.050000X-0.387500X0.050000X0.387500X-0.050000X0.387500X-0.050000X-0.387500X0*%
%TD*%
%TA.AperFunction,SMDPad,CuDef*%
%ADD21RoundRect,0.050000X0.387500X-0.050000X0.387500X0.050000X-0.387500X0.050000X-0.387500X-0.050000X0*%
%TD*%
%TA.AperFunction,ComponentPad*%
%ADD22C,0.600000*%
%TD*%
%TA.AperFunction,SMDPad,CuDef*%
%ADD23RoundRect,0.144000X1.456000X-1.456000X1.456000X1.456000X-1.456000X1.456000X-1.456000X-1.456000X0*%
%TD*%
%TA.AperFunction,SMDPad,CuDef*%
%ADD24C,1.500000*%
%TD*%
%TA.AperFunction,SMDPad,CuDef*%
%ADD25RoundRect,0.140000X-0.140000X-0.170000X0.140000X-0.170000X0.140000X0.170000X-0.140000X0.170000X0*%
%TD*%
%TA.AperFunction,SMDPad,CuDef*%
%ADD26R,1.150000X0.600000*%
%TD*%
%TA.AperFunction,SMDPad,CuDef*%
%ADD27R,1.150000X0.300000*%
%TD*%
%TA.AperFunction,ComponentPad*%
%ADD28O,1.800000X1.000000*%
%TD*%
%TA.AperFunction,ComponentPad*%
%ADD29O,2.100000X1.000000*%
%TD*%
%TA.AperFunction,SMDPad,CuDef*%
%ADD30RoundRect,0.150000X0.150000X-0.650000X0.150000X0.650000X-0.150000X0.650000X-0.150000X-0.650000X0*%
%TD*%
%TA.AperFunction,SMDPad,CuDef*%
%ADD31RoundRect,0.150000X0.512500X0.150000X-0.512500X0.150000X-0.512500X-0.150000X0.512500X-0.150000X0*%
%TD*%
%TA.AperFunction,ViaPad*%
%ADD32C,0.600000*%
%TD*%
%TA.AperFunction,Conductor*%
%ADD33C,0.200000*%
%TD*%
%TA.AperFunction,Conductor*%
%ADD34C,0.150000*%
%TD*%
%TA.AperFunction,Conductor*%
%ADD35C,0.600000*%
%TD*%
%TA.AperFunction,Conductor*%
%ADD36C,0.300000*%
%TD*%
%TA.AperFunction,Conductor*%
%ADD37C,0.400000*%
%TD*%
%TA.AperFunction,Conductor*%
%ADD38C,0.800000*%
%TD*%
G04 APERTURE END LIST*
D10*
%TO.P,C6,1*%
%TO.N,Net-(U3-EN)*%
X136400000Y-68450000D03*
%TO.P,C6,2*%
%TO.N,GND*%
X136400000Y-66550000D03*
%TD*%
D11*
%TO.P,C19,1*%
%TO.N,+3V3*%
X115600000Y-70200000D03*
%TO.P,C19,2*%
%TO.N,GND*%
X115600000Y-69240000D03*
%TD*%
D12*
%TO.P,C17,1*%
%TO.N,+3V3*%
X110380000Y-80350000D03*
%TO.P,C17,2*%
%TO.N,GND*%
X109420000Y-80350000D03*
%TD*%
D13*
%TO.P,Y1,1,1*%
%TO.N,Net-(U1-XIN)*%
X99600000Y-81050000D03*
%TO.P,Y1,2,2*%
%TO.N,Net-(C10-Pad2)*%
X99600000Y-72550000D03*
%TD*%
D14*
%TO.P,D1,1,A1*%
%TO.N,Net-(D1-A1)*%
X135530000Y-81500000D03*
%TO.P,D1,2,A2*%
%TO.N,GND*%
X136370000Y-81500000D03*
%TD*%
D15*
%TO.P,R6,1*%
%TO.N,+3V3*%
X105840000Y-72550000D03*
%TO.P,R6,2*%
%TO.N,Net-(U1-RUN)*%
X106860000Y-72550000D03*
%TD*%
%TO.P,R7,1*%
%TO.N,Net-(C10-Pad2)*%
X106240000Y-75900000D03*
%TO.P,R7,2*%
%TO.N,Net-(U1-XOUT)*%
X107260000Y-75900000D03*
%TD*%
D16*
%TO.P,R11,1*%
%TO.N,Net-(J1-CC1)*%
X137210000Y-72500000D03*
%TO.P,R11,2*%
%TO.N,GND*%
X136190000Y-72500000D03*
%TD*%
D11*
%TO.P,C9,1*%
%TO.N,GND*%
X103050000Y-78530000D03*
%TO.P,C9,2*%
%TO.N,Net-(U1-XIN)*%
X103050000Y-77570000D03*
%TD*%
D17*
%TO.P,R5,1*%
%TO.N,+3V3*%
X111550000Y-81910000D03*
%TO.P,R5,2*%
%TO.N,Net-(U1-GPIO4)*%
X111550000Y-80890000D03*
%TD*%
D18*
%TO.P,SW1,1,1*%
%TO.N,GND*%
X138050000Y-89950000D03*
X138050000Y-83450000D03*
%TO.P,SW1,2,2*%
%TO.N,Net-(D1-A1)*%
X133550000Y-89950000D03*
X133550000Y-83450000D03*
%TD*%
D19*
%TO.P,C8,1*%
%TO.N,+3V3*%
X129500000Y-79190000D03*
%TO.P,C8,2*%
%TO.N,GND*%
X129500000Y-80150000D03*
%TD*%
D20*
%TO.P,U1,1,IOVDD*%
%TO.N,+3V3*%
X115600000Y-79050000D03*
%TO.P,U1,2,GPIO0*%
%TO.N,unconnected-(U1-GPIO0-Pad2)*%
X115200000Y-79050000D03*
%TO.P,U1,3,GPIO1*%
%TO.N,unconnected-(U1-GPIO1-Pad3)*%
X114800000Y-79050000D03*
%TO.P,U1,4,GPIO2*%
%TO.N,Net-(U1-GPIO2)*%
X114400000Y-79050000D03*
%TO.P,U1,5,GPIO3*%
%TO.N,Net-(U1-GPIO3)*%
X114000000Y-79050000D03*
%TO.P,U1,6,GPIO4*%
%TO.N,Net-(U1-GPIO4)*%
X113600000Y-79050000D03*
%TO.P,U1,7,GPIO5*%
%TO.N,unconnected-(U1-GPIO5-Pad7)*%
X113200000Y-79050000D03*
%TO.P,U1,8,GPIO6*%
%TO.N,unconnected-(U1-GPIO6-Pad8)*%
X112800000Y-79050000D03*
%TO.P,U1,9,GPIO7*%
%TO.N,unconnected-(U1-GPIO7-Pad9)*%
X112400000Y-79050000D03*
%TO.P,U1,10,IOVDD*%
%TO.N,+3V3*%
X112000000Y-79050000D03*
%TO.P,U1,11,GPIO8*%
%TO.N,unconnected-(U1-GPIO8-Pad11)*%
X111600000Y-79050000D03*
%TO.P,U1,12,GPIO9*%
%TO.N,unconnected-(U1-GPIO9-Pad12)*%
X111200000Y-79050000D03*
%TO.P,U1,13,GPIO10*%
%TO.N,unconnected-(U1-GPIO10-Pad13)*%
X110800000Y-79050000D03*
%TO.P,U1,14,GPIO11*%
%TO.N,unconnected-(U1-GPIO11-Pad14)*%
X110400000Y-79050000D03*
D21*
%TO.P,U1,15,GPIO12*%
%TO.N,unconnected-(U1-GPIO12-Pad15)*%
X109562500Y-78212500D03*
%TO.P,U1,16,GPIO13*%
%TO.N,unconnected-(U1-GPIO13-Pad16)*%
X109562500Y-77812500D03*
%TO.P,U1,17,GPIO14*%
%TO.N,unconnected-(U1-GPIO14-Pad17)*%
X109562500Y-77412500D03*
%TO.P,U1,18,GPIO15*%
%TO.N,unconnected-(U1-GPIO15-Pad18)*%
X109562500Y-77012500D03*
%TO.P,U1,19,TESTEN*%
%TO.N,GND*%
X109562500Y-76612500D03*
%TO.P,U1,20,XIN*%
%TO.N,Net-(U1-XIN)*%
X109562500Y-76212500D03*
%TO.P,U1,21,XOUT*%
%TO.N,Net-(U1-XOUT)*%
X109562500Y-75812500D03*
%TO.P,U1,22,IOVDD*%
%TO.N,+3V3*%
X109562500Y-75412500D03*
%TO.P,U1,23,DVDD*%
%TO.N,+1V1*%
X109562500Y-75012500D03*
%TO.P,U1,24,SWCLK*%
%TO.N,unconnected-(U1-SWCLK-Pad24)*%
X109562500Y-74612500D03*
%TO.P,U1,25,SWD*%
%TO.N,unconnected-(U1-SWD-Pad25)*%
X109562500Y-74212500D03*
%TO.P,U1,26,RUN*%
%TO.N,Net-(U1-RUN)*%
X109562500Y-73812500D03*
%TO.P,U1,27,GPIO16*%
%TO.N,unconnected-(U1-GPIO16-Pad27)*%
X109562500Y-73412500D03*
%TO.P,U1,28,GPIO17*%
%TO.N,unconnected-(U1-GPIO17-Pad28)*%
X109562500Y-73012500D03*
D20*
%TO.P,U1,29,GPIO18*%
%TO.N,unconnected-(U1-GPIO18-Pad29)*%
X110400000Y-72175000D03*
%TO.P,U1,30,GPIO19*%
%TO.N,unconnected-(U1-GPIO19-Pad30)*%
X110800000Y-72175000D03*
%TO.P,U1,31,GPIO20*%
%TO.N,unconnected-(U1-GPIO20-Pad31)*%
X111200000Y-72175000D03*
%TO.P,U1,32,GPIO21*%
%TO.N,unconnected-(U1-GPIO21-Pad32)*%
X111600000Y-72175000D03*
%TO.P,U1,33,IOVDD*%
%TO.N,+3V3*%
X112000000Y-72175000D03*
%TO.P,U1,34,GPIO22*%
%TO.N,unconnected-(U1-GPIO22-Pad34)*%
X112400000Y-72175000D03*
%TO.P,U1,35,GPIO23*%
%TO.N,unconnected-(U1-GPIO23-Pad35)*%
X112800000Y-72175000D03*
%TO.P,U1,36,GPIO24*%
%TO.N,unconnected-(U1-GPIO24-Pad36)*%
X113200000Y-72175000D03*
%TO.P,U1,37,GPIO25*%
%TO.N,unconnected-(U1-GPIO25-Pad37)*%
X113600000Y-72175000D03*
%TO.P,U1,38,GPIO26_ADC0*%
%TO.N,unconnected-(U1-GPIO26_ADC0-Pad38)*%
X114000000Y-72175000D03*
%TO.P,U1,39,GPIO27_ADC1*%
%TO.N,unconnected-(U1-GPIO27_ADC1-Pad39)*%
X114400000Y-72175000D03*
%TO.P,U1,40,GPIO28_ADC2*%
%TO.N,unconnected-(U1-GPIO28_ADC2-Pad40)*%
X114800000Y-72175000D03*
%TO.P,U1,41,GPIO29_ADC3*%
%TO.N,unconnected-(U1-GPIO29_ADC3-Pad41)*%
X115200000Y-72175000D03*
%TO.P,U1,42,IOVDD*%
%TO.N,+3V3*%
X115600000Y-72175000D03*
D21*
%TO.P,U1,43,ADC_AVDD*%
X116437500Y-73012500D03*
%TO.P,U1,44,VREG_IN*%
X116437500Y-73412500D03*
%TO.P,U1,45,VREG_VOUT*%
%TO.N,+1V1*%
X116437500Y-73812500D03*
%TO.P,U1,46,USB_DM*%
%TO.N,Net-(U1-USB_DM)*%
X116437500Y-74212500D03*
%TO.P,U1,47,USB_DP*%
%TO.N,Net-(U1-USB_DP)*%
X116437500Y-74612500D03*
%TO.P,U1,48,USB_VDD*%
%TO.N,+3V3*%
X116437500Y-75012500D03*
%TO.P,U1,49,IOVDD*%
X116437500Y-75412500D03*
%TO.P,U1,50,DVDD*%
%TO.N,+1V1*%
X116437500Y-75812500D03*
%TO.P,U1,51,QSPI_SD3*%
%TO.N,Net-(U1-QSPI_SD3)*%
X116437500Y-76212500D03*
%TO.P,U1,52,QSPI_SCLK*%
%TO.N,Net-(U1-QSPI_SCLK)*%
X116437500Y-76612500D03*
%TO.P,U1,53,QSPI_SD0*%
%TO.N,Net-(U1-QSPI_SD0)*%
X116437500Y-77012500D03*
%TO.P,U1,54,QSPI_SD2*%
%TO.N,Net-(U1-QSPI_SD2)*%
X116437500Y-77412500D03*
%TO.P,U1,55,QSPI_SD1*%
%TO.N,Net-(U1-QSPI_SD1)*%
X116437500Y-77812500D03*
%TO.P,U1,56,QSPI_SS*%
%TO.N,Net-(U1-QSPI_SS)*%
X116437500Y-78212500D03*
D22*
%TO.P,U1,57,GND*%
%TO.N,GND*%
X111725000Y-76887500D03*
X113000000Y-76887500D03*
X114275000Y-76887500D03*
X111725000Y-75612500D03*
X113000000Y-75612500D03*
D23*
X113000000Y-75612500D03*
D22*
X114275000Y-75612500D03*
X111725000Y-74337500D03*
X113000000Y-74337500D03*
X114275000Y-74337500D03*
%TD*%
D15*
%TO.P,R1,1*%
%TO.N,Net-(U1-QSPI_SS)*%
X129440000Y-86600000D03*
%TO.P,R1,2*%
%TO.N,Net-(D1-A1)*%
X130460000Y-86600000D03*
%TD*%
D17*
%TO.P,R8,1*%
%TO.N,+3V3*%
X112650000Y-81910000D03*
%TO.P,R8,2*%
%TO.N,Net-(U1-GPIO3)*%
X112650000Y-80890000D03*
%TD*%
D24*
%TO.P,TP1,1,1*%
%TO.N,+3V3*%
X125250000Y-68300000D03*
%TD*%
D16*
%TO.P,R12,1*%
%TO.N,Net-(J1-CC2)*%
X137365000Y-76050000D03*
%TO.P,R12,2*%
%TO.N,GND*%
X136345000Y-76050000D03*
%TD*%
D12*
%TO.P,C13,1*%
%TO.N,+1V1*%
X106830000Y-73550000D03*
%TO.P,C13,2*%
%TO.N,GND*%
X105870000Y-73550000D03*
%TD*%
D24*
%TO.P,TP2,1,1*%
%TO.N,GND*%
X133500000Y-77300000D03*
%TD*%
D16*
%TO.P,R2,1*%
%TO.N,/USB_D-*%
X119860000Y-73600000D03*
%TO.P,R2,2*%
%TO.N,Net-(U1-USB_DM)*%
X118840000Y-73600000D03*
%TD*%
D25*
%TO.P,C11,1*%
%TO.N,+1V1*%
X118870000Y-72600000D03*
%TO.P,C11,2*%
%TO.N,GND*%
X119830000Y-72600000D03*
%TD*%
D11*
%TO.P,C1,1*%
%TO.N,/USB_D-*%
X133800000Y-73530000D03*
%TO.P,C1,2*%
%TO.N,GND*%
X133800000Y-72570000D03*
%TD*%
D16*
%TO.P,R10,1*%
%TO.N,+3V3*%
X130460000Y-85250000D03*
%TO.P,R10,2*%
%TO.N,Net-(U1-QSPI_SS)*%
X129440000Y-85250000D03*
%TD*%
D26*
%TO.P,J1,A1,GND*%
%TO.N,GND*%
X139420000Y-71100000D03*
%TO.P,J1,A4,VBUS*%
%TO.N,Net-(U3-EN)*%
X139420000Y-71900000D03*
D27*
%TO.P,J1,A5,CC1*%
%TO.N,Net-(J1-CC1)*%
X139420000Y-73050000D03*
%TO.P,J1,A6,D+*%
%TO.N,/USB_D+*%
X139420000Y-74050000D03*
%TO.P,J1,A7,D-*%
%TO.N,/USB_D-*%
X139420000Y-74550000D03*
%TO.P,J1,A8,SBU1*%
%TO.N,unconnected-(J1-SBU1-PadA8)*%
X139420000Y-75550000D03*
D26*
%TO.P,J1,A9,VBUS*%
%TO.N,Net-(U3-EN)*%
X139420000Y-76700000D03*
%TO.P,J1,A12,GND*%
%TO.N,GND*%
X139420000Y-77500000D03*
%TO.P,J1,B1,GND*%
X139420000Y-77500000D03*
%TO.P,J1,B4,VBUS*%
%TO.N,Net-(U3-EN)*%
X139420000Y-76700000D03*
D27*
%TO.P,J1,B5,CC2*%
%TO.N,Net-(J1-CC2)*%
X139420000Y-76050000D03*
%TO.P,J1,B6,D+*%
%TO.N,/USB_D+*%
X139420000Y-75050000D03*
%TO.P,J1,B7,D-*%
%TO.N,/USB_D-*%
X139420000Y-73550000D03*
%TO.P,J1,B8,SBU2*%
%TO.N,unconnected-(J1-SBU2-PadB8)*%
X139420000Y-72550000D03*
D26*
%TO.P,J1,B9,VBUS*%
%TO.N,Net-(U3-EN)*%
X139420000Y-71900000D03*
%TO.P,J1,B12,GND*%
%TO.N,GND*%
X139420000Y-71100000D03*
D28*
%TO.P,J1,S1,SHIELD*%
%TO.N,Net-(J1-SHIELD)*%
X144175000Y-69980000D03*
D29*
X139995000Y-69980000D03*
D28*
X144175000Y-78620000D03*
D29*
X139995000Y-78620000D03*
%TD*%
D16*
%TO.P,R3,1*%
%TO.N,/USB_D+*%
X119860000Y-74600000D03*
%TO.P,R3,2*%
%TO.N,Net-(U1-USB_DP)*%
X118840000Y-74600000D03*
%TD*%
D11*
%TO.P,C20,1*%
%TO.N,+3V3*%
X117700000Y-70150000D03*
%TO.P,C20,2*%
%TO.N,GND*%
X117700000Y-69190000D03*
%TD*%
D19*
%TO.P,C15,1*%
%TO.N,+3V3*%
X115600000Y-80470000D03*
%TO.P,C15,2*%
%TO.N,GND*%
X115600000Y-81430000D03*
%TD*%
%TO.P,C2,1*%
%TO.N,/USB_D+*%
X133800000Y-74620000D03*
%TO.P,C2,2*%
%TO.N,GND*%
X133800000Y-75580000D03*
%TD*%
D24*
%TO.P,TP3,1,1*%
%TO.N,Net-(U3-EN)*%
X138950000Y-67450000D03*
%TD*%
D30*
%TO.P,U5,1,~{CS}*%
%TO.N,Net-(U1-QSPI_SS)*%
X127405000Y-86412500D03*
%TO.P,U5,2,DO(IO1)*%
%TO.N,Net-(U1-QSPI_SD1)*%
X126135000Y-86412500D03*
%TO.P,U5,3,IO2*%
%TO.N,Net-(U1-QSPI_SD2)*%
X124865000Y-86412500D03*
%TO.P,U5,4,GND*%
%TO.N,GND*%
X123595000Y-86412500D03*
%TO.P,U5,5,DI(IO0)*%
%TO.N,Net-(U1-QSPI_SD0)*%
X123595000Y-79212500D03*
%TO.P,U5,6,CLK*%
%TO.N,Net-(U1-QSPI_SCLK)*%
X124865000Y-79212500D03*
%TO.P,U5,7,IO3*%
%TO.N,Net-(U1-QSPI_SD3)*%
X126135000Y-79212500D03*
%TO.P,U5,8,VCC*%
%TO.N,+3V3*%
X127405000Y-79212500D03*
%TD*%
D25*
%TO.P,C12,1*%
%TO.N,+1V1*%
X119970000Y-76612500D03*
%TO.P,C12,2*%
%TO.N,GND*%
X120930000Y-76612500D03*
%TD*%
D19*
%TO.P,C10,1*%
%TO.N,GND*%
X103100000Y-74970000D03*
%TO.P,C10,2*%
%TO.N,Net-(C10-Pad2)*%
X103100000Y-75930000D03*
%TD*%
D25*
%TO.P,C14,1*%
%TO.N,+3V3*%
X119970000Y-75612500D03*
%TO.P,C14,2*%
%TO.N,GND*%
X120930000Y-75612500D03*
%TD*%
D24*
%TO.P,TP4,1,1*%
%TO.N,Net-(U1-GPIO4)*%
X108450000Y-82300000D03*
%TD*%
D12*
%TO.P,C18,1*%
%TO.N,+3V3*%
X106830000Y-74700000D03*
%TO.P,C18,2*%
%TO.N,GND*%
X105870000Y-74700000D03*
%TD*%
D31*
%TO.P,U3,1,VIN*%
%TO.N,Net-(U3-EN)*%
X133587500Y-68250000D03*
%TO.P,U3,2,GND*%
%TO.N,GND*%
X133587500Y-69200000D03*
%TO.P,U3,3,EN*%
%TO.N,Net-(U3-EN)*%
X133587500Y-70150000D03*
%TO.P,U3,4,NC*%
%TO.N,unconnected-(U3-NC-Pad4)*%
X131312500Y-70150000D03*
%TO.P,U3,5,VOUT*%
%TO.N,+3V3*%
X131312500Y-68250000D03*
%TD*%
D25*
%TO.P,C21,1*%
%TO.N,+3V3*%
X118870000Y-71600000D03*
%TO.P,C21,2*%
%TO.N,GND*%
X119830000Y-71600000D03*
%TD*%
D11*
%TO.P,C16,1*%
%TO.N,+3V3*%
X112000000Y-70180000D03*
%TO.P,C16,2*%
%TO.N,GND*%
X112000000Y-69220000D03*
%TD*%
D15*
%TO.P,R9,1*%
%TO.N,+3V3*%
X110590000Y-84000000D03*
%TO.P,R9,2*%
%TO.N,Net-(U1-GPIO2)*%
X111610000Y-84000000D03*
%TD*%
D10*
%TO.P,C7,1*%
%TO.N,+3V3*%
X128500000Y-68300000D03*
%TO.P,C7,2*%
%TO.N,GND*%
X128500000Y-66400000D03*
%TD*%
D32*
%TO.N,GND*%
X134800000Y-75580000D03*
X115600000Y-68220000D03*
X97700000Y-70550000D03*
X97700000Y-83000000D03*
X132450000Y-66550000D03*
X100550000Y-76750000D03*
X117700000Y-68170000D03*
X138250000Y-71100000D03*
X103100000Y-74100000D03*
X129500000Y-81050000D03*
X134800000Y-72570000D03*
X123600000Y-84700000D03*
X138250000Y-77500000D03*
X105050000Y-73550000D03*
X120750000Y-72600000D03*
X121850000Y-75600000D03*
X101500000Y-83000000D03*
X101550000Y-77450000D03*
X115600000Y-82350000D03*
X121850000Y-76600000D03*
X103050000Y-79450000D03*
X108500000Y-80350000D03*
X101400000Y-70500000D03*
X108400000Y-77350000D03*
X120750000Y-71600000D03*
X112000000Y-68250000D03*
X101600000Y-76050000D03*
%TO.N,+3V3*%
X113200000Y-83300000D03*
%TO.N,+1V1*%
X117750000Y-75812500D03*
X108300000Y-74300000D03*
X115050000Y-75000000D03*
X110950000Y-74950000D03*
%TO.N,Net-(U1-GPIO4)*%
X113475500Y-79950000D03*
%TO.N,Net-(U1-GPIO3)*%
X113875500Y-80700000D03*
%TO.N,Net-(U1-GPIO2)*%
X111600000Y-84850000D03*
%TD*%
D33*
%TO.N,GND*%
X134800000Y-75580000D02*
X134800000Y-76000000D01*
D34*
X133800000Y-75580000D02*
X134800000Y-75580000D01*
D33*
X105870000Y-73550000D02*
X105050000Y-73550000D01*
X109100736Y-76612500D02*
X108400000Y-77313236D01*
X120930000Y-76612500D02*
X121837500Y-76612500D01*
D34*
X136370000Y-81500000D02*
X136900000Y-81500000D01*
D33*
X121837500Y-76612500D02*
X121850000Y-76600000D01*
D34*
X136345000Y-76050000D02*
X135875000Y-75580000D01*
D33*
X123595000Y-84705000D02*
X123600000Y-84700000D01*
X103370000Y-74700000D02*
X103100000Y-74970000D01*
X109562500Y-76612500D02*
X109100736Y-76612500D01*
D34*
X133800000Y-72570000D02*
X134800000Y-72570000D01*
X136900000Y-81500000D02*
X138050000Y-82650000D01*
D33*
X112000000Y-68250000D02*
X112000000Y-69220000D01*
X109420000Y-80350000D02*
X108500000Y-80350000D01*
X108400000Y-77313236D02*
X108400000Y-77350000D01*
X121837500Y-75612500D02*
X121850000Y-75600000D01*
D35*
X139420000Y-71100000D02*
X138250000Y-71100000D01*
D34*
X135875000Y-75580000D02*
X134800000Y-75580000D01*
D33*
X132450000Y-66550000D02*
X132450000Y-68650000D01*
D35*
X138250000Y-77500000D02*
X139420000Y-77500000D01*
D33*
X133000000Y-69200000D02*
X132450000Y-68650000D01*
X117700000Y-69190000D02*
X117700000Y-68170000D01*
D34*
X134870000Y-72500000D02*
X134800000Y-72570000D01*
D33*
X132450000Y-66550000D02*
X128650000Y-66550000D01*
D34*
X138050000Y-82650000D02*
X138050000Y-83450000D01*
D33*
X128650000Y-66550000D02*
X128500000Y-66400000D01*
D34*
X103050000Y-79450000D02*
X103050000Y-78530000D01*
D33*
X119830000Y-72600000D02*
X120750000Y-72600000D01*
X123595000Y-86412500D02*
X123595000Y-84705000D01*
D34*
X129500000Y-81050000D02*
X129500000Y-80150000D01*
D33*
X134800000Y-76000000D02*
X133500000Y-77300000D01*
X120930000Y-75612500D02*
X121837500Y-75612500D01*
X119830000Y-71600000D02*
X120750000Y-71600000D01*
X105870000Y-74700000D02*
X103370000Y-74700000D01*
X133587500Y-69200000D02*
X133000000Y-69200000D01*
D34*
X136190000Y-72500000D02*
X134870000Y-72500000D01*
X103100000Y-74100000D02*
X103100000Y-74970000D01*
D33*
X115600000Y-69240000D02*
X115600000Y-68220000D01*
X115600000Y-81430000D02*
X115600000Y-82350000D01*
X136400000Y-66550000D02*
X132450000Y-66550000D01*
%TO.N,+3V3*%
X127405000Y-79212500D02*
X127427500Y-79190000D01*
X116437500Y-73012500D02*
X117700000Y-71750000D01*
X112000000Y-79050000D02*
X112000000Y-79511764D01*
X117300000Y-75250000D02*
X118500000Y-75250000D01*
X109562500Y-75412500D02*
X108562500Y-75412500D01*
D34*
X104842537Y-74085000D02*
X104525000Y-73767463D01*
D33*
X108562500Y-75412500D02*
X107850000Y-74700000D01*
X118500000Y-75250000D02*
X118862500Y-75612500D01*
X115600000Y-72175000D02*
X115600000Y-72900000D01*
X115912500Y-73412500D02*
X115700000Y-73200000D01*
D34*
X107850000Y-74700000D02*
X107235000Y-74085000D01*
D33*
X109562500Y-75412500D02*
X110212500Y-75412500D01*
X112000000Y-79050000D02*
X112000000Y-78250000D01*
X118862500Y-75612500D02*
X119970000Y-75612500D01*
X117062500Y-75012500D02*
X117300000Y-75250000D01*
X116437500Y-73412500D02*
X115912500Y-73412500D01*
X112000000Y-72175000D02*
X112000000Y-70180000D01*
D34*
X107235000Y-74085000D02*
X104842537Y-74085000D01*
D33*
X115600000Y-70200000D02*
X115600000Y-72175000D01*
X116437500Y-75412500D02*
X115712500Y-75412500D01*
X127427500Y-79190000D02*
X129500000Y-79190000D01*
X117700000Y-71750000D02*
X117700000Y-70150000D01*
X115987500Y-75012500D02*
X115700000Y-75300000D01*
X116437500Y-73412500D02*
X116837500Y-73412500D01*
X116437500Y-75012500D02*
X115987500Y-75012500D01*
D34*
X105250000Y-72550000D02*
X105840000Y-72550000D01*
D33*
X112000000Y-79511764D02*
X111161764Y-80350000D01*
X115600000Y-79050000D02*
X115600000Y-78250000D01*
X110212500Y-75412500D02*
X110350000Y-75550000D01*
X107850000Y-74700000D02*
X106830000Y-74700000D01*
D34*
X104525000Y-73767463D02*
X104525000Y-73275000D01*
D33*
X116437500Y-75412500D02*
X117137500Y-75412500D01*
X111161764Y-80350000D02*
X110380000Y-80350000D01*
X116437500Y-73012500D02*
X115712500Y-73012500D01*
D34*
X104525000Y-73275000D02*
X105250000Y-72550000D01*
D33*
X116437500Y-75012500D02*
X117062500Y-75012500D01*
X116837500Y-73412500D02*
X118650000Y-71600000D01*
X115600000Y-79050000D02*
X115600000Y-80470000D01*
X118650000Y-71600000D02*
X118870000Y-71600000D01*
X117137500Y-75412500D02*
X117300000Y-75250000D01*
D36*
%TO.N,Net-(U3-EN)*%
X139959695Y-71900000D02*
X139420000Y-71900000D01*
X139420000Y-76700000D02*
X139959695Y-76700000D01*
D37*
X138950000Y-67450000D02*
X137950000Y-68450000D01*
X139420000Y-71900000D02*
X138000000Y-71900000D01*
X137950000Y-68450000D02*
X136400000Y-68450000D01*
D36*
X140705000Y-75954695D02*
X140705000Y-72645305D01*
X140705000Y-72645305D02*
X139959695Y-71900000D01*
D37*
X138000000Y-71900000D02*
X137400000Y-71300000D01*
D36*
X139959695Y-76700000D02*
X140705000Y-75954695D01*
D34*
%TO.N,Net-(U1-XIN)*%
X109562500Y-76212500D02*
X108187500Y-76212500D01*
X103050000Y-77570000D02*
X102380000Y-76900000D01*
X99600000Y-78550000D02*
X99600000Y-81050000D01*
X102380000Y-76900000D02*
X101250000Y-76900000D01*
X101250000Y-76900000D02*
X99600000Y-78550000D01*
X106830000Y-77570000D02*
X103050000Y-77570000D01*
X108187500Y-76212500D02*
X106830000Y-77570000D01*
%TO.N,Net-(C10-Pad2)*%
X103130000Y-75900000D02*
X103100000Y-75930000D01*
X99600000Y-74950000D02*
X99600000Y-72550000D01*
X106240000Y-75900000D02*
X103130000Y-75900000D01*
X101250000Y-76600000D02*
X99600000Y-74950000D01*
X102430000Y-76600000D02*
X101250000Y-76600000D01*
X103100000Y-75930000D02*
X102430000Y-76600000D01*
%TO.N,+1V1*%
X119000000Y-76612500D02*
X119970000Y-76612500D01*
D33*
X109012500Y-75012500D02*
X108300000Y-74300000D01*
D34*
X118200000Y-75812500D02*
X119000000Y-76612500D01*
D33*
X107550000Y-73550000D02*
X106830000Y-73550000D01*
D34*
X117750000Y-75812500D02*
X118200000Y-75812500D01*
X116437500Y-75812500D02*
X117750000Y-75812500D01*
D33*
X116437500Y-73812500D02*
X115737500Y-73812500D01*
X117087500Y-73812500D02*
X118300000Y-72600000D01*
X109562500Y-75012500D02*
X109012500Y-75012500D01*
X116437500Y-73812500D02*
X117087500Y-73812500D01*
X118300000Y-72600000D02*
X118870000Y-72600000D01*
X108300000Y-74300000D02*
X107550000Y-73550000D01*
D34*
%TO.N,Net-(D1-A1)*%
X130460000Y-86540000D02*
X130460000Y-86600000D01*
X134850000Y-81500000D02*
X133550000Y-82800000D01*
X130460000Y-86860000D02*
X133550000Y-89950000D01*
X133550000Y-83450000D02*
X130460000Y-86540000D01*
X135530000Y-81500000D02*
X134850000Y-81500000D01*
X130460000Y-86600000D02*
X130460000Y-86860000D01*
X133550000Y-82800000D02*
X133550000Y-83450000D01*
%TO.N,Net-(J1-CC1)*%
X138205000Y-72500000D02*
X137210000Y-72500000D01*
X139420000Y-73050000D02*
X138755000Y-73050000D01*
X138755000Y-73050000D02*
X138205000Y-72500000D01*
%TO.N,Net-(J1-CC2)*%
X137365000Y-76050000D02*
X139420000Y-76050000D01*
%TO.N,Net-(U1-QSPI_SS)*%
X127405000Y-87107500D02*
X127405000Y-86412500D01*
X126300000Y-88212500D02*
X127405000Y-87107500D01*
X129440000Y-86600000D02*
X127592500Y-86600000D01*
X129440000Y-85250000D02*
X129440000Y-86600000D01*
X121700000Y-87512500D02*
X122400000Y-88212500D01*
X122400000Y-88212500D02*
X126300000Y-88212500D01*
X121700000Y-82612500D02*
X121700000Y-87512500D01*
X127592500Y-86600000D02*
X127405000Y-86412500D01*
X116437500Y-78212500D02*
X117300000Y-78212500D01*
X117300000Y-78212500D02*
X121700000Y-82612500D01*
D36*
%TO.N,/USB_D-*%
X138532499Y-73575000D02*
X138557499Y-73550000D01*
D33*
X140105000Y-73550000D02*
X139420000Y-73550000D01*
D38*
X119885000Y-73625000D02*
X119860000Y-73600000D01*
D36*
X137550000Y-73575000D02*
X138532499Y-73575000D01*
D33*
X139420000Y-74550000D02*
X140105000Y-74550000D01*
X140305000Y-73750000D02*
X140105000Y-73550000D01*
X140305000Y-74350000D02*
X140305000Y-73750000D01*
D36*
X138557499Y-73550000D02*
X139420000Y-73550000D01*
D38*
X137500000Y-73625000D02*
X119885000Y-73625000D01*
D33*
X140105000Y-74550000D02*
X140305000Y-74350000D01*
%TO.N,/USB_D+*%
X138705000Y-75050000D02*
X139420000Y-75050000D01*
D36*
X138532499Y-74025000D02*
X138557499Y-74050000D01*
X138557499Y-74050000D02*
X139420000Y-74050000D01*
D33*
X139420000Y-74050000D02*
X138730000Y-74050000D01*
D38*
X119885000Y-74575000D02*
X119860000Y-74600000D01*
D36*
X137700000Y-74575000D02*
X138250000Y-74025000D01*
D33*
X138505000Y-74850000D02*
X138705000Y-75050000D01*
X138505000Y-74275000D02*
X138505000Y-74850000D01*
D36*
X138250000Y-74025000D02*
X138532499Y-74025000D01*
D38*
X137700000Y-74575000D02*
X119885000Y-74575000D01*
D33*
X138730000Y-74050000D02*
X138505000Y-74275000D01*
D34*
%TO.N,Net-(U1-GPIO4)*%
X113600000Y-79825500D02*
X113475500Y-79950000D01*
X113475500Y-79950000D02*
X112490000Y-79950000D01*
X113600000Y-79050000D02*
X113600000Y-79825500D01*
X112490000Y-79950000D02*
X111550000Y-80890000D01*
X109550000Y-82300000D02*
X108450000Y-82300000D01*
X111550000Y-80890000D02*
X110960000Y-80890000D01*
X110960000Y-80890000D02*
X109550000Y-82300000D01*
%TO.N,Net-(U1-RUN)*%
X108375000Y-73775000D02*
X107150000Y-72550000D01*
X109562500Y-73812500D02*
X109525000Y-73775000D01*
X109525000Y-73775000D02*
X108375000Y-73775000D01*
X107150000Y-72550000D02*
X106860000Y-72550000D01*
%TO.N,Net-(U1-XOUT)*%
X107347500Y-75812500D02*
X107260000Y-75900000D01*
X109562500Y-75812500D02*
X107347500Y-75812500D01*
%TO.N,Net-(U1-GPIO3)*%
X114000000Y-79050000D02*
X114000000Y-80575500D01*
X112840000Y-80700000D02*
X112650000Y-80890000D01*
X114000000Y-80575500D02*
X113875500Y-80700000D01*
X113875500Y-80700000D02*
X112840000Y-80700000D01*
%TO.N,Net-(U1-GPIO2)*%
X114400000Y-81050000D02*
X111600000Y-83850000D01*
X114400000Y-79050000D02*
X114400000Y-81050000D01*
X111600000Y-83850000D02*
X111600000Y-84850000D01*
%TO.N,Net-(U1-QSPI_SD3)*%
X118175000Y-76337500D02*
X119250000Y-77412500D01*
X126135000Y-78447500D02*
X126135000Y-79212500D01*
X116437500Y-76212500D02*
X116863909Y-76212500D01*
X119250000Y-77412500D02*
X125100000Y-77412500D01*
X125100000Y-77412500D02*
X126135000Y-78447500D01*
X116863909Y-76212500D02*
X116988909Y-76337500D01*
X116988909Y-76337500D02*
X118175000Y-76337500D01*
%TO.N,Net-(U1-QSPI_SCLK)*%
X119100000Y-77812500D02*
X124150000Y-77812500D01*
X117925000Y-76637500D02*
X119100000Y-77812500D01*
X116437500Y-76612500D02*
X116462500Y-76637500D01*
X116462500Y-76637500D02*
X117925000Y-76637500D01*
X124150000Y-77812500D02*
X124865000Y-78527500D01*
X124865000Y-78477500D02*
X124865000Y-79212500D01*
X124865000Y-78527500D02*
X124865000Y-79212500D01*
%TO.N,Net-(U1-QSPI_SD0)*%
X118950000Y-78212500D02*
X123100000Y-78212500D01*
X123595000Y-78707500D02*
X123595000Y-79212500D01*
X117750000Y-77012500D02*
X118950000Y-78212500D01*
X116437500Y-77012500D02*
X117750000Y-77012500D01*
X123100000Y-78212500D02*
X123595000Y-78707500D01*
%TO.N,Net-(U1-QSPI_SD2)*%
X124865000Y-84677500D02*
X124865000Y-86412500D01*
X117600000Y-77412500D02*
X124865000Y-84677500D01*
X116437500Y-77412500D02*
X117600000Y-77412500D01*
%TO.N,Net-(U1-QSPI_SD1)*%
X116437500Y-77812500D02*
X117450000Y-77812500D01*
X125550000Y-87812500D02*
X126135000Y-87227500D01*
X117450000Y-77812500D02*
X122100000Y-82462500D01*
X122550000Y-87812500D02*
X125550000Y-87812500D01*
X122100000Y-87362500D02*
X122550000Y-87812500D01*
X126135000Y-87227500D02*
X126135000Y-86412500D01*
X122100000Y-82462500D02*
X122100000Y-87362500D01*
D33*
%TO.N,Net-(U1-USB_DM)*%
X117337500Y-74212500D02*
X117950000Y-73600000D01*
X116437500Y-74212500D02*
X117337500Y-74212500D01*
X117950000Y-73600000D02*
X118840000Y-73600000D01*
%TO.N,Net-(U1-USB_DP)*%
X118827500Y-74612500D02*
X118840000Y-74600000D01*
X116437500Y-74612500D02*
X118827500Y-74612500D01*
%TD*%
%TA.AperFunction,Conductor*%
%TO.N,+3V3*%
G36*
X115763000Y-72809914D02*
G01*
X115790086Y-72837000D01*
X115800000Y-72874000D01*
X115800000Y-73370614D01*
X115788187Y-73410724D01*
X115756519Y-73438028D01*
X115725234Y-73442395D01*
X115725234Y-73444500D01*
X114823999Y-73444500D01*
X114783758Y-73449797D01*
X114746747Y-73459714D01*
X114709251Y-73475245D01*
X114677046Y-73499958D01*
X114649958Y-73527046D01*
X114625245Y-73559251D01*
X114609714Y-73596747D01*
X114599797Y-73633758D01*
X114594500Y-73673999D01*
X114594500Y-73789886D01*
X114583114Y-73829326D01*
X114552460Y-73856629D01*
X114511972Y-73863392D01*
X114499968Y-73862000D01*
X111500032Y-73862000D01*
X111500031Y-73862000D01*
X111475407Y-73864856D01*
X111374683Y-73909331D01*
X111296831Y-73987183D01*
X111252356Y-74087907D01*
X111249500Y-74112531D01*
X111249500Y-74420500D01*
X111239586Y-74457500D01*
X111212500Y-74484586D01*
X111175500Y-74494500D01*
X110723999Y-74494500D01*
X110683758Y-74499797D01*
X110646747Y-74509714D01*
X110609251Y-74525245D01*
X110577046Y-74549958D01*
X110549958Y-74577046D01*
X110525245Y-74609251D01*
X110509714Y-74646747D01*
X110499797Y-74683758D01*
X110494500Y-74723999D01*
X110494500Y-75176001D01*
X110498587Y-75207052D01*
X110499798Y-75216246D01*
X110507787Y-75246063D01*
X110509714Y-75253252D01*
X110525245Y-75290748D01*
X110525247Y-75290750D01*
X110549959Y-75322955D01*
X110577045Y-75350041D01*
X110601758Y-75369004D01*
X110609251Y-75374754D01*
X110648818Y-75391143D01*
X110682029Y-75418398D01*
X110694500Y-75459510D01*
X110694500Y-77676001D01*
X110695588Y-77684269D01*
X110699798Y-77716246D01*
X110706900Y-77742752D01*
X110709714Y-77753252D01*
X110725245Y-77790748D01*
X110725247Y-77790750D01*
X110749959Y-77822955D01*
X110777045Y-77850041D01*
X110801757Y-77869004D01*
X110809251Y-77874754D01*
X110827344Y-77882248D01*
X110846754Y-77890288D01*
X110883754Y-77900202D01*
X110915950Y-77904440D01*
X110923999Y-77905500D01*
X110924000Y-77905500D01*
X115176000Y-77905500D01*
X115176001Y-77905500D01*
X115182707Y-77904616D01*
X115216246Y-77900202D01*
X115253246Y-77890288D01*
X115290750Y-77874753D01*
X115322955Y-77850041D01*
X115350041Y-77822955D01*
X115374753Y-77790750D01*
X115390288Y-77753246D01*
X115400202Y-77716246D01*
X115405500Y-77676000D01*
X115405500Y-75305264D01*
X115410166Y-75279403D01*
X115423575Y-75256804D01*
X115432881Y-75246064D01*
X115432880Y-75246064D01*
X115432882Y-75246063D01*
X115486697Y-75128226D01*
X115502406Y-75018969D01*
X115515374Y-74986576D01*
X115541744Y-74963726D01*
X115575653Y-74955500D01*
X115726000Y-74955500D01*
X115763000Y-74965414D01*
X115790086Y-74992500D01*
X115800000Y-75029500D01*
X115800000Y-78326000D01*
X115790086Y-78363000D01*
X115763000Y-78390086D01*
X115726000Y-78400000D01*
X110274000Y-78400000D01*
X110237000Y-78390086D01*
X110209914Y-78363000D01*
X110200000Y-78326000D01*
X110200000Y-72874000D01*
X110209914Y-72837000D01*
X110237000Y-72809914D01*
X110274000Y-72800000D01*
X115726000Y-72800000D01*
X115763000Y-72809914D01*
G37*
%TD.AperFunction*%
%TD*%
%TA.AperFunction,Conductor*%
%TO.N,Net-(U3-EN)*%
G36*
X135505982Y-67013306D02*
G01*
X135549871Y-67050367D01*
X135602849Y-67122150D01*
X135712115Y-67202792D01*
X135776031Y-67225157D01*
X135826881Y-67258844D01*
X135855517Y-67312700D01*
X135855010Y-67373694D01*
X135825484Y-67427067D01*
X135774081Y-67459905D01*
X135605877Y-67515642D01*
X135456654Y-67607683D01*
X135332683Y-67731654D01*
X135240642Y-67880877D01*
X135185493Y-68047303D01*
X135175000Y-68150021D01*
X135175000Y-68200000D01*
X136526000Y-68200000D01*
X136588000Y-68216613D01*
X136633387Y-68262000D01*
X136650000Y-68324000D01*
X136650000Y-69449999D01*
X136924979Y-69449999D01*
X137027695Y-69439506D01*
X137194122Y-69384357D01*
X137343345Y-69292316D01*
X137438319Y-69197343D01*
X137487682Y-69167093D01*
X137545398Y-69162551D01*
X137598885Y-69184706D01*
X137636485Y-69228729D01*
X137650000Y-69285024D01*
X137650000Y-71426000D01*
X137633387Y-71488000D01*
X137588000Y-71533387D01*
X137526000Y-71550000D01*
X133024000Y-71550000D01*
X132962000Y-71533387D01*
X132916613Y-71488000D01*
X132900000Y-71426000D01*
X132900000Y-71074000D01*
X132916613Y-71012000D01*
X132962000Y-70966613D01*
X133024000Y-70950000D01*
X133337500Y-70950000D01*
X133337500Y-70400000D01*
X133837500Y-70400000D01*
X133837500Y-70950000D01*
X134165639Y-70950000D01*
X134202493Y-70947099D01*
X134360197Y-70901282D01*
X134501557Y-70817682D01*
X134617682Y-70701557D01*
X134701280Y-70560200D01*
X134747099Y-70402488D01*
X134747295Y-70400000D01*
X133837500Y-70400000D01*
X133337500Y-70400000D01*
X133337500Y-70024000D01*
X133354113Y-69962000D01*
X133399500Y-69916613D01*
X133461500Y-69900000D01*
X134747295Y-69900000D01*
X134747295Y-69899999D01*
X134747099Y-69897511D01*
X134701280Y-69739799D01*
X134617682Y-69598442D01*
X134490480Y-69471240D01*
X134492634Y-69469085D01*
X134466790Y-69442832D01*
X134450500Y-69381394D01*
X134450500Y-69018606D01*
X134466787Y-68957174D01*
X134492633Y-68930913D01*
X134490479Y-68928759D01*
X134617684Y-68801554D01*
X134677742Y-68700000D01*
X135175001Y-68700000D01*
X135175001Y-68749979D01*
X135185493Y-68852695D01*
X135240642Y-69019122D01*
X135332683Y-69168345D01*
X135456654Y-69292316D01*
X135605877Y-69384357D01*
X135772303Y-69439506D01*
X135875021Y-69450000D01*
X136150000Y-69450000D01*
X136150000Y-68700000D01*
X135175001Y-68700000D01*
X134677742Y-68700000D01*
X134701280Y-68660200D01*
X134747099Y-68502488D01*
X134747295Y-68500000D01*
X133461500Y-68500000D01*
X133399500Y-68483387D01*
X133354113Y-68438000D01*
X133337500Y-68376000D01*
X133337500Y-67450000D01*
X133837500Y-67450000D01*
X133837500Y-68000000D01*
X134747295Y-68000000D01*
X134747295Y-67999999D01*
X134747099Y-67997511D01*
X134701280Y-67839799D01*
X134617682Y-67698442D01*
X134501557Y-67582317D01*
X134360197Y-67498717D01*
X134202493Y-67452900D01*
X134165639Y-67450000D01*
X133837500Y-67450000D01*
X133337500Y-67450000D01*
X133024000Y-67450000D01*
X132962000Y-67433387D01*
X132916613Y-67388000D01*
X132900000Y-67326000D01*
X132900000Y-67124000D01*
X132916613Y-67062000D01*
X132962000Y-67016613D01*
X133024000Y-67000000D01*
X135450101Y-67000000D01*
X135505982Y-67013306D01*
G37*
%TD.AperFunction*%
%TD*%
%TA.AperFunction,Conductor*%
%TO.N,GND*%
G36*
X105138000Y-69516613D02*
G01*
X105183387Y-69562000D01*
X105200000Y-69624000D01*
X105200000Y-72131267D01*
X105188383Y-72183671D01*
X105155707Y-72226255D01*
X105113434Y-72248262D01*
X105079380Y-72272106D01*
X105070264Y-72277914D01*
X105037545Y-72296805D01*
X105013262Y-72325744D01*
X105005956Y-72333716D01*
X104308714Y-73030958D01*
X104300741Y-73038264D01*
X104271806Y-73062544D01*
X104252914Y-73095264D01*
X104247106Y-73104380D01*
X104224831Y-73136193D01*
X104214597Y-73160899D01*
X104207852Y-73199148D01*
X104205512Y-73209704D01*
X104195735Y-73246192D01*
X104199028Y-73283820D01*
X104199500Y-73294628D01*
X104199500Y-73747835D01*
X104199028Y-73758643D01*
X104195735Y-73796270D01*
X104205512Y-73832759D01*
X104207853Y-73843315D01*
X104214599Y-73881570D01*
X104224829Y-73906266D01*
X104225446Y-73907147D01*
X104247112Y-73938090D01*
X104252915Y-73947199D01*
X104271806Y-73979918D01*
X104300742Y-74004198D01*
X104308718Y-74011507D01*
X104598487Y-74301276D01*
X104605795Y-74309250D01*
X104630082Y-74338194D01*
X104654131Y-74352079D01*
X104662793Y-74357080D01*
X104671916Y-74362892D01*
X104702853Y-74384554D01*
X104702854Y-74384554D01*
X104703735Y-74385171D01*
X104728428Y-74395400D01*
X104729491Y-74395587D01*
X104729492Y-74395588D01*
X104766683Y-74402145D01*
X104777241Y-74404486D01*
X104813728Y-74414263D01*
X104813729Y-74414262D01*
X104813730Y-74414263D01*
X104851348Y-74410971D01*
X104862155Y-74410500D01*
X105000457Y-74410500D01*
X105050150Y-74420893D01*
X105091051Y-74450000D01*
X105200000Y-74450000D01*
X105200000Y-74950000D01*
X105091210Y-74950000D01*
X105092854Y-74970915D01*
X105137967Y-75126194D01*
X105182732Y-75201887D01*
X105194348Y-75244348D01*
X105226447Y-75276447D01*
X105241221Y-75286319D01*
X105317721Y-75362819D01*
X105347971Y-75412182D01*
X105352513Y-75469898D01*
X105330358Y-75523385D01*
X105286335Y-75560985D01*
X105230040Y-75574500D01*
X103956236Y-75574500D01*
X103893955Y-75557724D01*
X103848526Y-75511937D01*
X103832240Y-75449526D01*
X103849504Y-75387379D01*
X103862031Y-75366196D01*
X103904504Y-75220000D01*
X102295496Y-75220000D01*
X102337968Y-75366196D01*
X102420281Y-75505379D01*
X102513237Y-75598335D01*
X102543487Y-75647698D01*
X102548029Y-75705414D01*
X102539500Y-75759263D01*
X102539500Y-75978811D01*
X102530061Y-76026264D01*
X102503181Y-76066492D01*
X102331493Y-76238181D01*
X102291265Y-76265061D01*
X102243812Y-76274500D01*
X101436189Y-76274500D01*
X101388736Y-76265061D01*
X101348508Y-76238181D01*
X100869590Y-75759263D01*
X100372506Y-75262180D01*
X100342257Y-75212818D01*
X100337715Y-75155102D01*
X100359870Y-75101615D01*
X100403893Y-75064015D01*
X100460188Y-75050500D01*
X100624675Y-75050500D01*
X100649029Y-75045655D01*
X100697740Y-75035966D01*
X100780601Y-74980601D01*
X100835966Y-74897740D01*
X100850500Y-74824674D01*
X100850500Y-74720000D01*
X102295496Y-74720000D01*
X102850000Y-74720000D01*
X102850000Y-74191209D01*
X103350000Y-74191209D01*
X103350000Y-74720000D01*
X103904504Y-74720000D01*
X103862031Y-74573803D01*
X103779718Y-74434620D01*
X103665379Y-74320281D01*
X103526194Y-74237967D01*
X103370917Y-74192855D01*
X103350000Y-74191209D01*
X102850000Y-74191209D01*
X102829084Y-74192854D01*
X102673805Y-74237967D01*
X102534620Y-74320281D01*
X102420281Y-74434620D01*
X102337968Y-74573803D01*
X102295496Y-74720000D01*
X100850500Y-74720000D01*
X100850500Y-70275326D01*
X100835966Y-70202260D01*
X100780601Y-70119399D01*
X100697740Y-70064034D01*
X100697739Y-70064033D01*
X100697738Y-70064033D01*
X100624675Y-70049500D01*
X100624674Y-70049500D01*
X98575326Y-70049500D01*
X98575325Y-70049500D01*
X98502261Y-70064033D01*
X98419399Y-70119399D01*
X98364033Y-70202261D01*
X98349500Y-70275325D01*
X98349500Y-74824675D01*
X98364033Y-74897738D01*
X98364033Y-74897739D01*
X98364034Y-74897740D01*
X98419399Y-74980601D01*
X98502260Y-75035966D01*
X98538792Y-75043232D01*
X98575325Y-75050500D01*
X98575326Y-75050500D01*
X99208459Y-75050500D01*
X99265716Y-75064511D01*
X99310034Y-75103377D01*
X99322104Y-75120615D01*
X99327915Y-75129736D01*
X99346806Y-75162455D01*
X99375742Y-75186735D01*
X99383718Y-75194044D01*
X100851992Y-76662318D01*
X100884086Y-76717905D01*
X100884086Y-76782093D01*
X100851992Y-76837680D01*
X99383714Y-78305958D01*
X99375741Y-78313264D01*
X99346806Y-78337544D01*
X99327914Y-78370264D01*
X99322106Y-78379380D01*
X99299831Y-78411193D01*
X99289599Y-78435895D01*
X99289412Y-78436954D01*
X99289412Y-78436955D01*
X99288012Y-78444898D01*
X99287635Y-78447034D01*
X99264982Y-78499549D01*
X99221170Y-78536311D01*
X99165519Y-78549500D01*
X98575325Y-78549500D01*
X98502261Y-78564033D01*
X98419399Y-78619399D01*
X98364033Y-78702261D01*
X98349500Y-78775325D01*
X98349500Y-83324675D01*
X98364033Y-83397738D01*
X98364033Y-83397739D01*
X98364034Y-83397740D01*
X98419399Y-83480601D01*
X98502260Y-83535966D01*
X98538792Y-83543232D01*
X98575325Y-83550500D01*
X98575326Y-83550500D01*
X100624674Y-83550500D01*
X100624675Y-83550500D01*
X100649029Y-83545655D01*
X100697740Y-83535966D01*
X100780601Y-83480601D01*
X100835966Y-83397740D01*
X100850500Y-83324674D01*
X100850500Y-78780000D01*
X102245496Y-78780000D01*
X102287968Y-78926196D01*
X102370281Y-79065379D01*
X102484620Y-79179718D01*
X102623805Y-79262032D01*
X102779082Y-79307144D01*
X102799999Y-79308790D01*
X102800000Y-79308790D01*
X102800000Y-78780000D01*
X103300000Y-78780000D01*
X103300000Y-79308790D01*
X103320915Y-79307145D01*
X103476194Y-79262032D01*
X103615379Y-79179718D01*
X103729718Y-79065379D01*
X103812031Y-78926196D01*
X103854504Y-78780000D01*
X103300000Y-78780000D01*
X102800000Y-78780000D01*
X102245496Y-78780000D01*
X100850500Y-78780000D01*
X100850500Y-78775326D01*
X100835966Y-78702260D01*
X100780601Y-78619399D01*
X100697740Y-78564034D01*
X100697739Y-78564033D01*
X100697738Y-78564033D01*
X100624675Y-78549500D01*
X100624674Y-78549500D01*
X100360188Y-78549500D01*
X100303893Y-78535985D01*
X100259870Y-78498385D01*
X100237715Y-78444898D01*
X100242257Y-78387182D01*
X100272507Y-78337819D01*
X100729739Y-77880588D01*
X101348507Y-77261819D01*
X101388736Y-77234939D01*
X101436189Y-77225500D01*
X102193812Y-77225500D01*
X102241265Y-77234939D01*
X102281493Y-77261819D01*
X102453181Y-77433507D01*
X102480061Y-77473735D01*
X102489500Y-77521187D01*
X102489500Y-77740732D01*
X102498030Y-77794587D01*
X102493487Y-77852302D01*
X102463238Y-77901664D01*
X102370280Y-77994622D01*
X102287968Y-78133803D01*
X102245496Y-78280000D01*
X103854504Y-78280000D01*
X103812031Y-78133803D01*
X103781762Y-78082621D01*
X103764498Y-78020474D01*
X103780784Y-77958063D01*
X103826213Y-77912276D01*
X103888494Y-77895500D01*
X106767189Y-77895500D01*
X106824316Y-77909443D01*
X106868595Y-77948136D01*
X106890070Y-78002878D01*
X106883910Y-78061359D01*
X106851502Y-78110425D01*
X106000000Y-78900000D01*
X106000000Y-84376000D01*
X105983387Y-84438000D01*
X105938000Y-84483387D01*
X105876000Y-84500000D01*
X96124000Y-84500000D01*
X96062000Y-84483387D01*
X96016613Y-84438000D01*
X96000000Y-84376000D01*
X96000000Y-69624000D01*
X96016613Y-69562000D01*
X96062000Y-69516613D01*
X96124000Y-69500000D01*
X105076000Y-69500000D01*
X105138000Y-69516613D01*
G37*
%TD.AperFunction*%
%TD*%
%TA.AperFunction,Conductor*%
%TO.N,+1V1*%
G36*
X115760883Y-73612468D02*
G01*
X115767107Y-73616626D01*
X115791261Y-73643272D01*
X115800000Y-73678158D01*
X115800000Y-74726000D01*
X115790086Y-74763000D01*
X115763000Y-74790086D01*
X115726000Y-74800000D01*
X115250000Y-74800000D01*
X115250000Y-77676000D01*
X115240086Y-77713000D01*
X115213000Y-77740086D01*
X115176000Y-77750000D01*
X110924000Y-77750000D01*
X110887000Y-77740086D01*
X110859914Y-77713000D01*
X110850000Y-77676000D01*
X110850000Y-75250000D01*
X110724000Y-75250000D01*
X110687000Y-75240086D01*
X110659914Y-75213000D01*
X110650000Y-75176000D01*
X110650000Y-74724000D01*
X110659914Y-74687000D01*
X110687000Y-74659914D01*
X110724000Y-74650000D01*
X111175500Y-74650000D01*
X111212500Y-74659914D01*
X111239586Y-74687000D01*
X111249500Y-74724000D01*
X111249500Y-77112469D01*
X111249507Y-77112529D01*
X111250000Y-77121056D01*
X111250000Y-77350000D01*
X111436823Y-77350000D01*
X111466713Y-77356305D01*
X111475405Y-77360143D01*
X111500031Y-77363000D01*
X111500032Y-77363000D01*
X114499968Y-77363000D01*
X114499969Y-77363000D01*
X114524594Y-77360143D01*
X114533287Y-77356305D01*
X114563177Y-77350000D01*
X114750000Y-77350000D01*
X114750000Y-77121056D01*
X114750493Y-77112529D01*
X114750500Y-77112469D01*
X114750500Y-74112531D01*
X114750493Y-74112471D01*
X114750000Y-74103944D01*
X114750000Y-73674000D01*
X114759914Y-73637000D01*
X114787000Y-73609914D01*
X114824000Y-73600000D01*
X115719776Y-73600000D01*
X115760883Y-73612468D01*
G37*
%TD.AperFunction*%
%TD*%
%TA.AperFunction,Conductor*%
%TO.N,+3V3*%
G36*
X144003234Y-63350712D02*
G01*
X144254517Y-63367181D01*
X144267342Y-63368870D01*
X144511150Y-63417366D01*
X144523650Y-63420715D01*
X144636824Y-63459133D01*
X144759033Y-63500618D01*
X144770996Y-63505574D01*
X144993929Y-63615512D01*
X145005145Y-63621987D01*
X145211824Y-63760086D01*
X145222097Y-63767969D01*
X145408981Y-63931861D01*
X145418138Y-63941018D01*
X145582030Y-64127902D01*
X145589913Y-64138175D01*
X145728012Y-64344854D01*
X145734487Y-64356070D01*
X145844425Y-64579003D01*
X145849381Y-64590966D01*
X145929282Y-64826344D01*
X145932634Y-64838853D01*
X145981128Y-65082650D01*
X145982818Y-65095489D01*
X145999288Y-65346766D01*
X145999500Y-65353241D01*
X145999500Y-89446759D01*
X145999288Y-89453234D01*
X145982818Y-89704510D01*
X145981128Y-89717349D01*
X145932634Y-89961146D01*
X145929282Y-89973655D01*
X145849381Y-90209033D01*
X145844425Y-90220996D01*
X145734487Y-90443929D01*
X145728012Y-90455145D01*
X145589913Y-90661824D01*
X145582030Y-90672097D01*
X145418138Y-90858981D01*
X145408981Y-90868138D01*
X145222097Y-91032030D01*
X145211824Y-91039913D01*
X145005145Y-91178012D01*
X144993929Y-91184487D01*
X144770996Y-91294425D01*
X144759033Y-91299381D01*
X144523655Y-91379282D01*
X144511146Y-91382634D01*
X144267349Y-91431128D01*
X144254510Y-91432818D01*
X144003234Y-91449288D01*
X143996759Y-91449500D01*
X97303241Y-91449500D01*
X97296766Y-91449288D01*
X97045489Y-91432818D01*
X97032650Y-91431128D01*
X96788853Y-91382634D01*
X96776344Y-91379282D01*
X96540966Y-91299381D01*
X96529003Y-91294425D01*
X96306070Y-91184487D01*
X96294854Y-91178012D01*
X96088175Y-91039913D01*
X96077902Y-91032030D01*
X95891018Y-90868138D01*
X95881861Y-90858981D01*
X95717969Y-90672097D01*
X95710086Y-90661824D01*
X95571987Y-90455145D01*
X95565512Y-90443929D01*
X95455574Y-90220996D01*
X95450618Y-90209033D01*
X95370717Y-89973655D01*
X95367365Y-89961146D01*
X95335411Y-89800500D01*
X95318870Y-89717342D01*
X95317181Y-89704510D01*
X95310806Y-89607250D01*
X95300712Y-89453234D01*
X95300500Y-89446759D01*
X95300500Y-88449999D01*
X96944340Y-88449999D01*
X96964936Y-88685405D01*
X97026098Y-88913667D01*
X97125963Y-89127826D01*
X97125964Y-89127827D01*
X97125965Y-89127829D01*
X97261505Y-89321401D01*
X97428599Y-89488495D01*
X97622171Y-89624035D01*
X97622172Y-89624035D01*
X97622173Y-89624036D01*
X97836332Y-89723901D01*
X97836333Y-89723901D01*
X97836337Y-89723903D01*
X98064592Y-89785063D01*
X98135168Y-89791237D01*
X98241031Y-89800500D01*
X98241034Y-89800500D01*
X98358966Y-89800500D01*
X98358969Y-89800500D01*
X98447186Y-89792781D01*
X98535408Y-89785063D01*
X98763663Y-89723903D01*
X98977829Y-89624035D01*
X99171401Y-89488495D01*
X99338495Y-89321401D01*
X99474035Y-89127830D01*
X99573903Y-88913663D01*
X99635063Y-88685408D01*
X99655659Y-88450000D01*
X99635063Y-88214592D01*
X99573903Y-87986337D01*
X99474035Y-87772171D01*
X99338495Y-87578599D01*
X99171401Y-87411505D01*
X99141475Y-87390551D01*
X98977826Y-87275963D01*
X98763667Y-87176098D01*
X98535405Y-87114936D01*
X98358969Y-87099500D01*
X98358966Y-87099500D01*
X98241034Y-87099500D01*
X98241031Y-87099500D01*
X98064594Y-87114936D01*
X97836332Y-87176098D01*
X97622173Y-87275963D01*
X97428602Y-87411502D01*
X97261502Y-87578602D01*
X97125963Y-87772172D01*
X97026098Y-87986332D01*
X96964936Y-88214594D01*
X96944340Y-88449999D01*
X95300500Y-88449999D01*
X95300500Y-85649000D01*
X95313763Y-85599500D01*
X95350000Y-85563263D01*
X95399500Y-85550000D01*
X107050000Y-85550000D01*
X107029165Y-84237390D01*
X110020000Y-84237390D01*
X110022756Y-84266787D01*
X110066064Y-84390555D01*
X110143935Y-84496064D01*
X110249444Y-84573935D01*
X110373212Y-84617243D01*
X110402610Y-84620000D01*
X110439999Y-84620000D01*
X110440000Y-84619999D01*
X110440000Y-84150001D01*
X110439999Y-84150000D01*
X110020001Y-84150000D01*
X110020000Y-84150001D01*
X110020000Y-84237390D01*
X107029165Y-84237390D01*
X107023016Y-83849999D01*
X110020000Y-83849999D01*
X110020001Y-83850000D01*
X110439999Y-83850000D01*
X110440000Y-83849999D01*
X110440000Y-83380001D01*
X110439999Y-83380000D01*
X110402610Y-83380000D01*
X110373212Y-83382756D01*
X110249444Y-83426064D01*
X110143935Y-83503935D01*
X110066064Y-83609444D01*
X110022756Y-83733212D01*
X110020000Y-83762610D01*
X110020000Y-83849999D01*
X107023016Y-83849999D01*
X106951207Y-79326096D01*
X106959843Y-79284064D01*
X106985456Y-79249631D01*
X107023230Y-79229274D01*
X109364184Y-78566740D01*
X109391133Y-78562999D01*
X109950500Y-78562999D01*
X110000000Y-78576262D01*
X110036236Y-78612499D01*
X110049500Y-78661999D01*
X110049500Y-79482362D01*
X110052415Y-79507490D01*
X110097793Y-79610264D01*
X110099972Y-79612443D01*
X110125099Y-79655040D01*
X110126486Y-79704476D01*
X110103788Y-79748414D01*
X110062667Y-79775891D01*
X110032081Y-79786594D01*
X109920406Y-79869015D01*
X109877592Y-79887063D01*
X109831259Y-79883591D01*
X109795364Y-79861656D01*
X109787213Y-79857503D01*
X109682175Y-79803983D01*
X109682174Y-79803982D01*
X109682173Y-79803982D01*
X109590735Y-79789500D01*
X109249264Y-79789500D01*
X109157826Y-79803982D01*
X109047607Y-79860142D01*
X108986688Y-79921061D01*
X108946454Y-79945475D01*
X108899494Y-79948553D01*
X108856418Y-79929599D01*
X108777624Y-79869138D01*
X108643709Y-79813669D01*
X108500000Y-79794750D01*
X108356290Y-79813669D01*
X108222375Y-79869139D01*
X108107378Y-79957378D01*
X108019139Y-80072375D01*
X107963669Y-80206290D01*
X107944750Y-80350000D01*
X107963669Y-80493709D01*
X107991433Y-80560737D01*
X108019139Y-80627625D01*
X108057450Y-80677552D01*
X108107378Y-80742621D01*
X108146155Y-80772375D01*
X108222375Y-80830861D01*
X108317067Y-80870083D01*
X108356290Y-80886330D01*
X108373008Y-80888531D01*
X108500000Y-80905250D01*
X108643709Y-80886330D01*
X108777625Y-80830861D01*
X108856421Y-80770398D01*
X108899493Y-80751446D01*
X108946455Y-80754524D01*
X108986686Y-80778936D01*
X109047609Y-80839859D01*
X109157825Y-80896017D01*
X109249265Y-80910500D01*
X109590734Y-80910499D01*
X109590735Y-80910499D01*
X109623883Y-80905249D01*
X109682175Y-80896017D01*
X109792391Y-80839859D01*
X109792394Y-80839855D01*
X109795373Y-80838338D01*
X109831256Y-80816409D01*
X109877591Y-80812936D01*
X109920406Y-80830984D01*
X110032081Y-80913406D01*
X110157272Y-80957212D01*
X110186994Y-80959999D01*
X110190652Y-80959999D01*
X110245658Y-80976679D01*
X110282126Y-81021108D01*
X110287762Y-81078310D01*
X110260668Y-81129002D01*
X109506498Y-81883174D01*
X109452621Y-81910849D01*
X109392707Y-81901961D01*
X109349184Y-81859839D01*
X109285911Y-81741463D01*
X109266900Y-81718298D01*
X109160883Y-81589117D01*
X109008538Y-81464090D01*
X109008539Y-81464090D01*
X109008536Y-81464088D01*
X108834727Y-81371185D01*
X108646130Y-81313975D01*
X108450000Y-81294658D01*
X108253869Y-81313975D01*
X108065272Y-81371185D01*
X107891463Y-81464088D01*
X107739117Y-81589117D01*
X107614088Y-81741463D01*
X107521185Y-81915272D01*
X107463975Y-82103869D01*
X107444658Y-82300000D01*
X107463975Y-82496130D01*
X107521185Y-82684727D01*
X107614088Y-82858536D01*
X107614090Y-82858538D01*
X107739117Y-83010883D01*
X107868298Y-83116900D01*
X107891463Y-83135911D01*
X108065272Y-83228814D01*
X108075861Y-83232026D01*
X108253868Y-83286024D01*
X108450000Y-83305341D01*
X108646132Y-83286024D01*
X108834727Y-83228814D01*
X109008538Y-83135910D01*
X109160883Y-83010883D01*
X109285910Y-82858538D01*
X109305245Y-82822364D01*
X109382500Y-82677832D01*
X109418914Y-82639585D01*
X109469810Y-82625500D01*
X109531466Y-82625500D01*
X109540093Y-82625876D01*
X109553357Y-82627037D01*
X109578805Y-82629264D01*
X109578805Y-82629263D01*
X109578807Y-82629264D01*
X109616359Y-82619201D01*
X109624777Y-82617335D01*
X109663045Y-82610588D01*
X109664346Y-82609836D01*
X109688232Y-82599942D01*
X109689684Y-82599554D01*
X109721529Y-82577254D01*
X109728785Y-82572632D01*
X109762455Y-82553194D01*
X109787442Y-82523414D01*
X109793254Y-82517070D01*
X110212934Y-82097390D01*
X110930000Y-82097390D01*
X110932756Y-82126787D01*
X110976064Y-82250555D01*
X111053935Y-82356064D01*
X111159444Y-82433935D01*
X111283212Y-82477243D01*
X111312610Y-82480000D01*
X111399999Y-82480000D01*
X111400000Y-82479999D01*
X111400000Y-82060001D01*
X111399999Y-82060000D01*
X110930001Y-82060000D01*
X110930000Y-82060001D01*
X110930000Y-82097390D01*
X110212934Y-82097390D01*
X110795949Y-81514375D01*
X110841762Y-81488382D01*
X110894424Y-81489564D01*
X110939026Y-81517588D01*
X110962940Y-81564522D01*
X110959397Y-81617078D01*
X110932756Y-81693214D01*
X110930000Y-81722610D01*
X110930000Y-81759999D01*
X110930001Y-81760000D01*
X112701000Y-81760000D01*
X112750500Y-81773263D01*
X112786737Y-81809500D01*
X112800000Y-81859000D01*
X112800000Y-81961000D01*
X112786737Y-82010500D01*
X112750500Y-82046737D01*
X112701000Y-82060000D01*
X111700001Y-82060000D01*
X111700000Y-82060001D01*
X111700000Y-82479999D01*
X111700001Y-82480000D01*
X111787390Y-82480000D01*
X111816787Y-82477243D01*
X111940555Y-82433935D01*
X112041209Y-82359647D01*
X112079174Y-82342516D01*
X112120824Y-82342516D01*
X112158788Y-82359646D01*
X112259442Y-82433933D01*
X112330218Y-82458699D01*
X112371339Y-82486176D01*
X112394039Y-82530114D01*
X112392652Y-82579551D01*
X112367525Y-82622148D01*
X111589170Y-83400504D01*
X111557052Y-83421964D01*
X111519166Y-83429500D01*
X111438418Y-83429500D01*
X111363481Y-83440418D01*
X111363482Y-83440418D01*
X111247896Y-83496925D01*
X111204385Y-83540436D01*
X111155207Y-83567217D01*
X111099366Y-83563033D01*
X111054728Y-83529222D01*
X111036065Y-83503936D01*
X110930555Y-83426064D01*
X110806787Y-83382756D01*
X110777390Y-83380000D01*
X110740001Y-83380000D01*
X110740000Y-83380001D01*
X110740000Y-84619999D01*
X110740001Y-84620000D01*
X110777390Y-84620000D01*
X110806787Y-84617243D01*
X110941522Y-84570097D01*
X110997600Y-84567341D01*
X111046158Y-84595527D01*
X111071579Y-84645588D01*
X111065685Y-84701423D01*
X111063670Y-84706287D01*
X111044750Y-84849999D01*
X111063669Y-84993709D01*
X111102892Y-85088401D01*
X111119139Y-85127625D01*
X111120024Y-85128778D01*
X111207378Y-85242621D01*
X111257306Y-85280932D01*
X111322375Y-85330861D01*
X111397555Y-85362001D01*
X111456290Y-85386330D01*
X111459382Y-85386737D01*
X111600000Y-85405250D01*
X111743709Y-85386330D01*
X111877625Y-85330861D01*
X111992621Y-85242621D01*
X112080861Y-85127625D01*
X112136330Y-84993709D01*
X112155250Y-84850000D01*
X112136330Y-84706291D01*
X112136328Y-84706287D01*
X112080862Y-84572377D01*
X112080861Y-84572376D01*
X112080861Y-84572375D01*
X112056403Y-84540501D01*
X112037451Y-84497425D01*
X112040531Y-84450461D01*
X112060028Y-84418336D01*
X112063322Y-84411598D01*
X112119582Y-84296518D01*
X112130500Y-84221582D01*
X112130500Y-83820834D01*
X112138036Y-83782948D01*
X112159496Y-83750830D01*
X112688361Y-83221965D01*
X114617066Y-81293258D01*
X114623410Y-81287444D01*
X114653194Y-81262455D01*
X114672632Y-81228785D01*
X114677254Y-81221529D01*
X114699554Y-81189684D01*
X114699942Y-81188232D01*
X114709838Y-81164343D01*
X114710588Y-81163045D01*
X114717335Y-81124777D01*
X114719201Y-81116359D01*
X114729264Y-81078807D01*
X114725876Y-81040093D01*
X114725500Y-81031466D01*
X114725500Y-80663001D01*
X114990001Y-80663001D01*
X114992787Y-80692726D01*
X115036593Y-80817918D01*
X115119015Y-80929593D01*
X115137062Y-80972405D01*
X115133592Y-81018736D01*
X115111657Y-81054632D01*
X115053982Y-81167826D01*
X115039500Y-81259264D01*
X115039500Y-81600735D01*
X115053982Y-81692173D01*
X115053982Y-81692174D01*
X115053983Y-81692175D01*
X115110141Y-81802391D01*
X115171062Y-81863312D01*
X115195475Y-81903544D01*
X115198553Y-81950505D01*
X115179599Y-81993581D01*
X115119139Y-82072374D01*
X115063669Y-82206290D01*
X115044750Y-82350000D01*
X115063669Y-82493709D01*
X115088309Y-82553194D01*
X115119139Y-82627625D01*
X115157450Y-82677552D01*
X115207378Y-82742621D01*
X115257306Y-82780932D01*
X115322375Y-82830861D01*
X115417067Y-82870083D01*
X115456290Y-82886330D01*
X115473008Y-82888531D01*
X115600000Y-82905250D01*
X115743709Y-82886330D01*
X115877625Y-82830861D01*
X115992621Y-82742621D01*
X116080861Y-82627625D01*
X116136330Y-82493709D01*
X116155250Y-82350000D01*
X116136330Y-82206291D01*
X116131538Y-82194723D01*
X116080861Y-82072375D01*
X116020400Y-81993581D01*
X116001446Y-81950505D01*
X116004524Y-81903544D01*
X116028937Y-81863312D01*
X116089859Y-81802391D01*
X116146017Y-81692175D01*
X116160500Y-81600735D01*
X116160499Y-81259266D01*
X116160259Y-81257752D01*
X116149436Y-81189411D01*
X116146017Y-81167825D01*
X116089859Y-81057609D01*
X116089857Y-81057607D01*
X116088343Y-81054635D01*
X116066409Y-81018741D01*
X116062937Y-80972408D01*
X116080985Y-80929594D01*
X116163406Y-80817918D01*
X116207212Y-80692727D01*
X116210000Y-80663000D01*
X116210000Y-80620001D01*
X116209999Y-80620000D01*
X114990002Y-80620000D01*
X114990001Y-80620001D01*
X114990001Y-80663001D01*
X114725500Y-80663001D01*
X114725500Y-79836999D01*
X114738763Y-79787499D01*
X114775000Y-79751262D01*
X114824498Y-79737999D01*
X114894864Y-79737999D01*
X114919991Y-79735085D01*
X114960012Y-79717413D01*
X114999998Y-79708978D01*
X115039984Y-79717412D01*
X115080009Y-79735085D01*
X115105135Y-79738000D01*
X115206960Y-79737999D01*
X115259630Y-79753173D01*
X115296155Y-79794043D01*
X115305338Y-79848082D01*
X115284362Y-79898723D01*
X115239659Y-79930443D01*
X115222081Y-79936594D01*
X115115359Y-80015359D01*
X115036593Y-80122081D01*
X114992787Y-80247272D01*
X114990000Y-80277000D01*
X114990000Y-80319999D01*
X114990001Y-80320000D01*
X116209998Y-80320000D01*
X116209999Y-80319999D01*
X116209999Y-80276999D01*
X116207212Y-80247273D01*
X116163405Y-80122081D01*
X116084640Y-80015359D01*
X115977918Y-79936593D01*
X115879965Y-79902318D01*
X115833646Y-79868517D01*
X115813835Y-79814707D01*
X115827178Y-79758940D01*
X115847039Y-79740499D01*
X115844507Y-79737967D01*
X115938786Y-79643687D01*
X115990087Y-79538749D01*
X116000000Y-79470716D01*
X116000000Y-79150001D01*
X115999999Y-79150000D01*
X115649500Y-79150000D01*
X115600014Y-79136745D01*
X115563780Y-79100529D01*
X115550500Y-79051049D01*
X115550499Y-79049049D01*
X115563746Y-78999529D01*
X115599985Y-78963272D01*
X115649499Y-78950000D01*
X115999998Y-78950000D01*
X115999999Y-78949999D01*
X115999999Y-78662000D01*
X116013262Y-78612500D01*
X116049498Y-78576264D01*
X116098998Y-78563000D01*
X116106895Y-78562999D01*
X116166111Y-78562999D01*
X116205480Y-78571164D01*
X116238357Y-78594314D01*
X118023684Y-80500000D01*
X120385149Y-83020665D01*
X120573736Y-83221965D01*
X120593328Y-83252685D01*
X120600480Y-83288413D01*
X120649999Y-87249998D01*
X120650000Y-87250000D01*
X122200000Y-88750000D01*
X122200001Y-88750000D01*
X126550000Y-88750000D01*
X126929804Y-88048823D01*
X126946843Y-88025981D01*
X127347280Y-87625545D01*
X127480831Y-87491995D01*
X127512948Y-87470535D01*
X127550834Y-87462999D01*
X127586521Y-87462999D01*
X127680303Y-87448147D01*
X127734707Y-87420426D01*
X127793342Y-87390550D01*
X127883050Y-87300842D01*
X127940646Y-87187804D01*
X127955500Y-87094019D01*
X127955500Y-87024500D01*
X127968763Y-86975000D01*
X128005000Y-86938763D01*
X128054500Y-86925500D01*
X128882788Y-86925500D01*
X128935211Y-86940519D01*
X128971727Y-86981017D01*
X128986924Y-87012102D01*
X129077898Y-87103076D01*
X129193482Y-87159582D01*
X129268418Y-87170500D01*
X129611579Y-87170500D01*
X129611582Y-87170500D01*
X129686518Y-87159582D01*
X129802102Y-87103076D01*
X129879998Y-87025179D01*
X129924377Y-86999558D01*
X129975623Y-86999558D01*
X130020001Y-87025179D01*
X130097898Y-87103076D01*
X130213482Y-87159582D01*
X130281381Y-87169474D01*
X130311503Y-87178953D01*
X130337110Y-87197436D01*
X132413606Y-89273932D01*
X132441098Y-89326745D01*
X132433327Y-89385775D01*
X132370425Y-89520670D01*
X132313792Y-89732026D01*
X132294722Y-89950000D01*
X132313792Y-90167973D01*
X132370426Y-90379334D01*
X132462896Y-90577636D01*
X132462897Y-90577638D01*
X132462898Y-90577639D01*
X132588402Y-90756877D01*
X132743123Y-90911598D01*
X132922361Y-91037102D01*
X132922362Y-91037102D01*
X132922363Y-91037103D01*
X133120665Y-91129573D01*
X133120666Y-91129573D01*
X133120670Y-91129575D01*
X133332023Y-91186207D01*
X133495505Y-91200509D01*
X133549999Y-91205277D01*
X133549999Y-91205276D01*
X133550000Y-91205277D01*
X133767977Y-91186207D01*
X133979330Y-91129575D01*
X134177639Y-91037102D01*
X134356877Y-90911598D01*
X134511598Y-90756877D01*
X134637102Y-90577639D01*
X134729575Y-90379330D01*
X134786207Y-90167977D01*
X134805277Y-89950000D01*
X136794722Y-89950000D01*
X136813792Y-90167973D01*
X136870426Y-90379334D01*
X136962896Y-90577636D01*
X136962897Y-90577638D01*
X136962898Y-90577639D01*
X137088402Y-90756877D01*
X137243123Y-90911598D01*
X137422361Y-91037102D01*
X137422362Y-91037102D01*
X137422363Y-91037103D01*
X137620665Y-91129573D01*
X137620666Y-91129573D01*
X137620670Y-91129575D01*
X137832023Y-91186207D01*
X137995505Y-91200509D01*
X138049999Y-91205277D01*
X138049999Y-91205276D01*
X138050000Y-91205277D01*
X138267977Y-91186207D01*
X138479330Y-91129575D01*
X138677639Y-91037102D01*
X138856877Y-90911598D01*
X139011598Y-90756877D01*
X139137102Y-90577639D01*
X139229575Y-90379330D01*
X139286207Y-90167977D01*
X139305277Y-89950000D01*
X139286207Y-89732023D01*
X139229575Y-89520670D01*
X139214572Y-89488497D01*
X139137103Y-89322364D01*
X139011600Y-89143126D01*
X139011598Y-89143123D01*
X138856877Y-88988402D01*
X138677639Y-88862898D01*
X138677638Y-88862897D01*
X138677636Y-88862896D01*
X138479334Y-88770426D01*
X138267973Y-88713792D01*
X138050000Y-88694722D01*
X137832026Y-88713792D01*
X137620665Y-88770426D01*
X137422364Y-88862896D01*
X137243126Y-88988399D01*
X137088399Y-89143126D01*
X136962896Y-89322364D01*
X136870426Y-89520665D01*
X136813792Y-89732026D01*
X136794722Y-89950000D01*
X134805277Y-89950000D01*
X134786207Y-89732023D01*
X134729575Y-89520670D01*
X134714572Y-89488497D01*
X134637103Y-89322364D01*
X134511600Y-89143126D01*
X134511598Y-89143123D01*
X134356877Y-88988402D01*
X134177639Y-88862898D01*
X134177638Y-88862897D01*
X134177636Y-88862896D01*
X133979334Y-88770426D01*
X133767973Y-88713792D01*
X133550000Y-88694722D01*
X133332026Y-88713792D01*
X133120670Y-88770425D01*
X132985775Y-88833327D01*
X132926745Y-88841098D01*
X132873932Y-88813606D01*
X132510325Y-88449999D01*
X141644340Y-88449999D01*
X141664936Y-88685405D01*
X141726098Y-88913667D01*
X141825963Y-89127826D01*
X141825964Y-89127827D01*
X141825965Y-89127829D01*
X141961505Y-89321401D01*
X142128599Y-89488495D01*
X142322171Y-89624035D01*
X142322172Y-89624035D01*
X142322173Y-89624036D01*
X142536332Y-89723901D01*
X142536333Y-89723901D01*
X142536337Y-89723903D01*
X142764592Y-89785063D01*
X142835168Y-89791237D01*
X142941031Y-89800500D01*
X142941034Y-89800500D01*
X143058966Y-89800500D01*
X143058969Y-89800500D01*
X143147186Y-89792781D01*
X143235408Y-89785063D01*
X143463663Y-89723903D01*
X143677829Y-89624035D01*
X143871401Y-89488495D01*
X144038495Y-89321401D01*
X144174035Y-89127830D01*
X144273903Y-88913663D01*
X144335063Y-88685408D01*
X144355659Y-88450000D01*
X144335063Y-88214592D01*
X144273903Y-87986337D01*
X144174035Y-87772171D01*
X144038495Y-87578599D01*
X143871401Y-87411505D01*
X143841475Y-87390551D01*
X143677826Y-87275963D01*
X143463667Y-87176098D01*
X143235405Y-87114936D01*
X143058969Y-87099500D01*
X143058966Y-87099500D01*
X142941034Y-87099500D01*
X142941031Y-87099500D01*
X142764594Y-87114936D01*
X142536332Y-87176098D01*
X142322173Y-87275963D01*
X142128602Y-87411502D01*
X141961502Y-87578602D01*
X141825963Y-87772172D01*
X141726098Y-87986332D01*
X141664936Y-88214594D01*
X141644340Y-88449999D01*
X132510325Y-88449999D01*
X131003085Y-86942759D01*
X130979126Y-86903930D01*
X130975123Y-86858484D01*
X130980500Y-86821582D01*
X130980500Y-86520834D01*
X130988036Y-86482948D01*
X131009496Y-86450830D01*
X131461822Y-85998504D01*
X132873934Y-84586390D01*
X132926745Y-84558900D01*
X132985773Y-84566671D01*
X133120670Y-84629575D01*
X133332023Y-84686207D01*
X133489682Y-84700000D01*
X133549999Y-84705277D01*
X133549999Y-84705276D01*
X133550000Y-84705277D01*
X133767977Y-84686207D01*
X133979330Y-84629575D01*
X134177639Y-84537102D01*
X134356877Y-84411598D01*
X134511598Y-84256877D01*
X134637102Y-84077639D01*
X134729575Y-83879330D01*
X134786207Y-83667977D01*
X134805277Y-83450000D01*
X134786207Y-83232023D01*
X134729575Y-83020670D01*
X134725011Y-83010883D01*
X134637103Y-82822364D01*
X134511600Y-82643126D01*
X134511598Y-82643123D01*
X134409401Y-82540926D01*
X134383780Y-82496548D01*
X134383780Y-82445302D01*
X134409404Y-82400921D01*
X134955831Y-81854496D01*
X134987948Y-81833036D01*
X135025834Y-81825500D01*
X135213937Y-81825500D01*
X135255776Y-81834776D01*
X135330240Y-81869499D01*
X135375821Y-81875500D01*
X135684178Y-81875499D01*
X135684180Y-81875499D01*
X135729760Y-81869499D01*
X135761934Y-81854496D01*
X135829799Y-81822850D01*
X135879998Y-81772650D01*
X135924377Y-81747029D01*
X135975623Y-81747029D01*
X136020001Y-81772650D01*
X136070201Y-81822850D01*
X136170240Y-81869499D01*
X136215821Y-81875500D01*
X136524178Y-81875499D01*
X136524180Y-81875499D01*
X136546969Y-81872498D01*
X136569760Y-81869499D01*
X136644224Y-81834775D01*
X136686063Y-81825500D01*
X136724166Y-81825500D01*
X136762052Y-81833036D01*
X136794170Y-81854496D01*
X137268478Y-82328804D01*
X137295428Y-82378787D01*
X137290480Y-82435357D01*
X137255261Y-82479902D01*
X137243127Y-82488398D01*
X137088399Y-82643126D01*
X136962896Y-82822364D01*
X136870426Y-83020665D01*
X136813792Y-83232026D01*
X136794722Y-83450000D01*
X136813792Y-83667973D01*
X136870426Y-83879334D01*
X136962896Y-84077636D01*
X137061977Y-84219139D01*
X137088402Y-84256877D01*
X137243123Y-84411598D01*
X137422361Y-84537102D01*
X137422362Y-84537102D01*
X137422363Y-84537103D01*
X137620665Y-84629573D01*
X137620666Y-84629573D01*
X137620670Y-84629575D01*
X137832023Y-84686207D01*
X137989682Y-84700000D01*
X138049999Y-84705277D01*
X138049999Y-84705276D01*
X138050000Y-84705277D01*
X138267977Y-84686207D01*
X138479330Y-84629575D01*
X138677639Y-84537102D01*
X138856877Y-84411598D01*
X139011598Y-84256877D01*
X139137102Y-84077639D01*
X139229575Y-83879330D01*
X139286207Y-83667977D01*
X139305277Y-83450000D01*
X139286207Y-83232023D01*
X139229575Y-83020670D01*
X139225011Y-83010883D01*
X139137103Y-82822364D01*
X139011600Y-82643126D01*
X139011598Y-82643123D01*
X138856877Y-82488402D01*
X138856871Y-82488398D01*
X138677636Y-82362896D01*
X138479334Y-82270426D01*
X138267974Y-82213792D01*
X138091429Y-82198347D01*
X138058219Y-82189448D01*
X138030054Y-82169728D01*
X137143268Y-81282942D01*
X137137434Y-81276574D01*
X137112454Y-81246805D01*
X137078794Y-81227370D01*
X137071514Y-81222732D01*
X137039685Y-81200446D01*
X137038225Y-81200055D01*
X137014352Y-81190166D01*
X137013045Y-81189412D01*
X137013043Y-81189411D01*
X137013042Y-81189411D01*
X136974778Y-81182663D01*
X136966350Y-81180795D01*
X136928807Y-81170735D01*
X136893330Y-81173839D01*
X136890093Y-81174123D01*
X136881466Y-81174500D01*
X136686063Y-81174500D01*
X136644224Y-81165224D01*
X136569761Y-81130501D01*
X136546969Y-81127500D01*
X136524178Y-81124500D01*
X136215819Y-81124500D01*
X136170239Y-81130500D01*
X136070203Y-81177148D01*
X136070201Y-81177149D01*
X136070201Y-81177150D01*
X136020001Y-81227349D01*
X135975623Y-81252971D01*
X135924377Y-81252971D01*
X135879998Y-81227349D01*
X135829799Y-81177150D01*
X135729760Y-81130501D01*
X135729758Y-81130500D01*
X135691088Y-81125409D01*
X135684178Y-81124500D01*
X135375819Y-81124500D01*
X135330241Y-81130500D01*
X135281036Y-81153445D01*
X135255775Y-81165224D01*
X135213937Y-81174500D01*
X134868534Y-81174500D01*
X134859906Y-81174123D01*
X134856050Y-81173785D01*
X134821191Y-81170735D01*
X134783649Y-81180794D01*
X134775223Y-81182662D01*
X134736956Y-81189410D01*
X134735645Y-81190168D01*
X134711780Y-81200053D01*
X134710318Y-81200444D01*
X134678484Y-81222734D01*
X134671204Y-81227371D01*
X134637544Y-81246805D01*
X134612569Y-81276569D01*
X134606736Y-81282936D01*
X133715931Y-82173741D01*
X133679787Y-82196766D01*
X133637299Y-82202360D01*
X133550000Y-82194722D01*
X133332026Y-82213792D01*
X133120665Y-82270426D01*
X132922364Y-82362896D01*
X132743126Y-82488399D01*
X132588399Y-82643126D01*
X132462896Y-82822364D01*
X132370426Y-83020665D01*
X132313792Y-83232026D01*
X132294722Y-83450000D01*
X132313792Y-83667973D01*
X132313792Y-83667976D01*
X132313793Y-83667977D01*
X132370425Y-83879330D01*
X132433327Y-84014224D01*
X132441098Y-84073253D01*
X132413606Y-84126066D01*
X131154840Y-85384833D01*
X131110459Y-85410456D01*
X131059213Y-85410456D01*
X131041102Y-85400000D01*
X130409000Y-85400000D01*
X130359500Y-85386737D01*
X130323263Y-85350500D01*
X130310000Y-85301000D01*
X130310000Y-85099999D01*
X130610000Y-85099999D01*
X130610001Y-85100000D01*
X131029999Y-85100000D01*
X131030000Y-85099999D01*
X131030000Y-85012610D01*
X131027243Y-84983212D01*
X130983935Y-84859444D01*
X130906064Y-84753935D01*
X130800555Y-84676064D01*
X130676787Y-84632756D01*
X130647390Y-84630000D01*
X130610001Y-84630000D01*
X130610000Y-84630001D01*
X130610000Y-85099999D01*
X130310000Y-85099999D01*
X130310000Y-84630001D01*
X130309999Y-84630000D01*
X130272610Y-84630000D01*
X130243212Y-84632756D01*
X130119444Y-84676064D01*
X130013933Y-84753937D01*
X129995270Y-84779223D01*
X129950632Y-84813033D01*
X129894791Y-84817217D01*
X129845615Y-84790437D01*
X129802102Y-84746924D01*
X129686518Y-84690418D01*
X129611582Y-84679500D01*
X129268418Y-84679500D01*
X129193482Y-84690418D01*
X129077898Y-84746924D01*
X128986924Y-84837898D01*
X128930418Y-84953482D01*
X128919500Y-85028418D01*
X128919500Y-85471582D01*
X128930418Y-85546518D01*
X128986924Y-85662102D01*
X129077898Y-85753076D01*
X129077899Y-85753076D01*
X129085504Y-85760681D01*
X129106964Y-85792799D01*
X129114500Y-85830685D01*
X129114500Y-86019315D01*
X129106964Y-86057201D01*
X129085504Y-86089319D01*
X129077899Y-86096923D01*
X129077898Y-86096924D01*
X128986924Y-86187898D01*
X128971727Y-86218982D01*
X128935211Y-86259481D01*
X128882788Y-86274500D01*
X128054499Y-86274500D01*
X128004999Y-86261237D01*
X127968762Y-86225000D01*
X127955499Y-86175500D01*
X127955499Y-85730979D01*
X127940647Y-85637196D01*
X127883051Y-85524160D01*
X127883050Y-85524158D01*
X127793342Y-85434450D01*
X127680304Y-85376854D01*
X127680303Y-85376853D01*
X127680302Y-85376853D01*
X127586519Y-85362000D01*
X127298999Y-85362000D01*
X127249500Y-85348738D01*
X127213264Y-85312501D01*
X127200000Y-85263001D01*
X127200000Y-80408507D01*
X127207536Y-80370621D01*
X127228996Y-80338503D01*
X127255000Y-80312499D01*
X127255000Y-80312498D01*
X127555000Y-80312498D01*
X127555001Y-80312499D01*
X127609200Y-80312499D01*
X127639604Y-80309648D01*
X127767645Y-80264845D01*
X127876791Y-80184291D01*
X127957345Y-80075145D01*
X128002149Y-79947101D01*
X128005000Y-79916708D01*
X128005000Y-79383001D01*
X128890001Y-79383001D01*
X128892787Y-79412726D01*
X128936593Y-79537918D01*
X129019015Y-79649593D01*
X129037062Y-79692405D01*
X129033592Y-79738736D01*
X129011657Y-79774632D01*
X128953982Y-79887826D01*
X128939500Y-79979264D01*
X128939500Y-80320735D01*
X128953982Y-80412173D01*
X128953982Y-80412174D01*
X128953983Y-80412175D01*
X129010141Y-80522391D01*
X129062379Y-80574629D01*
X129086792Y-80614861D01*
X129089870Y-80661822D01*
X129070916Y-80704898D01*
X129019138Y-80772375D01*
X128963669Y-80906290D01*
X128944750Y-81050000D01*
X128963669Y-81193709D01*
X128999366Y-81279889D01*
X129019139Y-81327625D01*
X129032925Y-81345591D01*
X129107378Y-81442621D01*
X129157306Y-81480932D01*
X129222375Y-81530861D01*
X129303641Y-81564522D01*
X129356290Y-81586330D01*
X129373008Y-81588531D01*
X129500000Y-81605250D01*
X129643709Y-81586330D01*
X129777625Y-81530861D01*
X129892621Y-81442621D01*
X129980861Y-81327625D01*
X130036330Y-81193709D01*
X130055250Y-81050000D01*
X130036330Y-80906291D01*
X130035898Y-80905249D01*
X129999100Y-80816409D01*
X129980861Y-80772375D01*
X129958030Y-80742621D01*
X129929084Y-80704897D01*
X129910130Y-80661820D01*
X129913208Y-80614859D01*
X129937621Y-80574628D01*
X129989859Y-80522391D01*
X130046017Y-80412175D01*
X130060500Y-80320735D01*
X130060499Y-79979266D01*
X130057032Y-79957378D01*
X130046017Y-79887826D01*
X130046017Y-79887825D01*
X129989859Y-79777609D01*
X129989857Y-79777607D01*
X129988343Y-79774635D01*
X129966409Y-79738741D01*
X129962937Y-79692408D01*
X129980985Y-79649594D01*
X130063406Y-79537918D01*
X130107212Y-79412727D01*
X130110000Y-79383000D01*
X130110000Y-79340001D01*
X130109999Y-79340000D01*
X128890002Y-79340000D01*
X128890001Y-79340001D01*
X128890001Y-79383001D01*
X128005000Y-79383001D01*
X128005000Y-79362501D01*
X128004999Y-79362500D01*
X127555001Y-79362500D01*
X127555000Y-79362501D01*
X127555000Y-80312498D01*
X127255000Y-80312498D01*
X127255000Y-79062499D01*
X127555000Y-79062499D01*
X127555001Y-79062500D01*
X128004998Y-79062500D01*
X128004999Y-79062499D01*
X128004999Y-79039999D01*
X128890000Y-79039999D01*
X128890001Y-79040000D01*
X129349999Y-79040000D01*
X129350000Y-79039999D01*
X129650000Y-79039999D01*
X129650001Y-79040000D01*
X130109998Y-79040000D01*
X130109999Y-79039999D01*
X130109999Y-78996999D01*
X130107212Y-78967273D01*
X130063405Y-78842081D01*
X129984640Y-78735359D01*
X129877918Y-78656593D01*
X129752727Y-78612787D01*
X129723000Y-78610000D01*
X129650001Y-78610000D01*
X129650000Y-78610001D01*
X129650000Y-79039999D01*
X129350000Y-79039999D01*
X129350000Y-78610002D01*
X129349999Y-78610001D01*
X129276999Y-78610001D01*
X129247273Y-78612787D01*
X129122081Y-78656594D01*
X129015359Y-78735359D01*
X128936593Y-78842081D01*
X128892787Y-78967272D01*
X128890000Y-78997000D01*
X128890000Y-79039999D01*
X128004999Y-79039999D01*
X128004999Y-78508300D01*
X128002148Y-78477895D01*
X127957345Y-78349854D01*
X127876791Y-78240708D01*
X127767645Y-78160154D01*
X127639601Y-78115350D01*
X127609208Y-78112500D01*
X127555001Y-78112500D01*
X127555000Y-78112501D01*
X127555000Y-79062499D01*
X127255000Y-79062499D01*
X127255000Y-78112502D01*
X127228996Y-78086498D01*
X127207536Y-78054380D01*
X127200000Y-78016494D01*
X127200000Y-76049000D01*
X127213263Y-75999500D01*
X127249500Y-75963263D01*
X127299000Y-75950000D01*
X133266743Y-75950000D01*
X133304629Y-75957536D01*
X133336743Y-75978993D01*
X133397609Y-76039859D01*
X133507825Y-76096017D01*
X133518300Y-76097676D01*
X133571979Y-76124627D01*
X133579986Y-76139674D01*
X133588790Y-76128279D01*
X133645394Y-76110499D01*
X133954811Y-76110499D01*
X134009813Y-76127184D01*
X134046275Y-76171614D01*
X134051909Y-76228814D01*
X134024814Y-76279503D01*
X133963823Y-76340493D01*
X133917875Y-76366522D01*
X133865082Y-76365226D01*
X133696131Y-76313975D01*
X133635692Y-76308022D01*
X133581101Y-76284779D01*
X133568023Y-76263900D01*
X133551883Y-76281438D01*
X133509388Y-76290511D01*
X133509703Y-76293703D01*
X133303869Y-76313975D01*
X133115272Y-76371185D01*
X132941463Y-76464088D01*
X132789117Y-76589117D01*
X132664088Y-76741463D01*
X132571185Y-76915272D01*
X132513975Y-77103869D01*
X132494658Y-77299999D01*
X132513975Y-77496130D01*
X132571185Y-77684727D01*
X132664088Y-77858536D01*
X132673086Y-77869500D01*
X132789117Y-78010883D01*
X132881254Y-78086498D01*
X132941463Y-78135911D01*
X133115272Y-78228814D01*
X133189198Y-78251239D01*
X133303868Y-78286024D01*
X133500000Y-78305341D01*
X133696132Y-78286024D01*
X133884727Y-78228814D01*
X134058538Y-78135910D01*
X134210883Y-78010883D01*
X134335910Y-77858538D01*
X134428814Y-77684727D01*
X134486024Y-77496132D01*
X134505341Y-77300000D01*
X134486024Y-77103868D01*
X134452359Y-76992889D01*
X134434773Y-76934916D01*
X134433477Y-76882123D01*
X134459504Y-76836176D01*
X135014884Y-76280796D01*
X135030734Y-76267926D01*
X135040669Y-76261437D01*
X135059444Y-76237313D01*
X135067576Y-76228106D01*
X135068375Y-76227307D01*
X135068376Y-76227306D01*
X135079887Y-76211182D01*
X135082280Y-76207973D01*
X135112517Y-76169126D01*
X135112518Y-76169122D01*
X135115878Y-76164806D01*
X135117679Y-76161306D01*
X135119238Y-76156068D01*
X135119240Y-76156066D01*
X135133285Y-76108884D01*
X135134512Y-76105054D01*
X135150500Y-76058488D01*
X135150500Y-76058484D01*
X135152271Y-76053326D01*
X135154616Y-76037237D01*
X135157331Y-76028118D01*
X135158614Y-76028500D01*
X135162353Y-76009875D01*
X135191767Y-75973275D01*
X135192621Y-75972621D01*
X135192622Y-75972619D01*
X135195450Y-75970450D01*
X135223891Y-75955252D01*
X135255707Y-75950000D01*
X135725500Y-75950000D01*
X135775000Y-75963263D01*
X135811237Y-75999500D01*
X135824500Y-76049000D01*
X135824500Y-76271582D01*
X135835418Y-76346518D01*
X135891924Y-76462102D01*
X135982898Y-76553076D01*
X136098482Y-76609582D01*
X136173418Y-76620500D01*
X136516579Y-76620500D01*
X136516582Y-76620500D01*
X136591518Y-76609582D01*
X136707102Y-76553076D01*
X136784998Y-76475179D01*
X136829377Y-76449558D01*
X136880623Y-76449558D01*
X136925001Y-76475179D01*
X137002898Y-76553076D01*
X137118482Y-76609582D01*
X137193418Y-76620500D01*
X137536579Y-76620500D01*
X137536582Y-76620500D01*
X137611518Y-76609582D01*
X137727102Y-76553076D01*
X137818076Y-76462102D01*
X137833272Y-76431017D01*
X137869789Y-76390519D01*
X137922212Y-76375500D01*
X138495500Y-76375500D01*
X138545000Y-76388763D01*
X138581237Y-76425000D01*
X138594500Y-76474500D01*
X138594500Y-76850500D01*
X138581237Y-76900000D01*
X138545000Y-76936237D01*
X138495500Y-76949500D01*
X138292567Y-76949500D01*
X138279646Y-76948653D01*
X138250000Y-76944750D01*
X138220353Y-76948653D01*
X138216816Y-76948884D01*
X138176737Y-76954393D01*
X138176181Y-76954468D01*
X138101543Y-76964294D01*
X138035710Y-76992889D01*
X138034156Y-76993548D01*
X137966395Y-77021615D01*
X137963918Y-77023074D01*
X137909754Y-77067138D01*
X137907547Y-77068881D01*
X137855058Y-77109158D01*
X137844086Y-77120447D01*
X137807715Y-77171972D01*
X137805378Y-77175146D01*
X137769137Y-77222376D01*
X137769099Y-77222469D01*
X137758525Y-77241656D01*
X137756625Y-77244348D01*
X137736848Y-77299990D01*
X137735031Y-77304716D01*
X137713669Y-77356293D01*
X137713169Y-77360092D01*
X137708303Y-77380310D01*
X137705945Y-77386944D01*
X137702168Y-77442163D01*
X137701552Y-77448327D01*
X137694749Y-77500002D01*
X137695737Y-77507509D01*
X137696353Y-77527168D01*
X137695618Y-77537919D01*
X137706126Y-77588491D01*
X137707349Y-77595706D01*
X137713669Y-77643709D01*
X137717992Y-77654145D01*
X137723455Y-77671881D01*
X137726407Y-77686084D01*
X137748455Y-77728634D01*
X137752019Y-77736295D01*
X137769138Y-77777624D01*
X137778285Y-77789545D01*
X137787641Y-77804261D01*
X137795635Y-77819686D01*
X137796029Y-77820447D01*
X137826220Y-77852774D01*
X137832403Y-77860073D01*
X137852551Y-77886330D01*
X137857379Y-77892621D01*
X137872259Y-77904039D01*
X137884334Y-77914999D01*
X137899320Y-77931044D01*
X137933942Y-77952097D01*
X137942767Y-77958142D01*
X137972370Y-77980858D01*
X137972372Y-77980858D01*
X137972375Y-77980861D01*
X137993146Y-77989464D01*
X138006689Y-77996337D01*
X138028617Y-78009672D01*
X138064066Y-78019604D01*
X138075233Y-78023465D01*
X138106291Y-78036330D01*
X138132268Y-78039749D01*
X138146025Y-78042567D01*
X138174335Y-78050500D01*
X138207433Y-78050500D01*
X138220353Y-78051346D01*
X138250000Y-78055250D01*
X138279646Y-78051346D01*
X138292567Y-78050500D01*
X138735725Y-78050500D01*
X138785225Y-78063763D01*
X138821461Y-78100000D01*
X138834725Y-78149500D01*
X138821462Y-78198999D01*
X138751188Y-78320717D01*
X138700870Y-78488789D01*
X138690669Y-78663937D01*
X138721134Y-78836712D01*
X138777453Y-78967272D01*
X138790623Y-78997804D01*
X138895390Y-79138530D01*
X138909061Y-79150001D01*
X139029783Y-79251300D01*
X139029784Y-79251300D01*
X139029786Y-79251302D01*
X139178714Y-79326096D01*
X139186569Y-79330041D01*
X139357277Y-79370500D01*
X139357279Y-79370500D01*
X140588704Y-79370500D01*
X140588709Y-79370500D01*
X140719255Y-79355241D01*
X140884117Y-79295237D01*
X141030696Y-79198830D01*
X141151092Y-79071218D01*
X141238812Y-78919281D01*
X141289130Y-78751210D01*
X141294213Y-78663937D01*
X143020669Y-78663937D01*
X143051134Y-78836712D01*
X143107453Y-78967272D01*
X143120623Y-78997804D01*
X143225390Y-79138530D01*
X143239061Y-79150001D01*
X143359783Y-79251300D01*
X143359784Y-79251300D01*
X143359786Y-79251302D01*
X143508714Y-79326096D01*
X143516569Y-79330041D01*
X143687277Y-79370500D01*
X143687279Y-79370500D01*
X144618704Y-79370500D01*
X144618709Y-79370500D01*
X144749255Y-79355241D01*
X144914117Y-79295237D01*
X145060696Y-79198830D01*
X145181092Y-79071218D01*
X145268812Y-78919281D01*
X145319130Y-78751210D01*
X145329331Y-78576065D01*
X145304844Y-78437196D01*
X145298865Y-78403287D01*
X145248282Y-78286024D01*
X145229377Y-78242196D01*
X145124610Y-78101470D01*
X145054417Y-78042571D01*
X144990216Y-77988699D01*
X144833430Y-77909958D01*
X144662723Y-77869500D01*
X144662721Y-77869500D01*
X143731291Y-77869500D01*
X143638043Y-77880399D01*
X143600743Y-77884759D01*
X143435882Y-77944763D01*
X143289304Y-78041169D01*
X143168909Y-78168780D01*
X143081188Y-78320719D01*
X143030870Y-78488789D01*
X143020669Y-78663937D01*
X141294213Y-78663937D01*
X141299331Y-78576065D01*
X141274844Y-78437196D01*
X141268865Y-78403287D01*
X141218282Y-78286024D01*
X141199377Y-78242196D01*
X141094610Y-78101470D01*
X141024417Y-78042571D01*
X140960216Y-77988699D01*
X140803430Y-77909958D01*
X140756184Y-77898761D01*
X140712557Y-77875808D01*
X140685409Y-77834661D01*
X140681469Y-77785522D01*
X140701716Y-77740576D01*
X140741127Y-77710967D01*
X140785233Y-77692698D01*
X140905451Y-77600451D01*
X140997698Y-77480233D01*
X141055687Y-77340236D01*
X141075466Y-77190000D01*
X141055687Y-77039764D01*
X140997698Y-76899767D01*
X140948901Y-76836174D01*
X140905451Y-76779548D01*
X140785233Y-76687302D01*
X140785232Y-76687301D01*
X140747851Y-76671818D01*
X140709211Y-76643160D01*
X140688641Y-76599669D01*
X140691002Y-76551617D01*
X140715736Y-76510351D01*
X141010484Y-76215604D01*
X141010482Y-76215605D01*
X141010483Y-76215604D01*
X141033050Y-76193037D01*
X141044003Y-76171536D01*
X141052113Y-76158303D01*
X141066296Y-76138785D01*
X141073751Y-76115839D01*
X141079695Y-76101491D01*
X141082951Y-76095099D01*
X141090646Y-76079999D01*
X141094419Y-76056168D01*
X141098048Y-76041059D01*
X141105410Y-76018404D01*
X141141374Y-75968906D01*
X141199563Y-75950000D01*
X141299999Y-75950000D01*
X141300000Y-75950000D01*
X141313836Y-72100054D01*
X141313835Y-72100053D01*
X140830623Y-72100053D01*
X140778895Y-72085464D01*
X140742412Y-72045996D01*
X140731928Y-71993282D01*
X140750533Y-71942859D01*
X140776339Y-71922516D01*
X140774893Y-71920632D01*
X140863394Y-71852723D01*
X140905451Y-71820451D01*
X140997698Y-71700233D01*
X141055687Y-71560236D01*
X141075466Y-71410000D01*
X141055687Y-71259764D01*
X140997698Y-71119767D01*
X140947219Y-71053982D01*
X140905451Y-70999548D01*
X140827114Y-70939439D01*
X140785233Y-70907302D01*
X140785231Y-70907301D01*
X140742765Y-70889710D01*
X140697741Y-70852346D01*
X140681676Y-70796086D01*
X140700181Y-70740581D01*
X140746790Y-70705219D01*
X140884117Y-70655237D01*
X141030696Y-70558830D01*
X141151092Y-70431218D01*
X141238812Y-70279281D01*
X141289130Y-70111210D01*
X141294213Y-70023937D01*
X143020669Y-70023937D01*
X143051134Y-70196712D01*
X143117257Y-70350000D01*
X143120623Y-70357804D01*
X143225390Y-70498530D01*
X143292054Y-70554468D01*
X143359783Y-70611300D01*
X143359784Y-70611300D01*
X143359786Y-70611302D01*
X143477568Y-70670454D01*
X143516569Y-70690041D01*
X143687277Y-70730500D01*
X143687279Y-70730500D01*
X144618704Y-70730500D01*
X144618709Y-70730500D01*
X144749255Y-70715241D01*
X144914117Y-70655237D01*
X145060696Y-70558830D01*
X145181092Y-70431218D01*
X145268812Y-70279281D01*
X145319130Y-70111210D01*
X145329331Y-69936065D01*
X145300137Y-69770500D01*
X145298865Y-69763287D01*
X145234621Y-69614353D01*
X145229377Y-69602196D01*
X145124610Y-69461470D01*
X145057412Y-69405084D01*
X144990216Y-69348699D01*
X144833430Y-69269958D01*
X144662723Y-69229500D01*
X144662721Y-69229500D01*
X143731291Y-69229500D01*
X143638043Y-69240399D01*
X143600743Y-69244759D01*
X143435882Y-69304763D01*
X143289304Y-69401169D01*
X143168909Y-69528780D01*
X143081188Y-69680719D01*
X143060297Y-69750500D01*
X143030870Y-69848790D01*
X143021656Y-70006999D01*
X143020669Y-70023937D01*
X141294213Y-70023937D01*
X141299331Y-69936065D01*
X141270137Y-69770500D01*
X141268865Y-69763287D01*
X141204621Y-69614353D01*
X141199377Y-69602196D01*
X141094610Y-69461470D01*
X141027412Y-69405084D01*
X140960216Y-69348699D01*
X140803430Y-69269958D01*
X140632723Y-69229500D01*
X140632721Y-69229500D01*
X139401291Y-69229500D01*
X139308043Y-69240399D01*
X139270743Y-69244759D01*
X139105882Y-69304763D01*
X138959304Y-69401169D01*
X138838909Y-69528780D01*
X138751188Y-69680719D01*
X138730297Y-69750500D01*
X138700870Y-69848790D01*
X138691656Y-70006999D01*
X138690669Y-70023937D01*
X138721134Y-70196712D01*
X138787257Y-70350000D01*
X138790623Y-70357804D01*
X138815621Y-70391383D01*
X138834834Y-70441871D01*
X138824681Y-70494931D01*
X138788184Y-70534760D01*
X138736211Y-70549500D01*
X138292567Y-70549500D01*
X138279646Y-70548653D01*
X138250000Y-70544750D01*
X138220353Y-70548653D01*
X138216816Y-70548884D01*
X138176737Y-70554393D01*
X138176181Y-70554468D01*
X138101542Y-70564294D01*
X138043941Y-70589314D01*
X137996058Y-70597149D01*
X137950203Y-70581292D01*
X137917390Y-70545550D01*
X137905500Y-70498510D01*
X137905500Y-69285024D01*
X137901734Y-69253206D01*
X137898441Y-69225380D01*
X137884926Y-69169085D01*
X137864137Y-69112734D01*
X137830767Y-69062793D01*
X137827523Y-69057938D01*
X137828654Y-69057182D01*
X137808837Y-69013069D01*
X137816996Y-68958056D01*
X137853527Y-68916121D01*
X137906903Y-68900500D01*
X137919136Y-68900500D01*
X137930219Y-68901122D01*
X137932595Y-68901389D01*
X137967035Y-68905270D01*
X138023693Y-68894548D01*
X138027267Y-68893941D01*
X138084287Y-68885348D01*
X138084290Y-68885346D01*
X138087724Y-68884829D01*
X138097404Y-68881644D01*
X138100470Y-68880023D01*
X138100472Y-68880023D01*
X138151444Y-68853082D01*
X138154728Y-68851424D01*
X138206642Y-68826425D01*
X138206643Y-68826423D01*
X138209762Y-68824922D01*
X138218088Y-68819014D01*
X138220533Y-68816568D01*
X138220538Y-68816566D01*
X138261316Y-68775786D01*
X138263927Y-68773271D01*
X138306194Y-68734055D01*
X138306195Y-68734052D01*
X138308732Y-68731699D01*
X138319703Y-68717399D01*
X138594683Y-68442419D01*
X138640630Y-68416392D01*
X138693422Y-68417687D01*
X138742082Y-68432448D01*
X138753871Y-68436025D01*
X138950000Y-68455341D01*
X139146132Y-68436024D01*
X139334727Y-68378814D01*
X139508538Y-68285910D01*
X139660883Y-68160883D01*
X139785910Y-68008538D01*
X139878814Y-67834727D01*
X139936024Y-67646132D01*
X139955341Y-67450000D01*
X139936024Y-67253868D01*
X139907418Y-67159570D01*
X139878814Y-67065272D01*
X139785911Y-66891463D01*
X139722065Y-66813667D01*
X139660883Y-66739117D01*
X139508538Y-66614090D01*
X139508539Y-66614090D01*
X139508536Y-66614088D01*
X139334727Y-66521185D01*
X139146130Y-66463975D01*
X138950000Y-66444658D01*
X138753869Y-66463975D01*
X138565272Y-66521185D01*
X138391463Y-66614088D01*
X138239117Y-66739117D01*
X138114089Y-66891461D01*
X138056611Y-66998996D01*
X138018098Y-67038466D01*
X137964444Y-67051208D01*
X137912297Y-67033268D01*
X137877838Y-66990215D01*
X137854656Y-66934250D01*
X137814053Y-66881334D01*
X137768666Y-66835947D01*
X137715750Y-66795344D01*
X137654129Y-66769819D01*
X137592129Y-66753206D01*
X137592128Y-66753205D01*
X137592125Y-66753205D01*
X137526001Y-66744500D01*
X137526000Y-66744500D01*
X137474500Y-66744500D01*
X137425000Y-66731237D01*
X137388764Y-66695000D01*
X137375500Y-66645500D01*
X137375499Y-66350000D01*
X141644340Y-66350000D01*
X141664936Y-66585405D01*
X141726098Y-66813667D01*
X141825963Y-67027826D01*
X141825964Y-67027827D01*
X141825965Y-67027829D01*
X141961505Y-67221401D01*
X142128599Y-67388495D01*
X142322171Y-67524035D01*
X142322172Y-67524035D01*
X142322173Y-67524036D01*
X142536332Y-67623901D01*
X142536333Y-67623901D01*
X142536337Y-67623903D01*
X142764592Y-67685063D01*
X142835168Y-67691237D01*
X142941031Y-67700500D01*
X142941034Y-67700500D01*
X143058966Y-67700500D01*
X143058969Y-67700500D01*
X143147187Y-67692781D01*
X143235408Y-67685063D01*
X143463663Y-67623903D01*
X143677829Y-67524035D01*
X143871401Y-67388495D01*
X144038495Y-67221401D01*
X144174035Y-67027830D01*
X144273903Y-66813663D01*
X144335063Y-66585408D01*
X144355659Y-66350000D01*
X144335063Y-66114592D01*
X144273903Y-65886337D01*
X144233410Y-65799501D01*
X144174036Y-65672173D01*
X144158160Y-65649500D01*
X144038495Y-65478599D01*
X143871401Y-65311505D01*
X143677829Y-65175965D01*
X143677828Y-65175964D01*
X143677826Y-65175963D01*
X143463667Y-65076098D01*
X143235405Y-65014936D01*
X143058969Y-64999500D01*
X143058966Y-64999500D01*
X142941034Y-64999500D01*
X142941031Y-64999500D01*
X142764594Y-65014936D01*
X142536332Y-65076098D01*
X142322173Y-65175963D01*
X142128602Y-65311502D01*
X141961502Y-65478602D01*
X141825963Y-65672172D01*
X141726098Y-65886332D01*
X141664936Y-66114594D01*
X141644340Y-66350000D01*
X137375499Y-66350000D01*
X137375499Y-66252128D01*
X137375498Y-66252127D01*
X137369091Y-66192517D01*
X137318796Y-66057669D01*
X137232546Y-65942454D01*
X137117331Y-65856204D01*
X137117330Y-65856203D01*
X137021366Y-65820411D01*
X136982483Y-65805909D01*
X136922873Y-65799500D01*
X136922869Y-65799500D01*
X135877128Y-65799500D01*
X135817515Y-65805909D01*
X135682669Y-65856203D01*
X135567454Y-65942454D01*
X135481203Y-66057669D01*
X135452325Y-66135096D01*
X135416029Y-66181820D01*
X135359567Y-66199500D01*
X132923763Y-66199500D01*
X132879977Y-66189291D01*
X132845222Y-66160769D01*
X132842619Y-66157377D01*
X132727624Y-66069138D01*
X132593709Y-66013669D01*
X132450000Y-65994750D01*
X132306290Y-66013669D01*
X132172375Y-66069138D01*
X132057380Y-66157377D01*
X132054778Y-66160769D01*
X132020023Y-66189291D01*
X131976237Y-66199500D01*
X129574499Y-66199500D01*
X129524999Y-66186237D01*
X129488762Y-66150000D01*
X129477312Y-66107268D01*
X129476066Y-66107403D01*
X129475499Y-66102127D01*
X129469091Y-66042517D01*
X129418796Y-65907669D01*
X129332546Y-65792454D01*
X129217331Y-65706204D01*
X129217330Y-65706203D01*
X129121366Y-65670411D01*
X129082483Y-65655909D01*
X129022873Y-65649500D01*
X129022869Y-65649500D01*
X127977128Y-65649500D01*
X127917515Y-65655909D01*
X127782669Y-65706203D01*
X127667454Y-65792454D01*
X127581203Y-65907669D01*
X127541668Y-66013670D01*
X127530909Y-66042517D01*
X127528047Y-66069138D01*
X127524500Y-66102130D01*
X127524500Y-66697871D01*
X127530909Y-66757484D01*
X127581203Y-66892330D01*
X127581204Y-66892331D01*
X127667454Y-67007546D01*
X127782669Y-67093796D01*
X127917517Y-67144091D01*
X127977127Y-67150500D01*
X129022872Y-67150499D01*
X129082483Y-67144091D01*
X129217331Y-67093796D01*
X129332546Y-67007546D01*
X129382983Y-66940170D01*
X129417922Y-66910971D01*
X129462236Y-66900500D01*
X131976236Y-66900500D01*
X132020022Y-66910709D01*
X132054777Y-66939231D01*
X132057378Y-66942621D01*
X132060769Y-66945223D01*
X132089291Y-66979978D01*
X132099500Y-67023764D01*
X132099500Y-67579771D01*
X132088456Y-67625210D01*
X132057789Y-67660511D01*
X132014340Y-67677799D01*
X131967803Y-67673216D01*
X131909601Y-67652850D01*
X131879208Y-67650000D01*
X131462501Y-67650000D01*
X131462500Y-67650001D01*
X131462500Y-68849998D01*
X131462501Y-68849999D01*
X131879200Y-68849999D01*
X131909606Y-68847148D01*
X132037199Y-68802502D01*
X132084459Y-68798023D01*
X132128371Y-68816060D01*
X132158837Y-68852465D01*
X132160802Y-68856484D01*
X132163198Y-68861385D01*
X132165568Y-68864564D01*
X132205764Y-68901567D01*
X132208717Y-68904399D01*
X132649622Y-69345304D01*
X132667828Y-69370364D01*
X132677399Y-69399822D01*
X132689353Y-69475303D01*
X132746948Y-69588339D01*
X132746950Y-69588342D01*
X132763605Y-69604997D01*
X132789226Y-69649375D01*
X132789227Y-69700620D01*
X132763606Y-69745000D01*
X132746951Y-69761655D01*
X132689353Y-69874697D01*
X132674500Y-69968480D01*
X132674500Y-70331521D01*
X132689352Y-70425303D01*
X132746948Y-70538339D01*
X132746950Y-70538342D01*
X132822158Y-70613550D01*
X132848806Y-70662125D01*
X132845182Y-70717412D01*
X132812420Y-70762094D01*
X132781338Y-70785943D01*
X132735944Y-70831337D01*
X132695345Y-70884248D01*
X132695344Y-70884249D01*
X132695344Y-70884250D01*
X132685796Y-70907302D01*
X132669819Y-70945872D01*
X132653205Y-71007874D01*
X132644500Y-71073999D01*
X132644500Y-71426001D01*
X132652914Y-71489915D01*
X132653206Y-71492129D01*
X132669819Y-71554129D01*
X132695344Y-71615750D01*
X132735947Y-71668666D01*
X132781334Y-71714053D01*
X132834250Y-71754656D01*
X132895871Y-71780181D01*
X132957871Y-71796794D01*
X133007467Y-71803323D01*
X133023999Y-71805500D01*
X133024000Y-71805500D01*
X135791543Y-71805500D01*
X135842220Y-71819454D01*
X135878611Y-71857381D01*
X135890458Y-71908591D01*
X135874422Y-71958648D01*
X135835023Y-71993441D01*
X135827897Y-71996924D01*
X135753773Y-72071048D01*
X135721655Y-72092508D01*
X135683770Y-72100044D01*
X135123644Y-72100044D01*
X135085759Y-72092508D01*
X134943710Y-72033669D01*
X134800000Y-72014750D01*
X134656293Y-72033669D01*
X134514242Y-72092507D01*
X134476357Y-72100042D01*
X134206339Y-72100042D01*
X134161394Y-72089252D01*
X134161172Y-72089139D01*
X134092175Y-72053983D01*
X134000735Y-72039500D01*
X133599265Y-72039500D01*
X133507825Y-72053983D01*
X133438605Y-72089251D01*
X133393662Y-72100040D01*
X121260962Y-72100021D01*
X121208683Y-72085092D01*
X121172172Y-72044807D01*
X121162439Y-71991317D01*
X121182419Y-71940755D01*
X121230861Y-71877625D01*
X121286330Y-71743709D01*
X121305250Y-71600000D01*
X121286330Y-71456291D01*
X121283724Y-71450000D01*
X121253487Y-71377000D01*
X121230861Y-71322375D01*
X121174942Y-71249500D01*
X121142621Y-71207378D01*
X121077552Y-71157450D01*
X121027625Y-71119139D01*
X120988401Y-71102892D01*
X120893709Y-71063669D01*
X120750000Y-71044750D01*
X120606290Y-71063669D01*
X120472374Y-71119139D01*
X120393581Y-71179599D01*
X120350505Y-71198553D01*
X120303544Y-71195475D01*
X120263312Y-71171062D01*
X120202391Y-71110141D01*
X120092175Y-71053983D01*
X120092174Y-71053982D01*
X120092173Y-71053982D01*
X120000735Y-71039500D01*
X119659264Y-71039500D01*
X119567826Y-71053982D01*
X119454632Y-71111657D01*
X119418736Y-71133592D01*
X119372405Y-71137062D01*
X119329593Y-71119015D01*
X119217918Y-71036593D01*
X119092727Y-70992787D01*
X119063000Y-70990000D01*
X119020001Y-70990000D01*
X119020000Y-70990001D01*
X119020000Y-71651000D01*
X119006737Y-71700500D01*
X118970500Y-71736737D01*
X118921000Y-71750000D01*
X118290002Y-71750000D01*
X118290001Y-71750001D01*
X118290001Y-71823001D01*
X118292787Y-71852723D01*
X118333235Y-71968319D01*
X118337818Y-72014856D01*
X118320530Y-72058305D01*
X118285229Y-72088972D01*
X118239790Y-72100016D01*
X116098999Y-72100013D01*
X116049499Y-72086749D01*
X116013262Y-72050513D01*
X115999999Y-72001013D01*
X115999999Y-71754283D01*
X115990088Y-71686252D01*
X115938785Y-71581311D01*
X115856187Y-71498713D01*
X115756541Y-71449999D01*
X118290000Y-71449999D01*
X118290001Y-71450000D01*
X118719999Y-71450000D01*
X118720000Y-71449999D01*
X118720000Y-70990002D01*
X118719999Y-70990001D01*
X118676999Y-70990001D01*
X118647273Y-70992787D01*
X118522081Y-71036594D01*
X118415359Y-71115359D01*
X118336593Y-71222081D01*
X118292787Y-71347272D01*
X118290000Y-71377000D01*
X118290000Y-71449999D01*
X115756541Y-71449999D01*
X115751249Y-71447412D01*
X115700000Y-71439946D01*
X115700000Y-71593384D01*
X115685649Y-71644721D01*
X115646757Y-71681175D01*
X115594599Y-71692177D01*
X115544297Y-71674537D01*
X115510434Y-71633369D01*
X115508434Y-71628839D01*
X115500000Y-71588854D01*
X115500000Y-71439945D01*
X115448751Y-71447411D01*
X115379855Y-71481093D01*
X115324966Y-71490492D01*
X115294867Y-71487000D01*
X115105138Y-71487000D01*
X115080006Y-71489915D01*
X115039985Y-71507586D01*
X114999998Y-71516021D01*
X114960012Y-71507586D01*
X114919991Y-71489915D01*
X114919989Y-71489914D01*
X114894866Y-71487000D01*
X114705138Y-71487000D01*
X114680006Y-71489915D01*
X114639985Y-71507586D01*
X114599998Y-71516021D01*
X114560012Y-71507586D01*
X114519991Y-71489915D01*
X114519989Y-71489914D01*
X114494866Y-71487000D01*
X114305138Y-71487000D01*
X114280006Y-71489915D01*
X114239985Y-71507586D01*
X114199998Y-71516021D01*
X114160012Y-71507586D01*
X114119991Y-71489915D01*
X114119989Y-71489914D01*
X114094866Y-71487000D01*
X113905138Y-71487000D01*
X113880006Y-71489915D01*
X113839985Y-71507586D01*
X113799998Y-71516021D01*
X113760012Y-71507586D01*
X113719991Y-71489915D01*
X113719989Y-71489914D01*
X113694866Y-71487000D01*
X113505138Y-71487000D01*
X113480006Y-71489915D01*
X113439985Y-71507586D01*
X113399998Y-71516021D01*
X113360012Y-71507586D01*
X113319991Y-71489915D01*
X113319989Y-71489914D01*
X113294866Y-71487000D01*
X113105138Y-71487000D01*
X113080006Y-71489915D01*
X113039985Y-71507586D01*
X112999998Y-71516021D01*
X112960012Y-71507586D01*
X112919991Y-71489915D01*
X112919989Y-71489914D01*
X112894866Y-71487000D01*
X112705138Y-71487000D01*
X112680006Y-71489915D01*
X112639985Y-71507586D01*
X112599998Y-71516021D01*
X112560012Y-71507586D01*
X112519991Y-71489915D01*
X112519989Y-71489914D01*
X112494866Y-71487000D01*
X112305133Y-71487000D01*
X112275026Y-71490492D01*
X112220143Y-71481092D01*
X112151249Y-71447412D01*
X112100000Y-71439946D01*
X112100000Y-71588854D01*
X112091559Y-71628854D01*
X112090559Y-71631118D01*
X112054042Y-71674067D01*
X112000000Y-71690118D01*
X111945958Y-71674067D01*
X111909441Y-71631118D01*
X111908441Y-71628854D01*
X111900000Y-71588854D01*
X111900000Y-71439945D01*
X111848751Y-71447411D01*
X111779855Y-71481093D01*
X111724966Y-71490492D01*
X111694867Y-71487000D01*
X111505138Y-71487000D01*
X111480006Y-71489915D01*
X111439985Y-71507586D01*
X111399998Y-71516021D01*
X111360012Y-71507586D01*
X111319991Y-71489915D01*
X111319989Y-71489914D01*
X111294866Y-71487000D01*
X111105138Y-71487000D01*
X111080006Y-71489915D01*
X111039985Y-71507586D01*
X110999998Y-71516021D01*
X110960012Y-71507586D01*
X110919991Y-71489915D01*
X110919989Y-71489914D01*
X110894866Y-71487000D01*
X110705138Y-71487000D01*
X110680006Y-71489915D01*
X110639985Y-71507586D01*
X110599998Y-71516021D01*
X110560012Y-71507586D01*
X110519991Y-71489915D01*
X110519989Y-71489914D01*
X110494866Y-71487000D01*
X110305137Y-71487000D01*
X110280009Y-71489915D01*
X110177235Y-71535293D01*
X110097793Y-71614735D01*
X110052414Y-71717510D01*
X110049500Y-71742632D01*
X110049500Y-72001003D01*
X110036236Y-72050503D01*
X110000000Y-72086740D01*
X109950500Y-72100003D01*
X107349951Y-72100000D01*
X107300178Y-72086578D01*
X107263900Y-72049952D01*
X107250956Y-72000055D01*
X107266535Y-70373001D01*
X111390001Y-70373001D01*
X111392787Y-70402726D01*
X111436594Y-70527918D01*
X111515359Y-70634640D01*
X111622081Y-70713406D01*
X111747272Y-70757212D01*
X111777000Y-70760000D01*
X111849999Y-70760000D01*
X111850000Y-70759999D01*
X111850000Y-70759998D01*
X112150000Y-70759998D01*
X112150001Y-70759999D01*
X112223001Y-70759999D01*
X112252726Y-70757212D01*
X112377918Y-70713405D01*
X112484640Y-70634640D01*
X112563406Y-70527918D01*
X112607212Y-70402727D01*
X112608124Y-70393001D01*
X114990001Y-70393001D01*
X114992787Y-70422726D01*
X115036594Y-70547918D01*
X115115359Y-70654640D01*
X115222081Y-70733406D01*
X115347272Y-70777212D01*
X115377000Y-70780000D01*
X115449999Y-70780000D01*
X115450000Y-70779999D01*
X115450000Y-70779998D01*
X115750000Y-70779998D01*
X115750001Y-70779999D01*
X115823001Y-70779999D01*
X115852726Y-70777212D01*
X115977918Y-70733405D01*
X116084640Y-70654640D01*
X116163406Y-70547918D01*
X116207212Y-70422727D01*
X116210000Y-70393000D01*
X116210000Y-70350001D01*
X116209999Y-70350000D01*
X115750001Y-70350000D01*
X115750000Y-70350001D01*
X115750000Y-70779998D01*
X115450000Y-70779998D01*
X115450000Y-70350001D01*
X115449999Y-70350000D01*
X114990002Y-70350000D01*
X114990001Y-70350001D01*
X114990001Y-70393001D01*
X112608124Y-70393001D01*
X112610000Y-70373000D01*
X112610000Y-70343001D01*
X117090001Y-70343001D01*
X117092787Y-70372726D01*
X117136594Y-70497918D01*
X117215359Y-70604640D01*
X117322081Y-70683406D01*
X117447272Y-70727212D01*
X117477000Y-70730000D01*
X117549999Y-70730000D01*
X117550000Y-70729999D01*
X117550000Y-70729998D01*
X117850000Y-70729998D01*
X117850001Y-70729999D01*
X117923001Y-70729999D01*
X117952726Y-70727212D01*
X118077918Y-70683405D01*
X118184640Y-70604640D01*
X118263406Y-70497918D01*
X118307212Y-70372727D01*
X118310000Y-70343000D01*
X118310000Y-70331521D01*
X130399500Y-70331521D01*
X130414352Y-70425303D01*
X130471948Y-70538339D01*
X130471950Y-70538342D01*
X130561658Y-70628050D01*
X130674696Y-70685646D01*
X130768481Y-70700500D01*
X131856518Y-70700499D01*
X131856521Y-70700499D01*
X131950303Y-70685647D01*
X132050408Y-70634640D01*
X132063342Y-70628050D01*
X132153050Y-70538342D01*
X132210646Y-70425304D01*
X132225500Y-70331519D01*
X132225499Y-69968482D01*
X132225499Y-69968480D01*
X132225499Y-69968478D01*
X132210647Y-69874696D01*
X132153051Y-69761660D01*
X132153050Y-69761658D01*
X132063342Y-69671950D01*
X131950304Y-69614354D01*
X131950303Y-69614353D01*
X131950302Y-69614353D01*
X131856519Y-69599500D01*
X130768478Y-69599500D01*
X130674696Y-69614352D01*
X130561660Y-69671948D01*
X130471949Y-69761659D01*
X130414353Y-69874697D01*
X130399500Y-69968480D01*
X130399500Y-70331521D01*
X118310000Y-70331521D01*
X118310000Y-70300001D01*
X118309999Y-70300000D01*
X117850001Y-70300000D01*
X117850000Y-70300001D01*
X117850000Y-70729998D01*
X117550000Y-70729998D01*
X117550000Y-70300001D01*
X117549999Y-70300000D01*
X117090002Y-70300000D01*
X117090001Y-70300001D01*
X117090001Y-70343001D01*
X112610000Y-70343001D01*
X112610000Y-70330001D01*
X112609999Y-70330000D01*
X112150001Y-70330000D01*
X112150000Y-70330001D01*
X112150000Y-70759998D01*
X111850000Y-70759998D01*
X111850000Y-70330001D01*
X111849999Y-70330000D01*
X111390002Y-70330000D01*
X111390001Y-70330001D01*
X111390001Y-70373001D01*
X107266535Y-70373001D01*
X107269628Y-70049999D01*
X114990000Y-70049999D01*
X114990001Y-70050000D01*
X116209998Y-70050000D01*
X116209999Y-70049999D01*
X116209999Y-70006999D01*
X116209343Y-69999999D01*
X117090000Y-69999999D01*
X117090001Y-70000000D01*
X118309998Y-70000000D01*
X118309999Y-69999999D01*
X118309999Y-69956999D01*
X118307212Y-69927273D01*
X118263406Y-69802081D01*
X118180984Y-69690406D01*
X118162936Y-69647591D01*
X118166409Y-69601256D01*
X118188338Y-69565373D01*
X118189855Y-69562394D01*
X118189859Y-69562391D01*
X118246017Y-69452175D01*
X118260500Y-69360735D01*
X118260499Y-69141674D01*
X124620457Y-69141674D01*
X124663829Y-69177269D01*
X124846236Y-69274768D01*
X125044165Y-69334808D01*
X125250000Y-69355081D01*
X125455834Y-69334808D01*
X125653760Y-69274768D01*
X125836172Y-69177266D01*
X125879541Y-69141674D01*
X125249999Y-68512132D01*
X124620457Y-69141674D01*
X118260499Y-69141674D01*
X118260499Y-69019266D01*
X118260420Y-69018770D01*
X118246017Y-68927826D01*
X118246017Y-68927825D01*
X118189859Y-68817609D01*
X118102391Y-68730141D01*
X118102388Y-68730139D01*
X118093676Y-68721427D01*
X118068114Y-68698860D01*
X118051485Y-68652378D01*
X118059370Y-68603645D01*
X118089802Y-68564783D01*
X118092621Y-68562621D01*
X118180861Y-68447625D01*
X118236330Y-68313709D01*
X118238135Y-68299999D01*
X124194918Y-68299999D01*
X124215191Y-68505834D01*
X124275231Y-68703763D01*
X124372730Y-68886170D01*
X124408324Y-68929541D01*
X125037866Y-68299999D01*
X125462132Y-68299999D01*
X126091674Y-68929541D01*
X126127266Y-68886172D01*
X126224768Y-68703760D01*
X126258349Y-68593058D01*
X127475000Y-68593058D01*
X127485614Y-68681445D01*
X127541078Y-68822093D01*
X127632435Y-68942564D01*
X127752906Y-69033921D01*
X127893554Y-69089385D01*
X127981942Y-69100000D01*
X128349999Y-69100000D01*
X128350000Y-69099999D01*
X128650000Y-69099999D01*
X128650001Y-69100000D01*
X129018058Y-69100000D01*
X129106445Y-69089385D01*
X129247093Y-69033921D01*
X129367564Y-68942564D01*
X129458921Y-68822093D01*
X129514385Y-68681445D01*
X129525000Y-68593058D01*
X129525000Y-68454200D01*
X130350001Y-68454200D01*
X130352851Y-68484604D01*
X130397654Y-68612645D01*
X130478208Y-68721791D01*
X130587354Y-68802345D01*
X130715398Y-68847149D01*
X130745792Y-68850000D01*
X131162499Y-68850000D01*
X131162500Y-68849999D01*
X131162500Y-68400001D01*
X131162499Y-68400000D01*
X130350002Y-68400000D01*
X130350001Y-68400001D01*
X130350001Y-68454200D01*
X129525000Y-68454200D01*
X129525000Y-68450001D01*
X129524999Y-68450000D01*
X128650001Y-68450000D01*
X128650000Y-68450001D01*
X128650000Y-69099999D01*
X128350000Y-69099999D01*
X128350000Y-68450001D01*
X128349999Y-68450000D01*
X127475001Y-68450000D01*
X127475000Y-68450001D01*
X127475000Y-68593058D01*
X126258349Y-68593058D01*
X126284808Y-68505834D01*
X126305081Y-68299999D01*
X126290307Y-68149999D01*
X127475000Y-68149999D01*
X127475001Y-68150000D01*
X128349999Y-68150000D01*
X128350000Y-68149999D01*
X128650000Y-68149999D01*
X128650001Y-68150000D01*
X129524999Y-68150000D01*
X129525000Y-68149999D01*
X129525000Y-68099999D01*
X130350000Y-68099999D01*
X130350001Y-68100000D01*
X131162499Y-68100000D01*
X131162500Y-68099999D01*
X131162500Y-67650002D01*
X131162499Y-67650001D01*
X130745800Y-67650001D01*
X130715395Y-67652851D01*
X130587354Y-67697654D01*
X130478208Y-67778208D01*
X130397654Y-67887354D01*
X130352850Y-68015398D01*
X130350000Y-68045792D01*
X130350000Y-68099999D01*
X129525000Y-68099999D01*
X129525000Y-68006942D01*
X129514385Y-67918554D01*
X129458921Y-67777906D01*
X129367564Y-67657435D01*
X129247093Y-67566078D01*
X129106445Y-67510614D01*
X129018058Y-67500000D01*
X128650001Y-67500000D01*
X128650000Y-67500001D01*
X128650000Y-68149999D01*
X128350000Y-68149999D01*
X128350000Y-67500001D01*
X128349999Y-67500000D01*
X127981942Y-67500000D01*
X127893554Y-67510614D01*
X127752906Y-67566078D01*
X127632435Y-67657435D01*
X127541078Y-67777906D01*
X127485614Y-67918554D01*
X127475000Y-68006942D01*
X127475000Y-68149999D01*
X126290307Y-68149999D01*
X126284808Y-68094165D01*
X126224768Y-67896236D01*
X126127269Y-67713829D01*
X126091674Y-67670457D01*
X125462132Y-68299999D01*
X125037866Y-68299999D01*
X124408324Y-67670457D01*
X124372732Y-67713826D01*
X124275231Y-67896237D01*
X124215191Y-68094165D01*
X124194918Y-68299999D01*
X118238135Y-68299999D01*
X118255250Y-68170000D01*
X118236330Y-68026291D01*
X118180861Y-67892375D01*
X118130932Y-67827306D01*
X118092621Y-67777378D01*
X118027552Y-67727450D01*
X117977625Y-67689139D01*
X117918744Y-67664750D01*
X117843709Y-67633669D01*
X117700000Y-67614750D01*
X117556290Y-67633669D01*
X117422375Y-67689139D01*
X117307378Y-67777378D01*
X117219139Y-67892375D01*
X117163669Y-68026290D01*
X117144750Y-68169999D01*
X117163669Y-68313709D01*
X117219138Y-68447624D01*
X117263804Y-68505834D01*
X117307379Y-68562621D01*
X117310196Y-68564783D01*
X117340630Y-68603647D01*
X117348514Y-68652378D01*
X117331886Y-68698858D01*
X117306324Y-68721426D01*
X117210140Y-68817610D01*
X117153982Y-68927826D01*
X117139500Y-69019264D01*
X117139500Y-69360735D01*
X117153982Y-69452173D01*
X117211656Y-69565364D01*
X117233591Y-69601259D01*
X117237063Y-69647592D01*
X117219015Y-69690406D01*
X117136593Y-69802081D01*
X117092787Y-69927272D01*
X117090000Y-69957000D01*
X117090000Y-69999999D01*
X116209343Y-69999999D01*
X116207212Y-69977273D01*
X116163406Y-69852081D01*
X116080984Y-69740406D01*
X116062936Y-69697591D01*
X116066409Y-69651256D01*
X116088338Y-69615373D01*
X116089855Y-69612394D01*
X116089859Y-69612391D01*
X116146017Y-69502175D01*
X116160500Y-69410735D01*
X116160499Y-69069266D01*
X116157331Y-69049266D01*
X116146017Y-68977826D01*
X116146017Y-68977825D01*
X116089859Y-68867609D01*
X116002391Y-68780141D01*
X116002388Y-68780139D01*
X115993676Y-68771427D01*
X115968114Y-68748860D01*
X115951485Y-68702378D01*
X115959370Y-68653645D01*
X115989802Y-68614783D01*
X115992621Y-68612621D01*
X116080861Y-68497625D01*
X116136330Y-68363709D01*
X116155250Y-68220000D01*
X116136330Y-68076291D01*
X116080861Y-67942375D01*
X116015640Y-67857378D01*
X115992621Y-67827378D01*
X115920385Y-67771950D01*
X115877625Y-67739139D01*
X115817788Y-67714354D01*
X115743709Y-67683669D01*
X115600000Y-67664750D01*
X115456290Y-67683669D01*
X115322375Y-67739139D01*
X115207378Y-67827378D01*
X115119139Y-67942375D01*
X115063669Y-68076290D01*
X115044750Y-68220000D01*
X115063669Y-68363709D01*
X115119138Y-68497624D01*
X115192367Y-68593058D01*
X115207379Y-68612621D01*
X115210196Y-68614783D01*
X115240630Y-68653647D01*
X115248514Y-68702378D01*
X115231886Y-68748858D01*
X115206324Y-68771426D01*
X115110140Y-68867610D01*
X115053982Y-68977826D01*
X115039500Y-69069264D01*
X115039500Y-69410735D01*
X115053982Y-69502173D01*
X115053982Y-69502174D01*
X115053983Y-69502175D01*
X115104946Y-69602196D01*
X115111656Y-69615364D01*
X115133591Y-69651259D01*
X115137063Y-69697592D01*
X115119015Y-69740406D01*
X115036593Y-69852081D01*
X114992787Y-69977272D01*
X114990000Y-70007000D01*
X114990000Y-70049999D01*
X107269628Y-70049999D01*
X107269819Y-70029999D01*
X111390000Y-70029999D01*
X111390001Y-70030000D01*
X112609998Y-70030000D01*
X112609999Y-70029999D01*
X112609999Y-69986999D01*
X112607212Y-69957273D01*
X112563406Y-69832081D01*
X112480984Y-69720406D01*
X112462936Y-69677591D01*
X112466409Y-69631256D01*
X112488338Y-69595373D01*
X112489855Y-69592394D01*
X112489859Y-69592391D01*
X112546017Y-69482175D01*
X112560500Y-69390735D01*
X112560499Y-69049266D01*
X112555747Y-69019264D01*
X112549185Y-68977826D01*
X112546017Y-68957825D01*
X112489859Y-68847609D01*
X112407227Y-68764977D01*
X112382815Y-68724746D01*
X112379737Y-68677784D01*
X112398688Y-68634713D01*
X112480861Y-68527625D01*
X112536330Y-68393709D01*
X112555250Y-68250000D01*
X112536330Y-68106291D01*
X112533724Y-68100000D01*
X112498681Y-68015398D01*
X112480861Y-67972375D01*
X112410923Y-67881230D01*
X112392621Y-67857378D01*
X112301248Y-67787266D01*
X112277625Y-67769139D01*
X112205198Y-67739139D01*
X112143709Y-67713669D01*
X112015525Y-67696794D01*
X112000000Y-67694750D01*
X111999999Y-67694750D01*
X111856290Y-67713669D01*
X111722375Y-67769139D01*
X111607378Y-67857378D01*
X111519139Y-67972375D01*
X111463669Y-68106290D01*
X111444750Y-68250000D01*
X111463669Y-68393709D01*
X111489198Y-68455341D01*
X111519139Y-68527625D01*
X111601309Y-68634710D01*
X111620262Y-68677785D01*
X111617184Y-68724745D01*
X111592770Y-68764979D01*
X111510141Y-68847607D01*
X111453982Y-68957826D01*
X111439500Y-69049264D01*
X111439500Y-69390735D01*
X111453982Y-69482173D01*
X111453982Y-69482174D01*
X111453983Y-69482175D01*
X111508076Y-69588339D01*
X111511656Y-69595364D01*
X111533591Y-69631259D01*
X111537063Y-69677592D01*
X111519015Y-69720406D01*
X111436593Y-69832081D01*
X111392787Y-69957272D01*
X111390000Y-69987000D01*
X111390000Y-70029999D01*
X107269819Y-70029999D01*
X107284954Y-68449301D01*
X107284953Y-68449300D01*
X95399109Y-68402365D01*
X95349774Y-68388972D01*
X95313698Y-68352753D01*
X95300500Y-68303366D01*
X95300500Y-66350000D01*
X96944340Y-66350000D01*
X96964936Y-66585405D01*
X97026098Y-66813667D01*
X97125963Y-67027826D01*
X97125964Y-67027827D01*
X97125965Y-67027829D01*
X97261505Y-67221401D01*
X97428599Y-67388495D01*
X97622171Y-67524035D01*
X97622172Y-67524035D01*
X97622173Y-67524036D01*
X97836332Y-67623901D01*
X97836333Y-67623901D01*
X97836337Y-67623903D01*
X98064592Y-67685063D01*
X98135168Y-67691237D01*
X98241031Y-67700500D01*
X98241034Y-67700500D01*
X98358966Y-67700500D01*
X98358969Y-67700500D01*
X98447187Y-67692781D01*
X98535408Y-67685063D01*
X98763663Y-67623903D01*
X98977829Y-67524035D01*
X99071674Y-67458324D01*
X124620457Y-67458324D01*
X125249999Y-68087866D01*
X125879541Y-67458324D01*
X125879542Y-67458324D01*
X125836170Y-67422730D01*
X125653763Y-67325231D01*
X125455834Y-67265191D01*
X125250000Y-67244918D01*
X125044165Y-67265191D01*
X124846237Y-67325231D01*
X124663826Y-67422732D01*
X124620457Y-67458324D01*
X99071674Y-67458324D01*
X99171401Y-67388495D01*
X99338495Y-67221401D01*
X99474035Y-67027830D01*
X99573903Y-66813663D01*
X99635063Y-66585408D01*
X99655659Y-66350000D01*
X99635063Y-66114592D01*
X99573903Y-65886337D01*
X99533410Y-65799501D01*
X99474036Y-65672173D01*
X99458160Y-65649500D01*
X99338495Y-65478599D01*
X99171401Y-65311505D01*
X98977829Y-65175965D01*
X98977828Y-65175964D01*
X98977826Y-65175963D01*
X98763667Y-65076098D01*
X98535405Y-65014936D01*
X98358969Y-64999500D01*
X98358966Y-64999500D01*
X98241034Y-64999500D01*
X98241031Y-64999500D01*
X98064594Y-65014936D01*
X97836332Y-65076098D01*
X97622173Y-65175963D01*
X97428602Y-65311502D01*
X97261502Y-65478602D01*
X97125963Y-65672172D01*
X97026098Y-65886332D01*
X96964936Y-66114594D01*
X96944340Y-66350000D01*
X95300500Y-66350000D01*
X95300500Y-65353241D01*
X95300712Y-65346766D01*
X95303023Y-65311502D01*
X95317182Y-65095480D01*
X95318869Y-65082659D01*
X95367367Y-64838845D01*
X95370714Y-64826352D01*
X95450618Y-64590965D01*
X95455574Y-64579003D01*
X95565512Y-64356070D01*
X95571983Y-64344859D01*
X95710089Y-64138169D01*
X95717964Y-64127907D01*
X95881870Y-63941008D01*
X95891008Y-63931870D01*
X96077907Y-63767964D01*
X96088169Y-63760089D01*
X96294859Y-63621983D01*
X96306070Y-63615512D01*
X96529003Y-63505574D01*
X96540966Y-63500618D01*
X96776352Y-63420714D01*
X96788845Y-63417367D01*
X97032659Y-63368869D01*
X97045480Y-63367182D01*
X97296765Y-63350712D01*
X97303241Y-63350500D01*
X97365892Y-63350500D01*
X143934108Y-63350500D01*
X143996759Y-63350500D01*
X144003234Y-63350712D01*
G37*
%TD.AperFunction*%
%TA.AperFunction,Conductor*%
G36*
X112054017Y-79550917D02*
G01*
X112090550Y-79593863D01*
X112091551Y-79596128D01*
X112100000Y-79636146D01*
X112100000Y-79810795D01*
X112101689Y-79857503D01*
X112075477Y-79904194D01*
X111639170Y-80340503D01*
X111607052Y-80361964D01*
X111569166Y-80369500D01*
X111328418Y-80369500D01*
X111253481Y-80380418D01*
X111253482Y-80380418D01*
X111137896Y-80436925D01*
X111087414Y-80487407D01*
X111043034Y-80513030D01*
X110991788Y-80513030D01*
X110969219Y-80500000D01*
X110329000Y-80500000D01*
X110279500Y-80486737D01*
X110243263Y-80450500D01*
X110230000Y-80401000D01*
X110230000Y-80299000D01*
X110243263Y-80249500D01*
X110279500Y-80213263D01*
X110329000Y-80200000D01*
X110959998Y-80200000D01*
X110959999Y-80199999D01*
X110959999Y-80126999D01*
X110957212Y-80097273D01*
X110913406Y-79972081D01*
X110854246Y-79891924D01*
X110835533Y-79844300D01*
X110843097Y-79793693D01*
X110874919Y-79753623D01*
X110906313Y-79741198D01*
X110906286Y-79741136D01*
X110919989Y-79735085D01*
X110919991Y-79735085D01*
X110960012Y-79717413D01*
X110999998Y-79708978D01*
X111039984Y-79717412D01*
X111080009Y-79735085D01*
X111105135Y-79738000D01*
X111294864Y-79737999D01*
X111319991Y-79735085D01*
X111360012Y-79717413D01*
X111399998Y-79708978D01*
X111439984Y-79717412D01*
X111480009Y-79735085D01*
X111505135Y-79738000D01*
X111694864Y-79737999D01*
X111719991Y-79735085D01*
X111719992Y-79735084D01*
X111724970Y-79734507D01*
X111779856Y-79743907D01*
X111848750Y-79777587D01*
X111900000Y-79785054D01*
X111900000Y-79636146D01*
X111908419Y-79596194D01*
X111908480Y-79596053D01*
X111909420Y-79593926D01*
X111945920Y-79550957D01*
X111999962Y-79534881D01*
X112054017Y-79550917D01*
G37*
%TD.AperFunction*%
%TD*%
M02*
