%TF.GenerationSoftware,KiCad,Pcbnew,7.0.1*%
%TF.CreationDate,2023-04-17T02:54:31-04:00*%
%TF.ProjectId,DesktopSensorHub,4465736b-746f-4705-9365-6e736f724875,rev?*%
%TF.SameCoordinates,Original*%
%TF.FileFunction,Drillmap*%
%TF.FilePolarity,Positive*%
%FSLAX45Y45*%
G04 Gerber Fmt 4.5, Leading zero omitted, Abs format (unit mm)*
G04 Created by KiCad (PCBNEW 7.0.1) date 2023-04-17 02:54:31*
%MOMM*%
%LPD*%
G01*
G04 APERTURE LIST*
%ADD10C,0.050000*%
%ADD11C,0.200000*%
%ADD12C,0.035000*%
%ADD13C,0.060000*%
%ADD14C,0.110000*%
%ADD15C,0.065000*%
%ADD16C,0.220000*%
G04 APERTURE END LIST*
D10*
X14400000Y-6285000D02*
X9730000Y-6285000D01*
X14400000Y-9195000D02*
X9730000Y-9195000D01*
X14650000Y-6535000D02*
G75*
G03*
X14400000Y-6285000I-250000J0D01*
G01*
X9480000Y-6535000D02*
X9480000Y-8945000D01*
X9480000Y-8945000D02*
G75*
G03*
X9730000Y-9195000I250000J0D01*
G01*
X14650000Y-6535000D02*
X14650000Y-8945000D01*
X14400000Y-9195000D02*
G75*
G03*
X14650000Y-8945000I0J250000D01*
G01*
X9730000Y-6285000D02*
G75*
G03*
X9480000Y-6535000I0J-250000D01*
G01*
D11*
D12*
X9752500Y-7037500D02*
X9787500Y-7072500D01*
X9787500Y-7037500D02*
X9752500Y-7072500D01*
X9752500Y-8282500D02*
X9787500Y-8317500D01*
X9787500Y-8282500D02*
X9752500Y-8317500D01*
X10037500Y-7657500D02*
X10072500Y-7692500D01*
X10072500Y-7657500D02*
X10037500Y-7692500D01*
X10122500Y-7032500D02*
X10157500Y-7067500D01*
X10157500Y-7032500D02*
X10122500Y-7067500D01*
X10132500Y-8282500D02*
X10167500Y-8317500D01*
X10167500Y-8282500D02*
X10132500Y-8317500D01*
X10137500Y-7727500D02*
X10172500Y-7762500D01*
X10172500Y-7727500D02*
X10137500Y-7762500D01*
X10142500Y-7587500D02*
X10177500Y-7622500D01*
X10177500Y-7587500D02*
X10142500Y-7622500D01*
X10287500Y-7927500D02*
X10322500Y-7962500D01*
X10322500Y-7927500D02*
X10287500Y-7962500D01*
X10292500Y-7392500D02*
X10327500Y-7427500D01*
X10327500Y-7392500D02*
X10292500Y-7427500D01*
X10487500Y-7337500D02*
X10522500Y-7372500D01*
X10522500Y-7337500D02*
X10487500Y-7372500D01*
X10812500Y-7412500D02*
X10847500Y-7447500D01*
X10847500Y-7412500D02*
X10812500Y-7447500D01*
X10822500Y-7717500D02*
X10857500Y-7752500D01*
X10857500Y-7717500D02*
X10822500Y-7752500D01*
X10832500Y-8017500D02*
X10867500Y-8052500D01*
X10867500Y-8017500D02*
X10832500Y-8052500D01*
X11077500Y-7477500D02*
X11112500Y-7512500D01*
X11112500Y-7477500D02*
X11077500Y-7512500D01*
X11142500Y-8467500D02*
X11177500Y-8502500D01*
X11177500Y-8467500D02*
X11142500Y-8502500D01*
X11182500Y-6807500D02*
X11217500Y-6842500D01*
X11217500Y-6807500D02*
X11182500Y-6842500D01*
X11302500Y-8312500D02*
X11337500Y-8347500D01*
X11337500Y-8312500D02*
X11302500Y-8347500D01*
X11330050Y-7977500D02*
X11365050Y-8012500D01*
X11365050Y-7977500D02*
X11330050Y-8012500D01*
X11370050Y-8052500D02*
X11405050Y-8087500D01*
X11405050Y-8052500D02*
X11370050Y-8087500D01*
X11487500Y-7482500D02*
X11522500Y-7517500D01*
X11522500Y-7482500D02*
X11487500Y-7517500D01*
X11542500Y-6804500D02*
X11577500Y-6839500D01*
X11577500Y-6804500D02*
X11542500Y-6839500D01*
X11542500Y-8217500D02*
X11577500Y-8252500D01*
X11577500Y-8217500D02*
X11542500Y-8252500D01*
X11752500Y-6799500D02*
X11787500Y-6834500D01*
X11787500Y-6799500D02*
X11752500Y-6834500D01*
X11757500Y-7563750D02*
X11792500Y-7598750D01*
X11792500Y-7563750D02*
X11757500Y-7598750D01*
X12057500Y-7142500D02*
X12092500Y-7177500D01*
X12092500Y-7142500D02*
X12057500Y-7177500D01*
X12057500Y-7242500D02*
X12092500Y-7277500D01*
X12092500Y-7242500D02*
X12057500Y-7277500D01*
X12167500Y-7542500D02*
X12202500Y-7577500D01*
X12202500Y-7542500D02*
X12167500Y-7577500D01*
X12167500Y-7642500D02*
X12202500Y-7677500D01*
X12202500Y-7642500D02*
X12167500Y-7677500D01*
X12342500Y-8452500D02*
X12377500Y-8487500D01*
X12377500Y-8452500D02*
X12342500Y-8487500D01*
X12932500Y-8087500D02*
X12967500Y-8122500D01*
X12967500Y-8087500D02*
X12932500Y-8122500D01*
X13227500Y-6637500D02*
X13262500Y-6672500D01*
X13262500Y-6637500D02*
X13227500Y-6672500D01*
X13462500Y-7239500D02*
X13497500Y-7274500D01*
X13497500Y-7239500D02*
X13462500Y-7274500D01*
X13462500Y-7540500D02*
X13497500Y-7575500D01*
X13497500Y-7540500D02*
X13462500Y-7575500D01*
X13807500Y-7092500D02*
X13842500Y-7127500D01*
X13842500Y-7092500D02*
X13807500Y-7127500D01*
X13807500Y-7732500D02*
X13842500Y-7767500D01*
X13842500Y-7732500D02*
X13807500Y-7767500D01*
X11190000Y-7433750D02*
G75*
G03*
X11190000Y-7433750I-17500J0D01*
G01*
X11190000Y-7561250D02*
G75*
G03*
X11190000Y-7561250I-17500J0D01*
G01*
X11190000Y-7688750D02*
G75*
G03*
X11190000Y-7688750I-17500J0D01*
G01*
X11317500Y-7433750D02*
G75*
G03*
X11317500Y-7433750I-17500J0D01*
G01*
X11317500Y-7561250D02*
G75*
G03*
X11317500Y-7561250I-17500J0D01*
G01*
X11317500Y-7688750D02*
G75*
G03*
X11317500Y-7688750I-17500J0D01*
G01*
X11445000Y-7433750D02*
G75*
G03*
X11445000Y-7433750I-17500J0D01*
G01*
X11445000Y-7561250D02*
G75*
G03*
X11445000Y-7561250I-17500J0D01*
G01*
X11445000Y-7688750D02*
G75*
G03*
X11445000Y-7688750I-17500J0D01*
G01*
D13*
X13999500Y-6968000D02*
X13999500Y-7028000D01*
X13969500Y-6998000D02*
X14029500Y-6998000D01*
D11*
X14054500Y-6968000D02*
X13944500Y-6968000D01*
X13944500Y-6968000D02*
G75*
G03*
X13944500Y-7028000I0J-30000D01*
G01*
X13944500Y-7028000D02*
X14054500Y-7028000D01*
X14054500Y-7028000D02*
G75*
G03*
X14054500Y-6968000I0J30000D01*
G01*
D13*
X13999500Y-7832000D02*
X13999500Y-7892000D01*
X13969500Y-7862000D02*
X14029500Y-7862000D01*
D11*
X14054500Y-7832000D02*
X13944500Y-7832000D01*
X13944500Y-7832000D02*
G75*
G03*
X13944500Y-7892000I0J-30000D01*
G01*
X13944500Y-7892000D02*
X14054500Y-7892000D01*
X14054500Y-7892000D02*
G75*
G03*
X14054500Y-7832000I0J30000D01*
G01*
D13*
X14417500Y-6968000D02*
X14417500Y-7028000D01*
X14387500Y-6998000D02*
X14447500Y-6998000D01*
D11*
X14457500Y-6968000D02*
X14377500Y-6968000D01*
X14377500Y-6968000D02*
G75*
G03*
X14377500Y-7028000I0J-30000D01*
G01*
X14377500Y-7028000D02*
X14457500Y-7028000D01*
X14457500Y-7028000D02*
G75*
G03*
X14457500Y-6968000I0J30000D01*
G01*
D13*
X14417500Y-7832000D02*
X14417500Y-7892000D01*
X14387500Y-7862000D02*
X14447500Y-7862000D01*
D11*
X14457500Y-7832000D02*
X14377500Y-7832000D01*
X14377500Y-7832000D02*
G75*
G03*
X14377500Y-7892000I0J-30000D01*
G01*
X14377500Y-7892000D02*
X14457500Y-7892000D01*
X14457500Y-7892000D02*
G75*
G03*
X14457500Y-7832000I0J30000D01*
G01*
D14*
X13393891Y-8383891D02*
X13393891Y-8306109D01*
X13316109Y-8306109D01*
X13316109Y-8383891D01*
X13393891Y-8383891D01*
X13393891Y-9033891D02*
X13393891Y-8956109D01*
X13316109Y-8956109D01*
X13316109Y-9033891D01*
X13393891Y-9033891D01*
X13843891Y-8383891D02*
X13843891Y-8306109D01*
X13766109Y-8306109D01*
X13766109Y-8383891D01*
X13843891Y-8383891D01*
X13843891Y-9033891D02*
X13843891Y-8956109D01*
X13766109Y-8956109D01*
X13766109Y-9033891D01*
X13843891Y-9033891D01*
D15*
X14049500Y-7173500D02*
X14082000Y-7141000D01*
X14049500Y-7108500D01*
X14017000Y-7141000D01*
X14049500Y-7173500D01*
X14049500Y-7751500D02*
X14082000Y-7719000D01*
X14049500Y-7686500D01*
X14017000Y-7719000D01*
X14049500Y-7751500D01*
D16*
X9720000Y-6525000D02*
X9940000Y-6745000D01*
X9940000Y-6525000D02*
X9720000Y-6745000D01*
X9940000Y-6635000D02*
G75*
G03*
X9940000Y-6635000I-110000J0D01*
G01*
X9720000Y-8735000D02*
X9940000Y-8955000D01*
X9940000Y-8735000D02*
X9720000Y-8955000D01*
X9940000Y-8845000D02*
G75*
G03*
X9940000Y-8845000I-110000J0D01*
G01*
X14190000Y-6525000D02*
X14410000Y-6745000D01*
X14410000Y-6525000D02*
X14190000Y-6745000D01*
X14410000Y-6635000D02*
G75*
G03*
X14410000Y-6635000I-110000J0D01*
G01*
X14190000Y-8735000D02*
X14410000Y-8955000D01*
X14410000Y-8735000D02*
X14190000Y-8955000D01*
X14410000Y-8845000D02*
G75*
G03*
X14410000Y-8845000I-110000J0D01*
G01*
D11*
X9725119Y-9510024D02*
X9725119Y-9310024D01*
X9725119Y-9310024D02*
X9772738Y-9310024D01*
X9772738Y-9310024D02*
X9801310Y-9319548D01*
X9801310Y-9319548D02*
X9820357Y-9338595D01*
X9820357Y-9338595D02*
X9829881Y-9357643D01*
X9829881Y-9357643D02*
X9839405Y-9395738D01*
X9839405Y-9395738D02*
X9839405Y-9424310D01*
X9839405Y-9424310D02*
X9829881Y-9462405D01*
X9829881Y-9462405D02*
X9820357Y-9481452D01*
X9820357Y-9481452D02*
X9801310Y-9500500D01*
X9801310Y-9500500D02*
X9772738Y-9510024D01*
X9772738Y-9510024D02*
X9725119Y-9510024D01*
X9925119Y-9510024D02*
X9925119Y-9376690D01*
X9925119Y-9414786D02*
X9934643Y-9395738D01*
X9934643Y-9395738D02*
X9944167Y-9386214D01*
X9944167Y-9386214D02*
X9963214Y-9376690D01*
X9963214Y-9376690D02*
X9982262Y-9376690D01*
X10048929Y-9510024D02*
X10048929Y-9376690D01*
X10048929Y-9310024D02*
X10039405Y-9319548D01*
X10039405Y-9319548D02*
X10048929Y-9329071D01*
X10048929Y-9329071D02*
X10058452Y-9319548D01*
X10058452Y-9319548D02*
X10048929Y-9310024D01*
X10048929Y-9310024D02*
X10048929Y-9329071D01*
X10172738Y-9510024D02*
X10153690Y-9500500D01*
X10153690Y-9500500D02*
X10144167Y-9481452D01*
X10144167Y-9481452D02*
X10144167Y-9310024D01*
X10277500Y-9510024D02*
X10258452Y-9500500D01*
X10258452Y-9500500D02*
X10248929Y-9481452D01*
X10248929Y-9481452D02*
X10248929Y-9310024D01*
X10506071Y-9510024D02*
X10506071Y-9310024D01*
X10506071Y-9310024D02*
X10572738Y-9452881D01*
X10572738Y-9452881D02*
X10639405Y-9310024D01*
X10639405Y-9310024D02*
X10639405Y-9510024D01*
X10820357Y-9510024D02*
X10820357Y-9405262D01*
X10820357Y-9405262D02*
X10810833Y-9386214D01*
X10810833Y-9386214D02*
X10791786Y-9376690D01*
X10791786Y-9376690D02*
X10753690Y-9376690D01*
X10753690Y-9376690D02*
X10734643Y-9386214D01*
X10820357Y-9500500D02*
X10801310Y-9510024D01*
X10801310Y-9510024D02*
X10753690Y-9510024D01*
X10753690Y-9510024D02*
X10734643Y-9500500D01*
X10734643Y-9500500D02*
X10725119Y-9481452D01*
X10725119Y-9481452D02*
X10725119Y-9462405D01*
X10725119Y-9462405D02*
X10734643Y-9443357D01*
X10734643Y-9443357D02*
X10753690Y-9433833D01*
X10753690Y-9433833D02*
X10801310Y-9433833D01*
X10801310Y-9433833D02*
X10820357Y-9424310D01*
X10915595Y-9376690D02*
X10915595Y-9576690D01*
X10915595Y-9386214D02*
X10934643Y-9376690D01*
X10934643Y-9376690D02*
X10972738Y-9376690D01*
X10972738Y-9376690D02*
X10991786Y-9386214D01*
X10991786Y-9386214D02*
X11001310Y-9395738D01*
X11001310Y-9395738D02*
X11010833Y-9414786D01*
X11010833Y-9414786D02*
X11010833Y-9471929D01*
X11010833Y-9471929D02*
X11001310Y-9490976D01*
X11001310Y-9490976D02*
X10991786Y-9500500D01*
X10991786Y-9500500D02*
X10972738Y-9510024D01*
X10972738Y-9510024D02*
X10934643Y-9510024D01*
X10934643Y-9510024D02*
X10915595Y-9500500D01*
X11096548Y-9490976D02*
X11106071Y-9500500D01*
X11106071Y-9500500D02*
X11096548Y-9510024D01*
X11096548Y-9510024D02*
X11087024Y-9500500D01*
X11087024Y-9500500D02*
X11096548Y-9490976D01*
X11096548Y-9490976D02*
X11096548Y-9510024D01*
X11096548Y-9386214D02*
X11106071Y-9395738D01*
X11106071Y-9395738D02*
X11096548Y-9405262D01*
X11096548Y-9405262D02*
X11087024Y-9395738D01*
X11087024Y-9395738D02*
X11096548Y-9386214D01*
X11096548Y-9386214D02*
X11096548Y-9405262D01*
D12*
X9442500Y-9820000D02*
X9477500Y-9855000D01*
X9477500Y-9820000D02*
X9442500Y-9855000D01*
D11*
X9763214Y-9730024D02*
X9782262Y-9730024D01*
X9782262Y-9730024D02*
X9801310Y-9739548D01*
X9801310Y-9739548D02*
X9810833Y-9749071D01*
X9810833Y-9749071D02*
X9820357Y-9768119D01*
X9820357Y-9768119D02*
X9829881Y-9806214D01*
X9829881Y-9806214D02*
X9829881Y-9853833D01*
X9829881Y-9853833D02*
X9820357Y-9891929D01*
X9820357Y-9891929D02*
X9810833Y-9910976D01*
X9810833Y-9910976D02*
X9801310Y-9920500D01*
X9801310Y-9920500D02*
X9782262Y-9930024D01*
X9782262Y-9930024D02*
X9763214Y-9930024D01*
X9763214Y-9930024D02*
X9744167Y-9920500D01*
X9744167Y-9920500D02*
X9734643Y-9910976D01*
X9734643Y-9910976D02*
X9725119Y-9891929D01*
X9725119Y-9891929D02*
X9715595Y-9853833D01*
X9715595Y-9853833D02*
X9715595Y-9806214D01*
X9715595Y-9806214D02*
X9725119Y-9768119D01*
X9725119Y-9768119D02*
X9734643Y-9749071D01*
X9734643Y-9749071D02*
X9744167Y-9739548D01*
X9744167Y-9739548D02*
X9763214Y-9730024D01*
X9915595Y-9910976D02*
X9925119Y-9920500D01*
X9925119Y-9920500D02*
X9915595Y-9930024D01*
X9915595Y-9930024D02*
X9906071Y-9920500D01*
X9906071Y-9920500D02*
X9915595Y-9910976D01*
X9915595Y-9910976D02*
X9915595Y-9930024D01*
X9991786Y-9730024D02*
X10115595Y-9730024D01*
X10115595Y-9730024D02*
X10048929Y-9806214D01*
X10048929Y-9806214D02*
X10077500Y-9806214D01*
X10077500Y-9806214D02*
X10096548Y-9815738D01*
X10096548Y-9815738D02*
X10106071Y-9825262D01*
X10106071Y-9825262D02*
X10115595Y-9844310D01*
X10115595Y-9844310D02*
X10115595Y-9891929D01*
X10115595Y-9891929D02*
X10106071Y-9910976D01*
X10106071Y-9910976D02*
X10096548Y-9920500D01*
X10096548Y-9920500D02*
X10077500Y-9930024D01*
X10077500Y-9930024D02*
X10020357Y-9930024D01*
X10020357Y-9930024D02*
X10001310Y-9920500D01*
X10001310Y-9920500D02*
X9991786Y-9910976D01*
X10296548Y-9730024D02*
X10201310Y-9730024D01*
X10201310Y-9730024D02*
X10191786Y-9825262D01*
X10191786Y-9825262D02*
X10201310Y-9815738D01*
X10201310Y-9815738D02*
X10220357Y-9806214D01*
X10220357Y-9806214D02*
X10267976Y-9806214D01*
X10267976Y-9806214D02*
X10287024Y-9815738D01*
X10287024Y-9815738D02*
X10296548Y-9825262D01*
X10296548Y-9825262D02*
X10306071Y-9844310D01*
X10306071Y-9844310D02*
X10306071Y-9891929D01*
X10306071Y-9891929D02*
X10296548Y-9910976D01*
X10296548Y-9910976D02*
X10287024Y-9920500D01*
X10287024Y-9920500D02*
X10267976Y-9930024D01*
X10267976Y-9930024D02*
X10220357Y-9930024D01*
X10220357Y-9930024D02*
X10201310Y-9920500D01*
X10201310Y-9920500D02*
X10191786Y-9910976D01*
X10429881Y-9730024D02*
X10448929Y-9730024D01*
X10448929Y-9730024D02*
X10467976Y-9739548D01*
X10467976Y-9739548D02*
X10477500Y-9749071D01*
X10477500Y-9749071D02*
X10487024Y-9768119D01*
X10487024Y-9768119D02*
X10496548Y-9806214D01*
X10496548Y-9806214D02*
X10496548Y-9853833D01*
X10496548Y-9853833D02*
X10487024Y-9891929D01*
X10487024Y-9891929D02*
X10477500Y-9910976D01*
X10477500Y-9910976D02*
X10467976Y-9920500D01*
X10467976Y-9920500D02*
X10448929Y-9930024D01*
X10448929Y-9930024D02*
X10429881Y-9930024D01*
X10429881Y-9930024D02*
X10410833Y-9920500D01*
X10410833Y-9920500D02*
X10401310Y-9910976D01*
X10401310Y-9910976D02*
X10391786Y-9891929D01*
X10391786Y-9891929D02*
X10382262Y-9853833D01*
X10382262Y-9853833D02*
X10382262Y-9806214D01*
X10382262Y-9806214D02*
X10391786Y-9768119D01*
X10391786Y-9768119D02*
X10401310Y-9749071D01*
X10401310Y-9749071D02*
X10410833Y-9739548D01*
X10410833Y-9739548D02*
X10429881Y-9730024D01*
X10582262Y-9930024D02*
X10582262Y-9796690D01*
X10582262Y-9815738D02*
X10591786Y-9806214D01*
X10591786Y-9806214D02*
X10610833Y-9796690D01*
X10610833Y-9796690D02*
X10639405Y-9796690D01*
X10639405Y-9796690D02*
X10658452Y-9806214D01*
X10658452Y-9806214D02*
X10667976Y-9825262D01*
X10667976Y-9825262D02*
X10667976Y-9930024D01*
X10667976Y-9825262D02*
X10677500Y-9806214D01*
X10677500Y-9806214D02*
X10696548Y-9796690D01*
X10696548Y-9796690D02*
X10725119Y-9796690D01*
X10725119Y-9796690D02*
X10744167Y-9806214D01*
X10744167Y-9806214D02*
X10753691Y-9825262D01*
X10753691Y-9825262D02*
X10753691Y-9930024D01*
X10848929Y-9930024D02*
X10848929Y-9796690D01*
X10848929Y-9815738D02*
X10858452Y-9806214D01*
X10858452Y-9806214D02*
X10877500Y-9796690D01*
X10877500Y-9796690D02*
X10906072Y-9796690D01*
X10906072Y-9796690D02*
X10925119Y-9806214D01*
X10925119Y-9806214D02*
X10934643Y-9825262D01*
X10934643Y-9825262D02*
X10934643Y-9930024D01*
X10934643Y-9825262D02*
X10944167Y-9806214D01*
X10944167Y-9806214D02*
X10963214Y-9796690D01*
X10963214Y-9796690D02*
X10991786Y-9796690D01*
X10991786Y-9796690D02*
X11010833Y-9806214D01*
X11010833Y-9806214D02*
X11020357Y-9825262D01*
X11020357Y-9825262D02*
X11020357Y-9930024D01*
X11410833Y-9720500D02*
X11239405Y-9977643D01*
X11667976Y-9730024D02*
X11687024Y-9730024D01*
X11687024Y-9730024D02*
X11706072Y-9739548D01*
X11706072Y-9739548D02*
X11715595Y-9749071D01*
X11715595Y-9749071D02*
X11725119Y-9768119D01*
X11725119Y-9768119D02*
X11734643Y-9806214D01*
X11734643Y-9806214D02*
X11734643Y-9853833D01*
X11734643Y-9853833D02*
X11725119Y-9891929D01*
X11725119Y-9891929D02*
X11715595Y-9910976D01*
X11715595Y-9910976D02*
X11706072Y-9920500D01*
X11706072Y-9920500D02*
X11687024Y-9930024D01*
X11687024Y-9930024D02*
X11667976Y-9930024D01*
X11667976Y-9930024D02*
X11648929Y-9920500D01*
X11648929Y-9920500D02*
X11639405Y-9910976D01*
X11639405Y-9910976D02*
X11629881Y-9891929D01*
X11629881Y-9891929D02*
X11620357Y-9853833D01*
X11620357Y-9853833D02*
X11620357Y-9806214D01*
X11620357Y-9806214D02*
X11629881Y-9768119D01*
X11629881Y-9768119D02*
X11639405Y-9749071D01*
X11639405Y-9749071D02*
X11648929Y-9739548D01*
X11648929Y-9739548D02*
X11667976Y-9730024D01*
X11820357Y-9910976D02*
X11829881Y-9920500D01*
X11829881Y-9920500D02*
X11820357Y-9930024D01*
X11820357Y-9930024D02*
X11810833Y-9920500D01*
X11810833Y-9920500D02*
X11820357Y-9910976D01*
X11820357Y-9910976D02*
X11820357Y-9930024D01*
X11953691Y-9730024D02*
X11972738Y-9730024D01*
X11972738Y-9730024D02*
X11991786Y-9739548D01*
X11991786Y-9739548D02*
X12001310Y-9749071D01*
X12001310Y-9749071D02*
X12010833Y-9768119D01*
X12010833Y-9768119D02*
X12020357Y-9806214D01*
X12020357Y-9806214D02*
X12020357Y-9853833D01*
X12020357Y-9853833D02*
X12010833Y-9891929D01*
X12010833Y-9891929D02*
X12001310Y-9910976D01*
X12001310Y-9910976D02*
X11991786Y-9920500D01*
X11991786Y-9920500D02*
X11972738Y-9930024D01*
X11972738Y-9930024D02*
X11953691Y-9930024D01*
X11953691Y-9930024D02*
X11934643Y-9920500D01*
X11934643Y-9920500D02*
X11925119Y-9910976D01*
X11925119Y-9910976D02*
X11915595Y-9891929D01*
X11915595Y-9891929D02*
X11906072Y-9853833D01*
X11906072Y-9853833D02*
X11906072Y-9806214D01*
X11906072Y-9806214D02*
X11915595Y-9768119D01*
X11915595Y-9768119D02*
X11925119Y-9749071D01*
X11925119Y-9749071D02*
X11934643Y-9739548D01*
X11934643Y-9739548D02*
X11953691Y-9730024D01*
X12210833Y-9930024D02*
X12096548Y-9930024D01*
X12153691Y-9930024D02*
X12153691Y-9730024D01*
X12153691Y-9730024D02*
X12134643Y-9758595D01*
X12134643Y-9758595D02*
X12115595Y-9777643D01*
X12115595Y-9777643D02*
X12096548Y-9787167D01*
X12277500Y-9730024D02*
X12401310Y-9730024D01*
X12401310Y-9730024D02*
X12334643Y-9806214D01*
X12334643Y-9806214D02*
X12363214Y-9806214D01*
X12363214Y-9806214D02*
X12382262Y-9815738D01*
X12382262Y-9815738D02*
X12391786Y-9825262D01*
X12391786Y-9825262D02*
X12401310Y-9844310D01*
X12401310Y-9844310D02*
X12401310Y-9891929D01*
X12401310Y-9891929D02*
X12391786Y-9910976D01*
X12391786Y-9910976D02*
X12382262Y-9920500D01*
X12382262Y-9920500D02*
X12363214Y-9930024D01*
X12363214Y-9930024D02*
X12306072Y-9930024D01*
X12306072Y-9930024D02*
X12287024Y-9920500D01*
X12287024Y-9920500D02*
X12277500Y-9910976D01*
X12515595Y-9815738D02*
X12496548Y-9806214D01*
X12496548Y-9806214D02*
X12487024Y-9796690D01*
X12487024Y-9796690D02*
X12477500Y-9777643D01*
X12477500Y-9777643D02*
X12477500Y-9768119D01*
X12477500Y-9768119D02*
X12487024Y-9749071D01*
X12487024Y-9749071D02*
X12496548Y-9739548D01*
X12496548Y-9739548D02*
X12515595Y-9730024D01*
X12515595Y-9730024D02*
X12553691Y-9730024D01*
X12553691Y-9730024D02*
X12572738Y-9739548D01*
X12572738Y-9739548D02*
X12582262Y-9749071D01*
X12582262Y-9749071D02*
X12591786Y-9768119D01*
X12591786Y-9768119D02*
X12591786Y-9777643D01*
X12591786Y-9777643D02*
X12582262Y-9796690D01*
X12582262Y-9796690D02*
X12572738Y-9806214D01*
X12572738Y-9806214D02*
X12553691Y-9815738D01*
X12553691Y-9815738D02*
X12515595Y-9815738D01*
X12515595Y-9815738D02*
X12496548Y-9825262D01*
X12496548Y-9825262D02*
X12487024Y-9834786D01*
X12487024Y-9834786D02*
X12477500Y-9853833D01*
X12477500Y-9853833D02*
X12477500Y-9891929D01*
X12477500Y-9891929D02*
X12487024Y-9910976D01*
X12487024Y-9910976D02*
X12496548Y-9920500D01*
X12496548Y-9920500D02*
X12515595Y-9930024D01*
X12515595Y-9930024D02*
X12553691Y-9930024D01*
X12553691Y-9930024D02*
X12572738Y-9920500D01*
X12572738Y-9920500D02*
X12582262Y-9910976D01*
X12582262Y-9910976D02*
X12591786Y-9891929D01*
X12591786Y-9891929D02*
X12591786Y-9853833D01*
X12591786Y-9853833D02*
X12582262Y-9834786D01*
X12582262Y-9834786D02*
X12572738Y-9825262D01*
X12572738Y-9825262D02*
X12553691Y-9815738D01*
X12667976Y-9730024D02*
X12667976Y-9768119D01*
X12744167Y-9730024D02*
X12744167Y-9768119D01*
X13039405Y-10006214D02*
X13029881Y-9996690D01*
X13029881Y-9996690D02*
X13010834Y-9968119D01*
X13010834Y-9968119D02*
X13001310Y-9949071D01*
X13001310Y-9949071D02*
X12991786Y-9920500D01*
X12991786Y-9920500D02*
X12982262Y-9872881D01*
X12982262Y-9872881D02*
X12982262Y-9834786D01*
X12982262Y-9834786D02*
X12991786Y-9787167D01*
X12991786Y-9787167D02*
X13001310Y-9758595D01*
X13001310Y-9758595D02*
X13010834Y-9739548D01*
X13010834Y-9739548D02*
X13029881Y-9710976D01*
X13029881Y-9710976D02*
X13039405Y-9701452D01*
X13096548Y-9730024D02*
X13220357Y-9730024D01*
X13220357Y-9730024D02*
X13153691Y-9806214D01*
X13153691Y-9806214D02*
X13182262Y-9806214D01*
X13182262Y-9806214D02*
X13201310Y-9815738D01*
X13201310Y-9815738D02*
X13210834Y-9825262D01*
X13210834Y-9825262D02*
X13220357Y-9844310D01*
X13220357Y-9844310D02*
X13220357Y-9891929D01*
X13220357Y-9891929D02*
X13210834Y-9910976D01*
X13210834Y-9910976D02*
X13201310Y-9920500D01*
X13201310Y-9920500D02*
X13182262Y-9930024D01*
X13182262Y-9930024D02*
X13125119Y-9930024D01*
X13125119Y-9930024D02*
X13106072Y-9920500D01*
X13106072Y-9920500D02*
X13096548Y-9910976D01*
X13401310Y-9730024D02*
X13306072Y-9730024D01*
X13306072Y-9730024D02*
X13296548Y-9825262D01*
X13296548Y-9825262D02*
X13306072Y-9815738D01*
X13306072Y-9815738D02*
X13325119Y-9806214D01*
X13325119Y-9806214D02*
X13372738Y-9806214D01*
X13372738Y-9806214D02*
X13391786Y-9815738D01*
X13391786Y-9815738D02*
X13401310Y-9825262D01*
X13401310Y-9825262D02*
X13410834Y-9844310D01*
X13410834Y-9844310D02*
X13410834Y-9891929D01*
X13410834Y-9891929D02*
X13401310Y-9910976D01*
X13401310Y-9910976D02*
X13391786Y-9920500D01*
X13391786Y-9920500D02*
X13372738Y-9930024D01*
X13372738Y-9930024D02*
X13325119Y-9930024D01*
X13325119Y-9930024D02*
X13306072Y-9920500D01*
X13306072Y-9920500D02*
X13296548Y-9910976D01*
X13648929Y-9930024D02*
X13648929Y-9730024D01*
X13734643Y-9930024D02*
X13734643Y-9825262D01*
X13734643Y-9825262D02*
X13725119Y-9806214D01*
X13725119Y-9806214D02*
X13706072Y-9796690D01*
X13706072Y-9796690D02*
X13677500Y-9796690D01*
X13677500Y-9796690D02*
X13658453Y-9806214D01*
X13658453Y-9806214D02*
X13648929Y-9815738D01*
X13858453Y-9930024D02*
X13839405Y-9920500D01*
X13839405Y-9920500D02*
X13829881Y-9910976D01*
X13829881Y-9910976D02*
X13820357Y-9891929D01*
X13820357Y-9891929D02*
X13820357Y-9834786D01*
X13820357Y-9834786D02*
X13829881Y-9815738D01*
X13829881Y-9815738D02*
X13839405Y-9806214D01*
X13839405Y-9806214D02*
X13858453Y-9796690D01*
X13858453Y-9796690D02*
X13887024Y-9796690D01*
X13887024Y-9796690D02*
X13906072Y-9806214D01*
X13906072Y-9806214D02*
X13915596Y-9815738D01*
X13915596Y-9815738D02*
X13925119Y-9834786D01*
X13925119Y-9834786D02*
X13925119Y-9891929D01*
X13925119Y-9891929D02*
X13915596Y-9910976D01*
X13915596Y-9910976D02*
X13906072Y-9920500D01*
X13906072Y-9920500D02*
X13887024Y-9930024D01*
X13887024Y-9930024D02*
X13858453Y-9930024D01*
X14039405Y-9930024D02*
X14020357Y-9920500D01*
X14020357Y-9920500D02*
X14010834Y-9901452D01*
X14010834Y-9901452D02*
X14010834Y-9730024D01*
X14191786Y-9920500D02*
X14172738Y-9930024D01*
X14172738Y-9930024D02*
X14134643Y-9930024D01*
X14134643Y-9930024D02*
X14115596Y-9920500D01*
X14115596Y-9920500D02*
X14106072Y-9901452D01*
X14106072Y-9901452D02*
X14106072Y-9825262D01*
X14106072Y-9825262D02*
X14115596Y-9806214D01*
X14115596Y-9806214D02*
X14134643Y-9796690D01*
X14134643Y-9796690D02*
X14172738Y-9796690D01*
X14172738Y-9796690D02*
X14191786Y-9806214D01*
X14191786Y-9806214D02*
X14201310Y-9825262D01*
X14201310Y-9825262D02*
X14201310Y-9844310D01*
X14201310Y-9844310D02*
X14106072Y-9863357D01*
X14277500Y-9920500D02*
X14296548Y-9930024D01*
X14296548Y-9930024D02*
X14334643Y-9930024D01*
X14334643Y-9930024D02*
X14353691Y-9920500D01*
X14353691Y-9920500D02*
X14363215Y-9901452D01*
X14363215Y-9901452D02*
X14363215Y-9891929D01*
X14363215Y-9891929D02*
X14353691Y-9872881D01*
X14353691Y-9872881D02*
X14334643Y-9863357D01*
X14334643Y-9863357D02*
X14306072Y-9863357D01*
X14306072Y-9863357D02*
X14287024Y-9853833D01*
X14287024Y-9853833D02*
X14277500Y-9834786D01*
X14277500Y-9834786D02*
X14277500Y-9825262D01*
X14277500Y-9825262D02*
X14287024Y-9806214D01*
X14287024Y-9806214D02*
X14306072Y-9796690D01*
X14306072Y-9796690D02*
X14334643Y-9796690D01*
X14334643Y-9796690D02*
X14353691Y-9806214D01*
X14429881Y-10006214D02*
X14439405Y-9996690D01*
X14439405Y-9996690D02*
X14458453Y-9968119D01*
X14458453Y-9968119D02*
X14467977Y-9949071D01*
X14467977Y-9949071D02*
X14477500Y-9920500D01*
X14477500Y-9920500D02*
X14487024Y-9872881D01*
X14487024Y-9872881D02*
X14487024Y-9834786D01*
X14487024Y-9834786D02*
X14477500Y-9787167D01*
X14477500Y-9787167D02*
X14467977Y-9758595D01*
X14467977Y-9758595D02*
X14458453Y-9739548D01*
X14458453Y-9739548D02*
X14439405Y-9710976D01*
X14439405Y-9710976D02*
X14429881Y-9701452D01*
D12*
X9477500Y-10101500D02*
G75*
G03*
X9477500Y-10101500I-17500J0D01*
G01*
D11*
X9763214Y-9994024D02*
X9782262Y-9994024D01*
X9782262Y-9994024D02*
X9801310Y-10003548D01*
X9801310Y-10003548D02*
X9810833Y-10013071D01*
X9810833Y-10013071D02*
X9820357Y-10032119D01*
X9820357Y-10032119D02*
X9829881Y-10070214D01*
X9829881Y-10070214D02*
X9829881Y-10117833D01*
X9829881Y-10117833D02*
X9820357Y-10155929D01*
X9820357Y-10155929D02*
X9810833Y-10174976D01*
X9810833Y-10174976D02*
X9801310Y-10184500D01*
X9801310Y-10184500D02*
X9782262Y-10194024D01*
X9782262Y-10194024D02*
X9763214Y-10194024D01*
X9763214Y-10194024D02*
X9744167Y-10184500D01*
X9744167Y-10184500D02*
X9734643Y-10174976D01*
X9734643Y-10174976D02*
X9725119Y-10155929D01*
X9725119Y-10155929D02*
X9715595Y-10117833D01*
X9715595Y-10117833D02*
X9715595Y-10070214D01*
X9715595Y-10070214D02*
X9725119Y-10032119D01*
X9725119Y-10032119D02*
X9734643Y-10013071D01*
X9734643Y-10013071D02*
X9744167Y-10003548D01*
X9744167Y-10003548D02*
X9763214Y-9994024D01*
X9915595Y-10174976D02*
X9925119Y-10184500D01*
X9925119Y-10184500D02*
X9915595Y-10194024D01*
X9915595Y-10194024D02*
X9906071Y-10184500D01*
X9906071Y-10184500D02*
X9915595Y-10174976D01*
X9915595Y-10174976D02*
X9915595Y-10194024D01*
X9991786Y-9994024D02*
X10115595Y-9994024D01*
X10115595Y-9994024D02*
X10048929Y-10070214D01*
X10048929Y-10070214D02*
X10077500Y-10070214D01*
X10077500Y-10070214D02*
X10096548Y-10079738D01*
X10096548Y-10079738D02*
X10106071Y-10089262D01*
X10106071Y-10089262D02*
X10115595Y-10108310D01*
X10115595Y-10108310D02*
X10115595Y-10155929D01*
X10115595Y-10155929D02*
X10106071Y-10174976D01*
X10106071Y-10174976D02*
X10096548Y-10184500D01*
X10096548Y-10184500D02*
X10077500Y-10194024D01*
X10077500Y-10194024D02*
X10020357Y-10194024D01*
X10020357Y-10194024D02*
X10001310Y-10184500D01*
X10001310Y-10184500D02*
X9991786Y-10174976D01*
X10296548Y-9994024D02*
X10201310Y-9994024D01*
X10201310Y-9994024D02*
X10191786Y-10089262D01*
X10191786Y-10089262D02*
X10201310Y-10079738D01*
X10201310Y-10079738D02*
X10220357Y-10070214D01*
X10220357Y-10070214D02*
X10267976Y-10070214D01*
X10267976Y-10070214D02*
X10287024Y-10079738D01*
X10287024Y-10079738D02*
X10296548Y-10089262D01*
X10296548Y-10089262D02*
X10306071Y-10108310D01*
X10306071Y-10108310D02*
X10306071Y-10155929D01*
X10306071Y-10155929D02*
X10296548Y-10174976D01*
X10296548Y-10174976D02*
X10287024Y-10184500D01*
X10287024Y-10184500D02*
X10267976Y-10194024D01*
X10267976Y-10194024D02*
X10220357Y-10194024D01*
X10220357Y-10194024D02*
X10201310Y-10184500D01*
X10201310Y-10184500D02*
X10191786Y-10174976D01*
X10429881Y-9994024D02*
X10448929Y-9994024D01*
X10448929Y-9994024D02*
X10467976Y-10003548D01*
X10467976Y-10003548D02*
X10477500Y-10013071D01*
X10477500Y-10013071D02*
X10487024Y-10032119D01*
X10487024Y-10032119D02*
X10496548Y-10070214D01*
X10496548Y-10070214D02*
X10496548Y-10117833D01*
X10496548Y-10117833D02*
X10487024Y-10155929D01*
X10487024Y-10155929D02*
X10477500Y-10174976D01*
X10477500Y-10174976D02*
X10467976Y-10184500D01*
X10467976Y-10184500D02*
X10448929Y-10194024D01*
X10448929Y-10194024D02*
X10429881Y-10194024D01*
X10429881Y-10194024D02*
X10410833Y-10184500D01*
X10410833Y-10184500D02*
X10401310Y-10174976D01*
X10401310Y-10174976D02*
X10391786Y-10155929D01*
X10391786Y-10155929D02*
X10382262Y-10117833D01*
X10382262Y-10117833D02*
X10382262Y-10070214D01*
X10382262Y-10070214D02*
X10391786Y-10032119D01*
X10391786Y-10032119D02*
X10401310Y-10013071D01*
X10401310Y-10013071D02*
X10410833Y-10003548D01*
X10410833Y-10003548D02*
X10429881Y-9994024D01*
X10582262Y-10194024D02*
X10582262Y-10060690D01*
X10582262Y-10079738D02*
X10591786Y-10070214D01*
X10591786Y-10070214D02*
X10610833Y-10060690D01*
X10610833Y-10060690D02*
X10639405Y-10060690D01*
X10639405Y-10060690D02*
X10658452Y-10070214D01*
X10658452Y-10070214D02*
X10667976Y-10089262D01*
X10667976Y-10089262D02*
X10667976Y-10194024D01*
X10667976Y-10089262D02*
X10677500Y-10070214D01*
X10677500Y-10070214D02*
X10696548Y-10060690D01*
X10696548Y-10060690D02*
X10725119Y-10060690D01*
X10725119Y-10060690D02*
X10744167Y-10070214D01*
X10744167Y-10070214D02*
X10753691Y-10089262D01*
X10753691Y-10089262D02*
X10753691Y-10194024D01*
X10848929Y-10194024D02*
X10848929Y-10060690D01*
X10848929Y-10079738D02*
X10858452Y-10070214D01*
X10858452Y-10070214D02*
X10877500Y-10060690D01*
X10877500Y-10060690D02*
X10906072Y-10060690D01*
X10906072Y-10060690D02*
X10925119Y-10070214D01*
X10925119Y-10070214D02*
X10934643Y-10089262D01*
X10934643Y-10089262D02*
X10934643Y-10194024D01*
X10934643Y-10089262D02*
X10944167Y-10070214D01*
X10944167Y-10070214D02*
X10963214Y-10060690D01*
X10963214Y-10060690D02*
X10991786Y-10060690D01*
X10991786Y-10060690D02*
X11010833Y-10070214D01*
X11010833Y-10070214D02*
X11020357Y-10089262D01*
X11020357Y-10089262D02*
X11020357Y-10194024D01*
X11410833Y-9984500D02*
X11239405Y-10241643D01*
X11667976Y-9994024D02*
X11687024Y-9994024D01*
X11687024Y-9994024D02*
X11706072Y-10003548D01*
X11706072Y-10003548D02*
X11715595Y-10013071D01*
X11715595Y-10013071D02*
X11725119Y-10032119D01*
X11725119Y-10032119D02*
X11734643Y-10070214D01*
X11734643Y-10070214D02*
X11734643Y-10117833D01*
X11734643Y-10117833D02*
X11725119Y-10155929D01*
X11725119Y-10155929D02*
X11715595Y-10174976D01*
X11715595Y-10174976D02*
X11706072Y-10184500D01*
X11706072Y-10184500D02*
X11687024Y-10194024D01*
X11687024Y-10194024D02*
X11667976Y-10194024D01*
X11667976Y-10194024D02*
X11648929Y-10184500D01*
X11648929Y-10184500D02*
X11639405Y-10174976D01*
X11639405Y-10174976D02*
X11629881Y-10155929D01*
X11629881Y-10155929D02*
X11620357Y-10117833D01*
X11620357Y-10117833D02*
X11620357Y-10070214D01*
X11620357Y-10070214D02*
X11629881Y-10032119D01*
X11629881Y-10032119D02*
X11639405Y-10013071D01*
X11639405Y-10013071D02*
X11648929Y-10003548D01*
X11648929Y-10003548D02*
X11667976Y-9994024D01*
X11820357Y-10174976D02*
X11829881Y-10184500D01*
X11829881Y-10184500D02*
X11820357Y-10194024D01*
X11820357Y-10194024D02*
X11810833Y-10184500D01*
X11810833Y-10184500D02*
X11820357Y-10174976D01*
X11820357Y-10174976D02*
X11820357Y-10194024D01*
X11953691Y-9994024D02*
X11972738Y-9994024D01*
X11972738Y-9994024D02*
X11991786Y-10003548D01*
X11991786Y-10003548D02*
X12001310Y-10013071D01*
X12001310Y-10013071D02*
X12010833Y-10032119D01*
X12010833Y-10032119D02*
X12020357Y-10070214D01*
X12020357Y-10070214D02*
X12020357Y-10117833D01*
X12020357Y-10117833D02*
X12010833Y-10155929D01*
X12010833Y-10155929D02*
X12001310Y-10174976D01*
X12001310Y-10174976D02*
X11991786Y-10184500D01*
X11991786Y-10184500D02*
X11972738Y-10194024D01*
X11972738Y-10194024D02*
X11953691Y-10194024D01*
X11953691Y-10194024D02*
X11934643Y-10184500D01*
X11934643Y-10184500D02*
X11925119Y-10174976D01*
X11925119Y-10174976D02*
X11915595Y-10155929D01*
X11915595Y-10155929D02*
X11906072Y-10117833D01*
X11906072Y-10117833D02*
X11906072Y-10070214D01*
X11906072Y-10070214D02*
X11915595Y-10032119D01*
X11915595Y-10032119D02*
X11925119Y-10013071D01*
X11925119Y-10013071D02*
X11934643Y-10003548D01*
X11934643Y-10003548D02*
X11953691Y-9994024D01*
X12210833Y-10194024D02*
X12096548Y-10194024D01*
X12153691Y-10194024D02*
X12153691Y-9994024D01*
X12153691Y-9994024D02*
X12134643Y-10022595D01*
X12134643Y-10022595D02*
X12115595Y-10041643D01*
X12115595Y-10041643D02*
X12096548Y-10051167D01*
X12277500Y-9994024D02*
X12401310Y-9994024D01*
X12401310Y-9994024D02*
X12334643Y-10070214D01*
X12334643Y-10070214D02*
X12363214Y-10070214D01*
X12363214Y-10070214D02*
X12382262Y-10079738D01*
X12382262Y-10079738D02*
X12391786Y-10089262D01*
X12391786Y-10089262D02*
X12401310Y-10108310D01*
X12401310Y-10108310D02*
X12401310Y-10155929D01*
X12401310Y-10155929D02*
X12391786Y-10174976D01*
X12391786Y-10174976D02*
X12382262Y-10184500D01*
X12382262Y-10184500D02*
X12363214Y-10194024D01*
X12363214Y-10194024D02*
X12306072Y-10194024D01*
X12306072Y-10194024D02*
X12287024Y-10184500D01*
X12287024Y-10184500D02*
X12277500Y-10174976D01*
X12515595Y-10079738D02*
X12496548Y-10070214D01*
X12496548Y-10070214D02*
X12487024Y-10060690D01*
X12487024Y-10060690D02*
X12477500Y-10041643D01*
X12477500Y-10041643D02*
X12477500Y-10032119D01*
X12477500Y-10032119D02*
X12487024Y-10013071D01*
X12487024Y-10013071D02*
X12496548Y-10003548D01*
X12496548Y-10003548D02*
X12515595Y-9994024D01*
X12515595Y-9994024D02*
X12553691Y-9994024D01*
X12553691Y-9994024D02*
X12572738Y-10003548D01*
X12572738Y-10003548D02*
X12582262Y-10013071D01*
X12582262Y-10013071D02*
X12591786Y-10032119D01*
X12591786Y-10032119D02*
X12591786Y-10041643D01*
X12591786Y-10041643D02*
X12582262Y-10060690D01*
X12582262Y-10060690D02*
X12572738Y-10070214D01*
X12572738Y-10070214D02*
X12553691Y-10079738D01*
X12553691Y-10079738D02*
X12515595Y-10079738D01*
X12515595Y-10079738D02*
X12496548Y-10089262D01*
X12496548Y-10089262D02*
X12487024Y-10098786D01*
X12487024Y-10098786D02*
X12477500Y-10117833D01*
X12477500Y-10117833D02*
X12477500Y-10155929D01*
X12477500Y-10155929D02*
X12487024Y-10174976D01*
X12487024Y-10174976D02*
X12496548Y-10184500D01*
X12496548Y-10184500D02*
X12515595Y-10194024D01*
X12515595Y-10194024D02*
X12553691Y-10194024D01*
X12553691Y-10194024D02*
X12572738Y-10184500D01*
X12572738Y-10184500D02*
X12582262Y-10174976D01*
X12582262Y-10174976D02*
X12591786Y-10155929D01*
X12591786Y-10155929D02*
X12591786Y-10117833D01*
X12591786Y-10117833D02*
X12582262Y-10098786D01*
X12582262Y-10098786D02*
X12572738Y-10089262D01*
X12572738Y-10089262D02*
X12553691Y-10079738D01*
X12667976Y-9994024D02*
X12667976Y-10032119D01*
X12744167Y-9994024D02*
X12744167Y-10032119D01*
X13039405Y-10270214D02*
X13029881Y-10260690D01*
X13029881Y-10260690D02*
X13010834Y-10232119D01*
X13010834Y-10232119D02*
X13001310Y-10213071D01*
X13001310Y-10213071D02*
X12991786Y-10184500D01*
X12991786Y-10184500D02*
X12982262Y-10136881D01*
X12982262Y-10136881D02*
X12982262Y-10098786D01*
X12982262Y-10098786D02*
X12991786Y-10051167D01*
X12991786Y-10051167D02*
X13001310Y-10022595D01*
X13001310Y-10022595D02*
X13010834Y-10003548D01*
X13010834Y-10003548D02*
X13029881Y-9974976D01*
X13029881Y-9974976D02*
X13039405Y-9965452D01*
X13125119Y-10194024D02*
X13163214Y-10194024D01*
X13163214Y-10194024D02*
X13182262Y-10184500D01*
X13182262Y-10184500D02*
X13191786Y-10174976D01*
X13191786Y-10174976D02*
X13210834Y-10146405D01*
X13210834Y-10146405D02*
X13220357Y-10108310D01*
X13220357Y-10108310D02*
X13220357Y-10032119D01*
X13220357Y-10032119D02*
X13210834Y-10013071D01*
X13210834Y-10013071D02*
X13201310Y-10003548D01*
X13201310Y-10003548D02*
X13182262Y-9994024D01*
X13182262Y-9994024D02*
X13144167Y-9994024D01*
X13144167Y-9994024D02*
X13125119Y-10003548D01*
X13125119Y-10003548D02*
X13115595Y-10013071D01*
X13115595Y-10013071D02*
X13106072Y-10032119D01*
X13106072Y-10032119D02*
X13106072Y-10079738D01*
X13106072Y-10079738D02*
X13115595Y-10098786D01*
X13115595Y-10098786D02*
X13125119Y-10108310D01*
X13125119Y-10108310D02*
X13144167Y-10117833D01*
X13144167Y-10117833D02*
X13182262Y-10117833D01*
X13182262Y-10117833D02*
X13201310Y-10108310D01*
X13201310Y-10108310D02*
X13210834Y-10098786D01*
X13210834Y-10098786D02*
X13220357Y-10079738D01*
X13458453Y-10194024D02*
X13458453Y-9994024D01*
X13544167Y-10194024D02*
X13544167Y-10089262D01*
X13544167Y-10089262D02*
X13534643Y-10070214D01*
X13534643Y-10070214D02*
X13515596Y-10060690D01*
X13515596Y-10060690D02*
X13487024Y-10060690D01*
X13487024Y-10060690D02*
X13467976Y-10070214D01*
X13467976Y-10070214D02*
X13458453Y-10079738D01*
X13667976Y-10194024D02*
X13648929Y-10184500D01*
X13648929Y-10184500D02*
X13639405Y-10174976D01*
X13639405Y-10174976D02*
X13629881Y-10155929D01*
X13629881Y-10155929D02*
X13629881Y-10098786D01*
X13629881Y-10098786D02*
X13639405Y-10079738D01*
X13639405Y-10079738D02*
X13648929Y-10070214D01*
X13648929Y-10070214D02*
X13667976Y-10060690D01*
X13667976Y-10060690D02*
X13696548Y-10060690D01*
X13696548Y-10060690D02*
X13715596Y-10070214D01*
X13715596Y-10070214D02*
X13725119Y-10079738D01*
X13725119Y-10079738D02*
X13734643Y-10098786D01*
X13734643Y-10098786D02*
X13734643Y-10155929D01*
X13734643Y-10155929D02*
X13725119Y-10174976D01*
X13725119Y-10174976D02*
X13715596Y-10184500D01*
X13715596Y-10184500D02*
X13696548Y-10194024D01*
X13696548Y-10194024D02*
X13667976Y-10194024D01*
X13848929Y-10194024D02*
X13829881Y-10184500D01*
X13829881Y-10184500D02*
X13820357Y-10165452D01*
X13820357Y-10165452D02*
X13820357Y-9994024D01*
X14001310Y-10184500D02*
X13982262Y-10194024D01*
X13982262Y-10194024D02*
X13944167Y-10194024D01*
X13944167Y-10194024D02*
X13925119Y-10184500D01*
X13925119Y-10184500D02*
X13915596Y-10165452D01*
X13915596Y-10165452D02*
X13915596Y-10089262D01*
X13915596Y-10089262D02*
X13925119Y-10070214D01*
X13925119Y-10070214D02*
X13944167Y-10060690D01*
X13944167Y-10060690D02*
X13982262Y-10060690D01*
X13982262Y-10060690D02*
X14001310Y-10070214D01*
X14001310Y-10070214D02*
X14010834Y-10089262D01*
X14010834Y-10089262D02*
X14010834Y-10108310D01*
X14010834Y-10108310D02*
X13915596Y-10127357D01*
X14087024Y-10184500D02*
X14106072Y-10194024D01*
X14106072Y-10194024D02*
X14144167Y-10194024D01*
X14144167Y-10194024D02*
X14163215Y-10184500D01*
X14163215Y-10184500D02*
X14172738Y-10165452D01*
X14172738Y-10165452D02*
X14172738Y-10155929D01*
X14172738Y-10155929D02*
X14163215Y-10136881D01*
X14163215Y-10136881D02*
X14144167Y-10127357D01*
X14144167Y-10127357D02*
X14115596Y-10127357D01*
X14115596Y-10127357D02*
X14096548Y-10117833D01*
X14096548Y-10117833D02*
X14087024Y-10098786D01*
X14087024Y-10098786D02*
X14087024Y-10089262D01*
X14087024Y-10089262D02*
X14096548Y-10070214D01*
X14096548Y-10070214D02*
X14115596Y-10060690D01*
X14115596Y-10060690D02*
X14144167Y-10060690D01*
X14144167Y-10060690D02*
X14163215Y-10070214D01*
X14239405Y-10270214D02*
X14248929Y-10260690D01*
X14248929Y-10260690D02*
X14267977Y-10232119D01*
X14267977Y-10232119D02*
X14277500Y-10213071D01*
X14277500Y-10213071D02*
X14287024Y-10184500D01*
X14287024Y-10184500D02*
X14296548Y-10136881D01*
X14296548Y-10136881D02*
X14296548Y-10098786D01*
X14296548Y-10098786D02*
X14287024Y-10051167D01*
X14287024Y-10051167D02*
X14277500Y-10022595D01*
X14277500Y-10022595D02*
X14267977Y-10003548D01*
X14267977Y-10003548D02*
X14248929Y-9974976D01*
X14248929Y-9974976D02*
X14239405Y-9965452D01*
D13*
X9447500Y-10335500D02*
X9447500Y-10395500D01*
X9417500Y-10365500D02*
X9477500Y-10365500D01*
D11*
X9763214Y-10258024D02*
X9782262Y-10258024D01*
X9782262Y-10258024D02*
X9801310Y-10267548D01*
X9801310Y-10267548D02*
X9810833Y-10277071D01*
X9810833Y-10277071D02*
X9820357Y-10296119D01*
X9820357Y-10296119D02*
X9829881Y-10334214D01*
X9829881Y-10334214D02*
X9829881Y-10381833D01*
X9829881Y-10381833D02*
X9820357Y-10419929D01*
X9820357Y-10419929D02*
X9810833Y-10438976D01*
X9810833Y-10438976D02*
X9801310Y-10448500D01*
X9801310Y-10448500D02*
X9782262Y-10458024D01*
X9782262Y-10458024D02*
X9763214Y-10458024D01*
X9763214Y-10458024D02*
X9744167Y-10448500D01*
X9744167Y-10448500D02*
X9734643Y-10438976D01*
X9734643Y-10438976D02*
X9725119Y-10419929D01*
X9725119Y-10419929D02*
X9715595Y-10381833D01*
X9715595Y-10381833D02*
X9715595Y-10334214D01*
X9715595Y-10334214D02*
X9725119Y-10296119D01*
X9725119Y-10296119D02*
X9734643Y-10277071D01*
X9734643Y-10277071D02*
X9744167Y-10267548D01*
X9744167Y-10267548D02*
X9763214Y-10258024D01*
X9915595Y-10438976D02*
X9925119Y-10448500D01*
X9925119Y-10448500D02*
X9915595Y-10458024D01*
X9915595Y-10458024D02*
X9906071Y-10448500D01*
X9906071Y-10448500D02*
X9915595Y-10438976D01*
X9915595Y-10438976D02*
X9915595Y-10458024D01*
X10096548Y-10258024D02*
X10058452Y-10258024D01*
X10058452Y-10258024D02*
X10039405Y-10267548D01*
X10039405Y-10267548D02*
X10029881Y-10277071D01*
X10029881Y-10277071D02*
X10010833Y-10305643D01*
X10010833Y-10305643D02*
X10001310Y-10343738D01*
X10001310Y-10343738D02*
X10001310Y-10419929D01*
X10001310Y-10419929D02*
X10010833Y-10438976D01*
X10010833Y-10438976D02*
X10020357Y-10448500D01*
X10020357Y-10448500D02*
X10039405Y-10458024D01*
X10039405Y-10458024D02*
X10077500Y-10458024D01*
X10077500Y-10458024D02*
X10096548Y-10448500D01*
X10096548Y-10448500D02*
X10106071Y-10438976D01*
X10106071Y-10438976D02*
X10115595Y-10419929D01*
X10115595Y-10419929D02*
X10115595Y-10372310D01*
X10115595Y-10372310D02*
X10106071Y-10353262D01*
X10106071Y-10353262D02*
X10096548Y-10343738D01*
X10096548Y-10343738D02*
X10077500Y-10334214D01*
X10077500Y-10334214D02*
X10039405Y-10334214D01*
X10039405Y-10334214D02*
X10020357Y-10343738D01*
X10020357Y-10343738D02*
X10010833Y-10353262D01*
X10010833Y-10353262D02*
X10001310Y-10372310D01*
X10239405Y-10258024D02*
X10258452Y-10258024D01*
X10258452Y-10258024D02*
X10277500Y-10267548D01*
X10277500Y-10267548D02*
X10287024Y-10277071D01*
X10287024Y-10277071D02*
X10296548Y-10296119D01*
X10296548Y-10296119D02*
X10306071Y-10334214D01*
X10306071Y-10334214D02*
X10306071Y-10381833D01*
X10306071Y-10381833D02*
X10296548Y-10419929D01*
X10296548Y-10419929D02*
X10287024Y-10438976D01*
X10287024Y-10438976D02*
X10277500Y-10448500D01*
X10277500Y-10448500D02*
X10258452Y-10458024D01*
X10258452Y-10458024D02*
X10239405Y-10458024D01*
X10239405Y-10458024D02*
X10220357Y-10448500D01*
X10220357Y-10448500D02*
X10210833Y-10438976D01*
X10210833Y-10438976D02*
X10201310Y-10419929D01*
X10201310Y-10419929D02*
X10191786Y-10381833D01*
X10191786Y-10381833D02*
X10191786Y-10334214D01*
X10191786Y-10334214D02*
X10201310Y-10296119D01*
X10201310Y-10296119D02*
X10210833Y-10277071D01*
X10210833Y-10277071D02*
X10220357Y-10267548D01*
X10220357Y-10267548D02*
X10239405Y-10258024D01*
X10429881Y-10258024D02*
X10448929Y-10258024D01*
X10448929Y-10258024D02*
X10467976Y-10267548D01*
X10467976Y-10267548D02*
X10477500Y-10277071D01*
X10477500Y-10277071D02*
X10487024Y-10296119D01*
X10487024Y-10296119D02*
X10496548Y-10334214D01*
X10496548Y-10334214D02*
X10496548Y-10381833D01*
X10496548Y-10381833D02*
X10487024Y-10419929D01*
X10487024Y-10419929D02*
X10477500Y-10438976D01*
X10477500Y-10438976D02*
X10467976Y-10448500D01*
X10467976Y-10448500D02*
X10448929Y-10458024D01*
X10448929Y-10458024D02*
X10429881Y-10458024D01*
X10429881Y-10458024D02*
X10410833Y-10448500D01*
X10410833Y-10448500D02*
X10401310Y-10438976D01*
X10401310Y-10438976D02*
X10391786Y-10419929D01*
X10391786Y-10419929D02*
X10382262Y-10381833D01*
X10382262Y-10381833D02*
X10382262Y-10334214D01*
X10382262Y-10334214D02*
X10391786Y-10296119D01*
X10391786Y-10296119D02*
X10401310Y-10277071D01*
X10401310Y-10277071D02*
X10410833Y-10267548D01*
X10410833Y-10267548D02*
X10429881Y-10258024D01*
X10582262Y-10458024D02*
X10582262Y-10324690D01*
X10582262Y-10343738D02*
X10591786Y-10334214D01*
X10591786Y-10334214D02*
X10610833Y-10324690D01*
X10610833Y-10324690D02*
X10639405Y-10324690D01*
X10639405Y-10324690D02*
X10658452Y-10334214D01*
X10658452Y-10334214D02*
X10667976Y-10353262D01*
X10667976Y-10353262D02*
X10667976Y-10458024D01*
X10667976Y-10353262D02*
X10677500Y-10334214D01*
X10677500Y-10334214D02*
X10696548Y-10324690D01*
X10696548Y-10324690D02*
X10725119Y-10324690D01*
X10725119Y-10324690D02*
X10744167Y-10334214D01*
X10744167Y-10334214D02*
X10753691Y-10353262D01*
X10753691Y-10353262D02*
X10753691Y-10458024D01*
X10848929Y-10458024D02*
X10848929Y-10324690D01*
X10848929Y-10343738D02*
X10858452Y-10334214D01*
X10858452Y-10334214D02*
X10877500Y-10324690D01*
X10877500Y-10324690D02*
X10906072Y-10324690D01*
X10906072Y-10324690D02*
X10925119Y-10334214D01*
X10925119Y-10334214D02*
X10934643Y-10353262D01*
X10934643Y-10353262D02*
X10934643Y-10458024D01*
X10934643Y-10353262D02*
X10944167Y-10334214D01*
X10944167Y-10334214D02*
X10963214Y-10324690D01*
X10963214Y-10324690D02*
X10991786Y-10324690D01*
X10991786Y-10324690D02*
X11010833Y-10334214D01*
X11010833Y-10334214D02*
X11020357Y-10353262D01*
X11020357Y-10353262D02*
X11020357Y-10458024D01*
X11410833Y-10248500D02*
X11239405Y-10505643D01*
X11667976Y-10258024D02*
X11687024Y-10258024D01*
X11687024Y-10258024D02*
X11706072Y-10267548D01*
X11706072Y-10267548D02*
X11715595Y-10277071D01*
X11715595Y-10277071D02*
X11725119Y-10296119D01*
X11725119Y-10296119D02*
X11734643Y-10334214D01*
X11734643Y-10334214D02*
X11734643Y-10381833D01*
X11734643Y-10381833D02*
X11725119Y-10419929D01*
X11725119Y-10419929D02*
X11715595Y-10438976D01*
X11715595Y-10438976D02*
X11706072Y-10448500D01*
X11706072Y-10448500D02*
X11687024Y-10458024D01*
X11687024Y-10458024D02*
X11667976Y-10458024D01*
X11667976Y-10458024D02*
X11648929Y-10448500D01*
X11648929Y-10448500D02*
X11639405Y-10438976D01*
X11639405Y-10438976D02*
X11629881Y-10419929D01*
X11629881Y-10419929D02*
X11620357Y-10381833D01*
X11620357Y-10381833D02*
X11620357Y-10334214D01*
X11620357Y-10334214D02*
X11629881Y-10296119D01*
X11629881Y-10296119D02*
X11639405Y-10277071D01*
X11639405Y-10277071D02*
X11648929Y-10267548D01*
X11648929Y-10267548D02*
X11667976Y-10258024D01*
X11820357Y-10438976D02*
X11829881Y-10448500D01*
X11829881Y-10448500D02*
X11820357Y-10458024D01*
X11820357Y-10458024D02*
X11810833Y-10448500D01*
X11810833Y-10448500D02*
X11820357Y-10438976D01*
X11820357Y-10438976D02*
X11820357Y-10458024D01*
X11953691Y-10258024D02*
X11972738Y-10258024D01*
X11972738Y-10258024D02*
X11991786Y-10267548D01*
X11991786Y-10267548D02*
X12001310Y-10277071D01*
X12001310Y-10277071D02*
X12010833Y-10296119D01*
X12010833Y-10296119D02*
X12020357Y-10334214D01*
X12020357Y-10334214D02*
X12020357Y-10381833D01*
X12020357Y-10381833D02*
X12010833Y-10419929D01*
X12010833Y-10419929D02*
X12001310Y-10438976D01*
X12001310Y-10438976D02*
X11991786Y-10448500D01*
X11991786Y-10448500D02*
X11972738Y-10458024D01*
X11972738Y-10458024D02*
X11953691Y-10458024D01*
X11953691Y-10458024D02*
X11934643Y-10448500D01*
X11934643Y-10448500D02*
X11925119Y-10438976D01*
X11925119Y-10438976D02*
X11915595Y-10419929D01*
X11915595Y-10419929D02*
X11906072Y-10381833D01*
X11906072Y-10381833D02*
X11906072Y-10334214D01*
X11906072Y-10334214D02*
X11915595Y-10296119D01*
X11915595Y-10296119D02*
X11925119Y-10277071D01*
X11925119Y-10277071D02*
X11934643Y-10267548D01*
X11934643Y-10267548D02*
X11953691Y-10258024D01*
X12096548Y-10277071D02*
X12106072Y-10267548D01*
X12106072Y-10267548D02*
X12125119Y-10258024D01*
X12125119Y-10258024D02*
X12172738Y-10258024D01*
X12172738Y-10258024D02*
X12191786Y-10267548D01*
X12191786Y-10267548D02*
X12201310Y-10277071D01*
X12201310Y-10277071D02*
X12210833Y-10296119D01*
X12210833Y-10296119D02*
X12210833Y-10315167D01*
X12210833Y-10315167D02*
X12201310Y-10343738D01*
X12201310Y-10343738D02*
X12087024Y-10458024D01*
X12087024Y-10458024D02*
X12210833Y-10458024D01*
X12277500Y-10258024D02*
X12401310Y-10258024D01*
X12401310Y-10258024D02*
X12334643Y-10334214D01*
X12334643Y-10334214D02*
X12363214Y-10334214D01*
X12363214Y-10334214D02*
X12382262Y-10343738D01*
X12382262Y-10343738D02*
X12391786Y-10353262D01*
X12391786Y-10353262D02*
X12401310Y-10372310D01*
X12401310Y-10372310D02*
X12401310Y-10419929D01*
X12401310Y-10419929D02*
X12391786Y-10438976D01*
X12391786Y-10438976D02*
X12382262Y-10448500D01*
X12382262Y-10448500D02*
X12363214Y-10458024D01*
X12363214Y-10458024D02*
X12306072Y-10458024D01*
X12306072Y-10458024D02*
X12287024Y-10448500D01*
X12287024Y-10448500D02*
X12277500Y-10438976D01*
X12572738Y-10258024D02*
X12534643Y-10258024D01*
X12534643Y-10258024D02*
X12515595Y-10267548D01*
X12515595Y-10267548D02*
X12506072Y-10277071D01*
X12506072Y-10277071D02*
X12487024Y-10305643D01*
X12487024Y-10305643D02*
X12477500Y-10343738D01*
X12477500Y-10343738D02*
X12477500Y-10419929D01*
X12477500Y-10419929D02*
X12487024Y-10438976D01*
X12487024Y-10438976D02*
X12496548Y-10448500D01*
X12496548Y-10448500D02*
X12515595Y-10458024D01*
X12515595Y-10458024D02*
X12553691Y-10458024D01*
X12553691Y-10458024D02*
X12572738Y-10448500D01*
X12572738Y-10448500D02*
X12582262Y-10438976D01*
X12582262Y-10438976D02*
X12591786Y-10419929D01*
X12591786Y-10419929D02*
X12591786Y-10372310D01*
X12591786Y-10372310D02*
X12582262Y-10353262D01*
X12582262Y-10353262D02*
X12572738Y-10343738D01*
X12572738Y-10343738D02*
X12553691Y-10334214D01*
X12553691Y-10334214D02*
X12515595Y-10334214D01*
X12515595Y-10334214D02*
X12496548Y-10343738D01*
X12496548Y-10343738D02*
X12487024Y-10353262D01*
X12487024Y-10353262D02*
X12477500Y-10372310D01*
X12667976Y-10258024D02*
X12667976Y-10296119D01*
X12744167Y-10258024D02*
X12744167Y-10296119D01*
X13039405Y-10534214D02*
X13029881Y-10524690D01*
X13029881Y-10524690D02*
X13010834Y-10496119D01*
X13010834Y-10496119D02*
X13001310Y-10477071D01*
X13001310Y-10477071D02*
X12991786Y-10448500D01*
X12991786Y-10448500D02*
X12982262Y-10400881D01*
X12982262Y-10400881D02*
X12982262Y-10362786D01*
X12982262Y-10362786D02*
X12991786Y-10315167D01*
X12991786Y-10315167D02*
X13001310Y-10286595D01*
X13001310Y-10286595D02*
X13010834Y-10267548D01*
X13010834Y-10267548D02*
X13029881Y-10238976D01*
X13029881Y-10238976D02*
X13039405Y-10229452D01*
X13153691Y-10258024D02*
X13172738Y-10258024D01*
X13172738Y-10258024D02*
X13191786Y-10267548D01*
X13191786Y-10267548D02*
X13201310Y-10277071D01*
X13201310Y-10277071D02*
X13210834Y-10296119D01*
X13210834Y-10296119D02*
X13220357Y-10334214D01*
X13220357Y-10334214D02*
X13220357Y-10381833D01*
X13220357Y-10381833D02*
X13210834Y-10419929D01*
X13210834Y-10419929D02*
X13201310Y-10438976D01*
X13201310Y-10438976D02*
X13191786Y-10448500D01*
X13191786Y-10448500D02*
X13172738Y-10458024D01*
X13172738Y-10458024D02*
X13153691Y-10458024D01*
X13153691Y-10458024D02*
X13134643Y-10448500D01*
X13134643Y-10448500D02*
X13125119Y-10438976D01*
X13125119Y-10438976D02*
X13115595Y-10419929D01*
X13115595Y-10419929D02*
X13106072Y-10381833D01*
X13106072Y-10381833D02*
X13106072Y-10334214D01*
X13106072Y-10334214D02*
X13115595Y-10296119D01*
X13115595Y-10296119D02*
X13125119Y-10277071D01*
X13125119Y-10277071D02*
X13134643Y-10267548D01*
X13134643Y-10267548D02*
X13153691Y-10258024D01*
X13458453Y-10458024D02*
X13458453Y-10258024D01*
X13544167Y-10458024D02*
X13544167Y-10353262D01*
X13544167Y-10353262D02*
X13534643Y-10334214D01*
X13534643Y-10334214D02*
X13515596Y-10324690D01*
X13515596Y-10324690D02*
X13487024Y-10324690D01*
X13487024Y-10324690D02*
X13467976Y-10334214D01*
X13467976Y-10334214D02*
X13458453Y-10343738D01*
X13667976Y-10458024D02*
X13648929Y-10448500D01*
X13648929Y-10448500D02*
X13639405Y-10438976D01*
X13639405Y-10438976D02*
X13629881Y-10419929D01*
X13629881Y-10419929D02*
X13629881Y-10362786D01*
X13629881Y-10362786D02*
X13639405Y-10343738D01*
X13639405Y-10343738D02*
X13648929Y-10334214D01*
X13648929Y-10334214D02*
X13667976Y-10324690D01*
X13667976Y-10324690D02*
X13696548Y-10324690D01*
X13696548Y-10324690D02*
X13715596Y-10334214D01*
X13715596Y-10334214D02*
X13725119Y-10343738D01*
X13725119Y-10343738D02*
X13734643Y-10362786D01*
X13734643Y-10362786D02*
X13734643Y-10419929D01*
X13734643Y-10419929D02*
X13725119Y-10438976D01*
X13725119Y-10438976D02*
X13715596Y-10448500D01*
X13715596Y-10448500D02*
X13696548Y-10458024D01*
X13696548Y-10458024D02*
X13667976Y-10458024D01*
X13848929Y-10458024D02*
X13829881Y-10448500D01*
X13829881Y-10448500D02*
X13820357Y-10429452D01*
X13820357Y-10429452D02*
X13820357Y-10258024D01*
X14001310Y-10448500D02*
X13982262Y-10458024D01*
X13982262Y-10458024D02*
X13944167Y-10458024D01*
X13944167Y-10458024D02*
X13925119Y-10448500D01*
X13925119Y-10448500D02*
X13915596Y-10429452D01*
X13915596Y-10429452D02*
X13915596Y-10353262D01*
X13915596Y-10353262D02*
X13925119Y-10334214D01*
X13925119Y-10334214D02*
X13944167Y-10324690D01*
X13944167Y-10324690D02*
X13982262Y-10324690D01*
X13982262Y-10324690D02*
X14001310Y-10334214D01*
X14001310Y-10334214D02*
X14010834Y-10353262D01*
X14010834Y-10353262D02*
X14010834Y-10372310D01*
X14010834Y-10372310D02*
X13915596Y-10391357D01*
X14087024Y-10448500D02*
X14106072Y-10458024D01*
X14106072Y-10458024D02*
X14144167Y-10458024D01*
X14144167Y-10458024D02*
X14163215Y-10448500D01*
X14163215Y-10448500D02*
X14172738Y-10429452D01*
X14172738Y-10429452D02*
X14172738Y-10419929D01*
X14172738Y-10419929D02*
X14163215Y-10400881D01*
X14163215Y-10400881D02*
X14144167Y-10391357D01*
X14144167Y-10391357D02*
X14115596Y-10391357D01*
X14115596Y-10391357D02*
X14096548Y-10381833D01*
X14096548Y-10381833D02*
X14087024Y-10362786D01*
X14087024Y-10362786D02*
X14087024Y-10353262D01*
X14087024Y-10353262D02*
X14096548Y-10334214D01*
X14096548Y-10334214D02*
X14115596Y-10324690D01*
X14115596Y-10324690D02*
X14144167Y-10324690D01*
X14144167Y-10324690D02*
X14163215Y-10334214D01*
X14410834Y-10381833D02*
X14563215Y-10381833D01*
X14487024Y-10458024D02*
X14487024Y-10305643D01*
X14896548Y-10324690D02*
X14896548Y-10458024D01*
X14848929Y-10248500D02*
X14801310Y-10391357D01*
X14801310Y-10391357D02*
X14925119Y-10391357D01*
X15144167Y-10448500D02*
X15163215Y-10458024D01*
X15163215Y-10458024D02*
X15201310Y-10458024D01*
X15201310Y-10458024D02*
X15220358Y-10448500D01*
X15220358Y-10448500D02*
X15229881Y-10429452D01*
X15229881Y-10429452D02*
X15229881Y-10419929D01*
X15229881Y-10419929D02*
X15220358Y-10400881D01*
X15220358Y-10400881D02*
X15201310Y-10391357D01*
X15201310Y-10391357D02*
X15172739Y-10391357D01*
X15172739Y-10391357D02*
X15153691Y-10381833D01*
X15153691Y-10381833D02*
X15144167Y-10362786D01*
X15144167Y-10362786D02*
X15144167Y-10353262D01*
X15144167Y-10353262D02*
X15153691Y-10334214D01*
X15153691Y-10334214D02*
X15172739Y-10324690D01*
X15172739Y-10324690D02*
X15201310Y-10324690D01*
X15201310Y-10324690D02*
X15220358Y-10334214D01*
X15344167Y-10458024D02*
X15325120Y-10448500D01*
X15325120Y-10448500D02*
X15315596Y-10429452D01*
X15315596Y-10429452D02*
X15315596Y-10258024D01*
X15448929Y-10458024D02*
X15429881Y-10448500D01*
X15429881Y-10448500D02*
X15420358Y-10438976D01*
X15420358Y-10438976D02*
X15410834Y-10419929D01*
X15410834Y-10419929D02*
X15410834Y-10362786D01*
X15410834Y-10362786D02*
X15420358Y-10343738D01*
X15420358Y-10343738D02*
X15429881Y-10334214D01*
X15429881Y-10334214D02*
X15448929Y-10324690D01*
X15448929Y-10324690D02*
X15477501Y-10324690D01*
X15477501Y-10324690D02*
X15496548Y-10334214D01*
X15496548Y-10334214D02*
X15506072Y-10343738D01*
X15506072Y-10343738D02*
X15515596Y-10362786D01*
X15515596Y-10362786D02*
X15515596Y-10419929D01*
X15515596Y-10419929D02*
X15506072Y-10438976D01*
X15506072Y-10438976D02*
X15496548Y-10448500D01*
X15496548Y-10448500D02*
X15477501Y-10458024D01*
X15477501Y-10458024D02*
X15448929Y-10458024D01*
X15572739Y-10324690D02*
X15648929Y-10324690D01*
X15601310Y-10258024D02*
X15601310Y-10429452D01*
X15601310Y-10429452D02*
X15610834Y-10448500D01*
X15610834Y-10448500D02*
X15629881Y-10458024D01*
X15629881Y-10458024D02*
X15648929Y-10458024D01*
X15706072Y-10448500D02*
X15725120Y-10458024D01*
X15725120Y-10458024D02*
X15763215Y-10458024D01*
X15763215Y-10458024D02*
X15782262Y-10448500D01*
X15782262Y-10448500D02*
X15791786Y-10429452D01*
X15791786Y-10429452D02*
X15791786Y-10419929D01*
X15791786Y-10419929D02*
X15782262Y-10400881D01*
X15782262Y-10400881D02*
X15763215Y-10391357D01*
X15763215Y-10391357D02*
X15734643Y-10391357D01*
X15734643Y-10391357D02*
X15715596Y-10381833D01*
X15715596Y-10381833D02*
X15706072Y-10362786D01*
X15706072Y-10362786D02*
X15706072Y-10353262D01*
X15706072Y-10353262D02*
X15715596Y-10334214D01*
X15715596Y-10334214D02*
X15734643Y-10324690D01*
X15734643Y-10324690D02*
X15763215Y-10324690D01*
X15763215Y-10324690D02*
X15782262Y-10334214D01*
X15858453Y-10534214D02*
X15867977Y-10524690D01*
X15867977Y-10524690D02*
X15887024Y-10496119D01*
X15887024Y-10496119D02*
X15896548Y-10477071D01*
X15896548Y-10477071D02*
X15906072Y-10448500D01*
X15906072Y-10448500D02*
X15915596Y-10400881D01*
X15915596Y-10400881D02*
X15915596Y-10362786D01*
X15915596Y-10362786D02*
X15906072Y-10315167D01*
X15906072Y-10315167D02*
X15896548Y-10286595D01*
X15896548Y-10286595D02*
X15887024Y-10267548D01*
X15887024Y-10267548D02*
X15867977Y-10238976D01*
X15867977Y-10238976D02*
X15858453Y-10229452D01*
D14*
X9461391Y-10668391D02*
X9461391Y-10590609D01*
X9383609Y-10590609D01*
X9383609Y-10668391D01*
X9461391Y-10668391D01*
D11*
X9829881Y-10722024D02*
X9715595Y-10722024D01*
X9772738Y-10722024D02*
X9772738Y-10522024D01*
X9772738Y-10522024D02*
X9753690Y-10550595D01*
X9753690Y-10550595D02*
X9734643Y-10569643D01*
X9734643Y-10569643D02*
X9715595Y-10579167D01*
X9915595Y-10702976D02*
X9925119Y-10712500D01*
X9925119Y-10712500D02*
X9915595Y-10722024D01*
X9915595Y-10722024D02*
X9906071Y-10712500D01*
X9906071Y-10712500D02*
X9915595Y-10702976D01*
X9915595Y-10702976D02*
X9915595Y-10722024D01*
X10115595Y-10722024D02*
X10001310Y-10722024D01*
X10058452Y-10722024D02*
X10058452Y-10522024D01*
X10058452Y-10522024D02*
X10039405Y-10550595D01*
X10039405Y-10550595D02*
X10020357Y-10569643D01*
X10020357Y-10569643D02*
X10001310Y-10579167D01*
X10239405Y-10522024D02*
X10258452Y-10522024D01*
X10258452Y-10522024D02*
X10277500Y-10531548D01*
X10277500Y-10531548D02*
X10287024Y-10541071D01*
X10287024Y-10541071D02*
X10296548Y-10560119D01*
X10296548Y-10560119D02*
X10306071Y-10598214D01*
X10306071Y-10598214D02*
X10306071Y-10645833D01*
X10306071Y-10645833D02*
X10296548Y-10683929D01*
X10296548Y-10683929D02*
X10287024Y-10702976D01*
X10287024Y-10702976D02*
X10277500Y-10712500D01*
X10277500Y-10712500D02*
X10258452Y-10722024D01*
X10258452Y-10722024D02*
X10239405Y-10722024D01*
X10239405Y-10722024D02*
X10220357Y-10712500D01*
X10220357Y-10712500D02*
X10210833Y-10702976D01*
X10210833Y-10702976D02*
X10201310Y-10683929D01*
X10201310Y-10683929D02*
X10191786Y-10645833D01*
X10191786Y-10645833D02*
X10191786Y-10598214D01*
X10191786Y-10598214D02*
X10201310Y-10560119D01*
X10201310Y-10560119D02*
X10210833Y-10541071D01*
X10210833Y-10541071D02*
X10220357Y-10531548D01*
X10220357Y-10531548D02*
X10239405Y-10522024D01*
X10429881Y-10522024D02*
X10448929Y-10522024D01*
X10448929Y-10522024D02*
X10467976Y-10531548D01*
X10467976Y-10531548D02*
X10477500Y-10541071D01*
X10477500Y-10541071D02*
X10487024Y-10560119D01*
X10487024Y-10560119D02*
X10496548Y-10598214D01*
X10496548Y-10598214D02*
X10496548Y-10645833D01*
X10496548Y-10645833D02*
X10487024Y-10683929D01*
X10487024Y-10683929D02*
X10477500Y-10702976D01*
X10477500Y-10702976D02*
X10467976Y-10712500D01*
X10467976Y-10712500D02*
X10448929Y-10722024D01*
X10448929Y-10722024D02*
X10429881Y-10722024D01*
X10429881Y-10722024D02*
X10410833Y-10712500D01*
X10410833Y-10712500D02*
X10401310Y-10702976D01*
X10401310Y-10702976D02*
X10391786Y-10683929D01*
X10391786Y-10683929D02*
X10382262Y-10645833D01*
X10382262Y-10645833D02*
X10382262Y-10598214D01*
X10382262Y-10598214D02*
X10391786Y-10560119D01*
X10391786Y-10560119D02*
X10401310Y-10541071D01*
X10401310Y-10541071D02*
X10410833Y-10531548D01*
X10410833Y-10531548D02*
X10429881Y-10522024D01*
X10582262Y-10722024D02*
X10582262Y-10588690D01*
X10582262Y-10607738D02*
X10591786Y-10598214D01*
X10591786Y-10598214D02*
X10610833Y-10588690D01*
X10610833Y-10588690D02*
X10639405Y-10588690D01*
X10639405Y-10588690D02*
X10658452Y-10598214D01*
X10658452Y-10598214D02*
X10667976Y-10617262D01*
X10667976Y-10617262D02*
X10667976Y-10722024D01*
X10667976Y-10617262D02*
X10677500Y-10598214D01*
X10677500Y-10598214D02*
X10696548Y-10588690D01*
X10696548Y-10588690D02*
X10725119Y-10588690D01*
X10725119Y-10588690D02*
X10744167Y-10598214D01*
X10744167Y-10598214D02*
X10753691Y-10617262D01*
X10753691Y-10617262D02*
X10753691Y-10722024D01*
X10848929Y-10722024D02*
X10848929Y-10588690D01*
X10848929Y-10607738D02*
X10858452Y-10598214D01*
X10858452Y-10598214D02*
X10877500Y-10588690D01*
X10877500Y-10588690D02*
X10906072Y-10588690D01*
X10906072Y-10588690D02*
X10925119Y-10598214D01*
X10925119Y-10598214D02*
X10934643Y-10617262D01*
X10934643Y-10617262D02*
X10934643Y-10722024D01*
X10934643Y-10617262D02*
X10944167Y-10598214D01*
X10944167Y-10598214D02*
X10963214Y-10588690D01*
X10963214Y-10588690D02*
X10991786Y-10588690D01*
X10991786Y-10588690D02*
X11010833Y-10598214D01*
X11010833Y-10598214D02*
X11020357Y-10617262D01*
X11020357Y-10617262D02*
X11020357Y-10722024D01*
X11410833Y-10512500D02*
X11239405Y-10769643D01*
X11667976Y-10522024D02*
X11687024Y-10522024D01*
X11687024Y-10522024D02*
X11706072Y-10531548D01*
X11706072Y-10531548D02*
X11715595Y-10541071D01*
X11715595Y-10541071D02*
X11725119Y-10560119D01*
X11725119Y-10560119D02*
X11734643Y-10598214D01*
X11734643Y-10598214D02*
X11734643Y-10645833D01*
X11734643Y-10645833D02*
X11725119Y-10683929D01*
X11725119Y-10683929D02*
X11715595Y-10702976D01*
X11715595Y-10702976D02*
X11706072Y-10712500D01*
X11706072Y-10712500D02*
X11687024Y-10722024D01*
X11687024Y-10722024D02*
X11667976Y-10722024D01*
X11667976Y-10722024D02*
X11648929Y-10712500D01*
X11648929Y-10712500D02*
X11639405Y-10702976D01*
X11639405Y-10702976D02*
X11629881Y-10683929D01*
X11629881Y-10683929D02*
X11620357Y-10645833D01*
X11620357Y-10645833D02*
X11620357Y-10598214D01*
X11620357Y-10598214D02*
X11629881Y-10560119D01*
X11629881Y-10560119D02*
X11639405Y-10541071D01*
X11639405Y-10541071D02*
X11648929Y-10531548D01*
X11648929Y-10531548D02*
X11667976Y-10522024D01*
X11820357Y-10702976D02*
X11829881Y-10712500D01*
X11829881Y-10712500D02*
X11820357Y-10722024D01*
X11820357Y-10722024D02*
X11810833Y-10712500D01*
X11810833Y-10712500D02*
X11820357Y-10702976D01*
X11820357Y-10702976D02*
X11820357Y-10722024D01*
X11953691Y-10522024D02*
X11972738Y-10522024D01*
X11972738Y-10522024D02*
X11991786Y-10531548D01*
X11991786Y-10531548D02*
X12001310Y-10541071D01*
X12001310Y-10541071D02*
X12010833Y-10560119D01*
X12010833Y-10560119D02*
X12020357Y-10598214D01*
X12020357Y-10598214D02*
X12020357Y-10645833D01*
X12020357Y-10645833D02*
X12010833Y-10683929D01*
X12010833Y-10683929D02*
X12001310Y-10702976D01*
X12001310Y-10702976D02*
X11991786Y-10712500D01*
X11991786Y-10712500D02*
X11972738Y-10722024D01*
X11972738Y-10722024D02*
X11953691Y-10722024D01*
X11953691Y-10722024D02*
X11934643Y-10712500D01*
X11934643Y-10712500D02*
X11925119Y-10702976D01*
X11925119Y-10702976D02*
X11915595Y-10683929D01*
X11915595Y-10683929D02*
X11906072Y-10645833D01*
X11906072Y-10645833D02*
X11906072Y-10598214D01*
X11906072Y-10598214D02*
X11915595Y-10560119D01*
X11915595Y-10560119D02*
X11925119Y-10541071D01*
X11925119Y-10541071D02*
X11934643Y-10531548D01*
X11934643Y-10531548D02*
X11953691Y-10522024D01*
X12191786Y-10588690D02*
X12191786Y-10722024D01*
X12144167Y-10512500D02*
X12096548Y-10655357D01*
X12096548Y-10655357D02*
X12220357Y-10655357D01*
X12277500Y-10522024D02*
X12401310Y-10522024D01*
X12401310Y-10522024D02*
X12334643Y-10598214D01*
X12334643Y-10598214D02*
X12363214Y-10598214D01*
X12363214Y-10598214D02*
X12382262Y-10607738D01*
X12382262Y-10607738D02*
X12391786Y-10617262D01*
X12391786Y-10617262D02*
X12401310Y-10636310D01*
X12401310Y-10636310D02*
X12401310Y-10683929D01*
X12401310Y-10683929D02*
X12391786Y-10702976D01*
X12391786Y-10702976D02*
X12382262Y-10712500D01*
X12382262Y-10712500D02*
X12363214Y-10722024D01*
X12363214Y-10722024D02*
X12306072Y-10722024D01*
X12306072Y-10722024D02*
X12287024Y-10712500D01*
X12287024Y-10712500D02*
X12277500Y-10702976D01*
X12467976Y-10522024D02*
X12591786Y-10522024D01*
X12591786Y-10522024D02*
X12525119Y-10598214D01*
X12525119Y-10598214D02*
X12553691Y-10598214D01*
X12553691Y-10598214D02*
X12572738Y-10607738D01*
X12572738Y-10607738D02*
X12582262Y-10617262D01*
X12582262Y-10617262D02*
X12591786Y-10636310D01*
X12591786Y-10636310D02*
X12591786Y-10683929D01*
X12591786Y-10683929D02*
X12582262Y-10702976D01*
X12582262Y-10702976D02*
X12572738Y-10712500D01*
X12572738Y-10712500D02*
X12553691Y-10722024D01*
X12553691Y-10722024D02*
X12496548Y-10722024D01*
X12496548Y-10722024D02*
X12477500Y-10712500D01*
X12477500Y-10712500D02*
X12467976Y-10702976D01*
X12667976Y-10522024D02*
X12667976Y-10560119D01*
X12744167Y-10522024D02*
X12744167Y-10560119D01*
X13039405Y-10798214D02*
X13029881Y-10788690D01*
X13029881Y-10788690D02*
X13010834Y-10760119D01*
X13010834Y-10760119D02*
X13001310Y-10741071D01*
X13001310Y-10741071D02*
X12991786Y-10712500D01*
X12991786Y-10712500D02*
X12982262Y-10664881D01*
X12982262Y-10664881D02*
X12982262Y-10626786D01*
X12982262Y-10626786D02*
X12991786Y-10579167D01*
X12991786Y-10579167D02*
X13001310Y-10550595D01*
X13001310Y-10550595D02*
X13010834Y-10531548D01*
X13010834Y-10531548D02*
X13029881Y-10502976D01*
X13029881Y-10502976D02*
X13039405Y-10493452D01*
X13201310Y-10588690D02*
X13201310Y-10722024D01*
X13153691Y-10512500D02*
X13106072Y-10655357D01*
X13106072Y-10655357D02*
X13229881Y-10655357D01*
X13458453Y-10722024D02*
X13458453Y-10522024D01*
X13544167Y-10722024D02*
X13544167Y-10617262D01*
X13544167Y-10617262D02*
X13534643Y-10598214D01*
X13534643Y-10598214D02*
X13515596Y-10588690D01*
X13515596Y-10588690D02*
X13487024Y-10588690D01*
X13487024Y-10588690D02*
X13467976Y-10598214D01*
X13467976Y-10598214D02*
X13458453Y-10607738D01*
X13667976Y-10722024D02*
X13648929Y-10712500D01*
X13648929Y-10712500D02*
X13639405Y-10702976D01*
X13639405Y-10702976D02*
X13629881Y-10683929D01*
X13629881Y-10683929D02*
X13629881Y-10626786D01*
X13629881Y-10626786D02*
X13639405Y-10607738D01*
X13639405Y-10607738D02*
X13648929Y-10598214D01*
X13648929Y-10598214D02*
X13667976Y-10588690D01*
X13667976Y-10588690D02*
X13696548Y-10588690D01*
X13696548Y-10588690D02*
X13715596Y-10598214D01*
X13715596Y-10598214D02*
X13725119Y-10607738D01*
X13725119Y-10607738D02*
X13734643Y-10626786D01*
X13734643Y-10626786D02*
X13734643Y-10683929D01*
X13734643Y-10683929D02*
X13725119Y-10702976D01*
X13725119Y-10702976D02*
X13715596Y-10712500D01*
X13715596Y-10712500D02*
X13696548Y-10722024D01*
X13696548Y-10722024D02*
X13667976Y-10722024D01*
X13848929Y-10722024D02*
X13829881Y-10712500D01*
X13829881Y-10712500D02*
X13820357Y-10693452D01*
X13820357Y-10693452D02*
X13820357Y-10522024D01*
X14001310Y-10712500D02*
X13982262Y-10722024D01*
X13982262Y-10722024D02*
X13944167Y-10722024D01*
X13944167Y-10722024D02*
X13925119Y-10712500D01*
X13925119Y-10712500D02*
X13915596Y-10693452D01*
X13915596Y-10693452D02*
X13915596Y-10617262D01*
X13915596Y-10617262D02*
X13925119Y-10598214D01*
X13925119Y-10598214D02*
X13944167Y-10588690D01*
X13944167Y-10588690D02*
X13982262Y-10588690D01*
X13982262Y-10588690D02*
X14001310Y-10598214D01*
X14001310Y-10598214D02*
X14010834Y-10617262D01*
X14010834Y-10617262D02*
X14010834Y-10636310D01*
X14010834Y-10636310D02*
X13915596Y-10655357D01*
X14087024Y-10712500D02*
X14106072Y-10722024D01*
X14106072Y-10722024D02*
X14144167Y-10722024D01*
X14144167Y-10722024D02*
X14163215Y-10712500D01*
X14163215Y-10712500D02*
X14172738Y-10693452D01*
X14172738Y-10693452D02*
X14172738Y-10683929D01*
X14172738Y-10683929D02*
X14163215Y-10664881D01*
X14163215Y-10664881D02*
X14144167Y-10655357D01*
X14144167Y-10655357D02*
X14115596Y-10655357D01*
X14115596Y-10655357D02*
X14096548Y-10645833D01*
X14096548Y-10645833D02*
X14087024Y-10626786D01*
X14087024Y-10626786D02*
X14087024Y-10617262D01*
X14087024Y-10617262D02*
X14096548Y-10598214D01*
X14096548Y-10598214D02*
X14115596Y-10588690D01*
X14115596Y-10588690D02*
X14144167Y-10588690D01*
X14144167Y-10588690D02*
X14163215Y-10598214D01*
X14239405Y-10798214D02*
X14248929Y-10788690D01*
X14248929Y-10788690D02*
X14267977Y-10760119D01*
X14267977Y-10760119D02*
X14277500Y-10741071D01*
X14277500Y-10741071D02*
X14287024Y-10712500D01*
X14287024Y-10712500D02*
X14296548Y-10664881D01*
X14296548Y-10664881D02*
X14296548Y-10626786D01*
X14296548Y-10626786D02*
X14287024Y-10579167D01*
X14287024Y-10579167D02*
X14277500Y-10550595D01*
X14277500Y-10550595D02*
X14267977Y-10531548D01*
X14267977Y-10531548D02*
X14248929Y-10502976D01*
X14248929Y-10502976D02*
X14239405Y-10493452D01*
D15*
X9445000Y-10926000D02*
X9477500Y-10893500D01*
X9445000Y-10861000D01*
X9412500Y-10893500D01*
X9445000Y-10926000D01*
D11*
X9763214Y-10786024D02*
X9782262Y-10786024D01*
X9782262Y-10786024D02*
X9801310Y-10795548D01*
X9801310Y-10795548D02*
X9810833Y-10805071D01*
X9810833Y-10805071D02*
X9820357Y-10824119D01*
X9820357Y-10824119D02*
X9829881Y-10862214D01*
X9829881Y-10862214D02*
X9829881Y-10909833D01*
X9829881Y-10909833D02*
X9820357Y-10947929D01*
X9820357Y-10947929D02*
X9810833Y-10966976D01*
X9810833Y-10966976D02*
X9801310Y-10976500D01*
X9801310Y-10976500D02*
X9782262Y-10986024D01*
X9782262Y-10986024D02*
X9763214Y-10986024D01*
X9763214Y-10986024D02*
X9744167Y-10976500D01*
X9744167Y-10976500D02*
X9734643Y-10966976D01*
X9734643Y-10966976D02*
X9725119Y-10947929D01*
X9725119Y-10947929D02*
X9715595Y-10909833D01*
X9715595Y-10909833D02*
X9715595Y-10862214D01*
X9715595Y-10862214D02*
X9725119Y-10824119D01*
X9725119Y-10824119D02*
X9734643Y-10805071D01*
X9734643Y-10805071D02*
X9744167Y-10795548D01*
X9744167Y-10795548D02*
X9763214Y-10786024D01*
X9915595Y-10966976D02*
X9925119Y-10976500D01*
X9925119Y-10976500D02*
X9915595Y-10986024D01*
X9915595Y-10986024D02*
X9906071Y-10976500D01*
X9906071Y-10976500D02*
X9915595Y-10966976D01*
X9915595Y-10966976D02*
X9915595Y-10986024D01*
X10096548Y-10786024D02*
X10058452Y-10786024D01*
X10058452Y-10786024D02*
X10039405Y-10795548D01*
X10039405Y-10795548D02*
X10029881Y-10805071D01*
X10029881Y-10805071D02*
X10010833Y-10833643D01*
X10010833Y-10833643D02*
X10001310Y-10871738D01*
X10001310Y-10871738D02*
X10001310Y-10947929D01*
X10001310Y-10947929D02*
X10010833Y-10966976D01*
X10010833Y-10966976D02*
X10020357Y-10976500D01*
X10020357Y-10976500D02*
X10039405Y-10986024D01*
X10039405Y-10986024D02*
X10077500Y-10986024D01*
X10077500Y-10986024D02*
X10096548Y-10976500D01*
X10096548Y-10976500D02*
X10106071Y-10966976D01*
X10106071Y-10966976D02*
X10115595Y-10947929D01*
X10115595Y-10947929D02*
X10115595Y-10900310D01*
X10115595Y-10900310D02*
X10106071Y-10881262D01*
X10106071Y-10881262D02*
X10096548Y-10871738D01*
X10096548Y-10871738D02*
X10077500Y-10862214D01*
X10077500Y-10862214D02*
X10039405Y-10862214D01*
X10039405Y-10862214D02*
X10020357Y-10871738D01*
X10020357Y-10871738D02*
X10010833Y-10881262D01*
X10010833Y-10881262D02*
X10001310Y-10900310D01*
X10296548Y-10786024D02*
X10201310Y-10786024D01*
X10201310Y-10786024D02*
X10191786Y-10881262D01*
X10191786Y-10881262D02*
X10201310Y-10871738D01*
X10201310Y-10871738D02*
X10220357Y-10862214D01*
X10220357Y-10862214D02*
X10267976Y-10862214D01*
X10267976Y-10862214D02*
X10287024Y-10871738D01*
X10287024Y-10871738D02*
X10296548Y-10881262D01*
X10296548Y-10881262D02*
X10306071Y-10900310D01*
X10306071Y-10900310D02*
X10306071Y-10947929D01*
X10306071Y-10947929D02*
X10296548Y-10966976D01*
X10296548Y-10966976D02*
X10287024Y-10976500D01*
X10287024Y-10976500D02*
X10267976Y-10986024D01*
X10267976Y-10986024D02*
X10220357Y-10986024D01*
X10220357Y-10986024D02*
X10201310Y-10976500D01*
X10201310Y-10976500D02*
X10191786Y-10966976D01*
X10429881Y-10786024D02*
X10448929Y-10786024D01*
X10448929Y-10786024D02*
X10467976Y-10795548D01*
X10467976Y-10795548D02*
X10477500Y-10805071D01*
X10477500Y-10805071D02*
X10487024Y-10824119D01*
X10487024Y-10824119D02*
X10496548Y-10862214D01*
X10496548Y-10862214D02*
X10496548Y-10909833D01*
X10496548Y-10909833D02*
X10487024Y-10947929D01*
X10487024Y-10947929D02*
X10477500Y-10966976D01*
X10477500Y-10966976D02*
X10467976Y-10976500D01*
X10467976Y-10976500D02*
X10448929Y-10986024D01*
X10448929Y-10986024D02*
X10429881Y-10986024D01*
X10429881Y-10986024D02*
X10410833Y-10976500D01*
X10410833Y-10976500D02*
X10401310Y-10966976D01*
X10401310Y-10966976D02*
X10391786Y-10947929D01*
X10391786Y-10947929D02*
X10382262Y-10909833D01*
X10382262Y-10909833D02*
X10382262Y-10862214D01*
X10382262Y-10862214D02*
X10391786Y-10824119D01*
X10391786Y-10824119D02*
X10401310Y-10805071D01*
X10401310Y-10805071D02*
X10410833Y-10795548D01*
X10410833Y-10795548D02*
X10429881Y-10786024D01*
X10582262Y-10986024D02*
X10582262Y-10852690D01*
X10582262Y-10871738D02*
X10591786Y-10862214D01*
X10591786Y-10862214D02*
X10610833Y-10852690D01*
X10610833Y-10852690D02*
X10639405Y-10852690D01*
X10639405Y-10852690D02*
X10658452Y-10862214D01*
X10658452Y-10862214D02*
X10667976Y-10881262D01*
X10667976Y-10881262D02*
X10667976Y-10986024D01*
X10667976Y-10881262D02*
X10677500Y-10862214D01*
X10677500Y-10862214D02*
X10696548Y-10852690D01*
X10696548Y-10852690D02*
X10725119Y-10852690D01*
X10725119Y-10852690D02*
X10744167Y-10862214D01*
X10744167Y-10862214D02*
X10753691Y-10881262D01*
X10753691Y-10881262D02*
X10753691Y-10986024D01*
X10848929Y-10986024D02*
X10848929Y-10852690D01*
X10848929Y-10871738D02*
X10858452Y-10862214D01*
X10858452Y-10862214D02*
X10877500Y-10852690D01*
X10877500Y-10852690D02*
X10906072Y-10852690D01*
X10906072Y-10852690D02*
X10925119Y-10862214D01*
X10925119Y-10862214D02*
X10934643Y-10881262D01*
X10934643Y-10881262D02*
X10934643Y-10986024D01*
X10934643Y-10881262D02*
X10944167Y-10862214D01*
X10944167Y-10862214D02*
X10963214Y-10852690D01*
X10963214Y-10852690D02*
X10991786Y-10852690D01*
X10991786Y-10852690D02*
X11010833Y-10862214D01*
X11010833Y-10862214D02*
X11020357Y-10881262D01*
X11020357Y-10881262D02*
X11020357Y-10986024D01*
X11410833Y-10776500D02*
X11239405Y-11033643D01*
X11667976Y-10786024D02*
X11687024Y-10786024D01*
X11687024Y-10786024D02*
X11706072Y-10795548D01*
X11706072Y-10795548D02*
X11715595Y-10805071D01*
X11715595Y-10805071D02*
X11725119Y-10824119D01*
X11725119Y-10824119D02*
X11734643Y-10862214D01*
X11734643Y-10862214D02*
X11734643Y-10909833D01*
X11734643Y-10909833D02*
X11725119Y-10947929D01*
X11725119Y-10947929D02*
X11715595Y-10966976D01*
X11715595Y-10966976D02*
X11706072Y-10976500D01*
X11706072Y-10976500D02*
X11687024Y-10986024D01*
X11687024Y-10986024D02*
X11667976Y-10986024D01*
X11667976Y-10986024D02*
X11648929Y-10976500D01*
X11648929Y-10976500D02*
X11639405Y-10966976D01*
X11639405Y-10966976D02*
X11629881Y-10947929D01*
X11629881Y-10947929D02*
X11620357Y-10909833D01*
X11620357Y-10909833D02*
X11620357Y-10862214D01*
X11620357Y-10862214D02*
X11629881Y-10824119D01*
X11629881Y-10824119D02*
X11639405Y-10805071D01*
X11639405Y-10805071D02*
X11648929Y-10795548D01*
X11648929Y-10795548D02*
X11667976Y-10786024D01*
X11820357Y-10966976D02*
X11829881Y-10976500D01*
X11829881Y-10976500D02*
X11820357Y-10986024D01*
X11820357Y-10986024D02*
X11810833Y-10976500D01*
X11810833Y-10976500D02*
X11820357Y-10966976D01*
X11820357Y-10966976D02*
X11820357Y-10986024D01*
X11953691Y-10786024D02*
X11972738Y-10786024D01*
X11972738Y-10786024D02*
X11991786Y-10795548D01*
X11991786Y-10795548D02*
X12001310Y-10805071D01*
X12001310Y-10805071D02*
X12010833Y-10824119D01*
X12010833Y-10824119D02*
X12020357Y-10862214D01*
X12020357Y-10862214D02*
X12020357Y-10909833D01*
X12020357Y-10909833D02*
X12010833Y-10947929D01*
X12010833Y-10947929D02*
X12001310Y-10966976D01*
X12001310Y-10966976D02*
X11991786Y-10976500D01*
X11991786Y-10976500D02*
X11972738Y-10986024D01*
X11972738Y-10986024D02*
X11953691Y-10986024D01*
X11953691Y-10986024D02*
X11934643Y-10976500D01*
X11934643Y-10976500D02*
X11925119Y-10966976D01*
X11925119Y-10966976D02*
X11915595Y-10947929D01*
X11915595Y-10947929D02*
X11906072Y-10909833D01*
X11906072Y-10909833D02*
X11906072Y-10862214D01*
X11906072Y-10862214D02*
X11915595Y-10824119D01*
X11915595Y-10824119D02*
X11925119Y-10805071D01*
X11925119Y-10805071D02*
X11934643Y-10795548D01*
X11934643Y-10795548D02*
X11953691Y-10786024D01*
X12096548Y-10805071D02*
X12106072Y-10795548D01*
X12106072Y-10795548D02*
X12125119Y-10786024D01*
X12125119Y-10786024D02*
X12172738Y-10786024D01*
X12172738Y-10786024D02*
X12191786Y-10795548D01*
X12191786Y-10795548D02*
X12201310Y-10805071D01*
X12201310Y-10805071D02*
X12210833Y-10824119D01*
X12210833Y-10824119D02*
X12210833Y-10843167D01*
X12210833Y-10843167D02*
X12201310Y-10871738D01*
X12201310Y-10871738D02*
X12087024Y-10986024D01*
X12087024Y-10986024D02*
X12210833Y-10986024D01*
X12391786Y-10786024D02*
X12296548Y-10786024D01*
X12296548Y-10786024D02*
X12287024Y-10881262D01*
X12287024Y-10881262D02*
X12296548Y-10871738D01*
X12296548Y-10871738D02*
X12315595Y-10862214D01*
X12315595Y-10862214D02*
X12363214Y-10862214D01*
X12363214Y-10862214D02*
X12382262Y-10871738D01*
X12382262Y-10871738D02*
X12391786Y-10881262D01*
X12391786Y-10881262D02*
X12401310Y-10900310D01*
X12401310Y-10900310D02*
X12401310Y-10947929D01*
X12401310Y-10947929D02*
X12391786Y-10966976D01*
X12391786Y-10966976D02*
X12382262Y-10976500D01*
X12382262Y-10976500D02*
X12363214Y-10986024D01*
X12363214Y-10986024D02*
X12315595Y-10986024D01*
X12315595Y-10986024D02*
X12296548Y-10976500D01*
X12296548Y-10976500D02*
X12287024Y-10966976D01*
X12572738Y-10786024D02*
X12534643Y-10786024D01*
X12534643Y-10786024D02*
X12515595Y-10795548D01*
X12515595Y-10795548D02*
X12506072Y-10805071D01*
X12506072Y-10805071D02*
X12487024Y-10833643D01*
X12487024Y-10833643D02*
X12477500Y-10871738D01*
X12477500Y-10871738D02*
X12477500Y-10947929D01*
X12477500Y-10947929D02*
X12487024Y-10966976D01*
X12487024Y-10966976D02*
X12496548Y-10976500D01*
X12496548Y-10976500D02*
X12515595Y-10986024D01*
X12515595Y-10986024D02*
X12553691Y-10986024D01*
X12553691Y-10986024D02*
X12572738Y-10976500D01*
X12572738Y-10976500D02*
X12582262Y-10966976D01*
X12582262Y-10966976D02*
X12591786Y-10947929D01*
X12591786Y-10947929D02*
X12591786Y-10900310D01*
X12591786Y-10900310D02*
X12582262Y-10881262D01*
X12582262Y-10881262D02*
X12572738Y-10871738D01*
X12572738Y-10871738D02*
X12553691Y-10862214D01*
X12553691Y-10862214D02*
X12515595Y-10862214D01*
X12515595Y-10862214D02*
X12496548Y-10871738D01*
X12496548Y-10871738D02*
X12487024Y-10881262D01*
X12487024Y-10881262D02*
X12477500Y-10900310D01*
X12667976Y-10786024D02*
X12667976Y-10824119D01*
X12744167Y-10786024D02*
X12744167Y-10824119D01*
X13039405Y-11062214D02*
X13029881Y-11052690D01*
X13029881Y-11052690D02*
X13010834Y-11024119D01*
X13010834Y-11024119D02*
X13001310Y-11005071D01*
X13001310Y-11005071D02*
X12991786Y-10976500D01*
X12991786Y-10976500D02*
X12982262Y-10928881D01*
X12982262Y-10928881D02*
X12982262Y-10890786D01*
X12982262Y-10890786D02*
X12991786Y-10843167D01*
X12991786Y-10843167D02*
X13001310Y-10814595D01*
X13001310Y-10814595D02*
X13010834Y-10795548D01*
X13010834Y-10795548D02*
X13029881Y-10766976D01*
X13029881Y-10766976D02*
X13039405Y-10757452D01*
X13106072Y-10805071D02*
X13115595Y-10795548D01*
X13115595Y-10795548D02*
X13134643Y-10786024D01*
X13134643Y-10786024D02*
X13182262Y-10786024D01*
X13182262Y-10786024D02*
X13201310Y-10795548D01*
X13201310Y-10795548D02*
X13210834Y-10805071D01*
X13210834Y-10805071D02*
X13220357Y-10824119D01*
X13220357Y-10824119D02*
X13220357Y-10843167D01*
X13220357Y-10843167D02*
X13210834Y-10871738D01*
X13210834Y-10871738D02*
X13096548Y-10986024D01*
X13096548Y-10986024D02*
X13220357Y-10986024D01*
X13458453Y-10986024D02*
X13458453Y-10786024D01*
X13544167Y-10986024D02*
X13544167Y-10881262D01*
X13544167Y-10881262D02*
X13534643Y-10862214D01*
X13534643Y-10862214D02*
X13515596Y-10852690D01*
X13515596Y-10852690D02*
X13487024Y-10852690D01*
X13487024Y-10852690D02*
X13467976Y-10862214D01*
X13467976Y-10862214D02*
X13458453Y-10871738D01*
X13667976Y-10986024D02*
X13648929Y-10976500D01*
X13648929Y-10976500D02*
X13639405Y-10966976D01*
X13639405Y-10966976D02*
X13629881Y-10947929D01*
X13629881Y-10947929D02*
X13629881Y-10890786D01*
X13629881Y-10890786D02*
X13639405Y-10871738D01*
X13639405Y-10871738D02*
X13648929Y-10862214D01*
X13648929Y-10862214D02*
X13667976Y-10852690D01*
X13667976Y-10852690D02*
X13696548Y-10852690D01*
X13696548Y-10852690D02*
X13715596Y-10862214D01*
X13715596Y-10862214D02*
X13725119Y-10871738D01*
X13725119Y-10871738D02*
X13734643Y-10890786D01*
X13734643Y-10890786D02*
X13734643Y-10947929D01*
X13734643Y-10947929D02*
X13725119Y-10966976D01*
X13725119Y-10966976D02*
X13715596Y-10976500D01*
X13715596Y-10976500D02*
X13696548Y-10986024D01*
X13696548Y-10986024D02*
X13667976Y-10986024D01*
X13848929Y-10986024D02*
X13829881Y-10976500D01*
X13829881Y-10976500D02*
X13820357Y-10957452D01*
X13820357Y-10957452D02*
X13820357Y-10786024D01*
X14001310Y-10976500D02*
X13982262Y-10986024D01*
X13982262Y-10986024D02*
X13944167Y-10986024D01*
X13944167Y-10986024D02*
X13925119Y-10976500D01*
X13925119Y-10976500D02*
X13915596Y-10957452D01*
X13915596Y-10957452D02*
X13915596Y-10881262D01*
X13915596Y-10881262D02*
X13925119Y-10862214D01*
X13925119Y-10862214D02*
X13944167Y-10852690D01*
X13944167Y-10852690D02*
X13982262Y-10852690D01*
X13982262Y-10852690D02*
X14001310Y-10862214D01*
X14001310Y-10862214D02*
X14010834Y-10881262D01*
X14010834Y-10881262D02*
X14010834Y-10900310D01*
X14010834Y-10900310D02*
X13915596Y-10919357D01*
X14087024Y-10976500D02*
X14106072Y-10986024D01*
X14106072Y-10986024D02*
X14144167Y-10986024D01*
X14144167Y-10986024D02*
X14163215Y-10976500D01*
X14163215Y-10976500D02*
X14172738Y-10957452D01*
X14172738Y-10957452D02*
X14172738Y-10947929D01*
X14172738Y-10947929D02*
X14163215Y-10928881D01*
X14163215Y-10928881D02*
X14144167Y-10919357D01*
X14144167Y-10919357D02*
X14115596Y-10919357D01*
X14115596Y-10919357D02*
X14096548Y-10909833D01*
X14096548Y-10909833D02*
X14087024Y-10890786D01*
X14087024Y-10890786D02*
X14087024Y-10881262D01*
X14087024Y-10881262D02*
X14096548Y-10862214D01*
X14096548Y-10862214D02*
X14115596Y-10852690D01*
X14115596Y-10852690D02*
X14144167Y-10852690D01*
X14144167Y-10852690D02*
X14163215Y-10862214D01*
X14239405Y-11062214D02*
X14248929Y-11052690D01*
X14248929Y-11052690D02*
X14267977Y-11024119D01*
X14267977Y-11024119D02*
X14277500Y-11005071D01*
X14277500Y-11005071D02*
X14287024Y-10976500D01*
X14287024Y-10976500D02*
X14296548Y-10928881D01*
X14296548Y-10928881D02*
X14296548Y-10890786D01*
X14296548Y-10890786D02*
X14287024Y-10843167D01*
X14287024Y-10843167D02*
X14277500Y-10814595D01*
X14277500Y-10814595D02*
X14267977Y-10795548D01*
X14267977Y-10795548D02*
X14248929Y-10766976D01*
X14248929Y-10766976D02*
X14239405Y-10757452D01*
X14601310Y-11062214D02*
X14591786Y-11052690D01*
X14591786Y-11052690D02*
X14572738Y-11024119D01*
X14572738Y-11024119D02*
X14563215Y-11005071D01*
X14563215Y-11005071D02*
X14553691Y-10976500D01*
X14553691Y-10976500D02*
X14544167Y-10928881D01*
X14544167Y-10928881D02*
X14544167Y-10890786D01*
X14544167Y-10890786D02*
X14553691Y-10843167D01*
X14553691Y-10843167D02*
X14563215Y-10814595D01*
X14563215Y-10814595D02*
X14572738Y-10795548D01*
X14572738Y-10795548D02*
X14591786Y-10766976D01*
X14591786Y-10766976D02*
X14601310Y-10757452D01*
X14677500Y-10852690D02*
X14677500Y-10986024D01*
X14677500Y-10871738D02*
X14687024Y-10862214D01*
X14687024Y-10862214D02*
X14706072Y-10852690D01*
X14706072Y-10852690D02*
X14734643Y-10852690D01*
X14734643Y-10852690D02*
X14753691Y-10862214D01*
X14753691Y-10862214D02*
X14763215Y-10881262D01*
X14763215Y-10881262D02*
X14763215Y-10986024D01*
X14887024Y-10986024D02*
X14867977Y-10976500D01*
X14867977Y-10976500D02*
X14858453Y-10966976D01*
X14858453Y-10966976D02*
X14848929Y-10947929D01*
X14848929Y-10947929D02*
X14848929Y-10890786D01*
X14848929Y-10890786D02*
X14858453Y-10871738D01*
X14858453Y-10871738D02*
X14867977Y-10862214D01*
X14867977Y-10862214D02*
X14887024Y-10852690D01*
X14887024Y-10852690D02*
X14915596Y-10852690D01*
X14915596Y-10852690D02*
X14934643Y-10862214D01*
X14934643Y-10862214D02*
X14944167Y-10871738D01*
X14944167Y-10871738D02*
X14953691Y-10890786D01*
X14953691Y-10890786D02*
X14953691Y-10947929D01*
X14953691Y-10947929D02*
X14944167Y-10966976D01*
X14944167Y-10966976D02*
X14934643Y-10976500D01*
X14934643Y-10976500D02*
X14915596Y-10986024D01*
X14915596Y-10986024D02*
X14887024Y-10986024D01*
X15010834Y-10852690D02*
X15087024Y-10852690D01*
X15039405Y-10786024D02*
X15039405Y-10957452D01*
X15039405Y-10957452D02*
X15048929Y-10976500D01*
X15048929Y-10976500D02*
X15067977Y-10986024D01*
X15067977Y-10986024D02*
X15087024Y-10986024D01*
X15306072Y-10852690D02*
X15306072Y-11052690D01*
X15306072Y-10862214D02*
X15325119Y-10852690D01*
X15325119Y-10852690D02*
X15363215Y-10852690D01*
X15363215Y-10852690D02*
X15382262Y-10862214D01*
X15382262Y-10862214D02*
X15391786Y-10871738D01*
X15391786Y-10871738D02*
X15401310Y-10890786D01*
X15401310Y-10890786D02*
X15401310Y-10947929D01*
X15401310Y-10947929D02*
X15391786Y-10966976D01*
X15391786Y-10966976D02*
X15382262Y-10976500D01*
X15382262Y-10976500D02*
X15363215Y-10986024D01*
X15363215Y-10986024D02*
X15325119Y-10986024D01*
X15325119Y-10986024D02*
X15306072Y-10976500D01*
X15515596Y-10986024D02*
X15496548Y-10976500D01*
X15496548Y-10976500D02*
X15487024Y-10957452D01*
X15487024Y-10957452D02*
X15487024Y-10786024D01*
X15677500Y-10986024D02*
X15677500Y-10881262D01*
X15677500Y-10881262D02*
X15667977Y-10862214D01*
X15667977Y-10862214D02*
X15648929Y-10852690D01*
X15648929Y-10852690D02*
X15610834Y-10852690D01*
X15610834Y-10852690D02*
X15591786Y-10862214D01*
X15677500Y-10976500D02*
X15658453Y-10986024D01*
X15658453Y-10986024D02*
X15610834Y-10986024D01*
X15610834Y-10986024D02*
X15591786Y-10976500D01*
X15591786Y-10976500D02*
X15582262Y-10957452D01*
X15582262Y-10957452D02*
X15582262Y-10938405D01*
X15582262Y-10938405D02*
X15591786Y-10919357D01*
X15591786Y-10919357D02*
X15610834Y-10909833D01*
X15610834Y-10909833D02*
X15658453Y-10909833D01*
X15658453Y-10909833D02*
X15677500Y-10900310D01*
X15744167Y-10852690D02*
X15820358Y-10852690D01*
X15772739Y-10786024D02*
X15772739Y-10957452D01*
X15772739Y-10957452D02*
X15782262Y-10976500D01*
X15782262Y-10976500D02*
X15801310Y-10986024D01*
X15801310Y-10986024D02*
X15820358Y-10986024D01*
X15963215Y-10976500D02*
X15944167Y-10986024D01*
X15944167Y-10986024D02*
X15906072Y-10986024D01*
X15906072Y-10986024D02*
X15887024Y-10976500D01*
X15887024Y-10976500D02*
X15877500Y-10957452D01*
X15877500Y-10957452D02*
X15877500Y-10881262D01*
X15877500Y-10881262D02*
X15887024Y-10862214D01*
X15887024Y-10862214D02*
X15906072Y-10852690D01*
X15906072Y-10852690D02*
X15944167Y-10852690D01*
X15944167Y-10852690D02*
X15963215Y-10862214D01*
X15963215Y-10862214D02*
X15972739Y-10881262D01*
X15972739Y-10881262D02*
X15972739Y-10900310D01*
X15972739Y-10900310D02*
X15877500Y-10919357D01*
X16144167Y-10986024D02*
X16144167Y-10786024D01*
X16144167Y-10976500D02*
X16125120Y-10986024D01*
X16125120Y-10986024D02*
X16087024Y-10986024D01*
X16087024Y-10986024D02*
X16067977Y-10976500D01*
X16067977Y-10976500D02*
X16058453Y-10966976D01*
X16058453Y-10966976D02*
X16048929Y-10947929D01*
X16048929Y-10947929D02*
X16048929Y-10890786D01*
X16048929Y-10890786D02*
X16058453Y-10871738D01*
X16058453Y-10871738D02*
X16067977Y-10862214D01*
X16067977Y-10862214D02*
X16087024Y-10852690D01*
X16087024Y-10852690D02*
X16125120Y-10852690D01*
X16125120Y-10852690D02*
X16144167Y-10862214D01*
X16220358Y-11062214D02*
X16229881Y-11052690D01*
X16229881Y-11052690D02*
X16248929Y-11024119D01*
X16248929Y-11024119D02*
X16258453Y-11005071D01*
X16258453Y-11005071D02*
X16267977Y-10976500D01*
X16267977Y-10976500D02*
X16277500Y-10928881D01*
X16277500Y-10928881D02*
X16277500Y-10890786D01*
X16277500Y-10890786D02*
X16267977Y-10843167D01*
X16267977Y-10843167D02*
X16258453Y-10814595D01*
X16258453Y-10814595D02*
X16248929Y-10795548D01*
X16248929Y-10795548D02*
X16229881Y-10766976D01*
X16229881Y-10766976D02*
X16220358Y-10757452D01*
X9277500Y-11057500D02*
X9477500Y-11257500D01*
X9477500Y-11057500D02*
X9277500Y-11257500D01*
X9477500Y-11157500D02*
G75*
G03*
X9477500Y-11157500I-100000J0D01*
G01*
X9715595Y-11069071D02*
X9725119Y-11059548D01*
X9725119Y-11059548D02*
X9744167Y-11050024D01*
X9744167Y-11050024D02*
X9791786Y-11050024D01*
X9791786Y-11050024D02*
X9810833Y-11059548D01*
X9810833Y-11059548D02*
X9820357Y-11069071D01*
X9820357Y-11069071D02*
X9829881Y-11088119D01*
X9829881Y-11088119D02*
X9829881Y-11107167D01*
X9829881Y-11107167D02*
X9820357Y-11135738D01*
X9820357Y-11135738D02*
X9706071Y-11250024D01*
X9706071Y-11250024D02*
X9829881Y-11250024D01*
X9915595Y-11230976D02*
X9925119Y-11240500D01*
X9925119Y-11240500D02*
X9915595Y-11250024D01*
X9915595Y-11250024D02*
X9906071Y-11240500D01*
X9906071Y-11240500D02*
X9915595Y-11230976D01*
X9915595Y-11230976D02*
X9915595Y-11250024D01*
X10001310Y-11069071D02*
X10010833Y-11059548D01*
X10010833Y-11059548D02*
X10029881Y-11050024D01*
X10029881Y-11050024D02*
X10077500Y-11050024D01*
X10077500Y-11050024D02*
X10096548Y-11059548D01*
X10096548Y-11059548D02*
X10106071Y-11069071D01*
X10106071Y-11069071D02*
X10115595Y-11088119D01*
X10115595Y-11088119D02*
X10115595Y-11107167D01*
X10115595Y-11107167D02*
X10106071Y-11135738D01*
X10106071Y-11135738D02*
X9991786Y-11250024D01*
X9991786Y-11250024D02*
X10115595Y-11250024D01*
X10239405Y-11050024D02*
X10258452Y-11050024D01*
X10258452Y-11050024D02*
X10277500Y-11059548D01*
X10277500Y-11059548D02*
X10287024Y-11069071D01*
X10287024Y-11069071D02*
X10296548Y-11088119D01*
X10296548Y-11088119D02*
X10306071Y-11126214D01*
X10306071Y-11126214D02*
X10306071Y-11173833D01*
X10306071Y-11173833D02*
X10296548Y-11211928D01*
X10296548Y-11211928D02*
X10287024Y-11230976D01*
X10287024Y-11230976D02*
X10277500Y-11240500D01*
X10277500Y-11240500D02*
X10258452Y-11250024D01*
X10258452Y-11250024D02*
X10239405Y-11250024D01*
X10239405Y-11250024D02*
X10220357Y-11240500D01*
X10220357Y-11240500D02*
X10210833Y-11230976D01*
X10210833Y-11230976D02*
X10201310Y-11211928D01*
X10201310Y-11211928D02*
X10191786Y-11173833D01*
X10191786Y-11173833D02*
X10191786Y-11126214D01*
X10191786Y-11126214D02*
X10201310Y-11088119D01*
X10201310Y-11088119D02*
X10210833Y-11069071D01*
X10210833Y-11069071D02*
X10220357Y-11059548D01*
X10220357Y-11059548D02*
X10239405Y-11050024D01*
X10429881Y-11050024D02*
X10448929Y-11050024D01*
X10448929Y-11050024D02*
X10467976Y-11059548D01*
X10467976Y-11059548D02*
X10477500Y-11069071D01*
X10477500Y-11069071D02*
X10487024Y-11088119D01*
X10487024Y-11088119D02*
X10496548Y-11126214D01*
X10496548Y-11126214D02*
X10496548Y-11173833D01*
X10496548Y-11173833D02*
X10487024Y-11211928D01*
X10487024Y-11211928D02*
X10477500Y-11230976D01*
X10477500Y-11230976D02*
X10467976Y-11240500D01*
X10467976Y-11240500D02*
X10448929Y-11250024D01*
X10448929Y-11250024D02*
X10429881Y-11250024D01*
X10429881Y-11250024D02*
X10410833Y-11240500D01*
X10410833Y-11240500D02*
X10401310Y-11230976D01*
X10401310Y-11230976D02*
X10391786Y-11211928D01*
X10391786Y-11211928D02*
X10382262Y-11173833D01*
X10382262Y-11173833D02*
X10382262Y-11126214D01*
X10382262Y-11126214D02*
X10391786Y-11088119D01*
X10391786Y-11088119D02*
X10401310Y-11069071D01*
X10401310Y-11069071D02*
X10410833Y-11059548D01*
X10410833Y-11059548D02*
X10429881Y-11050024D01*
X10582262Y-11250024D02*
X10582262Y-11116690D01*
X10582262Y-11135738D02*
X10591786Y-11126214D01*
X10591786Y-11126214D02*
X10610833Y-11116690D01*
X10610833Y-11116690D02*
X10639405Y-11116690D01*
X10639405Y-11116690D02*
X10658452Y-11126214D01*
X10658452Y-11126214D02*
X10667976Y-11145262D01*
X10667976Y-11145262D02*
X10667976Y-11250024D01*
X10667976Y-11145262D02*
X10677500Y-11126214D01*
X10677500Y-11126214D02*
X10696548Y-11116690D01*
X10696548Y-11116690D02*
X10725119Y-11116690D01*
X10725119Y-11116690D02*
X10744167Y-11126214D01*
X10744167Y-11126214D02*
X10753691Y-11145262D01*
X10753691Y-11145262D02*
X10753691Y-11250024D01*
X10848929Y-11250024D02*
X10848929Y-11116690D01*
X10848929Y-11135738D02*
X10858452Y-11126214D01*
X10858452Y-11126214D02*
X10877500Y-11116690D01*
X10877500Y-11116690D02*
X10906072Y-11116690D01*
X10906072Y-11116690D02*
X10925119Y-11126214D01*
X10925119Y-11126214D02*
X10934643Y-11145262D01*
X10934643Y-11145262D02*
X10934643Y-11250024D01*
X10934643Y-11145262D02*
X10944167Y-11126214D01*
X10944167Y-11126214D02*
X10963214Y-11116690D01*
X10963214Y-11116690D02*
X10991786Y-11116690D01*
X10991786Y-11116690D02*
X11010833Y-11126214D01*
X11010833Y-11126214D02*
X11020357Y-11145262D01*
X11020357Y-11145262D02*
X11020357Y-11250024D01*
X11410833Y-11040500D02*
X11239405Y-11297643D01*
X11667976Y-11050024D02*
X11687024Y-11050024D01*
X11687024Y-11050024D02*
X11706072Y-11059548D01*
X11706072Y-11059548D02*
X11715595Y-11069071D01*
X11715595Y-11069071D02*
X11725119Y-11088119D01*
X11725119Y-11088119D02*
X11734643Y-11126214D01*
X11734643Y-11126214D02*
X11734643Y-11173833D01*
X11734643Y-11173833D02*
X11725119Y-11211928D01*
X11725119Y-11211928D02*
X11715595Y-11230976D01*
X11715595Y-11230976D02*
X11706072Y-11240500D01*
X11706072Y-11240500D02*
X11687024Y-11250024D01*
X11687024Y-11250024D02*
X11667976Y-11250024D01*
X11667976Y-11250024D02*
X11648929Y-11240500D01*
X11648929Y-11240500D02*
X11639405Y-11230976D01*
X11639405Y-11230976D02*
X11629881Y-11211928D01*
X11629881Y-11211928D02*
X11620357Y-11173833D01*
X11620357Y-11173833D02*
X11620357Y-11126214D01*
X11620357Y-11126214D02*
X11629881Y-11088119D01*
X11629881Y-11088119D02*
X11639405Y-11069071D01*
X11639405Y-11069071D02*
X11648929Y-11059548D01*
X11648929Y-11059548D02*
X11667976Y-11050024D01*
X11820357Y-11230976D02*
X11829881Y-11240500D01*
X11829881Y-11240500D02*
X11820357Y-11250024D01*
X11820357Y-11250024D02*
X11810833Y-11240500D01*
X11810833Y-11240500D02*
X11820357Y-11230976D01*
X11820357Y-11230976D02*
X11820357Y-11250024D01*
X11953691Y-11050024D02*
X11972738Y-11050024D01*
X11972738Y-11050024D02*
X11991786Y-11059548D01*
X11991786Y-11059548D02*
X12001310Y-11069071D01*
X12001310Y-11069071D02*
X12010833Y-11088119D01*
X12010833Y-11088119D02*
X12020357Y-11126214D01*
X12020357Y-11126214D02*
X12020357Y-11173833D01*
X12020357Y-11173833D02*
X12010833Y-11211928D01*
X12010833Y-11211928D02*
X12001310Y-11230976D01*
X12001310Y-11230976D02*
X11991786Y-11240500D01*
X11991786Y-11240500D02*
X11972738Y-11250024D01*
X11972738Y-11250024D02*
X11953691Y-11250024D01*
X11953691Y-11250024D02*
X11934643Y-11240500D01*
X11934643Y-11240500D02*
X11925119Y-11230976D01*
X11925119Y-11230976D02*
X11915595Y-11211928D01*
X11915595Y-11211928D02*
X11906072Y-11173833D01*
X11906072Y-11173833D02*
X11906072Y-11126214D01*
X11906072Y-11126214D02*
X11915595Y-11088119D01*
X11915595Y-11088119D02*
X11925119Y-11069071D01*
X11925119Y-11069071D02*
X11934643Y-11059548D01*
X11934643Y-11059548D02*
X11953691Y-11050024D01*
X12134643Y-11135738D02*
X12115595Y-11126214D01*
X12115595Y-11126214D02*
X12106072Y-11116690D01*
X12106072Y-11116690D02*
X12096548Y-11097643D01*
X12096548Y-11097643D02*
X12096548Y-11088119D01*
X12096548Y-11088119D02*
X12106072Y-11069071D01*
X12106072Y-11069071D02*
X12115595Y-11059548D01*
X12115595Y-11059548D02*
X12134643Y-11050024D01*
X12134643Y-11050024D02*
X12172738Y-11050024D01*
X12172738Y-11050024D02*
X12191786Y-11059548D01*
X12191786Y-11059548D02*
X12201310Y-11069071D01*
X12201310Y-11069071D02*
X12210833Y-11088119D01*
X12210833Y-11088119D02*
X12210833Y-11097643D01*
X12210833Y-11097643D02*
X12201310Y-11116690D01*
X12201310Y-11116690D02*
X12191786Y-11126214D01*
X12191786Y-11126214D02*
X12172738Y-11135738D01*
X12172738Y-11135738D02*
X12134643Y-11135738D01*
X12134643Y-11135738D02*
X12115595Y-11145262D01*
X12115595Y-11145262D02*
X12106072Y-11154786D01*
X12106072Y-11154786D02*
X12096548Y-11173833D01*
X12096548Y-11173833D02*
X12096548Y-11211928D01*
X12096548Y-11211928D02*
X12106072Y-11230976D01*
X12106072Y-11230976D02*
X12115595Y-11240500D01*
X12115595Y-11240500D02*
X12134643Y-11250024D01*
X12134643Y-11250024D02*
X12172738Y-11250024D01*
X12172738Y-11250024D02*
X12191786Y-11240500D01*
X12191786Y-11240500D02*
X12201310Y-11230976D01*
X12201310Y-11230976D02*
X12210833Y-11211928D01*
X12210833Y-11211928D02*
X12210833Y-11173833D01*
X12210833Y-11173833D02*
X12201310Y-11154786D01*
X12201310Y-11154786D02*
X12191786Y-11145262D01*
X12191786Y-11145262D02*
X12172738Y-11135738D01*
X12382262Y-11050024D02*
X12344167Y-11050024D01*
X12344167Y-11050024D02*
X12325119Y-11059548D01*
X12325119Y-11059548D02*
X12315595Y-11069071D01*
X12315595Y-11069071D02*
X12296548Y-11097643D01*
X12296548Y-11097643D02*
X12287024Y-11135738D01*
X12287024Y-11135738D02*
X12287024Y-11211928D01*
X12287024Y-11211928D02*
X12296548Y-11230976D01*
X12296548Y-11230976D02*
X12306072Y-11240500D01*
X12306072Y-11240500D02*
X12325119Y-11250024D01*
X12325119Y-11250024D02*
X12363214Y-11250024D01*
X12363214Y-11250024D02*
X12382262Y-11240500D01*
X12382262Y-11240500D02*
X12391786Y-11230976D01*
X12391786Y-11230976D02*
X12401310Y-11211928D01*
X12401310Y-11211928D02*
X12401310Y-11164310D01*
X12401310Y-11164310D02*
X12391786Y-11145262D01*
X12391786Y-11145262D02*
X12382262Y-11135738D01*
X12382262Y-11135738D02*
X12363214Y-11126214D01*
X12363214Y-11126214D02*
X12325119Y-11126214D01*
X12325119Y-11126214D02*
X12306072Y-11135738D01*
X12306072Y-11135738D02*
X12296548Y-11145262D01*
X12296548Y-11145262D02*
X12287024Y-11164310D01*
X12572738Y-11050024D02*
X12534643Y-11050024D01*
X12534643Y-11050024D02*
X12515595Y-11059548D01*
X12515595Y-11059548D02*
X12506072Y-11069071D01*
X12506072Y-11069071D02*
X12487024Y-11097643D01*
X12487024Y-11097643D02*
X12477500Y-11135738D01*
X12477500Y-11135738D02*
X12477500Y-11211928D01*
X12477500Y-11211928D02*
X12487024Y-11230976D01*
X12487024Y-11230976D02*
X12496548Y-11240500D01*
X12496548Y-11240500D02*
X12515595Y-11250024D01*
X12515595Y-11250024D02*
X12553691Y-11250024D01*
X12553691Y-11250024D02*
X12572738Y-11240500D01*
X12572738Y-11240500D02*
X12582262Y-11230976D01*
X12582262Y-11230976D02*
X12591786Y-11211928D01*
X12591786Y-11211928D02*
X12591786Y-11164310D01*
X12591786Y-11164310D02*
X12582262Y-11145262D01*
X12582262Y-11145262D02*
X12572738Y-11135738D01*
X12572738Y-11135738D02*
X12553691Y-11126214D01*
X12553691Y-11126214D02*
X12515595Y-11126214D01*
X12515595Y-11126214D02*
X12496548Y-11135738D01*
X12496548Y-11135738D02*
X12487024Y-11145262D01*
X12487024Y-11145262D02*
X12477500Y-11164310D01*
X12667976Y-11050024D02*
X12667976Y-11088119D01*
X12744167Y-11050024D02*
X12744167Y-11088119D01*
X13039405Y-11326214D02*
X13029881Y-11316690D01*
X13029881Y-11316690D02*
X13010834Y-11288119D01*
X13010834Y-11288119D02*
X13001310Y-11269071D01*
X13001310Y-11269071D02*
X12991786Y-11240500D01*
X12991786Y-11240500D02*
X12982262Y-11192881D01*
X12982262Y-11192881D02*
X12982262Y-11154786D01*
X12982262Y-11154786D02*
X12991786Y-11107167D01*
X12991786Y-11107167D02*
X13001310Y-11078595D01*
X13001310Y-11078595D02*
X13010834Y-11059548D01*
X13010834Y-11059548D02*
X13029881Y-11030976D01*
X13029881Y-11030976D02*
X13039405Y-11021452D01*
X13201310Y-11116690D02*
X13201310Y-11250024D01*
X13153691Y-11040500D02*
X13106072Y-11183357D01*
X13106072Y-11183357D02*
X13229881Y-11183357D01*
X13458453Y-11250024D02*
X13458453Y-11050024D01*
X13544167Y-11250024D02*
X13544167Y-11145262D01*
X13544167Y-11145262D02*
X13534643Y-11126214D01*
X13534643Y-11126214D02*
X13515596Y-11116690D01*
X13515596Y-11116690D02*
X13487024Y-11116690D01*
X13487024Y-11116690D02*
X13467976Y-11126214D01*
X13467976Y-11126214D02*
X13458453Y-11135738D01*
X13667976Y-11250024D02*
X13648929Y-11240500D01*
X13648929Y-11240500D02*
X13639405Y-11230976D01*
X13639405Y-11230976D02*
X13629881Y-11211928D01*
X13629881Y-11211928D02*
X13629881Y-11154786D01*
X13629881Y-11154786D02*
X13639405Y-11135738D01*
X13639405Y-11135738D02*
X13648929Y-11126214D01*
X13648929Y-11126214D02*
X13667976Y-11116690D01*
X13667976Y-11116690D02*
X13696548Y-11116690D01*
X13696548Y-11116690D02*
X13715596Y-11126214D01*
X13715596Y-11126214D02*
X13725119Y-11135738D01*
X13725119Y-11135738D02*
X13734643Y-11154786D01*
X13734643Y-11154786D02*
X13734643Y-11211928D01*
X13734643Y-11211928D02*
X13725119Y-11230976D01*
X13725119Y-11230976D02*
X13715596Y-11240500D01*
X13715596Y-11240500D02*
X13696548Y-11250024D01*
X13696548Y-11250024D02*
X13667976Y-11250024D01*
X13848929Y-11250024D02*
X13829881Y-11240500D01*
X13829881Y-11240500D02*
X13820357Y-11221452D01*
X13820357Y-11221452D02*
X13820357Y-11050024D01*
X14001310Y-11240500D02*
X13982262Y-11250024D01*
X13982262Y-11250024D02*
X13944167Y-11250024D01*
X13944167Y-11250024D02*
X13925119Y-11240500D01*
X13925119Y-11240500D02*
X13915596Y-11221452D01*
X13915596Y-11221452D02*
X13915596Y-11145262D01*
X13915596Y-11145262D02*
X13925119Y-11126214D01*
X13925119Y-11126214D02*
X13944167Y-11116690D01*
X13944167Y-11116690D02*
X13982262Y-11116690D01*
X13982262Y-11116690D02*
X14001310Y-11126214D01*
X14001310Y-11126214D02*
X14010834Y-11145262D01*
X14010834Y-11145262D02*
X14010834Y-11164310D01*
X14010834Y-11164310D02*
X13915596Y-11183357D01*
X14087024Y-11240500D02*
X14106072Y-11250024D01*
X14106072Y-11250024D02*
X14144167Y-11250024D01*
X14144167Y-11250024D02*
X14163215Y-11240500D01*
X14163215Y-11240500D02*
X14172738Y-11221452D01*
X14172738Y-11221452D02*
X14172738Y-11211928D01*
X14172738Y-11211928D02*
X14163215Y-11192881D01*
X14163215Y-11192881D02*
X14144167Y-11183357D01*
X14144167Y-11183357D02*
X14115596Y-11183357D01*
X14115596Y-11183357D02*
X14096548Y-11173833D01*
X14096548Y-11173833D02*
X14087024Y-11154786D01*
X14087024Y-11154786D02*
X14087024Y-11145262D01*
X14087024Y-11145262D02*
X14096548Y-11126214D01*
X14096548Y-11126214D02*
X14115596Y-11116690D01*
X14115596Y-11116690D02*
X14144167Y-11116690D01*
X14144167Y-11116690D02*
X14163215Y-11126214D01*
X14239405Y-11326214D02*
X14248929Y-11316690D01*
X14248929Y-11316690D02*
X14267977Y-11288119D01*
X14267977Y-11288119D02*
X14277500Y-11269071D01*
X14277500Y-11269071D02*
X14287024Y-11240500D01*
X14287024Y-11240500D02*
X14296548Y-11192881D01*
X14296548Y-11192881D02*
X14296548Y-11154786D01*
X14296548Y-11154786D02*
X14287024Y-11107167D01*
X14287024Y-11107167D02*
X14277500Y-11078595D01*
X14277500Y-11078595D02*
X14267977Y-11059548D01*
X14267977Y-11059548D02*
X14248929Y-11030976D01*
X14248929Y-11030976D02*
X14239405Y-11021452D01*
X14601310Y-11326214D02*
X14591786Y-11316690D01*
X14591786Y-11316690D02*
X14572738Y-11288119D01*
X14572738Y-11288119D02*
X14563215Y-11269071D01*
X14563215Y-11269071D02*
X14553691Y-11240500D01*
X14553691Y-11240500D02*
X14544167Y-11192881D01*
X14544167Y-11192881D02*
X14544167Y-11154786D01*
X14544167Y-11154786D02*
X14553691Y-11107167D01*
X14553691Y-11107167D02*
X14563215Y-11078595D01*
X14563215Y-11078595D02*
X14572738Y-11059548D01*
X14572738Y-11059548D02*
X14591786Y-11030976D01*
X14591786Y-11030976D02*
X14601310Y-11021452D01*
X14677500Y-11116690D02*
X14677500Y-11250024D01*
X14677500Y-11135738D02*
X14687024Y-11126214D01*
X14687024Y-11126214D02*
X14706072Y-11116690D01*
X14706072Y-11116690D02*
X14734643Y-11116690D01*
X14734643Y-11116690D02*
X14753691Y-11126214D01*
X14753691Y-11126214D02*
X14763215Y-11145262D01*
X14763215Y-11145262D02*
X14763215Y-11250024D01*
X14887024Y-11250024D02*
X14867977Y-11240500D01*
X14867977Y-11240500D02*
X14858453Y-11230976D01*
X14858453Y-11230976D02*
X14848929Y-11211928D01*
X14848929Y-11211928D02*
X14848929Y-11154786D01*
X14848929Y-11154786D02*
X14858453Y-11135738D01*
X14858453Y-11135738D02*
X14867977Y-11126214D01*
X14867977Y-11126214D02*
X14887024Y-11116690D01*
X14887024Y-11116690D02*
X14915596Y-11116690D01*
X14915596Y-11116690D02*
X14934643Y-11126214D01*
X14934643Y-11126214D02*
X14944167Y-11135738D01*
X14944167Y-11135738D02*
X14953691Y-11154786D01*
X14953691Y-11154786D02*
X14953691Y-11211928D01*
X14953691Y-11211928D02*
X14944167Y-11230976D01*
X14944167Y-11230976D02*
X14934643Y-11240500D01*
X14934643Y-11240500D02*
X14915596Y-11250024D01*
X14915596Y-11250024D02*
X14887024Y-11250024D01*
X15010834Y-11116690D02*
X15087024Y-11116690D01*
X15039405Y-11050024D02*
X15039405Y-11221452D01*
X15039405Y-11221452D02*
X15048929Y-11240500D01*
X15048929Y-11240500D02*
X15067977Y-11250024D01*
X15067977Y-11250024D02*
X15087024Y-11250024D01*
X15306072Y-11116690D02*
X15306072Y-11316690D01*
X15306072Y-11126214D02*
X15325119Y-11116690D01*
X15325119Y-11116690D02*
X15363215Y-11116690D01*
X15363215Y-11116690D02*
X15382262Y-11126214D01*
X15382262Y-11126214D02*
X15391786Y-11135738D01*
X15391786Y-11135738D02*
X15401310Y-11154786D01*
X15401310Y-11154786D02*
X15401310Y-11211928D01*
X15401310Y-11211928D02*
X15391786Y-11230976D01*
X15391786Y-11230976D02*
X15382262Y-11240500D01*
X15382262Y-11240500D02*
X15363215Y-11250024D01*
X15363215Y-11250024D02*
X15325119Y-11250024D01*
X15325119Y-11250024D02*
X15306072Y-11240500D01*
X15515596Y-11250024D02*
X15496548Y-11240500D01*
X15496548Y-11240500D02*
X15487024Y-11221452D01*
X15487024Y-11221452D02*
X15487024Y-11050024D01*
X15677500Y-11250024D02*
X15677500Y-11145262D01*
X15677500Y-11145262D02*
X15667977Y-11126214D01*
X15667977Y-11126214D02*
X15648929Y-11116690D01*
X15648929Y-11116690D02*
X15610834Y-11116690D01*
X15610834Y-11116690D02*
X15591786Y-11126214D01*
X15677500Y-11240500D02*
X15658453Y-11250024D01*
X15658453Y-11250024D02*
X15610834Y-11250024D01*
X15610834Y-11250024D02*
X15591786Y-11240500D01*
X15591786Y-11240500D02*
X15582262Y-11221452D01*
X15582262Y-11221452D02*
X15582262Y-11202405D01*
X15582262Y-11202405D02*
X15591786Y-11183357D01*
X15591786Y-11183357D02*
X15610834Y-11173833D01*
X15610834Y-11173833D02*
X15658453Y-11173833D01*
X15658453Y-11173833D02*
X15677500Y-11164310D01*
X15744167Y-11116690D02*
X15820358Y-11116690D01*
X15772739Y-11050024D02*
X15772739Y-11221452D01*
X15772739Y-11221452D02*
X15782262Y-11240500D01*
X15782262Y-11240500D02*
X15801310Y-11250024D01*
X15801310Y-11250024D02*
X15820358Y-11250024D01*
X15963215Y-11240500D02*
X15944167Y-11250024D01*
X15944167Y-11250024D02*
X15906072Y-11250024D01*
X15906072Y-11250024D02*
X15887024Y-11240500D01*
X15887024Y-11240500D02*
X15877500Y-11221452D01*
X15877500Y-11221452D02*
X15877500Y-11145262D01*
X15877500Y-11145262D02*
X15887024Y-11126214D01*
X15887024Y-11126214D02*
X15906072Y-11116690D01*
X15906072Y-11116690D02*
X15944167Y-11116690D01*
X15944167Y-11116690D02*
X15963215Y-11126214D01*
X15963215Y-11126214D02*
X15972739Y-11145262D01*
X15972739Y-11145262D02*
X15972739Y-11164310D01*
X15972739Y-11164310D02*
X15877500Y-11183357D01*
X16144167Y-11250024D02*
X16144167Y-11050024D01*
X16144167Y-11240500D02*
X16125120Y-11250024D01*
X16125120Y-11250024D02*
X16087024Y-11250024D01*
X16087024Y-11250024D02*
X16067977Y-11240500D01*
X16067977Y-11240500D02*
X16058453Y-11230976D01*
X16058453Y-11230976D02*
X16048929Y-11211928D01*
X16048929Y-11211928D02*
X16048929Y-11154786D01*
X16048929Y-11154786D02*
X16058453Y-11135738D01*
X16058453Y-11135738D02*
X16067977Y-11126214D01*
X16067977Y-11126214D02*
X16087024Y-11116690D01*
X16087024Y-11116690D02*
X16125120Y-11116690D01*
X16125120Y-11116690D02*
X16144167Y-11126214D01*
X16220358Y-11326214D02*
X16229881Y-11316690D01*
X16229881Y-11316690D02*
X16248929Y-11288119D01*
X16248929Y-11288119D02*
X16258453Y-11269071D01*
X16258453Y-11269071D02*
X16267977Y-11240500D01*
X16267977Y-11240500D02*
X16277500Y-11192881D01*
X16277500Y-11192881D02*
X16277500Y-11154786D01*
X16277500Y-11154786D02*
X16267977Y-11107167D01*
X16267977Y-11107167D02*
X16258453Y-11078595D01*
X16258453Y-11078595D02*
X16248929Y-11059548D01*
X16248929Y-11059548D02*
X16229881Y-11030976D01*
X16229881Y-11030976D02*
X16220358Y-11021452D01*
M02*
