%TF.GenerationSoftware,KiCad,Pcbnew,7.0.1*%
%TF.CreationDate,2023-04-17T02:54:27-04:00*%
%TF.ProjectId,DesktopSensorHub,4465736b-746f-4705-9365-6e736f724875,rev?*%
%TF.SameCoordinates,Original*%
%TF.FileFunction,Soldermask,Bot*%
%TF.FilePolarity,Negative*%
%FSLAX46Y46*%
G04 Gerber Fmt 4.6, Leading zero omitted, Abs format (unit mm)*
G04 Created by KiCad (PCBNEW 7.0.1) date 2023-04-17 02:54:27*
%MOMM*%
%LPD*%
G01*
G04 APERTURE LIST*
G04 Aperture macros list*
%AMRoundRect*
0 Rectangle with rounded corners*
0 $1 Rounding radius*
0 $2 $3 $4 $5 $6 $7 $8 $9 X,Y pos of 4 corners*
0 Add a 4 corners polygon primitive as box body*
4,1,4,$2,$3,$4,$5,$6,$7,$8,$9,$2,$3,0*
0 Add four circle primitives for the rounded corners*
1,1,$1+$1,$2,$3*
1,1,$1+$1,$4,$5*
1,1,$1+$1,$6,$7*
1,1,$1+$1,$8,$9*
0 Add four rect primitives between the rounded corners*
20,1,$1+$1,$2,$3,$4,$5,0*
20,1,$1+$1,$4,$5,$6,$7,0*
20,1,$1+$1,$6,$7,$8,$9,0*
20,1,$1+$1,$8,$9,$2,$3,0*%
G04 Aperture macros list end*
%ADD10C,2.200000*%
%ADD11RoundRect,0.250000X0.475000X-0.250000X0.475000X0.250000X-0.475000X0.250000X-0.475000X-0.250000X0*%
%ADD12RoundRect,0.140000X0.170000X-0.140000X0.170000X0.140000X-0.170000X0.140000X-0.170000X-0.140000X0*%
%ADD13RoundRect,0.140000X0.140000X0.170000X-0.140000X0.170000X-0.140000X-0.170000X0.140000X-0.170000X0*%
%ADD14R,2.000000X4.500000*%
%ADD15RoundRect,0.062500X0.117500X0.062500X-0.117500X0.062500X-0.117500X-0.062500X0.117500X-0.062500X0*%
%ADD16RoundRect,0.135000X-0.135000X-0.185000X0.135000X-0.185000X0.135000X0.185000X-0.135000X0.185000X0*%
%ADD17RoundRect,0.135000X0.135000X0.185000X-0.135000X0.185000X-0.135000X-0.185000X0.135000X-0.185000X0*%
%ADD18RoundRect,0.135000X0.185000X-0.135000X0.185000X0.135000X-0.185000X0.135000X-0.185000X-0.135000X0*%
%ADD19C,2.000000*%
%ADD20RoundRect,0.140000X-0.170000X0.140000X-0.170000X-0.140000X0.170000X-0.140000X0.170000X0.140000X0*%
%ADD21RoundRect,0.050000X0.050000X-0.387500X0.050000X0.387500X-0.050000X0.387500X-0.050000X-0.387500X0*%
%ADD22RoundRect,0.050000X0.387500X-0.050000X0.387500X0.050000X-0.387500X0.050000X-0.387500X-0.050000X0*%
%ADD23RoundRect,0.144000X1.456000X-1.456000X1.456000X1.456000X-1.456000X1.456000X-1.456000X-1.456000X0*%
%ADD24C,1.500000*%
%ADD25RoundRect,0.140000X-0.140000X-0.170000X0.140000X-0.170000X0.140000X0.170000X-0.140000X0.170000X0*%
%ADD26C,0.650000*%
%ADD27R,1.150000X0.600000*%
%ADD28R,1.150000X0.300000*%
%ADD29O,1.800000X1.000000*%
%ADD30O,2.100000X1.000000*%
%ADD31RoundRect,0.150000X0.150000X-0.650000X0.150000X0.650000X-0.150000X0.650000X-0.150000X-0.650000X0*%
%ADD32RoundRect,0.150000X0.512500X0.150000X-0.512500X0.150000X-0.512500X-0.150000X0.512500X-0.150000X0*%
G04 APERTURE END LIST*
D10*
%TO.C,REF\u002A\u002A*%
X98300000Y-88450000D03*
%TD*%
%TO.C,REF\u002A\u002A*%
X143000000Y-88450000D03*
%TD*%
%TO.C,REF\u002A\u002A*%
X143000000Y-66350000D03*
%TD*%
%TO.C,REF\u002A\u002A*%
X98300000Y-66350000D03*
%TD*%
D11*
%TO.C,C6*%
X136400000Y-68450000D03*
X136400000Y-66550000D03*
%TD*%
D12*
%TO.C,C19*%
X115600000Y-70200000D03*
X115600000Y-69240000D03*
%TD*%
D13*
%TO.C,C17*%
X110380000Y-80350000D03*
X109420000Y-80350000D03*
%TD*%
D14*
%TO.C,Y1*%
X99600000Y-81050000D03*
X99600000Y-72550000D03*
%TD*%
D15*
%TO.C,D1*%
X135530000Y-81500000D03*
X136370000Y-81500000D03*
%TD*%
D16*
%TO.C,R6*%
X105840000Y-72550000D03*
X106860000Y-72550000D03*
%TD*%
%TO.C,R7*%
X106240000Y-75900000D03*
X107260000Y-75900000D03*
%TD*%
D17*
%TO.C,R11*%
X137210000Y-72500000D03*
X136190000Y-72500000D03*
%TD*%
D12*
%TO.C,C9*%
X103050000Y-78530000D03*
X103050000Y-77570000D03*
%TD*%
D18*
%TO.C,R5*%
X111550000Y-81910000D03*
X111550000Y-80890000D03*
%TD*%
D19*
%TO.C,SW1*%
X138050000Y-89950000D03*
X138050000Y-83450000D03*
X133550000Y-89950000D03*
X133550000Y-83450000D03*
%TD*%
D20*
%TO.C,C8*%
X129500000Y-79190000D03*
X129500000Y-80150000D03*
%TD*%
D21*
%TO.C,U1*%
X115600000Y-79050000D03*
X115200000Y-79050000D03*
X114800000Y-79050000D03*
X114400000Y-79050000D03*
X114000000Y-79050000D03*
X113600000Y-79050000D03*
X113200000Y-79050000D03*
X112800000Y-79050000D03*
X112400000Y-79050000D03*
X112000000Y-79050000D03*
X111600000Y-79050000D03*
X111200000Y-79050000D03*
X110800000Y-79050000D03*
X110400000Y-79050000D03*
D22*
X109562500Y-78212500D03*
X109562500Y-77812500D03*
X109562500Y-77412500D03*
X109562500Y-77012500D03*
X109562500Y-76612500D03*
X109562500Y-76212500D03*
X109562500Y-75812500D03*
X109562500Y-75412500D03*
X109562500Y-75012500D03*
X109562500Y-74612500D03*
X109562500Y-74212500D03*
X109562500Y-73812500D03*
X109562500Y-73412500D03*
X109562500Y-73012500D03*
D21*
X110400000Y-72175000D03*
X110800000Y-72175000D03*
X111200000Y-72175000D03*
X111600000Y-72175000D03*
X112000000Y-72175000D03*
X112400000Y-72175000D03*
X112800000Y-72175000D03*
X113200000Y-72175000D03*
X113600000Y-72175000D03*
X114000000Y-72175000D03*
X114400000Y-72175000D03*
X114800000Y-72175000D03*
X115200000Y-72175000D03*
X115600000Y-72175000D03*
D22*
X116437500Y-73012500D03*
X116437500Y-73412500D03*
X116437500Y-73812500D03*
X116437500Y-74212500D03*
X116437500Y-74612500D03*
X116437500Y-75012500D03*
X116437500Y-75412500D03*
X116437500Y-75812500D03*
X116437500Y-76212500D03*
X116437500Y-76612500D03*
X116437500Y-77012500D03*
X116437500Y-77412500D03*
X116437500Y-77812500D03*
X116437500Y-78212500D03*
D23*
X113000000Y-75612500D03*
%TD*%
D16*
%TO.C,R1*%
X129440000Y-86600000D03*
X130460000Y-86600000D03*
%TD*%
D18*
%TO.C,R8*%
X112650000Y-81910000D03*
X112650000Y-80890000D03*
%TD*%
D24*
%TO.C,TP1*%
X125250000Y-68300000D03*
%TD*%
D17*
%TO.C,R12*%
X137365000Y-76050000D03*
X136345000Y-76050000D03*
%TD*%
D13*
%TO.C,C13*%
X106830000Y-73550000D03*
X105870000Y-73550000D03*
%TD*%
D24*
%TO.C,TP2*%
X133500000Y-77300000D03*
%TD*%
D17*
%TO.C,R2*%
X119860000Y-73600000D03*
X118840000Y-73600000D03*
%TD*%
D25*
%TO.C,C11*%
X118870000Y-72600000D03*
X119830000Y-72600000D03*
%TD*%
D12*
%TO.C,C1*%
X133800000Y-73530000D03*
X133800000Y-72570000D03*
%TD*%
D17*
%TO.C,R10*%
X130460000Y-85250000D03*
X129440000Y-85250000D03*
%TD*%
D26*
%TO.C,J1*%
X140495000Y-71410000D03*
X140495000Y-77190000D03*
D27*
X139420000Y-71100000D03*
X139420000Y-71900000D03*
D28*
X139420000Y-73050000D03*
X139420000Y-74050000D03*
X139420000Y-74550000D03*
X139420000Y-75550000D03*
D27*
X139420000Y-76700000D03*
X139420000Y-77500000D03*
X139420000Y-77500000D03*
X139420000Y-76700000D03*
D28*
X139420000Y-76050000D03*
X139420000Y-75050000D03*
X139420000Y-73550000D03*
X139420000Y-72550000D03*
D27*
X139420000Y-71900000D03*
X139420000Y-71100000D03*
D29*
X144175000Y-69980000D03*
D30*
X139995000Y-69980000D03*
D29*
X144175000Y-78620000D03*
D30*
X139995000Y-78620000D03*
%TD*%
D17*
%TO.C,R3*%
X119860000Y-74600000D03*
X118840000Y-74600000D03*
%TD*%
D12*
%TO.C,C20*%
X117700000Y-70150000D03*
X117700000Y-69190000D03*
%TD*%
D20*
%TO.C,C15*%
X115600000Y-80470000D03*
X115600000Y-81430000D03*
%TD*%
%TO.C,C2*%
X133800000Y-74620000D03*
X133800000Y-75580000D03*
%TD*%
D24*
%TO.C,TP3*%
X138950000Y-67450000D03*
%TD*%
D31*
%TO.C,U5*%
X127405000Y-86412500D03*
X126135000Y-86412500D03*
X124865000Y-86412500D03*
X123595000Y-86412500D03*
X123595000Y-79212500D03*
X124865000Y-79212500D03*
X126135000Y-79212500D03*
X127405000Y-79212500D03*
%TD*%
D25*
%TO.C,C12*%
X119970000Y-76612500D03*
X120930000Y-76612500D03*
%TD*%
D20*
%TO.C,C10*%
X103100000Y-74970000D03*
X103100000Y-75930000D03*
%TD*%
D25*
%TO.C,C14*%
X119970000Y-75612500D03*
X120930000Y-75612500D03*
%TD*%
D24*
%TO.C,TP4*%
X108450000Y-82300000D03*
%TD*%
D13*
%TO.C,C18*%
X106830000Y-74700000D03*
X105870000Y-74700000D03*
%TD*%
D32*
%TO.C,U3*%
X133587500Y-68250000D03*
X133587500Y-69200000D03*
X133587500Y-70150000D03*
X131312500Y-70150000D03*
X131312500Y-68250000D03*
%TD*%
D25*
%TO.C,C21*%
X118870000Y-71600000D03*
X119830000Y-71600000D03*
%TD*%
D12*
%TO.C,C16*%
X112000000Y-70180000D03*
X112000000Y-69220000D03*
%TD*%
D16*
%TO.C,R9*%
X110590000Y-84000000D03*
X111610000Y-84000000D03*
%TD*%
D11*
%TO.C,C7*%
X128500000Y-68300000D03*
X128500000Y-66400000D03*
%TD*%
M02*
