M48
; DRILL file {KiCad 7.0.1} date Mon 17 Apr 2023 02:54:30 AM EDT
; FORMAT={-:-/ absolute / metric / decimal}
; #@! TF.CreationDate,2023-04-17T02:54:30-04:00
; #@! TF.GenerationSoftware,Kicad,Pcbnew,7.0.1
; #@! TF.FileFunction,MixedPlating,1,2
FMAT,2
METRIC
; #@! TA.AperFunction,Plated,PTH,ViaDrill
T1C0.350
; #@! TA.AperFunction,Plated,PTH,ComponentDrill
T2C0.350
; #@! TA.AperFunction,Plated,PTH,ComponentDrill
T3C0.600
; #@! TA.AperFunction,Plated,PTH,ComponentDrill
T4C1.100
; #@! TA.AperFunction,NonPlated,NPTH,ComponentDrill
T5C0.650
; #@! TA.AperFunction,NonPlated,NPTH,ComponentDrill
T6C2.200
%
G90
G05
T1
X97.7Y-70.55
X97.7Y-83.0
X100.55Y-76.75
X101.4Y-70.5
X101.5Y-83.0
X101.55Y-77.45
X101.6Y-76.05
X103.05Y-79.45
X103.1Y-74.1
X105.05Y-73.55
X108.3Y-74.3
X108.4Y-77.35
X108.5Y-80.35
X110.95Y-74.95
X111.6Y-84.85
X112.0Y-68.25
X113.2Y-83.3
X113.475Y-79.95
X113.875Y-80.7
X115.05Y-75.0
X115.6Y-68.22
X115.6Y-82.35
X117.7Y-68.17
X117.75Y-75.812
X120.75Y-71.6
X120.75Y-72.6
X121.85Y-75.6
X121.85Y-76.6
X123.6Y-84.7
X129.5Y-81.05
X132.45Y-66.55
X134.8Y-72.57
X134.8Y-75.58
X138.25Y-71.1
X138.25Y-77.5
T2
X111.725Y-74.337
X111.725Y-75.612
X111.725Y-76.888
X113.0Y-74.337
X113.0Y-75.612
X113.0Y-76.888
X114.275Y-74.337
X114.275Y-75.612
X114.275Y-76.888
T4
X133.55Y-83.45
X133.55Y-89.95
X138.05Y-83.45
X138.05Y-89.95
T5
X140.495Y-71.41
X140.495Y-77.19
T6
X98.3Y-66.35
X98.3Y-88.45
X143.0Y-66.35
X143.0Y-88.45
T3
X140.545Y-69.98G85X139.445Y-69.98
G05
X140.545Y-78.62G85X139.445Y-78.62
G05
X144.575Y-69.98G85X143.775Y-69.98
G05
X144.575Y-78.62G85X143.775Y-78.62
G05
T0
M30
